<svg width="1402" height="498" viewBox="0 0 1402 498" fill="none" xmlns="http://www.w3.org/2000/svg">
<path fill-rule="evenodd" clip-rule="evenodd" d="M426.301 86.9004C431.239 86.9004 434.967 91.2498 434.155 96.1217C431.702 110.024 421.376 121.099 407.894 124.657L407.701 124.706V137.6C407.701 139.198 406.452 140.504 404.877 140.595L404.701 140.6C403.103 140.6 401.797 139.351 401.706 137.777L401.701 137.6V122.3C401.701 120.854 402.732 119.614 404.154 119.351C416.46 117.072 426.07 107.41 428.241 95.1072C428.436 93.937 427.548 92.9004 426.301 92.9004C425.354 92.9004 424.554 93.5724 424.353 94.5346C422.208 106.389 411.547 114.5 398.701 114.5C385.893 114.5 375.313 106.426 373.045 94.5144C372.892 93.6325 372.023 92.9004 371.101 92.9004C369.91 92.9004 368.972 93.9797 369.154 95.0753C371.337 107.354 380.985 117.08 393.247 119.351C394.61 119.603 395.614 120.753 395.695 122.121L395.701 122.3V137.6C395.701 139.257 394.357 140.6 392.701 140.6C391.103 140.6 389.797 139.351 389.706 137.777L389.701 137.6V124.705L389.514 124.657C376.209 121.138 365.931 110.208 363.324 96.5402L363.241 96.0936C362.438 91.2728 366.238 86.9004 371.101 86.9004C374.857 86.9004 378.154 89.6086 378.901 93.1933L378.948 93.4391C380.649 102.371 388.68 108.5 398.701 108.5C408.754 108.5 416.842 102.347 418.464 93.3885C419.252 89.6055 422.47 86.9004 426.301 86.9004Z" fill="#FE7624"/>
<path fill-rule="evenodd" clip-rule="evenodd" d="M514.1 86.9004C519.039 86.9004 522.767 91.2498 521.955 96.1217C519.501 110.024 509.176 121.099 495.694 124.657L495.5 124.706V137.6C495.5 139.198 494.252 140.504 492.677 140.595L492.5 140.6C490.903 140.6 489.597 139.351 489.506 137.777L489.5 137.6V122.3C489.5 120.854 490.532 119.614 491.954 119.351C504.26 117.072 513.87 107.41 516.041 95.1072C516.236 93.937 515.348 92.9004 514.1 92.9004C513.154 92.9004 512.354 93.5724 512.152 94.5346C510.007 106.389 499.347 114.5 486.5 114.5C473.693 114.5 463.113 106.426 460.845 94.5144C460.691 93.6325 459.823 92.9004 458.9 92.9004C457.71 92.9004 456.772 93.9797 456.954 95.0753C459.137 107.354 468.785 117.08 481.047 119.351C482.409 119.603 483.414 120.753 483.495 122.121L483.5 122.3V137.6C483.5 139.257 482.157 140.6 480.5 140.6C478.903 140.6 477.597 139.351 477.506 137.777L477.5 137.6V124.705L477.314 124.657C464.009 121.138 453.731 110.208 451.124 96.5402L451.041 96.0936C450.238 91.2728 454.038 86.9004 458.9 86.9004C462.657 86.9004 465.954 89.6086 466.701 93.1933L466.747 93.4391C468.449 102.371 476.48 108.5 486.5 108.5C496.554 108.5 504.641 102.347 506.263 93.3885C507.052 89.6055 510.27 86.9004 514.1 86.9004Z" fill="#FE7624"/>
<path fill-rule="evenodd" clip-rule="evenodd" d="M521.6 134.601C530.538 134.601 538.565 140.135 541.689 148.419L541.824 148.786L571.923 232.586C575.326 242.049 575.06 252.336 571.181 261.467L570.958 261.982L569.154 266.192C565.772 274.005 557.98 279.101 549.4 279.101C547.744 279.101 546.4 277.757 546.4 276.101C546.4 274.444 547.744 273.101 549.4 273.101C555.478 273.101 561.009 269.557 563.505 264.128L563.643 263.819L565.456 259.588C568.863 251.879 569.211 243.184 566.457 235.128L566.277 234.615L536.174 150.807C534.041 144.817 528.344 140.745 521.944 140.604L521.6 140.601H338.6C332.372 140.601 326.756 144.384 324.327 150.168L324.195 150.491L291.7 233.778C287.646 244.318 289.657 256.136 296.913 264.532L297.227 264.89L300.033 267.997C302.997 271.3 307.201 273.201 311.6 273.201C313.257 273.201 314.6 274.544 314.6 276.201C314.6 277.857 313.257 279.201 311.6 279.201C305.629 279.201 299.934 276.689 295.862 272.326L295.574 272.011L292.762 268.898C283.843 258.904 281.248 244.748 285.931 232.073L286.106 231.61L318.61 148.3C321.817 140.167 329.542 134.766 338.2 134.604L338.6 134.601H521.6Z" fill="#262685"/>
<path fill-rule="evenodd" clip-rule="evenodd" d="M464.035 136.711C464.526 135.129 466.207 134.244 467.79 134.735C469.316 135.209 470.193 136.789 469.813 138.32L469.766 138.49L436.858 244.515C435.638 248.327 436.545 252.594 439.186 255.714L439.416 255.978L456.116 274.278C457.233 275.502 457.146 277.4 455.923 278.516C454.746 279.59 452.946 279.551 451.817 278.459L451.684 278.323L434.968 260.004C430.814 255.375 429.293 248.931 431.023 243.076L464.035 136.711Z" fill="#262685"/>
<path fill-rule="evenodd" clip-rule="evenodd" d="M348.967 162.186C326.849 177.715 319.707 205.956 333.319 225.344C346.932 244.732 375.92 247.606 398.038 232.077C420.156 216.548 427.299 188.307 413.686 168.918C400.073 149.53 371.085 146.656 348.967 162.186ZM352.415 167.096C371.97 153.366 397.191 155.866 408.776 172.366C420.36 188.866 414.146 213.437 394.59 227.167C375.035 240.896 349.814 238.396 338.23 221.897C326.645 205.397 332.859 180.826 352.415 167.096Z" fill="#FE7624"/>
<path fill-rule="evenodd" clip-rule="evenodd" d="M358.218 175.362C344.552 184.957 340.12 202.488 348.623 214.6C357.126 226.711 375.121 228.496 388.787 218.901C402.453 209.306 406.885 191.775 398.382 179.664C389.879 167.553 371.884 165.767 358.218 175.362ZM361.666 180.273C372.769 172.477 386.996 173.889 393.472 183.111C399.947 192.334 396.443 206.195 385.339 213.991C374.236 221.786 360.009 220.375 353.534 211.152C347.058 201.929 350.563 188.068 361.666 180.273Z" fill="#FE7624"/>
<path fill-rule="evenodd" clip-rule="evenodd" d="M387.6 200.801L358.5 200.701C356.5 200.701 355.1 199.101 355.4 197.201C355.7 195.301 357.5 193.701 359.6 193.701L388.7 193.801C390.7 193.801 392.1 195.401 391.8 197.301C391.4 199.301 389.6 200.801 387.6 200.801Z" fill="#FE7624"/>
<path fill-rule="evenodd" clip-rule="evenodd" d="M381.875 165.971C383.728 164.669 384.33 162.332 383.219 160.75C382.108 159.168 379.706 158.941 377.853 160.242C375.999 161.543 375.397 163.88 376.508 165.462C377.619 167.044 380.022 167.272 381.875 165.971Z" fill="#FE7624"/>
<path fill-rule="evenodd" clip-rule="evenodd" d="M398.174 170.389C400.027 169.087 400.629 166.75 399.518 165.168C398.408 163.586 396.005 163.359 394.152 164.66C392.299 165.961 391.697 168.298 392.807 169.88C393.918 171.462 396.321 171.69 398.174 170.389Z" fill="#FE7624"/>
<path fill-rule="evenodd" clip-rule="evenodd" d="M362.776 170.298C364.629 168.997 365.231 166.659 364.12 165.077C363.01 163.496 360.607 163.268 358.754 164.569C356.901 165.87 356.299 168.207 357.41 169.789C358.52 171.371 360.923 171.599 362.776 170.298Z" fill="#FE7624"/>
<path fill-rule="evenodd" clip-rule="evenodd" d="M348.258 182.684C350.112 181.383 350.714 179.046 349.603 177.464C348.492 175.882 346.089 175.655 344.236 176.956C342.383 178.257 341.781 180.594 342.892 182.176C344.003 183.758 346.405 183.986 348.258 182.684Z" fill="#FE7624"/>
<path fill-rule="evenodd" clip-rule="evenodd" d="M408.49 182.971C410.343 181.669 410.945 179.332 409.834 177.75C408.724 176.168 406.321 175.941 404.468 177.242C402.615 178.543 402.013 180.88 403.123 182.462C404.234 184.044 406.637 184.272 408.49 182.971Z" fill="#FE7624"/>
<path fill-rule="evenodd" clip-rule="evenodd" d="M340.913 199.901C342.766 198.6 343.368 196.263 342.257 194.681C341.146 193.099 338.744 192.871 336.891 194.172C335.037 195.474 334.436 197.811 335.546 199.393C336.657 200.975 339.06 201.202 340.913 199.901Z" fill="#FE7624"/>
<path fill-rule="evenodd" clip-rule="evenodd" d="M409.754 199.998C411.607 198.697 412.209 196.36 411.098 194.778C409.988 193.196 407.585 192.968 405.732 194.269C403.879 195.57 403.277 197.907 404.388 199.489C405.498 201.071 407.901 201.299 409.754 199.998Z" fill="#FE7624"/>
<path fill-rule="evenodd" clip-rule="evenodd" d="M369.772 233.869C371.625 232.568 372.227 230.231 371.116 228.649C370.005 227.067 367.603 226.839 365.749 228.14C363.896 229.441 363.294 231.779 364.405 233.36C365.516 234.942 367.919 235.17 369.772 233.869Z" fill="#FE7624"/>
<path fill-rule="evenodd" clip-rule="evenodd" d="M353.391 229.509C355.244 228.208 355.846 225.87 354.735 224.288C353.624 222.706 351.222 222.479 349.369 223.78C347.515 225.081 346.914 227.418 348.024 229C349.135 230.582 351.538 230.81 353.391 229.509Z" fill="#FE7624"/>
<path fill-rule="evenodd" clip-rule="evenodd" d="M343.157 216.869C345.01 215.568 345.612 213.231 344.501 211.649C343.391 210.067 340.988 209.839 339.135 211.14C337.282 212.441 336.68 214.779 337.79 216.36C338.901 217.942 341.304 218.17 343.157 216.869Z" fill="#FE7624"/>
<path fill-rule="evenodd" clip-rule="evenodd" d="M420 219.1C415.1 217.4 406.5 214.5 400.8 212.5C398.6 211.7 396.5 214 397.5 216.2L405.9 235C406.7 236.8 409.1 237.2 410.4 235.7L421.2 223.5C422.4 222 421.8 219.7 420 219.1Z" fill="#FE7624"/>
<path fill-rule="evenodd" clip-rule="evenodd" d="M616.8 274.2C618.398 274.2 619.704 275.449 619.795 277.024L619.8 277.2V390.5C619.8 392.157 618.457 393.5 616.8 393.5C615.202 393.5 613.896 392.251 613.805 390.676L613.8 390.5V280.2H235.5V492.3C235.5 493.898 234.251 495.204 232.676 495.295L232.5 495.3C230.902 495.3 229.596 494.051 229.505 492.476L229.5 492.3V277.2C229.5 275.603 230.749 274.297 232.324 274.205L232.5 274.2H616.8Z" fill="#262685"/>
<path fill-rule="evenodd" clip-rule="evenodd" d="M616.8 292.101C618.457 292.101 619.8 293.444 619.8 295.101C619.8 296.698 618.551 298.004 616.976 298.095L616.8 298.101H232.5C230.843 298.101 229.5 296.757 229.5 295.101C229.5 293.503 230.749 292.197 232.324 292.106L232.5 292.101H616.8Z" fill="#262685"/>
<path fill-rule="evenodd" clip-rule="evenodd" d="M461.5 276.2C463.098 276.2 464.404 277.449 464.495 279.024L464.5 279.2V489.6C464.5 491.257 463.157 492.6 461.5 492.6C459.902 492.6 458.596 491.351 458.505 489.776L458.5 489.6V279.2C458.5 277.543 459.843 276.2 461.5 276.2Z" fill="#262685"/>
<path fill-rule="evenodd" clip-rule="evenodd" d="M434 330.2H253.8C252.143 330.2 250.8 331.543 250.8 333.2V377.4C250.8 379.057 252.143 380.4 253.8 380.4H434C435.657 380.4 437 379.057 437 377.4V333.2C437 331.543 435.657 330.2 434 330.2ZM430.999 336.2V374.4H256.799V336.2H430.999Z" fill="#262685"/>
<path fill-rule="evenodd" clip-rule="evenodd" d="M343.9 340.4C335.671 340.4 329 347.071 329 355.3C329 363.529 335.671 370.2 343.9 370.2C352.129 370.2 358.8 363.529 358.8 355.3C358.8 347.071 352.129 340.4 343.9 340.4ZM343.9 346.4C348.815 346.4 352.8 350.385 352.8 355.3C352.8 360.216 348.815 364.2 343.9 364.2C338.985 364.2 335 360.216 335 355.3C335 350.385 338.985 346.4 343.9 346.4Z" fill="#262685"/>
<path fill-rule="evenodd" clip-rule="evenodd" d="M434 404.5H253.8C252.143 404.5 250.8 405.843 250.8 407.5V451.7C250.8 453.357 252.143 454.7 253.8 454.7H434C435.657 454.7 437 453.357 437 451.7V407.5C437 405.843 435.657 404.5 434 404.5ZM430.999 410.5V448.7H256.799V410.5H430.999Z" fill="#262685"/>
<path fill-rule="evenodd" clip-rule="evenodd" d="M343.9 414.8C335.671 414.8 329 421.471 329 429.7C329 437.929 335.671 444.6 343.9 444.6C352.129 444.6 358.8 437.929 358.8 429.7C358.8 421.471 352.129 414.8 343.9 414.8ZM343.9 420.8C348.815 420.8 352.8 424.784 352.8 429.7C352.8 434.615 348.815 438.6 343.9 438.6C338.985 438.6 335 434.615 335 429.7C335 424.784 338.985 420.8 343.9 420.8Z" fill="#262685"/>
<path fill-rule="evenodd" clip-rule="evenodd" d="M1037.36 376.649C1038.99 376.351 1040.55 377.429 1040.85 379.059C1043.72 394.68 1044.65 409.592 1043.93 423.901L1043.85 425.349L1043.93 425.376C1057.05 429.343 1077.65 432.68 1104.79 435.545L1109.67 436.048C1130.54 438.159 1151.04 439.682 1183.99 441.806C1208.63 443.383 1219.71 453.744 1219.24 469.734C1219.07 475.56 1217.35 481.677 1214.61 487.78C1213.61 490.008 1212.54 492.081 1211.47 493.948L1211.18 494.449C1210.67 495.325 1210.26 495.975 1210 496.367C1209.07 497.744 1207.21 498.115 1205.83 497.195C1204.51 496.308 1204.11 494.548 1204.91 493.189L1205.33 492.523L1205.68 491.95C1205.87 491.645 1206.06 491.315 1206.27 490.959C1207.24 489.257 1208.22 487.36 1209.14 485.323C1211.58 479.878 1213.09 474.481 1213.24 469.558C1213.61 457.029 1205.21 449.176 1183.61 447.794L1175.87 447.291C1146.2 445.345 1126.93 443.859 1106.89 441.796L1104.14 441.51C1074.97 438.431 1053.23 434.807 1039.76 430.348C1038.45 429.916 1037.61 428.655 1037.71 427.285C1038.79 412.314 1037.98 396.65 1034.95 380.141C1034.65 378.511 1035.73 376.948 1037.36 376.649Z" fill="#262685"/>
<path fill-rule="evenodd" clip-rule="evenodd" d="M802.114 0.803941C812.171 -3.10409 825.425 7.86114 837.199 26.4846C847.678 43.0599 854.241 61.6201 853.218 73.7345L853.202 73.8963L853.212 73.9025C876.609 90.9296 882.957 114.62 874.664 140.98L874.427 141.716L874.79 142.09C889.544 157.358 901.593 173.474 909.399 190.501L909.598 190.942L909.853 191.001L910.405 191.136C910.597 191.184 910.797 191.237 911.005 191.293L911.323 191.38C913.935 192.105 916.923 193.201 920.248 194.74C929.623 199.081 939.894 206.079 950.758 216.317C951.964 217.453 952.02 219.352 950.884 220.558C949.747 221.764 947.849 221.82 946.643 220.684C936.244 210.884 926.509 204.251 917.728 200.185C914.699 198.783 912.017 197.799 909.718 197.161L909.073 196.989C908.661 196.883 908.286 196.796 907.947 196.725L907.292 196.601L907.148 196.579C906.091 196.454 905.18 195.779 904.753 194.804C897.051 177.224 884.454 160.46 868.861 144.604C868.061 143.79 867.792 142.593 868.167 141.516C877.031 116.004 871.325 93.7589 848.289 77.7645C847.334 77.1008 846.848 75.9441 847.043 74.7969C850.872 52.299 818.389 0.917078 804.281 6.39902C799.682 8.17388 786.164 29.2263 775.116 52.7744C774.597 53.8813 773.462 54.5564 772.253 54.4967L769.752 54.2431L767.571 54.0392C765.326 53.8372 762.842 53.637 760.15 53.4479C748.266 52.6131 735.728 52.2164 723.369 52.4995C722.596 52.5172 721.846 52.2356 721.275 51.7135C709.18 40.6461 696.003 29.9952 683.363 22.0254L682.318 21.3724C665.51 10.9572 652.623 7.44862 645.715 12.2621C644.365 13.2024 643.049 22.1841 642.863 35.6169C642.692 47.8812 643.315 63.7511 644.493 80.1858C644.55 80.9776 644.29 81.7595 643.772 82.3604C630.706 97.4981 622.371 112.897 620.248 128.407C617.677 147.179 624.354 165.437 642.178 183.143L643.627 184.573C644.439 185.362 645.334 186.202 646.842 187.602C647.453 188.17 647.8 188.966 647.8 189.8L647.796 191.115C647.767 195.174 647.593 198.279 647.17 201.325L647.079 201.947C646.919 202.996 646.724 204.124 646.466 205.512L645.11 212.525C644.998 213.109 644.895 213.659 644.793 214.209C642.336 227.508 641.44 238.941 642.515 253.212C643.925 271.919 648.835 292.822 658.135 316.828L660.893 323.854C663.181 329.656 666.355 337.687 667.729 341.194L669.264 345.144C673.731 356.7 677.124 366.07 680.071 375.207C682.992 384.265 685.312 392.65 687.03 400.553C690.915 418.135 687.985 439.807 680.42 456.066C679.722 457.568 677.937 458.219 676.435 457.52C674.933 456.821 674.282 455.037 674.98 453.535C682.01 438.427 684.76 418.087 681.169 401.838C679.494 394.131 677.225 385.932 674.361 377.048L673.578 374.649C670.756 366.087 667.482 357.141 663.237 346.193L658.671 334.568C656.396 328.804 653.866 322.4 653.007 320.195C643.198 295.156 638.012 273.291 636.532 253.663C635.443 239.21 636.301 227.519 638.696 214.202L638.893 213.119C639.075 212.137 639.261 211.16 639.486 209.998L640.396 205.322C640.786 203.273 641.039 201.82 641.229 200.488C641.592 197.873 641.754 195.135 641.792 191.559L641.795 191.102L640.67 190.047C640.126 189.534 639.673 189.099 639.23 188.665L638.5 187.943C618.973 168.799 611.441 148.494 614.303 127.593C616.542 111.244 624.964 95.3284 638.046 79.8271L638.42 79.3843L638.346 78.3036C637.317 63.3404 636.757 48.9512 636.844 37.3674L636.863 35.5336L636.882 34.3244C637.159 18.7771 638.536 9.95022 642.285 7.33887C652.097 0.501991 667.294 4.80069 686.563 16.9501C698.776 24.6507 711.364 34.6935 723.071 45.2399L724.436 46.4763L725.327 46.4594C736.508 46.2712 747.774 46.6174 758.555 47.3257L760.571 47.4627L762.185 47.5791C764.568 47.7557 766.776 47.94 768.788 48.1252L770.596 48.2963L771.449 46.522C782.773 23.1095 795.436 3.68963 801.91 0.887643L802.114 0.803941Z" fill="#262685"/>
<path fill-rule="evenodd" clip-rule="evenodd" d="M641.351 8.49204C642.129 7.02899 643.945 6.47333 645.408 7.25093L645.96 7.55197L646.803 8.02594C647.006 8.14141 647.219 8.26361 647.442 8.39248C649.023 9.30753 650.781 10.3761 652.671 11.5897C658.071 15.0555 663.471 18.9982 668.522 23.3557C685.461 37.9673 694.646 53.6656 691.547 69.8639C691.235 71.4912 689.664 72.5579 688.036 72.2465C686.409 71.9351 685.342 70.3635 685.654 68.7362C688.244 55.2002 680.082 41.2512 664.603 27.8989C659.783 23.7414 654.607 19.9617 649.43 16.639C647.619 15.4767 645.94 14.4557 644.436 13.5854L643.561 13.085L642.592 12.5491C641.129 11.7715 640.573 9.95508 641.351 8.49204Z" fill="#262685"/>
<path fill-rule="evenodd" clip-rule="evenodd" d="M804.82 0.549911C806.229 -0.322792 808.078 0.111465 808.95 1.51985L809.598 2.60255L810.169 3.58844C810.636 4.40441 811.138 5.30434 811.667 6.28197C813.678 9.99767 815.688 14.0864 817.564 18.4314C821.513 27.5728 824.343 36.6007 825.566 45.1164C826.859 54.1269 826.286 62.1902 823.476 69.0389C822.847 70.5717 821.094 71.3044 819.561 70.6754C818.029 70.0464 817.296 68.2939 817.925 66.7611C820.281 61.0195 820.779 54.002 819.626 45.9688C818.489 38.0462 815.811 29.503 812.056 20.8107C810.254 16.6378 808.321 12.7058 806.39 9.13799L805.894 8.22945C805.489 7.494 805.104 6.81318 804.745 6.19072L804.258 5.35798L803.85 4.68019C802.978 3.2718 803.412 1.42261 804.82 0.549911Z" fill="#262685"/>
<path fill-rule="evenodd" clip-rule="evenodd" d="M747.595 108.702C748.58 102.372 746.105 96.7305 742.067 96.1019C738.029 95.4733 733.956 100.095 732.971 106.426C731.986 112.756 734.461 118.397 738.499 119.026C742.537 119.654 746.61 115.032 747.595 108.702Z" fill="#262685"/>
<path fill-rule="evenodd" clip-rule="evenodd" d="M690.798 109C691.783 102.67 689.309 97.0283 685.27 96.3997C681.232 95.7712 677.16 100.393 676.174 106.724C675.189 113.054 677.664 118.695 681.702 119.324C685.74 119.952 689.813 115.33 690.798 109Z" fill="#262685"/>
<path fill-rule="evenodd" clip-rule="evenodd" d="M704.028 135.396C704.5 131.921 709.531 131.94 709.976 135.419C710.711 141.163 711.987 145.527 714.134 148.149C716.682 151.26 720.419 151.536 726.844 147.635C728.26 146.776 730.105 147.227 730.965 148.643C731.825 150.059 731.374 151.904 729.958 152.764C721.161 158.105 714.106 157.584 709.492 151.951C708.582 150.84 707.808 149.599 707.146 148.227L706.883 147.66L706.863 147.708C706.212 149.187 705.477 150.548 704.661 151.731L704.386 152.118C699.899 158.267 693.345 158.795 686.543 152.383C685.337 151.246 685.281 149.348 686.418 148.142C687.554 146.936 689.453 146.88 690.658 148.017C694.857 151.974 697.201 151.786 699.54 148.581C701.705 145.615 703.356 140.345 704.028 135.396Z" fill="#262685"/>
<path fill-rule="evenodd" clip-rule="evenodd" d="M694.6 128.3L704.4 136.9C705.8 138.1 708.2 138.1 709.7 136.7L719 128.4C721.2 126.4 719.8 123.2 716.7 123.2L697.6 123C694.2 122.9 692.3 126.3 694.6 128.3Z" fill="#262685"/>
<path fill-rule="evenodd" clip-rule="evenodd" d="M552.347 117.733C569.904 107.108 587.813 103.013 605.651 104.42C619.727 105.53 633.02 109.981 645.211 116.7C650.177 119.437 654.621 122.37 658.488 125.307C659.678 126.211 660.74 127.061 661.669 127.841L662.41 128.471C662.847 128.85 663.162 129.134 663.352 129.311C664.561 130.444 664.622 132.343 663.489 133.552C662.4 134.714 660.603 134.816 659.391 133.814L658.998 133.462C658.814 133.296 658.6 133.108 658.356 132.899L658.168 132.738C657.233 131.941 656.127 131.049 654.858 130.085C651.215 127.317 647.012 124.543 642.315 121.955C630.824 115.621 618.332 111.439 605.179 110.401C588.577 109.092 571.922 112.901 555.454 122.867C554.036 123.724 552.192 123.271 551.334 121.853C550.476 120.436 550.93 118.591 552.347 117.733Z" fill="#262685"/>
<path fill-rule="evenodd" clip-rule="evenodd" d="M569.487 135.32C583.613 127.324 598.601 123.876 613.996 124.23C626.005 124.506 637.595 127.061 648.38 131.147C652.099 132.556 655.483 134.06 658.485 135.574L659.171 135.924C661.092 136.913 662.453 137.693 663.194 138.158C664.598 139.039 665.022 140.89 664.142 142.294C663.294 143.645 661.546 144.089 660.164 143.334L659.436 142.9L659.128 142.722C658.363 142.283 657.459 141.791 656.425 141.259C653.45 139.727 650.04 138.192 646.254 136.758C636.067 132.899 625.131 130.488 613.858 130.228C599.507 129.898 585.588 133.1 572.442 140.542C566.775 143.75 561.293 147.728 556.018 152.52C554.791 153.634 552.894 153.543 551.78 152.317C550.666 151.09 550.757 149.193 551.983 148.079C557.586 142.99 563.429 138.749 569.487 135.32Z" fill="#262685"/>
<path fill-rule="evenodd" clip-rule="evenodd" d="M786.514 111.877C812.034 101.493 837.999 96.5652 862.372 100.156C874.753 101.98 886.337 106.002 896.955 112.434C898.372 113.293 898.825 115.138 897.966 116.555C897.108 117.972 895.263 118.424 893.846 117.566C883.933 111.56 873.109 107.802 861.498 106.092C838.351 102.682 813.389 107.419 788.776 117.435C782.08 120.16 775.926 123.079 770.459 125.996C768.741 126.912 767.205 127.768 765.863 128.546L764.853 129.138C764.585 129.298 764.341 129.445 764.122 129.578L763.703 129.837C762.302 130.721 760.449 130.303 759.564 128.902C758.679 127.501 759.098 125.649 760.498 124.764L761 124.454C761.316 124.262 761.676 124.046 762.08 123.807L762.391 123.625C763.901 122.741 765.655 121.758 767.635 120.702C773.278 117.692 779.617 114.684 786.514 111.877Z" fill="#262685"/>
<path fill-rule="evenodd" clip-rule="evenodd" d="M781.466 126.498C803.627 120.194 826.278 117.488 847.522 120.444C866.685 123.111 883.499 130.317 897.218 142.779C898.444 143.893 898.535 145.791 897.421 147.017C896.307 148.244 894.41 148.335 893.183 147.221C880.414 135.621 864.722 128.896 846.695 126.387C826.396 123.562 804.534 126.174 783.108 132.269C778.077 133.701 773.441 135.227 769.289 136.757L768.407 137.085C766.881 137.657 765.537 138.188 764.387 138.662L763.022 139.24C761.509 139.915 759.735 139.235 759.061 137.722C758.386 136.209 759.066 134.435 760.579 133.76L761.439 133.39L762.099 133.115C763.308 132.617 764.713 132.063 766.3 131.467C770.822 129.772 775.912 128.078 781.466 126.498Z" fill="#262685"/>
<path fill-rule="evenodd" clip-rule="evenodd" d="M857.348 171.324C858.218 169.914 860.066 169.477 861.476 170.347C862.886 171.218 863.323 173.066 862.453 174.476C852.482 190.626 828.171 208.783 798.523 217.941C758.376 230.342 711.549 226.591 659.704 202.359L658.132 201.618C656.823 201.008 655.541 200.311 654.129 199.459L653.593 199.133L643.193 192.533C641.794 191.645 641.379 189.791 642.267 188.392C643.122 187.045 644.873 186.611 646.25 187.374L646.408 187.467L656.772 194.045C658.184 194.914 659.429 195.603 660.686 196.189C711.838 220.459 757.66 224.283 796.752 212.208C812.044 207.485 825.664 200.456 837.028 191.968C846.293 185.048 853.551 177.472 857.348 171.324Z" fill="#262685"/>
<path fill-rule="evenodd" clip-rule="evenodd" d="M499.393 230.328C501.034 230.103 502.547 231.251 502.772 232.893C503.536 238.462 504.06 243.596 504.31 248.262L504.326 248.579L504.457 248.632C506.834 249.609 509.126 250.752 511.277 252.051L511.812 252.379C523.911 259.919 530.092 271.468 527.55 285.244C527.204 287.119 526.78 288.906 526.282 290.601L526.182 290.934L526.552 291.181C537.841 298.774 541.412 308.358 536.494 320.999L536.311 321.46L536.407 321.477C554.742 324.876 567.191 345.885 566.07 362.521L566.019 363.153L566.075 363.194C576.028 370.394 581.157 380.772 578.929 392.93L578.905 393.055L579.295 393.216C583.533 394.995 587.574 397.638 591.204 401.168L591.621 401.579C592.793 402.75 592.793 404.65 591.621 405.821C590.45 406.993 588.55 406.993 587.379 405.821C584.445 402.888 581.202 400.66 577.806 399.113L577.425 398.943L577.376 399.098C574.09 409.074 568.053 413.962 560.626 413.512L560.324 413.491C553.287 412.93 546.355 407.137 546.201 401.585C546.039 395.812 553.505 391.361 562.642 390.574C566.022 390.282 569.446 390.485 572.816 391.193L573.126 391.26L573.165 391.021C574.411 382.683 571.289 375.444 564.872 369.884L564.612 369.66L564.428 370.157C562.916 374.034 560.366 377.355 556.636 379.712L556.004 380.096C546.535 385.581 536.172 383.856 529.312 377.13C522.591 370.54 521.694 361.212 529.014 356.654C535.628 352.535 548.675 353.833 559.671 359.33L560.055 359.524L560.047 359.228C559.935 356.165 559.311 352.874 558.157 349.5L558.01 349.078C553.901 337.488 544.877 328.733 534.428 327.231L534.025 327.177L533.595 327.123L533.489 327.322C528.73 336.107 524.202 341.081 519.632 342.54L519.373 342.619C514.425 344.054 510.287 341.417 507.293 336.285C504.317 331.059 504.699 326.035 509.505 323.052C513.322 320.682 519.816 319.883 529.327 320.653L530.104 320.719L530.169 320.579C534.847 310.204 532.915 303.066 524.263 296.876L524 296.689L523.975 296.745C520.7 303.721 515.865 308.501 509.984 310.737L509.615 310.873C501.524 313.781 492.614 311.336 487.028 304.859C480.909 297.764 485.501 290.683 495.31 287.301C503.297 284.548 513.187 284.54 520.345 287.646L520.821 287.859L520.828 287.837C521.094 286.832 521.334 285.787 521.546 284.702L521.65 284.156C523.708 273 518.779 263.79 508.638 257.471C507.544 256.789 506.403 256.154 505.226 255.566L504.474 255.2L504.474 255.233C504.45 257.424 504.345 259.479 504.154 261.395L504.095 261.966C502.982 272.071 499.31 278.286 492.213 278.793C482.511 279.482 472.779 273.528 468.164 265.205C463.09 256.055 466.165 247.153 477.162 245.149C483.416 244.009 490.713 244.489 497.751 246.372L498.176 246.488L498.165 246.309C497.911 242.666 497.497 238.694 496.925 234.422L496.828 233.708C496.603 232.066 497.751 230.553 499.393 230.328ZM571.468 397.041C568.709 396.473 565.914 396.314 563.158 396.552C559.752 396.845 556.696 397.76 554.558 399.035C552.915 400.014 552.186 400.965 552.199 401.417C552.259 403.571 556.568 407.172 560.801 407.51C565.344 407.872 569.243 404.832 571.678 397.292L571.738 397.099L571.468 397.041ZM558.197 365.326C548.635 360.15 536.909 358.805 532.186 361.747C528.771 363.873 529.23 368.647 533.513 372.846C538.513 377.748 545.95 378.986 552.99 374.908C556.077 373.11 558.183 370.126 559.25 366.401L559.364 365.981C559.109 365.833 558.851 365.686 558.59 365.541L558.197 365.326ZM527.067 326.507L526.598 326.48C519.58 326.089 514.952 326.732 512.67 328.149C511.062 329.147 510.953 330.586 512.491 333.289C514.241 336.287 515.937 337.368 517.702 336.856C520.15 336.146 523.279 332.942 526.843 326.892L527.067 326.507ZM518.84 293.565L518.818 293.554C513.174 290.697 504.267 290.56 497.265 292.974C494.075 294.074 491.773 295.573 490.816 297.049C490.059 298.217 490.178 299.324 491.572 300.941C495.552 305.556 501.857 307.286 507.585 305.227C512.163 303.582 516.052 299.74 518.737 293.798L518.84 293.565ZM498.454 252.828L498.402 252.812C491.543 250.634 484.245 249.957 478.238 251.052C471.641 252.254 470.183 256.474 473.411 262.295C476.949 268.675 484.546 273.322 491.786 272.808C496.348 272.482 498.555 265.563 498.464 253.632L498.454 252.828Z" fill="#FE7624"/>
<path fill-rule="evenodd" clip-rule="evenodd" d="M756.9 475.1C755.6 465.1 759 449 763.2 434.3C758.3 434.3 753.6 434.2 749 434C742.7 454.9 737.3 475.2 737.3 475.2C737.2 475.6 737.2 476.1 737.1 476.5C737.1 476.6 737 476.8 737 476.9C736.9 477.2 736.9 477.5 736.8 477.8C736.8 477.9 736.7 478.1 736.7 478.2V478.3C743.8 478.6 750.9 478.7 757.9 478.7C757.4 477.5 757 476.3 756.9 475.1Z" fill="#FE7624"/>
<path fill-rule="evenodd" clip-rule="evenodd" d="M666.6 426.4C662.7 412.9 646.8 398.5 649.3 400.5C655.2 409.2 658.7 419.7 658.7 430.9C658.7 460.8 634.4 485.1 604.5 485.1C598.9 485.1 593.5 484.2 588.4 482.6C596.7 488.3 606.7 491.6 617.4 491.6C636 491.6 652.2 481.7 661.2 466.9C666.2 468.5 671.5 469.9 677 471.1C676.9 460.4 679.6 446 682.7 433.2C683.1 431.7 683.4 430.2 683.6 428.7C677 428 671.2 427.1 666.6 426.4Z" fill="#FE7624"/>
<path fill-rule="evenodd" clip-rule="evenodd" d="M630.3 418.7L617 418C617 435.4 612.9 446.1 610.3 451.2L623.3 456.1C640.9 439.7 633 423.1 630.3 418.7Z" fill="#FE7624"/>
<path fill-rule="evenodd" clip-rule="evenodd" d="M632.1 391.4L617.4 389.3C589.1 389.3 566.2 412.2 566.2 440.5C566.2 451 569.4 460.7 574.8 468.9C583.2 475.5 593.6 479.2 604.5 479.2C631.1 479.2 652.7 457.6 652.7 431C652.7 414.6 644.5 400.2 632.1 391.4ZM625.9 461.7C625.3 462.2 624.6 462.4 623.9 462.4C623.5 462.4 623.2 462.3 622.8 462.2L604.8 455.4C603.9 455.1 603.2 454.3 603 453.4C602.7 452.5 602.9 451.5 603.5 450.8C603.6 450.7 611.7 439.5 610.9 414.8C610.9 414 611.2 413.1 611.8 412.6C612.4 412 613.2 411.7 614.1 411.8L632.2 412.8C633.1 412.8 633.9 413.3 634.5 414C634.6 414.2 652.2 439 625.9 461.7Z" fill="#FE7624"/>
<path fill-rule="evenodd" clip-rule="evenodd" d="M576.2 470.9C576.1 470.9 576.1 470.8 576.2 470.9C576.1 470.8 576.1 470.9 576.2 470.9Z" fill="#FE7624"/>
<path fill-rule="evenodd" clip-rule="evenodd" d="M884.6 479.1C911.2 479.1 932.8 457.5 932.8 430.9C932.8 415.1 925.2 401.1 913.4 392.3C907.6 390.3 901.5 389.3 895.4 389.3C870.6 389.3 849.9 406.9 845.2 430.4C840.7 430.9 836.3 431.3 831.9 431.6C826 447.1 820.1 464.6 817.8 471.7C817.3 473.1 816.9 474.5 816.5 475.9C816.5 476 816.5 476 816.4 476.1C833 474.8 846.7 473.3 855.3 472.2C863.7 478.9 873.7 479.1 884.6 479.1ZM889.7 421C897.4 421 903.7 427.3 903.7 435C903.7 442.7 897.4 449 889.7 449C882 449 875.7 442.7 875.7 435C875.7 427.3 882 421 889.7 421Z" fill="#FE7624"/>
<path fill-rule="evenodd" clip-rule="evenodd" d="M889.7 443.1C894.118 443.1 897.7 439.518 897.7 435.1C897.7 430.681 894.118 427.1 889.7 427.1C885.282 427.1 881.7 430.681 881.7 435.1C881.7 439.518 885.282 443.1 889.7 443.1Z" fill="#FE7624"/>
<path fill-rule="evenodd" clip-rule="evenodd" d="M929.5 400.5C935.4 409.2 938.9 419.6 938.9 430.9C938.9 460.8 914.6 485.1 884.7 485.1C879.1 485.1 873.7 484.2 868.6 482.6C868.4 482.6 868.1 482.6 867.7 482.5C877.6 488.3 890.1 491.7 900.9 491.7C929.2 491.7 952.1 468.8 952.1 440.5C952 424.3 942.7 409.9 929.5 400.5Z" fill="#FE7624"/>
<path fill-rule="evenodd" clip-rule="evenodd" d="M655.212 316.258C656.779 315.945 658.304 316.913 658.703 318.44L658.742 318.611C658.763 318.716 659.64 321.492 660.669 324.619L661.225 326.302C662.363 329.731 663.65 333.524 665.017 337.456L665.707 339.433C670.494 353.104 675.343 365.914 679.838 376.418L680.651 378.302C688.318 395.916 690.065 415.482 685.617 434.101L685.244 435.667C680.838 454.351 678.95 469.113 680.552 477.761C682.073 486.09 693.585 491.53 707.759 491.039C722.183 490.539 733.205 484.162 734.322 474.843C734.339 474.7 734.366 474.559 734.403 474.421L735.414 470.701C736.222 467.747 737.132 464.456 738.123 460.911L739.342 456.573C741.586 448.626 743.87 440.737 746.118 433.234L746.73 431.197C747.399 428.98 748.057 426.823 748.703 424.731L749.472 422.252C753.989 407.781 757.7 397.255 760.402 391.69C761.125 390.199 762.92 389.577 764.41 390.301C765.901 391.024 766.523 392.819 765.799 394.31L765.543 394.847C763.116 400.023 759.722 409.637 755.64 422.634L755.2 424.04C754.315 426.875 753.405 429.843 752.475 432.929C750.041 440.999 747.555 449.566 745.116 458.204L743.901 462.528C743.452 464.134 743.02 465.687 742.606 467.181L740.649 474.31L740.248 475.787L740.229 475.943C738.471 488.526 725.093 496.293 708.476 497.016L707.967 497.035C691.185 497.617 676.841 490.838 674.651 478.846C672.8 468.854 674.916 452.939 679.782 432.703C683.864 415.619 682.346 397.672 675.471 381.445L674.642 379.523C666.264 360.005 653.744 324.217 652.859 319.788C652.534 318.163 653.587 316.583 655.212 316.258Z" fill="#262685"/>
<path fill-rule="evenodd" clip-rule="evenodd" d="M699.888 450.305C701.429 450.725 702.362 452.273 702.036 453.816L701.435 456.133C701.325 456.565 701.21 457.023 701.091 457.504C700.408 460.255 699.725 463.2 699.088 466.218C698.438 469.298 697.873 472.281 697.417 475.101L697.24 476.227C696.188 483.087 695.904 488.436 696.538 491.49C696.874 493.113 695.832 494.701 694.21 495.037C692.588 495.374 691 494.332 690.663 492.71C689.801 488.556 690.186 482.237 691.494 474.144C691.966 471.223 692.548 468.147 693.217 464.979C693.788 462.274 694.395 459.629 695.005 457.123L695.506 455.104C695.623 454.643 695.734 454.207 695.84 453.797L696.205 452.412C696.64 450.814 698.289 449.87 699.888 450.305Z" fill="#262685"/>
<path fill-rule="evenodd" clip-rule="evenodd" d="M714.436 452.05C715.954 452.548 716.805 454.142 716.401 455.666L716.351 455.835C716.305 455.976 716.215 456.256 716.087 456.662L715.627 458.154C715.545 458.424 715.461 458.703 715.375 458.992C714.637 461.473 713.898 464.139 713.209 466.881C712.441 469.936 711.784 472.896 711.272 475.685L711.074 476.795C710.098 482.462 709.827 487.006 710.376 489.89L710.432 490.164C710.783 491.783 709.756 493.381 708.137 493.732C706.517 494.083 704.92 493.056 704.569 491.436C703.694 487.407 704.067 481.701 705.371 474.601C705.908 471.675 706.592 468.592 707.389 465.419C708.012 462.941 708.673 460.528 709.339 458.249L709.885 456.413L710.65 453.965C711.166 452.391 712.861 451.533 714.436 452.05Z" fill="#262685"/>
<path fill-rule="evenodd" clip-rule="evenodd" d="M760.401 391.59C761.125 390.1 762.92 389.478 764.41 390.201C765.901 390.925 766.523 392.72 765.799 394.21L765.543 394.748C763.116 399.923 759.722 409.537 755.64 422.535L755.2 423.94C754.315 426.775 753.405 429.743 752.475 432.829C750.041 440.899 747.555 449.466 745.116 458.105L743.901 462.428C743.452 464.034 743.02 465.587 742.606 467.081L740.649 474.21L740.244 475.701L740.217 475.901C738.997 483.916 733.181 490.038 724.448 493.611L724.002 493.791C722.461 494.399 720.718 493.643 720.11 492.102C719.501 490.56 720.258 488.818 721.799 488.21C729.07 485.339 733.545 480.643 734.326 474.709C734.343 474.578 734.369 474.449 734.403 474.321L735.414 470.602C736.222 467.647 737.132 464.356 738.123 460.812L739.342 456.473C741.586 448.526 743.87 440.637 746.118 433.134L746.73 431.097C747.399 428.88 748.057 426.723 748.703 424.631L749.472 422.153C753.989 407.681 757.7 397.155 760.401 391.59Z" fill="#262685"/>
<path fill-rule="evenodd" clip-rule="evenodd" d="M883.573 309L883.749 309.004C885.404 309.086 886.679 310.494 886.596 312.149C885.545 333.336 877.871 354.185 864.719 377.128L863.875 378.588C859.297 386.406 846.217 406.813 844.533 409.938L844.171 410.611C838.191 421.9 828.868 447.539 820.625 472.709L820.5 473.066C820.235 473.83 820.006 474.572 819.652 475.794L819.385 476.724L819.224 477.352C812.244 502.367 757.292 500.58 753.925 475.386C752.645 465.511 755.487 449.944 761.188 430.452L761.427 429.638C763.996 421.075 765.094 412.02 764.703 402.935C764.155 390.782 758.783 379.357 749.72 370.827L749.272 370.41C739.231 361.195 732.299 349.917 730.917 337.02C730.741 335.372 731.933 333.894 733.581 333.717C735.228 333.541 736.707 334.733 736.883 336.38C738.066 347.424 744.057 357.327 752.863 365.559L753.329 365.99C763.818 375.623 770.067 388.708 770.697 402.671C771.103 412.1 770.014 421.501 767.448 430.427L766.728 432.886C761.406 451.233 758.752 465.953 759.874 474.603C760.977 482.855 771.893 488.824 785.846 489.214C799.867 489.606 811.237 484.237 813.507 475.507L813.616 475.076L814.085 473.453C814.416 472.328 814.652 471.597 814.949 470.766L815.977 467.641C824.151 442.905 833.111 418.503 839.072 407.422L839.398 406.825C841.703 402.719 854.894 382.135 858.974 375.081C872.028 352.512 879.593 332.205 880.604 311.851C880.683 310.255 881.995 309.013 883.573 309Z" fill="#262685"/>
<path fill-rule="evenodd" clip-rule="evenodd" d="M782.888 450.305C784.429 450.725 785.362 452.273 785.036 453.816L784.435 456.133C784.325 456.565 784.21 457.023 784.091 457.504C783.408 460.255 782.725 463.2 782.088 466.218C781.438 469.298 780.873 472.281 780.417 475.101L780.24 476.227C779.188 483.087 778.904 488.436 779.538 491.49C779.874 493.113 778.832 494.701 777.21 495.037C775.588 495.374 774 494.332 773.663 492.71C772.801 488.556 773.186 482.237 774.494 474.144C774.966 471.223 775.548 468.147 776.217 464.979C776.788 462.274 777.395 459.629 778.005 457.123L778.506 455.104C778.623 454.643 778.734 454.207 778.84 453.797L779.205 452.412C779.64 450.814 781.289 449.87 782.888 450.305Z" fill="#262685"/>
<path fill-rule="evenodd" clip-rule="evenodd" d="M797.436 451.85C798.954 452.348 799.805 453.941 799.401 455.466L799.351 455.635C799.305 455.776 799.215 456.056 799.087 456.462L798.627 457.954C798.545 458.224 798.461 458.503 798.375 458.792C797.637 461.273 796.898 463.939 796.209 466.681C795.441 469.736 794.784 472.696 794.272 475.485L794.074 476.595C793.098 482.261 792.827 486.806 793.376 489.69L793.432 489.964C793.783 491.583 792.756 493.18 791.137 493.532C789.517 493.883 787.92 492.855 787.569 491.236C786.694 487.206 787.067 481.5 788.371 474.401C788.908 471.475 789.592 468.392 790.389 465.219C791.012 462.741 791.673 460.328 792.339 458.048L792.885 456.212L793.65 453.765C794.166 452.191 795.861 451.333 797.436 451.85Z" fill="#262685"/>
<path fill-rule="evenodd" clip-rule="evenodd" d="M1056.7 163C991.208 163 936.519 206.354 930.616 262.687C930.604 262.805 930.599 262.923 930.6 263.041L932.2 379.741C932.223 381.387 933.567 382.707 935.213 382.7L1069.71 382.1C1069.8 382.1 1069.88 382.096 1069.97 382.088C1133.98 376.315 1183.3 329.261 1183.3 272.8C1183.3 212.032 1126.56 163 1056.7 163ZM1056.7 169C1123.43 169 1177.3 215.556 1177.3 272.8L1177.29 274.392C1176.37 326.323 1130.84 369.773 1071.26 375.935L1069.55 376.101L938.158 376.687L936.602 263.149L936.584 263.313C942.148 210.208 994.13 169 1056.7 169Z" fill="#262685"/>
<path fill-rule="evenodd" clip-rule="evenodd" d="M984.8 302.3C984.8 303.4 984.4 304.3 983.7 305C983 305.7 982.1 306.1 981 306.1C980 306.1 979.1 305.7 978.3 305C977.5 304.3 977.2 303.4 977.2 302.3V252.1C977.2 251 977.6 250.1 978.3 249.4C979 248.7 979.9 248.3 981 248.3C982 248.3 982.9 248.7 983.7 249.4C984.4 250.1 984.8 251 984.8 252.1V269.4C988 266.9 991.8 265.7 996.1 265.7C998.6 265.7 1001 266.2 1003.3 267.2C1005.6 268.2 1007.6 269.5 1009.3 271.2C1011 272.9 1012.4 274.9 1013.4 277.2C1014.4 279.5 1014.9 281.9 1014.9 284.5V302.2C1014.9 303.3 1014.5 304.2 1013.8 304.9C1013.1 305.6 1012.2 306 1011.1 306C1010.1 306 1009.2 305.6 1008.4 304.9C1007.7 304.2 1007.3 303.3 1007.3 302.2V284.5C1007.3 283 1007 281.5 1006.4 280.1C1005.8 278.7 1005 277.5 1004 276.5C1003 275.5 1001.8 274.7 1000.4 274.1C999 273.5 997.6 273.2 996 273.2C994.4 273.2 993 273.5 991.6 274.1C990.2 274.7 989 275.5 988 276.5C987 277.5 986.2 278.7 985.6 280.1C985 281.5 984.7 282.9 984.7 284.5V302.3H984.8Z" fill="#FE7624"/>
<path fill-rule="evenodd" clip-rule="evenodd" d="M1051.4 294.7C1052.5 294.7 1053.4 295.1 1054.1 295.8C1054.8 296.5 1055.2 297.4 1055.2 298.5C1055.2 299.6 1054.8 300.5 1054.1 301.2C1050.4 304.5 1046 306.1 1040.9 306.1C1035.3 306.1 1030.6 304.1 1026.6 300.2C1022.7 296.3 1020.7 291.5 1020.7 285.9C1020.7 280.3 1022.7 275.6 1026.6 271.6C1030.5 267.7 1035.3 265.7 1040.9 265.7C1046.4 265.7 1051.2 267.7 1055.2 271.6C1057.2 273.5 1058.7 275.7 1059.6 278.1C1060.6 280.5 1061.1 283.1 1061.1 285.9C1061.1 287 1060.7 287.9 1060 288.6C1059.3 289.3 1058.4 289.7 1057.3 289.7H1028.7C1029.1 291 1029.7 292.2 1030.5 293.3C1031.3 294.4 1032.2 295.3 1033.3 296.1C1034.4 296.9 1035.5 297.5 1036.8 297.9C1038.1 298.3 1039.4 298.6 1040.8 298.6C1042.4 298.6 1043.8 298.4 1045.2 297.9C1046.5 297.4 1047.8 296.7 1048.9 295.7C1049.6 295.1 1050.5 294.8 1051.4 294.7ZM1053 282.1C1052.6 280.8 1052 279.6 1051.2 278.5C1050.4 277.4 1049.5 276.5 1048.4 275.7C1047.3 274.9 1046.2 274.3 1044.9 273.9C1043.6 273.5 1042.3 273.3 1040.9 273.3C1039.5 273.3 1038.2 273.5 1036.9 273.9C1035.6 274.3 1034.4 274.9 1033.3 275.7C1032.2 276.5 1031.3 277.4 1030.5 278.5C1029.7 279.6 1029.1 280.8 1028.7 282.1H1053Z" fill="#FE7624"/>
<path fill-rule="evenodd" clip-rule="evenodd" d="M1066.5 302.3V252.1C1066.5 251 1066.9 250.1 1067.6 249.4C1068.3 248.7 1069.2 248.3 1070.3 248.3C1071.4 248.3 1072.3 248.7 1073 249.4C1073.7 250.1 1074.1 251 1074.1 252.1V298.5H1075.8C1076.8 298.5 1077.7 298.9 1078.5 299.6C1079.2 300.3 1079.6 301.2 1079.6 302.3C1079.6 303.3 1079.2 304.2 1078.5 305C1077.8 305.7 1076.9 306.1 1075.8 306.1H1070.3C1069.3 306.1 1068.4 305.7 1067.7 305C1066.8 304.3 1066.5 303.4 1066.5 302.3Z" fill="#FE7624"/>
<path fill-rule="evenodd" clip-rule="evenodd" d="M1083.8 302.3V252.1C1083.8 251 1084.2 250.1 1084.9 249.4C1085.6 248.7 1086.5 248.3 1087.6 248.3C1088.7 248.3 1089.6 248.7 1090.3 249.4C1091 250.1 1091.4 251 1091.4 252.1V298.5H1093.1C1094.1 298.5 1095 298.9 1095.8 299.6C1096.5 300.3 1096.9 301.2 1096.9 302.3C1096.9 303.3 1096.5 304.2 1095.8 305C1095.1 305.7 1094.2 306.1 1093.1 306.1H1087.6C1086.6 306.1 1085.7 305.7 1085 305C1084.2 304.3 1083.8 303.4 1083.8 302.3Z" fill="#FE7624"/>
<path fill-rule="evenodd" clip-rule="evenodd" d="M1141.9 285.9C1141.9 291.5 1139.9 296.3 1136 300.2C1132 304.1 1127.2 306.1 1121.7 306.1C1116.1 306.1 1111.4 304.1 1107.4 300.2C1103.5 296.3 1101.5 291.5 1101.5 285.9C1101.5 280.3 1103.5 275.6 1107.4 271.6C1111.3 267.7 1116.1 265.7 1121.7 265.7C1127.2 265.7 1132 267.7 1136 271.6C1138 273.6 1139.4 275.8 1140.4 278.1C1141.4 280.5 1141.9 283.1 1141.9 285.9ZM1121.7 273.2C1119.9 273.2 1118.3 273.5 1116.7 274.2C1115.1 274.9 1113.8 275.8 1112.7 276.9C1111.6 278 1110.7 279.4 1110 280.9C1109.3 282.4 1109 284.1 1109 285.8C1109 287.5 1109.3 289.2 1110 290.7C1110.7 292.2 1111.6 293.6 1112.7 294.7C1113.8 295.8 1115.2 296.8 1116.7 297.4C1118.2 298 1119.9 298.4 1121.7 298.4C1123.5 298.4 1125.1 298.1 1126.6 297.4C1128.1 296.7 1129.5 295.8 1130.6 294.7C1131.7 293.5 1132.6 292.2 1133.3 290.7C1134 289.2 1134.3 287.5 1134.3 285.8C1134.3 284.1 1134 282.4 1133.3 280.9C1132.6 279.4 1131.7 278 1130.6 276.9C1129.5 275.7 1128.1 274.8 1126.6 274.2C1125.1 273.6 1123.5 273.2 1121.7 273.2Z" fill="#FE7624"/>
<path fill-rule="evenodd" clip-rule="evenodd" d="M1398.1 490.8C1399.76 490.8 1401.1 492.143 1401.1 493.8C1401.1 495.397 1399.85 496.703 1398.28 496.795L1398.1 496.8H3.2002C1.54334 496.8 0.200195 495.457 0.200195 493.8C0.200195 492.202 1.44912 490.896 3.02392 490.805L3.2002 490.8H1398.1Z" fill="#262685"/>
</svg>
