<svg width="1710" height="761" viewBox="0 0 1710 761" fill="none" xmlns="http://www.w3.org/2000/svg">
<path fill-rule="evenodd" clip-rule="evenodd" d="M1111.26 496.5L1110.22 670.08H1302.63L1302.24 495.05L1111.26 496.5V496.5Z" fill="#FE7624"/>
<path fill-rule="evenodd" clip-rule="evenodd" d="M1302.26 501.33V507.33H1111.21V501.33H1302.26Z" fill="#2E186A"/>
<rect x="894.63" y="101.9" width="654.27" height="399.45" rx="11" fill="#FE7624"/>
<rect x="942.95" y="137.19" width="532.9" height="320.07" rx="11" fill="white"/>
<path fill-rule="evenodd" clip-rule="evenodd" d="M1524.46 101.9V501.35H1518.46V101.9H1524.46Z" fill="#2E186A"/>
<path fill-rule="evenodd" clip-rule="evenodd" d="M594.45 370.24C573.31 348.18 539.51 297.81 539.31 280.85C541.6 226.85 524.6 193.77 501.16 162.95C482.06 137.84 415.16 130.46 384.52 130.58L390.59 103.69C390.59 103.69 392.13 108.29 401.59 111.04C425.49 109.82 424.27 50.04 422.73 46.7C421.19 43.36 384.56 22.8 360.08 40.7C342 54.8 333 75.13 328.54 93.53C327.34 89.19 326.07 84.6 324.72 79.79C316.66 51 296 18.3 278.66 3.11001C275.439 0.33921 271.05 -0.646425 266.953 0.481049C262.856 1.60852 259.59 4.70117 258.24 8.73001C240.31 62.12 282.72 126 296.71 145C283.32 149.77 271.31 155.78 263.14 163C236 186.87 222.7 226.84 225 280.85C224.8 297.85 191 348.18 169.85 370.24C148.7 392.3 128.95 455.94 175.37 513.74C221.79 571.54 210.76 672.64 210.76 672.64H553.56C553.56 672.64 542.56 571.54 588.95 513.74C635.34 455.94 615.59 392.3 594.45 370.24Z" fill="#FE7624"/>
<path fill-rule="evenodd" clip-rule="evenodd" d="M358.251 135.186L359.773 135.155C360.027 135.151 360.28 135.147 360.534 135.143L362.055 135.127L363.576 135.12C363.829 135.12 364.082 135.12 364.335 135.12L365.852 135.127L367.366 135.143L368.876 135.168L370.381 135.202L371.882 135.245L373.375 135.296L374.862 135.357C375.11 135.367 375.357 135.378 375.603 135.39L377.078 135.463L378.545 135.544L380.002 135.634L381.448 135.732L382.884 135.838L384.308 135.952L385.719 136.074L387.116 136.204L388.5 136.342L389.869 136.487L391.222 136.64L392.558 136.8L393.878 136.967C394.096 136.996 394.314 137.025 394.531 137.054L395.823 137.232L397.097 137.418L398.35 137.61C398.558 137.643 398.764 137.676 398.969 137.709L400.192 137.912C400.394 137.946 400.595 137.981 400.795 138.016L401.984 138.228L403.151 138.448L404.294 138.674L405.413 138.906C405.781 138.985 406.146 139.064 406.506 139.145L407.574 139.39L408.615 139.641C408.957 139.725 409.295 139.811 409.628 139.898L410.614 140.161C413.365 140.914 415.768 141.738 417.744 142.621C419.257 143.298 419.935 145.072 419.259 146.584C418.583 148.097 416.808 148.775 415.296 148.099C414.237 147.625 413.028 147.169 411.686 146.732L410.865 146.472C410.586 146.386 410.301 146.301 410.012 146.217L409.129 145.967L408.216 145.721C407.598 145.559 406.961 145.401 406.305 145.246L405.307 145.016L404.284 144.792C404.111 144.755 403.937 144.718 403.762 144.682L402.699 144.466C402.52 144.43 402.34 144.395 402.159 144.36L401.059 144.152C400.689 144.084 400.315 144.017 399.937 143.951L398.791 143.755L397.623 143.566L396.434 143.382C396.235 143.352 396.034 143.322 395.832 143.293L394.613 143.119L393.374 142.951L392.117 142.791L390.842 142.636L389.55 142.489L388.242 142.348L386.919 142.215L385.58 142.088C385.356 142.068 385.131 142.048 384.906 142.028L383.547 141.912L382.176 141.804C381.946 141.787 381.716 141.77 381.485 141.753L380.096 141.656L378.696 141.567L377.286 141.485L375.866 141.412L374.438 141.346L373.003 141.289L371.56 141.24L370.111 141.199L368.657 141.166L367.198 141.142L365.736 141.127L364.27 141.12L362.802 141.123L361.332 141.134L359.862 141.155L358.391 141.184L356.798 141.227C356.533 141.235 356.269 141.243 356.005 141.252L354.43 141.309L352.866 141.377L351.316 141.456L349.778 141.544C349.523 141.56 349.268 141.576 349.014 141.592L347.496 141.695C347.244 141.714 346.993 141.732 346.742 141.751L345.246 141.87C344.997 141.89 344.75 141.911 344.502 141.933L343.027 142.067L341.566 142.21C341.324 142.235 341.083 142.26 340.842 142.286L339.404 142.445C339.165 142.472 338.928 142.5 338.691 142.528L337.276 142.701C336.807 142.761 336.341 142.822 335.878 142.885L334.496 143.078C334.038 143.145 333.583 143.212 333.13 143.282L331.782 143.495L330.451 143.718L329.138 143.951C328.92 143.99 328.704 144.03 328.488 144.071L327.201 144.318C324.647 144.823 322.204 145.386 319.884 146.006L318.734 146.321C318.544 146.374 318.355 146.428 318.167 146.482L317.048 146.811L315.951 147.15C314.683 147.55 313.459 147.97 312.282 148.41L311.284 148.791C306.517 150.656 302.557 152.849 299.57 155.357C285.968 166.79 277.605 183.725 273.36 206.737L273.113 208.111L272.875 209.496L272.646 210.893C272.609 211.127 272.572 211.362 272.535 211.597L272.321 213.012C272.286 213.25 272.252 213.487 272.217 213.725L272.017 215.161C271.984 215.401 271.952 215.642 271.92 215.884L271.734 217.34L271.557 218.811L271.388 220.297C271.361 220.546 271.334 220.795 271.308 221.046L271.153 222.555C271.128 222.807 271.103 223.061 271.079 223.315L270.937 224.848L270.805 226.398L270.681 227.966L270.566 229.551L270.459 231.154C270.425 231.691 270.392 232.232 270.361 232.775L270.271 234.416C270.257 234.691 270.243 234.967 270.23 235.244L270.153 236.914L270.084 238.604L270.023 240.316C270.014 240.602 270.005 240.89 269.996 241.179L269.948 242.922L269.907 244.687L269.875 246.474L269.85 248.284L269.834 250.118L269.825 251.975L269.824 253.856C269.824 254.171 269.825 254.488 269.826 254.806L269.836 256.724L269.854 258.668L269.895 261.632L269.931 263.641L269.999 266.705L270.053 268.782L270.115 270.888L270.22 274.099L270.341 277.377L270.477 280.722L270.48 280.85V282.045L270.507 282.502C271.323 298.049 264.807 315.684 252.497 334.919L252.039 335.632C242.499 350.397 230.387 364.947 216.287 379.675C205.073 391.388 197.244 410.89 196.541 432.366C195.693 458.263 204.864 485.281 225.335 511.08L225.959 511.862C239.125 528.255 248.618 548.881 254.926 572.756C263.2 604.068 265.279 636.895 263.867 665.442L263.771 667.287L263.675 668.903L263.578 670.381L263.451 672.056L263.376 672.925C263.219 674.574 261.754 675.784 260.105 675.626C258.514 675.475 257.333 674.107 257.392 672.531L257.529 670.836L257.624 669.496L257.719 668.016L257.78 666.952L257.81 666.398C259.318 638.125 257.336 605.365 249.125 574.289C243.115 551.542 234.162 531.933 221.887 516.38L221.281 515.619C199.486 488.48 189.64 459.78 190.544 432.169C190.748 425.941 191.517 419.861 192.774 414.051L193.085 412.662C196.503 397.902 203.083 384.977 211.555 375.946L211.953 375.525C225.813 361.049 237.7 346.769 246.999 332.376C258.972 313.844 265.248 297.076 264.518 282.858L264.486 282.313L264.48 282.12V280.93L264.388 278.683L264.299 276.392L264.217 274.132L264.143 271.903L264.077 269.704L264.018 267.535L263.966 265.396L263.922 263.284L263.887 261.202L263.858 259.146L263.838 257.118L263.826 255.117L263.822 253.142L263.827 251.192C263.828 250.869 263.83 250.547 263.832 250.227L263.849 248.314L263.874 246.426L263.907 244.562L263.95 242.722C263.957 242.417 263.965 242.113 263.974 241.81L264.029 240.003C264.049 239.405 264.07 238.81 264.093 238.218L264.166 236.455L264.247 234.713L264.338 232.991L264.438 231.289C264.455 231.007 264.473 230.726 264.491 230.446L264.604 228.773C264.624 228.495 264.644 228.219 264.664 227.943L264.792 226.298L264.929 224.671L265.075 223.061L265.231 221.468L265.396 219.892C265.424 219.63 265.453 219.37 265.482 219.109L265.662 217.556L265.852 216.018C265.885 215.763 265.918 215.509 265.951 215.255L266.156 213.739C266.191 213.487 266.226 213.236 266.262 212.986L266.482 211.49L266.712 210.007L266.952 208.536C266.993 208.292 267.034 208.049 267.076 207.806L267.331 206.353L267.46 205.648C271.937 181.376 280.912 163.202 295.711 150.762C302.462 145.095 313.028 140.98 326.161 138.397L327.528 138.136C327.987 138.05 328.449 137.966 328.914 137.885L330.317 137.645C330.788 137.567 331.261 137.49 331.738 137.416L333.176 137.198C333.417 137.162 333.658 137.127 333.901 137.093L335.364 136.891L336.843 136.7L338.338 136.52L339.849 136.351L341.375 136.193C341.631 136.167 341.887 136.142 342.144 136.118L343.692 135.976C343.952 135.953 344.212 135.931 344.472 135.909L346.043 135.783L347.627 135.668C347.893 135.65 348.158 135.632 348.425 135.615L350.03 135.516L351.649 135.429C352.191 135.401 352.735 135.375 353.281 135.352L354.925 135.286C355.2 135.275 355.476 135.266 355.752 135.257L357.415 135.207C357.693 135.199 357.972 135.192 358.251 135.186Z" fill="#FEBA91"/>
<path fill-rule="evenodd" clip-rule="evenodd" d="M371.02 56.4621C371.212 54.8164 372.702 53.6381 374.348 53.8303C375.935 54.0156 377.087 55.4076 376.995 56.9823L376.913 57.8471L376.848 58.6774C376.841 58.7775 376.834 58.8801 376.827 58.9854C376.326 66.5846 376.835 75.2899 379.113 83.4656C381.14 90.7379 384.396 96.7213 389.04 101.031C390.255 102.158 390.326 104.056 389.199 105.27C388.072 106.485 386.174 106.556 384.96 105.429C379.416 100.286 375.636 93.3396 373.333 85.0764C370.924 76.4315 370.336 67.4089 370.791 59.3894L370.858 58.3249L370.929 57.4024L371.007 56.5805C371.012 56.5384 371.016 56.4989 371.02 56.4621Z" fill="#FEBA91"/>
<path fill-rule="evenodd" clip-rule="evenodd" d="M330.173 90.6455C331.736 90.9774 332.754 92.4704 332.516 94.0298L332.233 95.4748L331.978 96.8635L331.861 97.5219L331.63 98.8878L331.4 100.317C331.209 101.533 331.022 102.813 330.841 104.149C329.413 114.683 328.793 125.439 329.434 135.438C329.54 137.091 328.285 138.518 326.632 138.624C324.979 138.73 323.552 137.475 323.446 135.822C322.776 125.373 323.418 114.24 324.895 103.343L325.008 102.522L325.238 100.924C325.315 100.401 325.394 99.8872 325.473 99.384L325.711 97.9056L325.951 96.4909L326.209 95.049L326.615 92.9568C326.96 91.3361 328.553 90.3013 330.173 90.6455Z" fill="#FEBA91"/>
<path fill-rule="evenodd" clip-rule="evenodd" d="M1706.94 670.05C1708.6 670.05 1709.94 671.393 1709.94 673.05C1709.94 674.648 1708.69 675.954 1707.12 676.045L1706.94 676.05H3C1.34315 676.05 0 674.707 0 673.05C0 671.452 1.24892 670.146 2.82373 670.055L3 670.05H1706.94Z" fill="#2E186A"/>
<path fill-rule="evenodd" clip-rule="evenodd" d="M396.11 394.45C396.11 394.45 360.11 402.87 349.54 407.45C338.97 412.03 295.31 439.06 289.8 514.25C289.8 543.94 290.8 549.46 290.8 549.46C290.8 549.46 379.1 541.64 411.27 560.03C413.11 566.48 426 671.72 426 671.72H730.07C730.07 671.72 691.61 617.49 645.66 593.6C651.17 559.6 659.44 516.69 636.47 489.88C641.98 487.76 679.67 458.48 679.67 458.48C679.67 458.48 639.84 411.6 632.18 404C624.52 396.4 584 386.48 552.82 388.77C521.64 391.06 396.11 394.45 396.11 394.45Z" fill="#5D21D1"/>
<path fill-rule="evenodd" clip-rule="evenodd" d="M507 343.89L520.09 392.65L541.09 393.53C543.78 397.41 568.83 447.23 501.93 453.06C458.29 456.86 410.18 431.27 384.3 400.92L427.14 389.22L415.69 320.92L507 343.89Z" fill="white"/>
<path fill-rule="evenodd" clip-rule="evenodd" d="M412.731 321.416L423.732 387.04L383.51 398.026C381.389 398.605 380.591 401.194 382.017 402.867C410.645 436.439 460.246 459.701 502.19 456.049C532.939 453.369 548.215 441.285 550.582 422.948C551.427 416.398 550.52 409.517 548.374 402.743C548.099 401.876 547.803 401.015 547.496 400.177L547.184 399.347C547.132 399.21 547.079 399.074 547.026 398.939L546.706 398.137C546.653 398.005 546.599 397.875 546.545 397.745L546.222 396.98L545.898 396.245C545.844 396.125 545.791 396.006 545.737 395.889L545.418 395.203L545.103 394.554C545.051 394.45 545 394.347 544.948 394.246L544.645 393.661C544.447 393.286 544.255 392.942 544.072 392.634L543.806 392.199C543.719 392.063 543.636 391.937 543.555 391.821L543.436 391.66C542.896 390.983 542.087 390.569 541.216 390.533L522.416 389.744L509.897 343.112C509.615 342.062 508.787 341.246 507.732 340.981L416.422 318.011C414.324 317.483 412.374 319.282 412.731 321.416ZM419.407 324.948L504.559 346.369L517.193 393.428L517.246 393.606C517.64 394.777 518.717 395.595 519.964 395.647L539.328 396.458L539.387 396.57C539.638 397.049 539.919 397.616 540.204 398.228C541.087 400.127 541.933 402.279 542.654 404.555C544.556 410.558 545.352 416.595 544.631 422.18C542.66 437.457 529.814 447.619 501.67 450.071L500.47 450.168C462.427 452.978 417.534 432.582 389.971 402.786L389.747 402.542L427.93 392.114C429.416 391.708 430.353 390.243 430.099 388.724L419.407 324.948Z" fill="#2E186A"/>
<path fill-rule="evenodd" clip-rule="evenodd" d="M339.81 147.35C366 129.35 396.31 115.7 428.66 118.35C530.59 118.65 566.76 183.97 541.14 231.53V231.53C530.33 185.17 518.71 168.91 499.87 161.22C489.64 191.93 435.12 234.36 383.38 244.12V244.12C383.3 243.95 392.05 290.67 396.46 289.49C397.78 292.1 411.54 315.39 411.54 315.39L417.63 351.39L299.28 368.26C292.28 369.34 286.38 363.42 286.15 356.48C284.64 311.42 270.22 204.61 339.81 147.35Z" fill="#2E186A"/>
<path fill-rule="evenodd" clip-rule="evenodd" d="M409.36 301.46L402.74 304.08C402.74 304.08 363.45 315.94 356 278.84C350.37 250.7 378.58 247.47 392.54 247.56" fill="white"/>
<path fill-rule="evenodd" clip-rule="evenodd" d="M392.559 244.56C394.216 244.571 395.551 245.923 395.54 247.579C395.529 249.236 394.177 250.571 392.521 250.56C383.264 250.5 374.661 251.889 368.335 255.261C360.162 259.617 356.656 266.827 358.941 278.249C361.67 291.838 368.911 299.116 379.496 301.776C385.52 303.29 392.055 303.165 398.244 302.031C399.089 301.876 399.863 301.713 400.556 301.549L401.28 301.37L401.768 301.238L408.256 298.671C409.742 298.083 411.415 298.763 412.08 300.194L412.149 300.356C412.737 301.842 412.057 303.515 410.626 304.18L410.464 304.249L403.844 306.869C403.766 306.9 403.687 306.928 403.607 306.952L403.065 307.107L402.633 307.221L402.147 307.341L401.319 307.532L400.703 307.664L400.039 307.798C399.809 307.843 399.571 307.888 399.326 307.933C392.364 309.209 385.012 309.349 378.033 307.595C365.251 304.383 356.253 295.339 353.058 279.429C350.248 265.381 355.026 255.555 365.513 249.966C372.732 246.118 381.953 244.567 391.851 244.558L392.559 244.56Z" fill="#2E186A"/>
<path fill-rule="evenodd" clip-rule="evenodd" d="M541.14 231.52V231.52C530.33 185.16 519.24 170.64 500.4 162.95C490.33 193.18 442.49 233.77 384.67 243.95C384.53 250.62 384.51 244.69 385.47 251.84C386.94 259.17 388.71 267.45 390.47 274.38C398.95 300.3 411.54 315.38 411.54 315.38V315.38C429.72 339.14 456.08 355.25 487.68 353.38C542.83 350.13 545.89 271.29 544.58 254.09C543.93 245.56 541.17 231.45 541.17 231.45L541.14 231.52Z" fill="white"/>
<path fill-rule="evenodd" clip-rule="evenodd" d="M497.554 162.002C493.84 173.152 484.679 185.802 471.802 197.684L470.639 198.746C466.925 202.102 462.916 205.391 458.652 208.561C437.075 224.6 410.95 236.277 384.15 240.995C382.739 241.244 381.701 242.455 381.671 243.887L381.601 246.951C381.591 247.723 381.617 248.121 381.802 248.644L381.983 249.107L381.985 249.144L382.001 249.219L382.054 249.46L382.142 249.909L382.238 250.469L382.343 251.146L382.457 251.945C382.47 252.041 382.483 252.139 382.497 252.239L382.529 252.43L383.106 255.28L383.68 258.059L384.061 259.87L384.44 261.646L384.817 263.385L385.192 265.087L385.75 267.564L386.118 269.164L386.666 271.483L387.027 272.972L387.385 274.415C387.444 274.651 387.503 274.886 387.562 275.118L387.619 275.313C391.37 286.778 396.162 297.024 401.484 305.928C403.365 309.076 405.187 311.84 406.886 314.205L407.294 314.768L407.853 315.527L408.498 316.376L408.775 316.73L409.02 317.037L409.157 317.203C429.318 343.551 457.062 358.197 487.857 356.375C513.805 354.846 530.82 337.63 540.146 309.923C546.432 291.247 548.673 268.331 547.571 253.862L547.528 253.325L547.426 252.199C547.37 251.619 547.306 251.015 547.234 250.386L547.081 249.098L546.904 247.72L546.604 245.546L546.392 244.107C546.239 243.085 546.076 242.044 545.904 240.983C545.591 239.047 545.261 237.117 544.926 235.25L544.423 232.498L544.114 230.874L544.073 230.692C544.043 230.574 544.007 230.459 543.966 230.35L543.921 230.242L544.062 230.839C533.66 186.23 522.827 168.864 501.534 160.172C499.928 159.517 498.102 160.356 497.554 162.002ZM502.109 166.981L502.609 167.222C518.204 174.855 527.284 189.304 535.96 222.974L536.525 225.197L537.09 227.475C537.466 229.013 537.842 230.588 538.218 232.201L538.266 232.382L538.322 232.555L538.333 232.586L538.605 234.03L538.773 234.941C539.185 237.194 539.597 239.565 539.981 241.941C540.15 242.98 540.309 243.999 540.458 244.993L540.715 246.752L540.955 248.501L541.046 249.199C541.128 249.84 541.204 250.459 541.271 251.054L541.397 252.21L541.503 253.299C541.535 253.651 541.564 253.99 541.589 254.318C542.633 268.032 540.47 290.153 534.459 308.009C525.836 333.627 510.621 349.023 487.504 350.385C458.836 352.082 432.939 338.411 413.923 313.557L413.491 313.019L413.083 312.493L412.67 311.948L412.229 311.352L411.759 310.704C410.156 308.473 408.427 305.849 406.634 302.85L406.108 301.962C401.39 293.93 397.118 284.768 393.698 274.583L393.351 273.537L393.021 272.218L392.652 270.714C392.591 270.459 392.529 270.202 392.467 269.943L392.093 268.364L391.716 266.737L391.144 264.21L390.759 262.471L390.177 259.783L389.786 257.942L389.393 256.062L388.8 253.177L388.429 251.342L388.282 250.28L388.173 249.559L388.105 249.141L388.039 248.766L387.943 248.273L387.846 247.85L387.781 247.597L387.713 247.362L387.642 247.14L387.6 247.02L387.613 246.458L388.348 246.317C414.982 241.096 440.773 229.327 462.231 213.376C481.254 199.236 495.515 182.715 501.804 167.724L502.109 166.981Z" fill="#2E186A"/>
<path fill-rule="evenodd" clip-rule="evenodd" d="M496.014 215.303C497.531 214.799 499.164 215.573 499.747 217.039L499.807 217.204L519.847 277.544C520.415 279.254 519.359 281.06 517.622 281.425L517.446 281.457L501.736 283.817C500.097 284.063 498.569 282.934 498.323 281.296C498.086 279.716 499.127 278.239 500.671 277.914L500.844 277.883L513.029 276.053L494.113 219.096C493.609 217.579 494.383 215.946 495.849 215.363L496.014 215.303Z" fill="#2E186A"/>
<path fill-rule="evenodd" clip-rule="evenodd" d="M453.191 221.242C459.265 217.364 467.044 216.898 475.989 221.833C477.44 222.634 477.967 224.458 477.167 225.909C476.366 227.36 474.542 227.887 473.091 227.087C466.129 223.246 460.693 223.571 456.419 226.299C455.729 226.74 455.136 227.21 454.647 227.671L454.391 227.921L454.23 228.091L454.175 228.153C453.135 229.443 451.246 229.645 449.957 228.605C448.667 227.565 448.465 225.676 449.505 224.387L449.686 224.172L449.917 223.918C449.96 223.873 450.004 223.826 450.051 223.778L450.358 223.472C450.413 223.418 450.47 223.363 450.53 223.307C451.282 222.597 452.169 221.895 453.191 221.242Z" fill="#2E186A"/>
<path fill-rule="evenodd" clip-rule="evenodd" d="M482.903 294.816C480.979 294.692 479.439 296.39 479.749 298.293L479.892 299.12C480.392 301.872 481.141 304.572 482.13 307.189L482.403 307.895L482.382 307.832C484.024 312.626 488.232 316.068 493.235 316.742L493.906 316.823C502.609 317.774 510.793 312.295 513.243 303.835L513.303 303.616C513.37 303.403 513.432 303.196 513.491 302.995L513.657 302.409C513.682 302.315 513.707 302.222 513.731 302.131L513.864 301.606L513.976 301.125L514.068 300.691L514.141 300.307C514.152 300.248 514.161 300.191 514.17 300.136C514.457 298.386 513.173 296.77 511.403 296.656L482.903 294.816ZM486.463 301.058L507.405 302.41L507.369 302.529C505.58 308.056 500.091 311.573 494.273 310.824C491.476 310.517 489.138 308.708 488.152 306.146L488.007 305.749C487.416 304.268 486.915 302.755 486.505 301.218L486.463 301.058Z" fill="#2E186A"/>
<path fill-rule="evenodd" clip-rule="evenodd" d="M517.761 215.51C522.291 213.074 526.998 211.97 531.593 213.068C534.335 213.724 536.854 215.155 539.059 217.396C540.221 218.577 540.205 220.477 539.024 221.639C537.843 222.801 535.943 222.785 534.781 221.604C533.362 220.161 531.841 219.296 530.198 218.904C527.29 218.209 523.957 218.99 520.601 220.794C519.699 221.28 518.869 221.801 518.136 222.319L517.717 222.622L517.507 222.782L517.299 222.947C516.03 224.013 514.138 223.848 513.073 222.579C512.007 221.31 512.172 219.418 513.441 218.353L513.802 218.059L514.218 217.74C515.102 217.08 516.303 216.293 517.761 215.51Z" fill="#2E186A"/>
<ellipse cx="472.363" cy="243.996" rx="5.27" ry="8.15" transform="rotate(-5.51 472.363 243.996)" fill="#2E186A"/>
<ellipse cx="526.143" cy="242.31" rx="5.27" ry="8.15" transform="rotate(-5.51 526.143 242.31)" fill="#2E186A"/>
<path fill-rule="evenodd" clip-rule="evenodd" d="M450.23 197.04C431.624 199.258 419.229 220.404 422.041 243.988C424.853 267.571 441.873 285.209 460.479 282.991C479.086 280.772 491.481 259.626 488.669 236.043C485.857 212.459 468.837 194.821 450.23 197.04ZM450.941 202.997C465.842 201.221 480.255 216.158 482.711 236.753C485.167 257.349 474.67 275.256 459.769 277.033C444.868 278.81 430.455 263.873 427.999 243.277C425.543 222.682 436.04 204.774 450.941 202.997Z" fill="#FE7624"/>
<path fill-rule="evenodd" clip-rule="evenodd" d="M527.18 190.772C510.711 192.736 500.07 212.744 502.74 235.128C505.409 257.512 520.456 274.457 536.924 272.493C553.393 270.529 564.033 250.521 561.364 228.137C558.695 205.753 543.648 188.808 527.18 190.772ZM527.89 196.73C540.509 195.225 553.086 209.389 555.406 228.848C557.727 248.307 548.833 265.031 536.214 266.535C523.595 268.04 511.018 253.876 508.697 234.418C506.377 214.959 515.271 198.235 527.89 196.73Z" fill="#FE7624"/>
<path fill-rule="evenodd" clip-rule="evenodd" d="M503.705 228.195C505.343 227.943 506.874 229.067 507.125 230.705C507.368 232.284 506.331 233.764 504.789 234.093L504.615 234.125L485.655 237.035C484.017 237.287 482.486 236.163 482.235 234.525C481.992 232.946 483.029 231.466 484.571 231.136L484.745 231.105L503.705 228.195Z" fill="#FE7624"/>
<path fill-rule="evenodd" clip-rule="evenodd" d="M423.541 233.698C425.144 233.278 426.783 234.238 427.202 235.841C427.607 237.387 426.729 238.966 425.228 239.453L425.059 239.502L385.059 249.962C383.456 250.382 381.817 249.422 381.398 247.819C380.993 246.273 381.871 244.694 383.372 244.207L383.541 244.158L423.541 233.698Z" fill="#FE7624"/>
<path fill-rule="evenodd" clip-rule="evenodd" d="M721 480.81C724.36 477.09 722.82 469.81 721.5 465.62C724.62 463.19 726.76 459.57 723.3 453.44C719.14 446.06 707.3 432.44 701.41 430.44C697.29 429.01 684.48 427.06 677.13 426.01C677.652 425.372 678.046 424.638 678.29 423.85C679.92 417.85 678.05 410.12 672.57 410.46C669.71 410.63 652.9 414.46 648.4 420.33C643.9 426.2 640.34 446.33 640.4 455.72C640.4 461.04 644.8 473.53 644.8 473.53C644.8 473.53 656.02 514.53 651.36 530.08C646.7 545.63 629.52 585 629.52 597C629.52 646.63 654.8 653.21 667.52 654C680.24 654.79 710.64 625.51 715.93 602.7C720.25 584.1 708.39 530.42 702.72 508.02C705.43 505.81 709.23 501.24 714.38 498.52C720.47 495.29 722.15 486.13 721.13 482.09L718.65 482.89C719.49 482.264 720.276 481.568 721 480.81V480.81Z" fill="white"/>
<path fill-rule="evenodd" clip-rule="evenodd" d="M672.384 407.466L672.2 407.479L671.771 407.522L671.284 407.587L670.744 407.671C670.556 407.702 670.359 407.736 670.156 407.774L669.523 407.895L668.851 408.033C668.736 408.057 668.62 408.082 668.502 408.108L667.779 408.27L667.028 408.446L666.254 408.637L665.46 408.84L664.652 409.056L663.834 409.282L663.01 409.518L662.185 409.764L661.364 410.018L660.551 410.279C660.416 410.323 660.282 410.368 660.149 410.412C653.496 412.637 648.5 415.268 646.019 418.505C644.747 420.164 643.509 422.898 642.387 426.226L642.084 427.148L641.787 428.097C641.738 428.258 641.689 428.419 641.641 428.582L641.353 429.568C641.306 429.734 641.259 429.901 641.212 430.07L640.936 431.088L640.667 432.125L640.406 433.179L640.153 434.247L639.909 435.327L639.674 436.417L639.448 437.516L639.232 438.62L639.026 439.727C638.992 439.912 638.959 440.097 638.927 440.281L638.737 441.39L638.558 442.497L638.39 443.6C638.363 443.784 638.337 443.967 638.311 444.15L638.161 445.243L638.023 446.326L637.898 447.398C637.879 447.576 637.86 447.753 637.841 447.929L637.736 448.98L637.644 450.014C637.63 450.184 637.616 450.354 637.603 450.523L637.533 451.528L637.477 452.51L637.436 453.467C637.413 454.097 637.401 454.709 637.399 455.3L637.4 455.739C637.4 457.41 637.737 459.598 638.347 462.248L638.574 463.202L638.823 464.195C639.093 465.243 639.393 466.334 639.719 467.457C640.113 468.812 640.528 470.16 640.947 471.464L641.372 472.763L641.678 473.676L641.931 474.415L642.228 475.533L642.701 477.374L643.089 478.93C643.982 482.55 644.875 486.457 645.708 490.503C646.754 495.584 647.63 500.518 648.277 505.161L648.448 506.42L648.606 507.655L648.752 508.868L648.885 510.058L649.005 511.225L649.112 512.367C649.129 512.555 649.145 512.743 649.161 512.929L649.249 514.035L649.323 515.115L649.385 516.17C649.394 516.343 649.402 516.516 649.41 516.687L649.451 517.703C649.48 518.539 649.495 519.346 649.495 520.125L649.489 521.046C649.44 524.37 649.113 527.126 648.486 529.219L648.199 530.157L647.879 531.163L647.525 532.241L647.136 533.396L646.406 535.5L645.57 537.845L644.82 539.907L643.475 543.539L637.955 558.232L637.359 559.83L636.046 563.376L634.69 567.095L633.845 569.45L633.047 571.708L632.479 573.339L632.115 574.397L631.422 576.443L630.932 577.918L630.621 578.873L630.175 580.265L629.755 581.607L629.361 582.9L628.993 584.146L628.762 584.95L628.437 586.118L628.137 587.24C628.105 587.362 628.074 587.483 628.043 587.604L627.778 588.666L627.615 589.35L627.464 590.015L627.324 590.66L627.195 591.287L627.077 591.895C627.059 591.995 627.041 592.094 627.023 592.192L626.922 592.772L626.833 593.335C626.819 593.427 626.806 593.519 626.793 593.609L626.72 594.145L626.659 594.663L626.609 595.164L626.57 595.648L626.542 596.115C626.531 596.345 626.524 596.568 626.521 596.785L626.52 597C626.52 605.255 627.201 612.591 628.515 619.057L628.769 620.259C631.207 631.385 635.576 639.855 641.624 645.931C648.883 653.225 657.645 656.392 667.334 656.994C682.58 657.941 713.54 626.286 718.852 603.378L718.959 602.896C720.303 596.569 720.069 586.534 718.69 574.309L718.475 572.46C718.401 571.838 718.323 571.21 718.243 570.578L717.994 568.666L717.73 566.724C717.684 566.398 717.638 566.071 717.591 565.743L717.303 563.76C717.253 563.427 717.203 563.093 717.153 562.758L716.841 560.735L716.515 558.687C716.348 557.657 716.176 556.619 715.998 555.572L715.636 553.467L715.26 551.341C715.196 550.985 715.132 550.628 715.067 550.271L714.671 548.116L714.262 545.943C714.193 545.579 714.123 545.215 714.053 544.85L713.626 542.653C713.553 542.285 713.48 541.917 713.407 541.548L712.961 539.328L712.504 537.094L712.035 534.849L711.556 532.592L711.065 530.325L710.565 528.049L710.054 525.765L709.533 523.475L709.004 521.18L708.465 518.88L707.917 516.577L707.361 514.271L706.797 511.965L706.07 509.04L709.757 505.597L710.245 505.15L710.333 505.072C712.095 503.521 713.717 502.319 715.368 501.397L716.089 501.003C722.305 497.466 725.434 488.29 724.177 481.968L724.113 481.668L724.128 481.648C726.574 477.957 726.538 472.901 725.071 467.192L724.912 466.593L724.947 466.559C728.603 462.803 729.263 457.9 725.913 451.965C725.094 450.514 724.087 448.948 722.946 447.334L722.365 446.524L721.764 445.707C721.662 445.571 721.559 445.434 721.455 445.297L720.826 444.475C720.4 443.925 719.964 443.375 719.518 442.827L718.843 442.005C718.729 441.868 718.615 441.732 718.501 441.595L717.808 440.78C717.692 440.645 717.575 440.51 717.458 440.375L716.752 439.571C716.633 439.437 716.514 439.304 716.395 439.172L715.679 438.382C715.559 438.252 715.439 438.121 715.318 437.992L714.594 437.221L713.868 436.466L713.141 435.727C712.413 434.997 711.686 434.295 710.968 433.63L710.251 432.977C709.895 432.656 709.541 432.346 709.19 432.046L708.494 431.461C706.19 429.562 704.063 428.173 702.375 427.599L702.184 427.535L701.775 427.404L701.329 427.271L700.846 427.135L700.327 426.998L699.483 426.789L698.877 426.647L697.906 426.43L696.86 426.21L695.355 425.91L694.146 425.68L692.432 425.369L690.604 425.051L688.168 424.647L685.574 424.234L682.267 423.729L681.435 423.605L681.464 423.475C681.505 423.281 681.542 423.086 681.577 422.892L681.673 422.308C682.815 414.626 679.423 407.029 672.384 407.466ZM672.882 413.451C675.095 413.481 676.682 417.937 675.467 422.788L675.411 422.998L675.424 422.964C675.32 423.299 675.166 423.614 674.966 423.901L674.808 424.11C673.328 425.918 674.393 428.649 676.706 428.98L680.604 429.548L683.256 429.949L686.273 430.422L688.633 430.808L690.411 431.11L691.675 431.332L693.264 431.622L694.735 431.904L696.083 432.177L696.708 432.31L697.299 432.44L698.121 432.631L698.625 432.754L699.311 432.934L699.722 433.051C699.787 433.07 699.851 433.089 699.913 433.108L700.265 433.22C700.32 433.238 700.374 433.256 700.426 433.274C701.655 433.691 703.386 434.903 705.344 436.603L705.969 437.155C706.075 437.25 706.181 437.346 706.287 437.443L706.932 438.04L707.586 438.665C707.696 438.771 707.807 438.878 707.917 438.986L708.584 439.647C708.695 439.759 708.807 439.872 708.919 439.986L709.593 440.679L710.27 441.39L710.947 442.118L711.623 442.86L712.296 443.614L712.964 444.378L713.624 445.149L714.275 445.926C714.383 446.056 714.49 446.186 714.597 446.317L715.231 447.098C715.336 447.229 715.44 447.359 715.544 447.489L716.156 448.271L716.752 449.049C717.535 450.084 718.268 451.105 718.931 452.09L719.414 452.822C719.884 453.546 720.311 454.246 720.687 454.913C722.957 458.935 722.416 461.104 719.657 463.253C718.668 464.023 718.262 465.326 718.639 466.521C720.357 471.975 720.58 476.799 718.774 478.799C718.314 479.279 717.78 479.764 717.206 480.217L716.721 480.592C714.566 482.368 715.878 485.655 718.304 485.892L718.408 485.9L718.398 486.017C718.043 489.8 715.985 494.273 712.974 495.87C710.887 496.972 708.929 498.367 706.882 500.122L706.252 500.672L705.634 501.237L702.135 504.508L701.26 505.314L701.006 505.539L700.824 505.695C699.92 506.432 699.526 507.626 699.812 508.756L700.102 509.908L700.678 512.214L701.246 514.524L701.807 516.835L702.359 519.147L702.903 521.457L703.438 523.765L703.964 526.069L704.48 528.368L704.986 530.661L705.482 532.946L705.968 535.221L706.443 537.487L706.906 539.74L707.358 541.98C707.432 542.352 707.506 542.724 707.579 543.095L708.013 545.312L708.434 547.513C708.503 547.879 708.571 548.244 708.639 548.607L709.041 550.781L709.429 552.935C709.493 553.292 709.556 553.649 709.618 554.004L709.986 556.125C710.046 556.477 710.105 556.828 710.164 557.177L710.51 559.263L710.841 561.324L711.157 563.358L711.458 565.363C711.653 566.691 711.837 567.999 712.011 569.285L712.263 571.199C714.007 584.794 714.45 595.813 713.008 602.021C710.679 612.063 702.742 624.493 692.366 635.102L691.969 635.506L691.175 636.301C689.451 638.007 687.724 639.597 686.023 641.052L685.239 641.715C684.979 641.932 684.719 642.147 684.46 642.358L683.687 642.981L682.918 643.584L682.157 644.166L681.402 644.728L680.655 645.268C680.159 645.621 679.67 645.96 679.186 646.284L678.466 646.758C674.057 649.612 670.237 651.163 667.706 651.006C659.358 650.487 651.962 647.814 645.876 641.699C637.873 633.657 633.085 620.366 632.567 600.636L632.537 599.199C632.529 598.716 632.524 598.229 632.522 597.739L632.52 597C632.52 596.878 632.522 596.754 632.526 596.625L632.544 596.23L632.573 595.813L632.614 595.376L632.667 594.917L632.732 594.437L632.808 593.936L632.897 593.414L632.997 592.87L633.108 592.305L633.232 591.718L633.439 590.796L633.673 589.826L633.843 589.151L634.026 588.454L634.22 587.735L634.533 586.614L634.756 585.838L635.113 584.632L635.63 582.945L635.906 582.067L636.342 580.706L636.964 578.811L637.462 577.327L637.986 575.791L638.536 574.201L639.511 571.431L640.132 569.697L641.224 566.685L642.389 563.519L642.982 561.923L649.837 543.648L650.852 540.879L651.406 539.347L652.082 537.446L652.69 535.697L653.233 534.091L653.714 532.616L654.037 531.59L654.234 530.941C655.298 527.389 655.663 522.695 655.435 517.004L655.381 515.852C655.371 515.658 655.36 515.463 655.348 515.267L655.272 514.076C655.243 513.674 655.213 513.269 655.179 512.859L655.072 511.616L654.95 510.348C654.928 510.134 654.906 509.92 654.883 509.704L654.739 508.398C654.688 507.959 654.635 507.515 654.58 507.067L654.407 505.712C654.347 505.256 654.285 504.796 654.22 504.333C653.553 499.551 652.656 494.493 651.585 489.293C650.83 485.625 650.027 482.071 649.218 478.734L648.647 476.416L648.149 474.461L647.694 472.738L647.611 472.481L647.168 471.178L646.962 470.558C646.457 469.022 645.952 467.404 645.481 465.783C645.171 464.718 644.887 463.686 644.634 462.701L644.436 461.912L644.254 461.153L644.088 460.425L643.939 459.73L643.807 459.069L643.694 458.444L643.598 457.857C643.583 457.762 643.57 457.669 643.557 457.578L643.489 457.05C643.44 456.627 643.411 456.247 643.402 455.914L643.4 455.72C643.397 455.325 643.401 454.917 643.41 454.499L643.435 453.647C643.44 453.503 643.446 453.358 643.453 453.211L643.5 452.319L643.56 451.403C643.572 451.249 643.583 451.094 643.596 450.937L643.676 449.99L643.77 449.024L643.875 448.042C643.894 447.877 643.913 447.712 643.933 447.546L644.056 446.544L644.191 445.532L644.336 444.512C644.361 444.341 644.387 444.17 644.413 443.999L644.574 442.971L644.745 441.941L644.925 440.91C644.955 440.738 644.986 440.566 645.018 440.395L645.211 439.368C645.244 439.197 645.277 439.027 645.311 438.856L645.516 437.838L645.729 436.829L645.949 435.831L646.176 434.846C646.214 434.684 646.253 434.521 646.292 434.36L646.528 433.399L646.77 432.458L647.017 431.538C647.058 431.386 647.1 431.236 647.142 431.086L647.396 430.202L647.654 429.345L647.916 428.517L648.181 427.721L648.449 426.958C649.212 424.847 650.004 423.169 650.781 422.155C651.766 420.871 653.992 419.495 656.714 418.224L657.505 417.864L658.318 417.511C658.456 417.452 658.594 417.394 658.733 417.337L659.574 416.996L660.428 416.664C660.571 416.609 660.715 416.555 660.859 416.502L661.726 416.186C662.016 416.082 662.306 415.981 662.597 415.881L663.467 415.59C664.192 415.353 664.912 415.131 665.618 414.925L666.457 414.687C666.734 414.611 667.009 414.537 667.279 414.467L668.08 414.264C668.342 414.2 668.601 414.139 668.855 414.082L669.601 413.92C670.817 413.668 671.896 413.505 672.756 413.454L672.882 413.451Z" fill="#2E186A"/>
<path fill-rule="evenodd" clip-rule="evenodd" d="M654.69 430.89C661.36 438.64 676.85 429.21 678.3 423.89C679.93 417.89 678.06 410.16 672.58 410.5C669.72 410.67 652.91 414.5 648.41 420.37C643.91 426.24 640.35 446.37 640.41 455.76" fill="white"/>
<path fill-rule="evenodd" clip-rule="evenodd" d="M672.394 407.506C680.146 407.025 683.474 416.286 681.194 424.679C680.166 428.45 675.208 432.707 669.615 435.057C662.917 437.871 656.458 437.543 652.416 432.847C651.335 431.591 651.477 429.697 652.733 428.616C653.941 427.577 655.738 427.668 656.836 428.793L656.964 428.933C658.961 431.253 662.724 431.444 667.29 429.525C671.353 427.818 674.965 424.718 675.405 423.103C676.777 418.055 675.086 413.35 672.758 413.495C671.813 413.551 670.604 413.742 669.237 414.039L668.477 414.211C667.96 414.333 667.426 414.468 666.878 414.615L666.047 414.844L665.2 415.091C664.774 415.218 664.343 415.351 663.91 415.49L663.041 415.774C662.896 415.823 662.751 415.872 662.605 415.922L661.735 416.226L660.868 416.542C660.436 416.702 660.007 416.867 659.583 417.036L658.742 417.377C658.326 417.55 657.916 417.725 657.515 417.904L656.724 418.264C654.002 419.535 651.776 420.911 650.791 422.195C649.922 423.328 649.035 425.291 648.191 427.761L647.926 428.557L647.664 429.385L647.406 430.242L647.152 431.126L646.902 432.034L646.658 432.965L646.419 433.916L646.186 434.885L645.959 435.869L645.739 436.867L645.526 437.876L645.321 438.893L645.123 439.917C645.091 440.088 645.059 440.26 645.028 440.431L644.843 441.461C644.813 441.632 644.784 441.804 644.755 441.976L644.584 443.006L644.423 444.033L644.272 445.056C644.248 445.226 644.224 445.396 644.201 445.565L644.066 446.576L643.943 447.577L643.831 448.565C643.813 448.729 643.796 448.892 643.78 449.054L643.686 450.019L643.606 450.965L643.538 451.891C643.528 452.043 643.519 452.195 643.51 452.345L643.463 453.236C643.456 453.382 643.45 453.527 643.445 453.671L643.42 454.522C643.411 454.94 643.407 455.346 643.41 455.741C643.421 457.398 642.086 458.749 640.429 458.76C638.772 458.771 637.421 457.436 637.41 455.779C637.405 455.053 637.418 454.294 637.446 453.507L637.487 452.55L637.543 451.568L637.613 450.563L637.698 449.539C637.713 449.367 637.729 449.194 637.746 449.02L637.851 447.969L637.969 446.904L638.101 445.826C638.123 445.645 638.147 445.464 638.171 445.283L638.321 444.19L638.483 443.089L638.656 441.984L638.841 440.876C638.872 440.691 638.904 440.506 638.937 440.321L639.138 439.213C639.172 439.028 639.207 438.844 639.242 438.66L639.458 437.556L639.684 436.457L639.919 435.367L640.163 434.287L640.416 433.219L640.677 432.165L640.946 431.128L641.222 430.11C641.269 429.941 641.316 429.774 641.363 429.608L641.651 428.622C641.699 428.459 641.748 428.298 641.797 428.137L642.094 427.188L642.397 426.266C643.519 422.938 644.757 420.204 646.029 418.545C648.51 415.308 653.506 412.677 660.159 410.452L660.966 410.188C661.102 410.144 661.238 410.101 661.374 410.058L662.195 409.804L663.02 409.558L663.844 409.322L664.662 409.096L665.47 408.88L666.263 408.677L667.037 408.487L667.788 408.31L668.859 408.073L669.531 407.935L670.162 407.814L670.75 407.711C670.938 407.68 671.118 407.652 671.289 407.627L671.775 407.563C672.004 407.536 672.211 407.517 672.394 407.506Z" fill="#2E186A"/>
<path fill-rule="evenodd" clip-rule="evenodd" d="M694.65 447.4C696.37 440.32 682.3 439.82 680.12 439.95C679.57 439.95 673.5 441.9 664.77 444.74C661.77 443.51 656.56 442.57 648.03 443.81C636.89 445.43 636.03 450.62 636.76 453.96L631.37 455.75C626.23 453.88 622.37 453.21 616.12 454.56C609.27 456.05 603.83 459.9 604.31 464.77L590.91 469.25C590.91 469.25 592.26 482.48 602.09 484.9C611.92 487.32 649.95 491.75 653.88 488.22C653.88 488.22 652.33 481.84 653.51 481.77C653.84 481.77 657.51 484.13 661.51 482.67C663.09 491.48 664.85 517.77 674.73 517.77C695.21 517.77 696.73 483.77 699.17 467.01L703 465.3C702.635 458.478 699.642 452.063 694.65 447.4V447.4Z" fill="#FE7624"/>
<path fill-rule="evenodd" clip-rule="evenodd" d="M667.82 499.17C667.82 499.17 676 509.07 684.54 508.3C693.08 507.53 698.65 510.3 701.39 508.92C704.13 507.54 708.33 501.69 714.39 498.47C720.45 495.25 722.16 486.08 721.14 482.04" fill="white"/>
<path fill-rule="evenodd" clip-rule="evenodd" d="M706.924 500.077C708.962 498.318 710.906 496.924 712.982 495.821C716.825 493.779 719.133 486.982 718.286 483.009L718.231 482.774C717.826 481.168 718.799 479.537 720.406 479.131C722.012 478.726 723.643 479.699 724.049 481.306C725.642 487.616 722.498 497.304 716.105 500.95L715.798 501.119C714.022 502.063 712.291 503.333 710.39 505.016L709.917 505.44L709.431 505.885L708.646 506.622L706.483 508.691L705.942 509.196C705.856 509.276 705.771 509.353 705.687 509.429L705.205 509.857C704.35 510.6 703.652 511.112 702.935 511.497L702.614 511.662L702.259 511.834L701.925 511.982L701.711 512.068L701.499 512.143C701.464 512.154 701.428 512.166 701.393 512.177L701.179 512.236C701.143 512.245 701.107 512.254 701.071 512.262L700.848 512.307C700.811 512.313 700.773 512.319 700.734 512.325L700.497 512.354C700.456 512.358 700.415 512.362 700.373 512.365L700.115 512.38C700.07 512.381 700.025 512.383 699.979 512.383L699.691 512.383L699.382 512.373L699.046 512.354L698.683 512.325L698.287 512.286L697.858 512.238L697.391 512.181L696.04 511.998L694.022 511.705C690.647 511.208 688.157 511.034 685.341 511.244L684.809 511.288C680.034 511.718 675.315 509.68 670.779 506.115C669.391 505.024 668.119 503.862 666.984 502.697L666.593 502.291L666.249 501.923L665.952 501.596L665.705 501.314L665.507 501.081C664.452 499.804 664.632 497.913 665.909 496.857C667.137 495.843 668.933 495.97 670.007 497.117L670.403 497.57L670.558 497.742L670.899 498.111L671.28 498.509C672.241 499.495 673.321 500.482 674.486 501.398C677.934 504.107 681.336 505.577 684.271 505.312C687.656 505.007 690.527 505.157 694.198 505.669L696.821 506.046L697.841 506.182L698.612 506.272L699.077 506.313L699.35 506.328L699.568 506.33L699.687 506.324L699.789 506.314L699.875 506.298L699.948 506.278L700.012 506.254L700.041 506.241C700.07 506.226 700.108 506.202 700.154 506.171L700.315 506.054L700.634 505.799L701.033 505.462L701.834 504.761L702.742 503.944L704.452 502.373L706.265 500.672L706.432 500.507L706.924 500.077Z" fill="#2E186A"/>
<path fill-rule="evenodd" clip-rule="evenodd" d="M720.35 462.37C720.35 462.37 725.93 475.37 721.01 480.81C716.09 486.25 689.33 500 686.13 499.46C682.93 498.92 667.89 495.16 666.56 493.51C665.23 491.86 665.19 479.59 670.89 478.46C676.59 477.33 681.59 481.14 687.47 478.73" fill="white"/>
<path fill-rule="evenodd" clip-rule="evenodd" d="M719.167 459.613C720.689 458.96 722.453 459.664 723.107 461.187L723.267 461.57L723.442 462.012L723.63 462.509C723.662 462.597 723.695 462.686 723.728 462.778L724.035 463.659L724.247 464.305L724.463 464.996C724.499 465.114 724.535 465.234 724.571 465.356C725.292 467.795 725.792 470.22 725.969 472.536C726.29 476.739 725.536 480.278 723.235 482.822C722.947 483.141 722.6 483.481 722.198 483.841L721.778 484.207L721.323 484.587C721.244 484.651 721.164 484.715 721.082 484.781L720.575 485.177C720.488 485.244 720.399 485.312 720.309 485.38L719.753 485.794C719.658 485.863 719.561 485.934 719.463 486.004L718.86 486.433L718.227 486.872L717.565 487.32L716.875 487.776L716.158 488.24L715.414 488.712C715.288 488.792 715.161 488.871 715.033 488.951L714.252 489.433L713.037 490.168L712.199 490.665L710.903 491.419L710.014 491.928L708.645 492.696L707.238 493.471L706.28 493.991L705.307 494.511L704.321 495.033L702.478 495.992L700.702 496.897L699.417 497.537L698.582 497.946L697.767 498.339L696.971 498.717L696.195 499.079L695.07 499.591L694.346 499.911L693.644 500.215L692.964 500.5L692.307 500.768L691.673 501.017L691.062 501.248L690.476 501.46L689.914 501.653L689.378 501.826C689.29 501.853 689.204 501.879 689.119 501.905L688.621 502.047L688.15 502.169C687.081 502.43 686.232 502.52 685.631 502.418L685.24 502.348L684.539 502.209L683.415 501.967L682.454 501.747L681.049 501.413L679.542 501.04L678.37 500.741L677.183 500.43L675.607 500.005L674.397 499.667L673.147 499.309L671.985 498.966L671.258 498.745L670.569 498.529L669.917 498.318L669.301 498.11L668.721 497.906L668.176 497.705L667.665 497.505C667.583 497.472 667.502 497.439 667.423 497.406L666.963 497.209C666.889 497.177 666.816 497.144 666.745 497.111L666.334 496.915C665.346 496.424 664.658 495.931 664.224 495.393C662.809 493.637 662.496 489.329 663.125 485.325C663.934 480.17 666.165 476.338 670.307 475.517C672.24 475.134 673.779 475.131 676.054 475.471L676.76 475.583L677.517 475.715C677.647 475.739 677.781 475.764 677.916 475.789L679.156 476.028L679.886 476.163L680.561 476.279L681.185 476.375L681.763 476.451C683.621 476.67 684.802 476.547 686.132 476.034L686.332 475.954C687.865 475.326 689.618 476.059 690.246 477.592C690.874 479.125 690.141 480.878 688.608 481.506C685.377 482.83 682.967 482.835 678.504 482.01L676.57 481.642L675.952 481.532L675.385 481.44C675.294 481.426 675.206 481.413 675.119 481.401L674.619 481.334C674.539 481.325 674.461 481.316 674.384 481.308L673.937 481.267C673.147 481.208 672.501 481.233 671.838 481.338L671.473 481.403C670.52 481.592 669.513 483.321 669.052 486.255C668.834 487.647 668.774 489.138 668.866 490.404C668.894 490.793 668.936 491.142 668.986 491.43L669.007 491.539L669.118 491.591C669.235 491.645 669.364 491.701 669.503 491.759L669.954 491.941L670.466 492.136L670.745 492.237L671.405 492.469L672.122 492.709C672.246 492.75 672.372 492.791 672.501 492.832L673.298 493.084L674.145 493.343L675.037 493.607L675.972 493.877L677.218 494.225L678.385 494.541L680.336 495.051L682.214 495.521L683.6 495.854L684.541 496.071L685.626 496.308L686.081 496.401L686.4 496.461L686.407 496.458L686.424 496.454C686.543 496.431 686.689 496.396 686.858 496.35L687.226 496.244C687.292 496.223 687.361 496.202 687.432 496.179L687.92 496.016C688.006 495.987 688.093 495.956 688.183 495.924L688.744 495.718C688.842 495.681 688.941 495.643 689.042 495.604L689.672 495.356C689.781 495.313 689.891 495.268 690.003 495.222L690.697 494.934L691.059 494.78C692.094 494.338 693.227 493.827 694.428 493.264L695.65 492.684C695.858 492.584 696.066 492.483 696.276 492.381L697.554 491.754L698.86 491.099L700.187 490.421L701.529 489.722L702.871 489.01L704.188 488.299L705.049 487.827L705.896 487.356L707.138 486.656L707.945 486.193L709.121 485.509L710.252 484.836L711.335 484.178L712.029 483.749L712.698 483.328L713.653 482.713L714.257 482.316L714.832 481.929C714.925 481.866 715.017 481.803 715.108 481.74L715.639 481.371L716.139 481.013L716.606 480.669L717.041 480.339C717.11 480.285 717.178 480.232 717.245 480.179L717.627 479.87L717.974 479.577L718.283 479.3C718.476 479.121 718.644 478.953 718.785 478.798C719.769 477.709 720.194 475.714 719.986 472.993C719.846 471.149 719.428 469.122 718.817 467.058C718.599 466.319 718.367 465.616 718.134 464.965L717.897 464.32L717.654 463.699L717.593 463.553C716.94 462.031 717.644 460.267 719.167 459.613Z" fill="#2E186A"/>
<path fill-rule="evenodd" clip-rule="evenodd" d="M677.15 426C677.15 426 695.53 428.39 701.42 430.44C707.31 432.49 719.15 446.06 723.31 453.44C727.47 460.82 723.52 464.58 719.52 466.97C715.52 469.36 702.52 474.18 699.84 475.3C697.16 476.42 682.84 481.3 680.95 477.61C679.06 473.92 676.27 465.14 698.95 459.61C701.61 453.16 700.95 452.22 708.63 449.97" fill="white"/>
<path fill-rule="evenodd" clip-rule="evenodd" d="M674.175 425.613C674.381 424.029 675.788 422.895 677.361 423.007L677.838 423.065L680.095 423.373L681.65 423.594C684.729 424.037 687.809 424.514 690.689 425.009L691.898 425.219L693.062 425.429L694.178 425.637L695.246 425.843L696.264 426.048L697.231 426.251L698.145 426.452C698.292 426.485 698.438 426.518 698.581 426.552L699.413 426.75C700.596 427.041 701.594 427.324 702.406 427.607C705.023 428.518 708.694 431.378 712.445 435.049L713.172 435.77L713.9 436.509L714.626 437.264L715.349 438.034L716.068 438.817L716.782 439.611C716.9 439.745 717.018 439.878 717.136 440.012L717.837 440.819L718.529 441.633C718.644 441.769 718.758 441.905 718.871 442.042L719.546 442.862L720.206 443.684L720.852 444.506L721.48 445.326L722.091 446.143C722.191 446.278 722.29 446.414 722.388 446.549L722.968 447.357C724.106 448.965 725.11 450.523 725.923 451.967C730.374 459.862 727.857 465.483 721.059 469.545L720.652 469.781C720.58 469.821 720.507 469.862 720.432 469.903L719.96 470.156L719.444 470.421L718.884 470.698L718.282 470.986L717.636 471.287L716.948 471.6L716.217 471.924L715.041 472.435L713.771 472.973L712.312 473.578L710.675 474.245L707.131 475.652L700.997 478.068L700.443 478.292L699.821 478.529L699.137 478.777C699.019 478.819 698.898 478.862 698.775 478.904L698.016 479.163L697.216 479.424L696.384 479.686L695.527 479.946L694.653 480.199L693.771 480.444L692.889 480.678L692.014 480.896C691.58 481.002 691.151 481.1 690.734 481.191L689.997 481.346L689.281 481.486C688.928 481.553 688.583 481.614 688.245 481.67L687.58 481.772C682.886 482.451 679.763 481.874 678.28 478.978C676.402 475.312 675.957 471.639 678.128 467.818C680.64 463.396 686.401 459.889 696 457.273L696.73 457.077L697.631 454.814L697.888 454.189L697.942 454.067C699.216 451.194 700.766 449.673 703.913 448.392L704.172 448.288L704.719 448.081C704.813 448.046 704.91 448.011 705.008 447.976L705.621 447.765L706.284 447.548L707.005 447.324C707.255 447.248 707.515 447.171 707.787 447.091C709.377 446.625 711.043 447.537 711.509 449.127C711.975 450.717 711.063 452.383 709.473 452.849L708.781 453.055L708.151 453.251L707.58 453.436C707.489 453.466 707.401 453.496 707.315 453.526L706.824 453.699C706.746 453.728 706.671 453.756 706.597 453.784L706.177 453.948C704.552 454.61 704.113 455 703.51 456.315L703.387 456.589L703.063 457.385L701.773 460.632C701.755 460.677 701.738 460.718 701.723 460.754C701.358 461.64 700.592 462.298 699.661 462.525C699.142 462.651 698.637 462.779 698.145 462.909L697.178 463.171C696.861 463.259 696.55 463.348 696.245 463.437L695.346 463.708C688.582 465.799 684.781 468.253 683.345 470.782C682.447 472.362 682.544 473.911 683.375 475.737L683.434 475.861C683.629 475.907 683.886 475.94 684.204 475.957L684.402 475.964C685.57 475.995 687.168 475.803 689.055 475.413L689.858 475.239L690.666 475.049C690.802 475.016 690.939 474.982 691.076 474.948L691.906 474.733C692.044 474.696 692.183 474.658 692.322 474.62L693.154 474.388C693.292 474.348 693.429 474.308 693.566 474.268L694.379 474.025L695.168 473.78C695.297 473.739 695.425 473.698 695.551 473.657L696.288 473.414L696.979 473.177C697.09 473.138 697.198 473.099 697.304 473.061L697.909 472.839L698.444 472.63L699.328 472.275L707.076 469.221L708.896 468.492L710.576 467.804L711.77 467.306L712.881 466.832L714.23 466.241L715.139 465.83L715.695 465.572L716.208 465.327L716.679 465.095L717.107 464.877L717.491 464.674L717.829 464.484C717.882 464.454 717.932 464.424 717.981 464.395C718.14 464.3 718.295 464.205 718.445 464.11L718.882 463.828C722.409 461.476 723.11 459.194 720.697 454.913C720.254 454.128 719.739 453.295 719.167 452.431L718.662 451.684C718.403 451.306 718.135 450.924 717.857 450.538L717.291 449.763C717.195 449.633 717.098 449.502 717 449.372L716.403 448.586C716.302 448.454 716.2 448.323 716.098 448.191L715.474 447.4L714.836 446.608L714.184 445.817C714.075 445.686 713.965 445.554 713.854 445.423L713.187 444.639C713.075 444.509 712.963 444.379 712.85 444.25L712.172 443.477L711.488 442.716L710.802 441.966L710.114 441.232L709.428 440.515L708.745 439.818L708.067 439.142C707.617 438.699 707.171 438.273 706.734 437.865L706.083 437.267L705.446 436.701C703.45 434.957 701.683 433.708 700.434 433.273L700.223 433.202L699.753 433.054C699.67 433.029 699.584 433.003 699.495 432.978L698.934 432.821C698.835 432.795 698.734 432.768 698.631 432.741L697.982 432.577L697.602 432.485L696.797 432.299L695.935 432.109L695.018 431.917L694.049 431.722L693.027 431.525L691.403 431.226L690.262 431.024L689.674 430.922C687.256 430.507 684.686 430.103 682.093 429.722L680.271 429.458L676.763 428.975C675.12 428.761 673.961 427.256 674.175 425.613Z" fill="#2E186A"/>
<path fill-rule="evenodd" clip-rule="evenodd" d="M482.65 673.05L547.83 566.05C547.83 566.05 596.19 559.73 604.02 555.91C611.85 552.09 617.71 539.51 617.71 539.51C620.111 538.057 622.431 536.475 624.66 534.77C626.895 532.977 628.76 530.766 630.15 528.26L631.15 526.34C636.86 525.15 641.85 524.06 642.73 523.67C644.94 522.67 647.73 517.51 646.84 513.23C646.39 511.04 644.2 508.07 642.16 505.68C642.16 505.68 667.21 501.2 673.64 497.89C681.42 493.89 679.06 488.55 675.93 485.05C672.8 481.55 663.42 481.66 639.24 483.87C610.73 488.39 590.37 478.29 590.37 478.29C591.464 469.744 597.863 462.835 606.3 461.09C625.14 456.34 624.54 442.59 617.04 445.3C609.54 448.01 592.37 442.3 589.44 442.85C586.51 443.4 569.49 456.75 560.64 467C550.87 478.28 518.26 512 518.26 512L516.52 513.8C516.52 513.8 467.86 546.48 422.92 590.27L421.46 591.04L413.46 558.5C413.46 558.5 379.97 526.68 293.34 538.63C293.34 538.63 291.62 637.9 352.34 673.11L482.65 673.05Z" fill="white"/>
<path fill-rule="evenodd" clip-rule="evenodd" d="M588.887 439.901C588.464 439.981 587.908 440.195 587.24 440.527L586.825 440.74C586.754 440.778 586.682 440.817 586.609 440.857L586.156 441.111L585.679 441.391L585.18 441.696L584.658 442.026L584.114 442.38L583.263 442.953L582.671 443.362L582.063 443.791L581.438 444.241L580.797 444.71L580.142 445.197L579.136 445.96L578.103 446.759L577.048 447.592L575.973 448.456L575.248 449.048L574.149 449.957L573.041 450.889L571.926 451.842L571.181 452.487L570.064 453.467L569.321 454.129L568.58 454.795L567.476 455.802L566.772 456.453C563.711 459.301 561.003 462.041 558.802 464.542L557.344 466.21L556.166 467.534L555.116 468.7L553.055 470.963L550.364 473.883L546.522 478.007L542.635 482.144L538.639 486.372L534.535 490.694L530.316 495.119L526.025 499.602L516.103 509.914L514.582 511.488L512.932 512.618L510.669 514.188L508.647 515.607L506.698 516.988L504.929 518.25L503.122 519.549L501.278 520.884L499.399 522.253L497.484 523.658L495.535 525.097L493.553 526.57L491.54 528.077L489.495 529.618C489.152 529.877 488.807 530.138 488.461 530.4C468.701 545.382 448.941 561.734 430.488 578.921L428.523 580.759C427.218 581.985 425.924 583.211 424.642 584.438L423.254 585.771L416.373 557.784C416.236 557.227 415.942 556.72 415.526 556.325L415.335 556.148L414.94 555.802L414.603 555.519L414.208 555.196C413.184 554.37 411.949 553.459 410.498 552.485C406.403 549.736 401.371 547.002 395.359 544.46C370.201 533.822 336.357 529.668 292.93 535.658C291.524 535.852 290.455 537.002 290.349 538.402L290.34 538.619L290.336 539.082L290.337 540.189L290.348 541.274L290.367 542.402L290.395 543.572L290.433 544.785L290.48 546.039L290.537 547.334L290.604 548.667L290.682 550.04L290.771 551.45L290.871 552.898L290.983 554.381L291.107 555.9L291.243 557.454C291.291 557.977 291.34 558.507 291.392 559.041L291.554 560.661C292.857 573.315 295.117 586.188 298.548 598.759C308.038 633.526 324.855 660.64 350.835 675.705C351.293 675.971 351.812 676.11 352.341 676.11L482.651 676.05L482.847 676.044C483.817 675.98 484.702 675.448 485.212 674.611L549.646 568.835L552.727 568.417L555.651 568.012L559.03 567.535L562.692 567.006C563.3 566.917 563.908 566.828 564.514 566.739L568.134 566.197C568.734 566.107 569.331 566.016 569.927 565.924L573.468 565.374C574.053 565.282 574.635 565.19 575.213 565.097L577.916 564.66L580.774 564.186L583.512 563.719L585.267 563.411L586.965 563.106L588.603 562.804L590.724 562.402L591.784 562.195L593.308 561.89L594.753 561.591L596.118 561.297L596.984 561.103L598.216 560.818L598.992 560.63L599.733 560.445L600.438 560.262L601.108 560.08L601.741 559.901C601.844 559.871 601.945 559.841 602.044 559.811L602.623 559.634L603.166 559.459C603.254 559.43 603.34 559.401 603.424 559.372L603.913 559.199L604.365 559.028C604.437 559 604.508 558.971 604.577 558.943L604.975 558.774L605.335 558.606C608.726 556.952 611.86 553.973 614.798 550.052C616.318 548.024 617.691 545.866 618.899 543.709L619.222 543.126L619.535 542.546L619.937 541.778L620.022 541.61L619.263 542.077C621.757 540.567 624.167 538.924 626.482 537.153L626.935 536.782C629.324 534.777 631.288 532.394 632.774 529.715L633.153 528.985L636.332 528.31L638.882 527.751L640.648 527.346L641.388 527.168L642.288 526.941L642.717 526.825L643.092 526.717C643.15 526.7 643.206 526.682 643.26 526.665L643.564 526.563C643.705 526.513 643.831 526.463 643.946 526.413C647.839 524.651 650.859 517.823 649.777 512.619L649.713 512.333C649.387 510.988 648.692 509.545 647.685 507.99L647.51 507.724L647.667 507.695C651.405 506.967 655.168 506.186 658.719 505.384L659.586 505.186L661.032 504.85L662.153 504.583L663.238 504.319L664.795 503.928L666.267 503.543L667.2 503.29L668.094 503.04L668.948 502.792L669.762 502.546L670.537 502.303L671.27 502.063L671.962 501.825L672.612 501.589L673.221 501.356C673.906 501.085 674.504 500.819 675.013 500.557C682.844 496.531 683.559 490.447 679.562 484.795L679.241 484.356C678.911 483.917 678.552 483.482 678.166 483.05L678.045 482.917L677.795 482.66C677.71 482.575 677.624 482.493 677.535 482.412L677.263 482.175C677.217 482.136 677.17 482.097 677.123 482.06L676.832 481.837L676.528 481.624C675.234 480.759 673.575 480.149 671.313 479.769L670.759 479.682C670.57 479.654 670.378 479.628 670.181 479.604L669.578 479.535L668.95 479.474L668.296 479.422C668.185 479.414 668.073 479.406 667.959 479.399L667.265 479.359C667.147 479.354 667.028 479.348 666.907 479.343L666.171 479.316L665.405 479.297C665.275 479.295 665.144 479.292 665.012 479.291L663.785 479.284L662.488 479.295L661.119 479.324L660.165 479.353L658.67 479.411L657.629 479.459L656.001 479.545L654.289 479.647L653.101 479.725L651.246 479.855L649.959 479.95L647.264 480.161L644.4 480.4L640.575 480.737L638.967 480.882L638.77 480.907C624.862 483.112 611.914 481.987 600.55 478.775L599.873 478.581C597.863 477.994 596.05 477.377 594.447 476.76L593.768 476.493L593.841 476.226C595.518 470.217 600.365 465.52 606.556 464.104L607.033 463.999C616.307 461.661 622.496 456.875 624.385 451.372C626.43 445.414 622.324 440.369 616.255 442.397L616.021 442.479C614.119 443.166 610.924 443.205 606.635 442.657L605.699 442.53C605.54 442.508 605.38 442.484 605.219 442.46L604.715 442.384L603.687 442.218C603.513 442.189 603.337 442.159 603.159 442.128L602.065 441.934L600.911 441.718L593.972 440.336L593.566 440.259L592.873 440.135L592.241 440.031C590.834 439.81 589.88 439.748 589.06 439.872L588.887 439.901ZM590.121 445.763L590.143 445.761L590.244 445.765L590.424 445.788L591.348 445.954L599.17 447.493L600.411 447.73L601.587 447.944L602.712 448.138L603.8 448.313C603.979 448.341 604.157 448.368 604.335 448.395C610.078 449.25 614.454 449.316 617.735 448.234L618.279 448.045L618.469 447.986C618.995 447.838 619.129 447.958 618.967 448.599L618.902 448.833L618.816 449.107L618.71 449.423L618.635 449.63C617.391 452.874 613.059 456.197 606.02 458.064L605.608 458.17L605.692 458.152C596.001 460.156 588.651 468.093 587.394 477.909C587.232 479.177 587.891 480.409 589.037 480.977L589.295 481.102L589.61 481.248L590.186 481.504L590.887 481.8L591.422 482.018L591.71 482.133C593.796 482.96 596.207 483.783 598.918 484.549L599.649 484.752C611.379 487.964 624.625 489.091 638.821 486.97L639.596 486.85L643 486.546L646.256 486.27L649.29 486.029L651.56 485.861L653.175 485.75L654.715 485.652L656.656 485.54L658.03 485.47L659.754 485.396L660.572 485.367L661.743 485.333L662.488 485.318L663.553 485.305L664.557 485.303L665.5 485.314L666.096 485.328L666.943 485.358L667.734 485.4L668.23 485.434L668.704 485.474L669.154 485.519L669.581 485.569L669.985 485.624L670.368 485.684L670.73 485.749L671.071 485.819L671.391 485.894C671.442 485.907 671.493 485.921 671.543 485.934L671.834 486.017L672.105 486.105C672.148 486.12 672.191 486.135 672.233 486.15L672.476 486.246L672.701 486.346C672.773 486.38 672.842 486.415 672.908 486.451L673.098 486.561C673.219 486.636 673.328 486.714 673.427 486.796L673.568 486.92C673.613 486.963 673.654 487.006 673.694 487.05L674.019 487.422L674.319 487.785C674.367 487.845 674.414 487.904 674.46 487.964L674.723 488.314C676.769 491.142 676.275 493.162 672.268 495.222C672.056 495.331 671.814 495.444 671.543 495.561L671.116 495.738L670.646 495.921L670.134 496.108L669.582 496.3L668.991 496.497L668.36 496.698L667.691 496.903L666.985 497.112L666.243 497.325L665.064 497.651L663.807 497.985L662.928 498.211L662.017 498.439L660.592 498.787L659.1 499.14L658.244 499.338L657.392 499.532C654.408 500.207 651.258 500.868 648.099 501.495L645.438 502.015L642.198 502.624L641.632 502.727C639.351 503.135 638.374 505.865 639.878 507.628L640.116 507.909L640.576 508.463C640.65 508.555 640.724 508.646 640.796 508.736L641.218 509.272L641.615 509.793C641.998 510.306 642.341 510.795 642.637 511.251L642.919 511.698C643.45 512.567 643.792 513.299 643.901 513.834C644.424 516.346 642.769 520.187 641.59 520.886L641.484 520.94L640.776 521.134L640.344 521.245L639.245 521.512L637.845 521.834L635.426 522.368L631.526 523.197L630.538 523.403C629.657 523.587 628.905 524.156 628.489 524.954L627.489 526.874C626.326 528.97 624.715 530.881 622.783 532.43C620.695 534.026 618.465 535.547 616.157 536.943C615.648 537.251 615.242 537.704 614.991 538.243L614.847 538.541L614.664 538.906C614.38 539.468 614.046 540.097 613.665 540.776C612.577 542.717 611.344 544.657 609.997 546.454C607.578 549.682 605.083 552.053 602.705 553.214L602.582 553.272L602.308 553.391L601.996 553.515L601.647 553.642L601.261 553.774L600.614 553.979L600.137 554.121L599.626 554.266L599.08 554.414L598.5 554.566L597.566 554.8L596.559 555.042L595.847 555.206L594.72 555.458L593.109 555.803L591.822 556.068L589.533 556.521L588.284 556.76L586.7 557.055L585.055 557.354L583.35 557.656L580.687 558.116L578.843 558.426L575.977 558.897C573.708 559.265 571.38 559.631 569.013 559.994L565.438 560.535C564.238 560.715 563.032 560.893 561.822 561.07L558.181 561.595L555.582 561.963L550.547 562.659L547.441 563.075L547.25 563.107C546.427 563.269 545.707 563.769 545.268 564.489L480.963 670.051L353.155 670.11L352.392 669.652C328.818 655.336 313.268 629.898 304.337 597.179C300.998 584.948 298.794 572.392 297.522 560.046L297.442 559.253L297.285 557.628L297.141 556.039C297.118 555.777 297.096 555.517 297.074 555.258L296.95 553.724L296.838 552.229L296.739 550.772L296.652 549.355L296.576 547.98L296.511 546.646C296.501 546.427 296.492 546.211 296.483 545.995L296.434 544.727L296.395 543.502L296.367 542.323L296.348 541.253L297.538 541.102C338.082 536.003 369.603 540.083 393.022 549.986C398.678 552.377 403.373 554.929 407.154 557.467C408.314 558.245 409.307 558.97 410.137 559.624L410.772 560.137L418.547 591.756C419.012 593.651 421.134 594.604 422.859 593.694L424.319 592.924C424.574 592.789 424.808 592.619 425.014 592.419C428.132 589.38 431.322 586.343 434.577 583.311C452.869 566.275 472.477 550.049 492.086 535.181L494.13 533.636L496.144 532.125L499.105 529.92L501.992 527.791L503.874 526.415L505.72 525.074L507.53 523.769L510.175 521.878L512.621 520.147L515.032 518.461L516.942 517.142L518.193 516.29C518.368 516.173 518.53 516.037 518.677 515.885L522.358 512.074L527.473 506.759L533.228 500.755L536.074 497.776L540.267 493.373L546.556 486.732L550.093 482.971L553.693 479.116L556.869 475.681L559.319 472.997L560.664 471.505L562.083 469.908L562.908 468.964C565.027 466.509 567.742 463.746 570.852 460.852L571.544 460.212C575.485 456.589 579.856 452.937 583.645 450.072L584.052 449.766L584.842 449.179L585.598 448.629L586.319 448.116L586.999 447.644L587.638 447.214L588.231 446.828L588.713 446.527L589.146 446.269C589.35 446.15 589.534 446.049 589.697 445.964L589.915 445.857L590.083 445.781L590.024 445.792L590.121 445.763Z" fill="#2E186A"/>
<path fill-rule="evenodd" clip-rule="evenodd" d="M616.12 536.936C617.525 536.058 619.376 536.485 620.254 537.89C621.132 539.295 620.705 541.146 619.3 542.024C617.147 543.369 614.912 544.666 612.718 545.87L611.827 546.355L610.307 547.162L609.798 547.425C608.321 548.175 606.515 547.586 605.765 546.108C605.043 544.686 605.563 542.959 606.921 542.163L608.188 541.497L608.979 541.074L609.832 540.61C611.932 539.457 614.073 538.216 616.12 536.936Z" fill="#2E186A"/>
<path fill-rule="evenodd" clip-rule="evenodd" d="M634.077 525.696C634.415 527.318 633.375 528.908 631.754 529.247L628.056 530.011L624.168 530.8L621.501 531.335L615.618 532.5L612.62 533.085C610.994 533.4 609.42 532.337 609.105 530.71C608.801 529.142 609.779 527.622 611.308 527.233L611.824 527.128L616.283 526.254L618.982 525.719L622.981 524.919L625.581 524.392L628.248 523.846L630.526 523.373C632.148 523.035 633.738 524.075 634.077 525.696Z" fill="#2E186A"/>
<path fill-rule="evenodd" clip-rule="evenodd" d="M641.993 502.654C643.648 502.568 645.059 503.839 645.146 505.493C645.229 507.089 644.05 508.458 642.482 508.632L642.307 508.646L614.377 510.106C612.722 510.192 611.311 508.921 611.224 507.267C611.141 505.671 612.32 504.302 613.888 504.128L614.063 504.114L641.993 502.654Z" fill="#2E186A"/>
<path fill-rule="evenodd" clip-rule="evenodd" d="M420.836 588.052C422.028 586.901 423.927 586.934 425.078 588.126C426.229 589.318 426.196 591.217 425.004 592.368C412.597 604.349 400.91 617.054 390.004 630.417C388.957 631.7 387.067 631.892 385.783 630.844C384.5 629.797 384.308 627.907 385.356 626.623C396.411 613.077 408.259 600.198 420.836 588.052Z" fill="#2E186A"/>
<path fill-rule="evenodd" clip-rule="evenodd" d="M1198.62 466.72C1198.62 466.72 1169.21 500.92 1123.62 518.93C1078.03 536.94 988 572.61 988 572.61L1155.29 596.14L1229.55 466.72H1198.62Z" fill="white"/>
<path fill-rule="evenodd" clip-rule="evenodd" d="M1229.55 463.72H1198.62C1197.75 463.72 1196.92 464.101 1196.35 464.764L1195.76 465.421L1195.31 465.923L1194.54 466.757L1193.96 467.367L1193.02 468.36C1191.88 469.538 1190.64 470.784 1189.31 472.09L1188.14 473.224C1187.74 473.606 1187.33 473.993 1186.92 474.385C1179.2 481.668 1170.33 488.955 1160.42 495.754C1148.83 503.708 1136.58 510.457 1123.8 515.628L986.895 569.821C984.032 570.955 984.532 575.152 987.582 575.581L1154.87 599.111C1156.09 599.282 1157.28 598.696 1157.89 597.633L1232.15 468.213C1233.3 466.213 1231.86 463.72 1229.55 463.72ZM1224.37 469.72L1153.7 592.886L999.654 571.22L1124.72 521.72C1138.42 516.311 1151.48 509.164 1163.81 500.702C1173.99 493.716 1183.11 486.234 1191.04 478.748C1191.68 478.142 1192.3 477.546 1192.91 476.961L1194.09 475.804C1195.06 474.853 1195.97 473.932 1196.83 473.046L1197.84 471.999L1198.63 471.163L1199.21 470.543L1199.74 469.967L1199.96 469.72H1224.37Z" fill="#2E186A"/>
<path fill-rule="evenodd" clip-rule="evenodd" d="M1267 408.84C1263.16 403.5 1253.45 400.26 1246.89 402.01C1239.53 404.01 1190.51 463.01 1181.69 474.81C1176.59 481.61 1184.69 494.94 1192.51 504.99C1179.08 527.45 1162.43 554.99 1143.7 587.56C1138.7 596.26 1201.61 595.41 1201.61 595.41C1201.61 595.41 1270.25 484.64 1275.61 450.82C1279.44 427.11 1274.15 415.2 1267 408.84Z" fill="#5D21D1"/>
<path fill-rule="evenodd" clip-rule="evenodd" d="M1051.31 568.32C1051.31 568.32 1172.74 594.06 1227.43 594.52C1282.12 594.98 1368.98 572.92 1391.49 555.45C1414 537.98 1424.12 594.68 1380.92 624.09C1337.72 653.5 1281.66 726.95 1255.92 717.3C1230.18 707.65 1204.92 688.73 1203.53 672.18C1193.88 672.64 1056.01 672.64 1056.01 672.64L1051.31 568.32Z" fill="white"/>
<path fill-rule="evenodd" clip-rule="evenodd" d="M1389.65 553.08C1366.92 570.724 1279.75 591.96 1227.46 591.52L1226.21 591.505L1224.93 591.482L1223.63 591.45L1222.3 591.41L1220.95 591.361L1219.57 591.303L1218.16 591.237L1216 591.123L1213.79 590.989L1212.28 590.89L1209.97 590.726L1208.4 590.607L1206 590.412L1204.37 590.272L1202.72 590.125L1201.04 589.969L1198.48 589.721L1195.86 589.455L1193.19 589.172L1190.47 588.872L1186.77 588.444L1184.88 588.219L1182.01 587.868L1179.09 587.499L1176.12 587.115L1173.1 586.713L1169 586.153L1165.87 585.714L1161.63 585.104L1157.3 584.466L1155.11 584.137L1152.9 583.801L1148.41 583.107C1139.37 581.695 1130 580.141 1120.38 578.468C1104.96 575.784 1089.62 572.921 1074.97 570.047L1069.05 568.876L1061.58 567.375L1055.19 566.065L1051.93 565.385C1050.01 564.978 1048.22 566.494 1048.31 568.455L1053.01 672.775C1053.08 674.318 1054.31 675.546 1055.84 675.635L1056.02 675.64L1117.45 675.599L1141.69 675.559L1164.07 675.5L1177.01 675.449L1190.21 675.371L1197.15 675.306L1200.24 675.263L1200.98 675.25L1201.04 675.524C1204.87 691.808 1227.75 709.943 1254.87 720.109C1260.94 722.386 1268.16 721.022 1276.89 716.367L1277.77 715.891C1278.36 715.566 1278.95 715.227 1279.56 714.873L1280.46 714.331C1280.62 714.239 1280.77 714.146 1280.92 714.052L1281.85 713.478C1282.47 713.088 1283.1 712.684 1283.73 712.265L1284.69 711.627C1285.01 711.411 1285.33 711.191 1285.66 710.967L1286.63 710.286C1286.8 710.171 1286.96 710.055 1287.13 709.938L1288.12 709.226L1289.13 708.492L1290.15 707.738L1291.18 706.962C1292.39 706.039 1293.56 705.138 1294.71 704.233L1295.88 703.308L1297.24 702.221L1298.32 701.335L1299.42 700.431L1300.81 699.265L1302.23 698.052L1303.7 696.781L1305.22 695.443L1307.47 693.437L1309.53 691.577L1311.72 689.567L1314.49 687.013L1318.41 683.353L1324.92 677.211L1333.27 669.288L1340.86 662.082L1343.53 659.564L1345.63 657.597L1349 654.454L1351.6 652.058L1353.5 650.327L1355.35 648.651L1357.15 647.029L1358.91 645.46L1360.07 644.442L1361.77 642.956L1363.43 641.519L1365.05 640.129L1366.12 639.228L1367.17 638.346L1368.21 637.484L1369.24 636.64L1370.25 635.815L1371.26 635.008L1372.25 634.219L1373.23 633.446L1374.2 632.691L1375.16 631.952L1376.12 631.228L1377.06 630.52L1378 629.827L1378.94 629.148L1379.86 628.484L1380.78 627.833L1381.7 627.195L1382.61 626.57C1402.77 612.846 1413.78 591.682 1413.85 572.201C1413.91 553.668 1403.09 543.037 1390.05 552.779L1389.65 553.08ZM1403.33 556.828C1406.11 559.516 1407.87 565.146 1407.85 572.179C1407.78 589.526 1397.94 608.625 1379.78 621.23L1378.29 622.254L1377.35 622.91L1376.41 623.579L1375.45 624.261L1374.5 624.958L1373.53 625.668L1372.56 626.393L1371.59 627.134L1370.6 627.89L1369.61 628.662L1368.6 629.45L1367.59 630.256L1366.57 631.079L1365.53 631.92L1363.96 633.216L1362.89 634.104L1361.27 635.472L1360.17 636.409L1359.05 637.367L1357.35 638.843L1355.61 640.368L1354.43 641.412L1352.02 643.571L1350.16 645.252L1348.26 646.988L1346.3 648.78L1344.3 650.63L1341.55 653.19L1338.71 655.86L1334.1 660.217L1321.96 671.752L1316.77 676.662L1312.63 680.547L1309.71 683.256L1307.41 685.383L1304.91 687.661L1303.57 688.873L1301.97 690.307L1300.14 691.921L1298.68 693.188L1296.99 694.631L1295.63 695.779L1294.02 697.106L1292.95 697.968L1291.62 699.03L1291.01 699.514C1289.88 700.4 1288.74 701.281 1287.55 702.184L1286.56 702.93L1285.58 703.655L1284.62 704.357L1283.66 705.038L1282.72 705.696L1281.8 706.332C1281.64 706.437 1281.49 706.54 1281.34 706.642L1280.43 707.246L1279.54 707.827C1279.39 707.922 1279.25 708.016 1279.1 708.109L1278.22 708.657C1278.08 708.747 1277.94 708.835 1277.79 708.923L1276.94 709.438C1276.8 709.522 1276.66 709.605 1276.51 709.687L1275.68 710.169L1274.86 710.629C1267.24 714.817 1261.3 716.114 1256.97 714.491C1230.09 704.412 1207.7 685.945 1206.52 671.929C1206.38 670.32 1205 669.107 1203.39 669.183L1202.68 669.21L1201.29 669.244L1197.72 669.3L1191.1 669.365L1180.12 669.434L1164.9 669.497L1149.92 669.54L1129.55 669.581L1104.99 669.613L1062.26 669.639L1058.88 669.639L1054.48 572.046L1059.51 573.076L1064.97 574.181L1070.89 575.358C1085.48 578.241 1100.81 581.124 1116.26 583.838L1119.35 584.379C1123.38 585.079 1127.36 585.758 1131.29 586.414L1135.98 587.191C1137.53 587.447 1139.08 587.698 1140.62 587.946L1145.21 588.678C1146.73 588.918 1148.24 589.154 1149.75 589.387L1154.22 590.071L1158.63 590.728L1162.95 591.357L1167.19 591.958L1170.31 592.39L1172.37 592.669L1176.42 593.205L1179.4 593.588L1182.33 593.953L1185.21 594.302L1188.05 594.634L1190.83 594.949L1193.56 595.247L1195.35 595.435L1198 595.703L1199.73 595.872L1201.44 596.033L1203.13 596.186L1204.79 596.331L1206.43 596.468L1208.84 596.658L1211.2 596.83L1212.74 596.934L1214.26 597.03L1216.49 597.159L1218.66 597.268L1220.08 597.33L1221.47 597.384L1222.83 597.429L1224.17 597.466L1225.48 597.494L1226.77 597.514C1226.98 597.516 1227.19 597.518 1227.4 597.52C1280.39 597.966 1367.59 576.855 1392.59 558.379L1393.33 557.82C1397.58 554.518 1400.84 554.429 1403.33 556.828Z" fill="#2E186A"/>
<path fill-rule="evenodd" clip-rule="evenodd" d="M1474.12 520.75C1471.62 503.75 1448.12 486.75 1420.23 492.05C1392.34 497.35 1332 525.48 1309.73 544C1285.42 580.71 1335.53 656.44 1339.73 662.71L1259.2 737.1C1255.55 740.458 1253.99 745.521 1255.11 750.352C1256.24 755.183 1259.88 759.034 1264.64 760.432C1269.4 761.829 1274.54 760.556 1278.1 757.1L1466.1 575.57C1468.76 573.002 1470.76 569.823 1471.92 566.31C1475 559.27 1477.77 545.62 1474.12 520.75Z" fill="#5D21D1"/>
<path fill-rule="evenodd" clip-rule="evenodd" d="M658.37 672.64C658.37 672.64 744.76 536.92 765.5 516.08C786.24 495.24 806.37 483 855.59 502C903.21 520.39 1150.12 582.57 1150.12 582.57C1150.12 582.57 1126.34 603.72 1140.01 672.65L658.37 672.64Z" fill="#2E186A"/>
<path fill-rule="evenodd" clip-rule="evenodd" d="M931.024 288.024C931.295 285.877 933.669 284.733 935.505 285.805L935.657 285.899L982.907 317.209C984.288 318.124 984.666 319.986 983.751 321.367C982.869 322.697 981.111 323.097 979.748 322.307L979.593 322.211L936.371 293.57L929.806 345.596C929.522 347.849 926.948 348.962 925.12 347.685L924.981 347.582L886.282 317.283L877.903 370.011C877.553 372.21 875.029 373.256 873.235 372.009L873.091 371.902L834.617 341.786L829.052 392.776C828.805 395.042 826.233 396.195 824.385 394.932L824.244 394.83L785.49 365.104L782.856 414.271C782.77 415.866 781.453 417.103 779.876 417.11L779.699 417.106C778.104 417.02 776.867 415.703 776.86 414.126L776.864 413.949L779.804 359.099C779.93 356.747 782.58 355.472 784.488 356.779L784.626 356.88L823.665 386.825L829.238 335.775C829.486 333.495 832.082 332.346 833.929 333.634L834.069 333.738L872.777 364.036L881.157 311.309C881.507 309.11 884.031 308.064 885.826 309.312L885.969 309.418L924.515 339.597L931.024 288.024Z" fill="#2E186A"/>
<rect x="808.1" y="182.42" width="309.21" height="54.2" rx="13.35" fill="white"/>
<path fill-rule="evenodd" clip-rule="evenodd" d="M1103.96 179.42H821.45C812.42 179.42 805.1 186.74 805.1 195.77V223.27C805.1 232.3 812.42 239.62 821.45 239.62H1103.96C1112.99 239.62 1120.31 232.3 1120.31 223.27V195.77C1120.31 186.74 1112.99 179.42 1103.96 179.42ZM821.45 185.42H1103.96C1109.68 185.42 1114.31 190.054 1114.31 195.77V223.27C1114.31 228.986 1109.68 233.62 1103.96 233.62H821.45C815.734 233.62 811.1 228.986 811.1 223.27V195.77C811.1 190.054 815.734 185.42 821.45 185.42Z" fill="#2E186A"/>
<rect x="793.94" y="170.38" width="309.21" height="54.2" rx="8.3" fill="#5D21D1"/>
<path fill-rule="evenodd" clip-rule="evenodd" d="M851 182.09C842 177.29 835.9 185.83 835.76 191.09C835.63 185.83 829.68 177.63 820.53 182.09C809.45 187.49 821.69 208.8 836.32 214.29C851.64 208.69 861 187.42 851 182.09Z" fill="#FE7624"/>
<path fill-rule="evenodd" clip-rule="evenodd" d="M906.757 182.413C897.757 177.613 891.667 186.153 891.527 191.413C891.387 186.153 885.447 177.953 876.287 182.413C865.207 187.813 877.447 209.123 892.077 214.613C907.377 209.013 916.687 187.743 906.757 182.413Z" fill="#FE7624"/>
<path fill-rule="evenodd" clip-rule="evenodd" d="M1015.76 181.413C1006.76 176.613 1000.66 185.153 1000.52 190.413C1000.39 185.153 994.437 176.953 985.287 181.413C974.207 186.813 986.447 208.123 1001.08 213.613C1016.4 208.013 1025.76 186.743 1015.76 181.413Z" fill="#FE7624"/>
<path fill-rule="evenodd" clip-rule="evenodd" d="M1070.76 181.413C1061.76 176.613 1055.67 185.153 1055.53 190.413C1055.39 185.153 1049.45 176.953 1040.29 181.413C1029.21 186.813 1041.45 208.123 1056.08 213.613C1071.38 208.013 1080.69 186.743 1070.76 181.413Z" fill="#FE7624"/>
<path fill-rule="evenodd" clip-rule="evenodd" d="M960.757 181.413C951.757 176.613 945.667 185.153 945.527 190.413C945.387 185.153 939.447 176.953 930.287 181.413C919.207 186.813 931.447 208.123 946.077 213.613C961.377 208.013 970.687 186.743 960.757 181.413Z" fill="#FE7624"/>
<path fill-rule="evenodd" clip-rule="evenodd" d="M689.605 281.273C690.728 280.146 692.523 280.098 693.703 281.13L693.847 281.265L744.187 331.425C745.361 332.594 745.365 334.494 744.195 335.668C743.072 336.794 741.277 336.842 740.097 335.81L739.952 335.675L689.612 285.515C688.439 284.346 688.435 282.446 689.605 281.273Z" fill="#2E186A"/>
<path fill-rule="evenodd" clip-rule="evenodd" d="M739.952 281.265C741.126 280.095 743.026 280.099 744.195 281.273C745.318 282.399 745.36 284.195 744.323 285.371L744.187 285.515L693.847 335.675C692.674 336.845 690.774 336.841 689.605 335.668C688.482 334.541 688.44 332.745 689.477 331.569L689.612 331.425L739.952 281.265Z" fill="#2E186A"/>
<path fill-rule="evenodd" clip-rule="evenodd" d="M671.5 123.67C656.644 123.67 644.6 135.714 644.6 150.57C644.6 165.427 656.644 177.47 671.5 177.47C686.356 177.47 698.4 165.427 698.4 150.57C698.4 135.714 686.356 123.67 671.5 123.67ZM671.5 129.67C683.043 129.67 692.4 139.027 692.4 150.57C692.4 162.113 683.043 171.47 671.5 171.47C659.957 171.47 650.6 162.113 650.6 150.57C650.6 139.027 659.957 129.67 671.5 129.67Z" fill="#2E186A"/>
<path fill-rule="evenodd" clip-rule="evenodd" d="M1150.54 254.946L1119.52 319.236C1118.56 321.228 1120.01 323.54 1122.22 323.54H1184.26C1186.47 323.54 1187.92 321.228 1186.96 319.236L1155.94 254.946C1154.85 252.685 1151.63 252.685 1150.54 254.946ZM1153.24 263.152L1179.48 317.54H1127L1153.24 263.152Z" fill="#2E186A"/>
<path fill-rule="evenodd" clip-rule="evenodd" d="M1237.37 154.64H1187.8C1186.14 154.64 1184.8 155.983 1184.8 157.64V207.21C1184.8 208.867 1186.14 210.21 1187.8 210.21H1237.37C1239.03 210.21 1240.37 208.867 1240.37 207.21V157.64C1240.37 155.983 1239.03 154.64 1237.37 154.64ZM1234.37 160.639V204.209H1190.8V160.639H1234.37Z" fill="#2E186A"/>
<path fill-rule="evenodd" clip-rule="evenodd" d="M1023.16 368.39H989.08C987.423 368.39 986.08 369.733 986.08 371.39V405.47C986.08 407.127 987.423 408.47 989.08 408.47H1023.16C1024.82 408.47 1026.16 407.127 1026.16 405.47V371.39C1026.16 369.733 1024.82 368.39 1023.16 368.39ZM1020.16 374.389V402.469H992.08V374.389H1020.16Z" fill="#2E186A"/>
<path fill-rule="evenodd" clip-rule="evenodd" d="M1057.24 368.39H1023.16C1021.5 368.39 1020.16 369.733 1020.16 371.39V405.47C1020.16 407.127 1021.5 408.47 1023.16 408.47H1057.24C1058.9 408.47 1060.24 407.127 1060.24 405.47V371.39C1060.24 369.733 1058.9 368.39 1057.24 368.39ZM1054.24 374.389V402.469H1026.16V374.389H1054.24Z" fill="#2E186A"/>
<path fill-rule="evenodd" clip-rule="evenodd" d="M1091.32 368.39H1057.24C1055.58 368.39 1054.24 369.733 1054.24 371.39V405.47C1054.24 407.127 1055.58 408.47 1057.24 408.47H1091.32C1092.98 408.47 1094.32 407.127 1094.32 405.47V371.39C1094.32 369.733 1092.98 368.39 1091.32 368.39ZM1088.32 374.389V402.469H1060.24V374.389H1088.32Z" fill="#2E186A"/>
<path fill-rule="evenodd" clip-rule="evenodd" d="M1125.4 368.39H1091.32C1089.66 368.39 1088.32 369.733 1088.32 371.39V405.47C1088.32 407.127 1089.66 408.47 1091.32 408.47H1125.4C1127.06 408.47 1128.4 407.127 1128.4 405.47V371.39C1128.4 369.733 1127.06 368.39 1125.4 368.39ZM1122.4 374.389V402.469H1094.32V374.389H1122.4Z" fill="#2E186A"/>
<path fill-rule="evenodd" clip-rule="evenodd" d="M1159.49 368.39H1125.41C1123.75 368.39 1122.41 369.733 1122.41 371.39V405.47C1122.41 407.127 1123.75 408.47 1125.41 408.47H1159.49C1161.15 408.47 1162.49 407.127 1162.49 405.47V371.39C1162.49 369.733 1161.15 368.39 1159.49 368.39ZM1156.49 374.389V402.469H1128.41V374.389H1156.49Z" fill="#2E186A"/>
<path fill-rule="evenodd" clip-rule="evenodd" d="M1193.57 368.39H1159.49C1157.83 368.39 1156.49 369.733 1156.49 371.39V405.47C1156.49 407.127 1157.83 408.47 1159.49 408.47H1193.57C1195.23 408.47 1196.57 407.127 1196.57 405.47V371.39C1196.57 369.733 1195.23 368.39 1193.57 368.39ZM1190.57 374.389V402.469H1162.49V374.389H1190.57Z" fill="#2E186A"/>
<path fill-rule="evenodd" clip-rule="evenodd" d="M1427.01 238.54H1262.81C1256.73 238.54 1251.81 243.465 1251.81 249.54V342.93C1251.81 349.005 1256.73 353.93 1262.81 353.93H1427.01C1433.09 353.93 1438.01 349.005 1438.01 342.93V249.54C1438.01 243.465 1433.09 238.54 1427.01 238.54ZM1262.81 244.54H1427.01C1429.77 244.54 1432.01 246.779 1432.01 249.54V342.93C1432.01 345.691 1429.77 347.93 1427.01 347.93H1262.81C1260.05 347.93 1257.81 345.691 1257.81 342.93V249.54C1257.81 246.779 1260.05 244.54 1262.81 244.54Z" fill="#2E186A"/>
<rect x="1241.26" y="225.86" width="180.2" height="109.39" rx="8" fill="#5D21D1"/>
<path fill-rule="evenodd" clip-rule="evenodd" d="M1284.08 276.47H1268.93L1265.04 272.47V249.3L1267.9 246.08L1270.9 249.28V270.55H1284.07L1287.21 273.44L1284.08 276.47Z" fill="white"/>
<path fill-rule="evenodd" clip-rule="evenodd" d="M1311.7 276.47H1296.55L1292.66 272.47V261.87L1293.56 260.87L1292.66 259.87V249.24L1296.49 245.24H1311.68L1314.83 248.13L1311.7 251.13H1298.52V257.87H1311.68L1314.83 260.79L1311.7 263.79H1298.52V270.51H1311.68L1314.83 273.4L1311.7 276.47Z" fill="white"/>
<path fill-rule="evenodd" clip-rule="evenodd" d="M1334.91 276.36H1328.63L1320.27 259.85V249.25L1323.12 246.03L1326.12 249.2V259.83L1331.74 270.73L1337.4 259.86V249.24L1340.26 246.03L1343.26 249.19V259.84L1334.91 276.36Z" fill="white"/>
<path fill-rule="evenodd" clip-rule="evenodd" d="M1366.65 276.47H1351.5L1347.61 272.47V261.87L1348.51 260.87L1347.61 259.87V249.24L1351.45 245.24H1366.63L1369.78 248.13L1366.65 251.13H1353.47V257.87H1366.64L1369.78 260.79L1366.65 263.79H1353.47V270.51H1366.63L1369.78 273.4L1366.65 276.47Z" fill="white"/>
<path fill-rule="evenodd" clip-rule="evenodd" d="M1394.54 276.47H1379.39L1375.5 272.47V249.3L1378.36 246.08L1381.36 249.28V270.55H1394.52L1397.67 273.44L1394.54 276.47Z" fill="white"/>
<path fill-rule="evenodd" clip-rule="evenodd" d="M1284.17 316.16H1268.93L1265.04 312.16V288.94L1267.9 285.72L1270.9 288.92V310.24H1282.19V288.94L1285.05 285.72L1288.05 288.92V312.16L1284.17 316.16Z" fill="white"/>
<path fill-rule="evenodd" clip-rule="evenodd" d="M1295.65 315.37L1292.65 312.12V288.94L1296.52 284.94H1311.76L1315.65 288.83V299.53L1311.77 303.47H1298.51V312.1L1295.65 315.37ZM1298.52 297.55H1309.8V290.86H1298.52V297.55Z" fill="white"/>
<path fill-rule="evenodd" clip-rule="evenodd" d="M1331.79 316.16C1330.76 316.16 1329.8 315.656 1329.21 314.81C1328.11 313.296 1328.11 311.244 1329.21 309.73C1329.81 308.925 1330.75 308.45 1331.76 308.45C1332.76 308.45 1333.7 308.925 1334.3 309.73C1334.85 310.451 1335.15 311.334 1335.14 312.24C1335.14 313.152 1334.85 314.04 1334.32 314.78C1333.77 315.642 1332.81 316.162 1331.79 316.16ZM1331.85 303L1329.11 299.56V289.05L1331.69 285.6L1334.43 289V299.54L1331.85 303Z" fill="white"/>
<path fill-rule="evenodd" clip-rule="evenodd" d="M1359.4 316.16C1358.37 316.158 1357.41 315.654 1356.82 314.81C1355.72 313.296 1355.72 311.244 1356.82 309.73C1357.42 308.925 1358.37 308.45 1359.37 308.45C1360.37 308.45 1361.32 308.925 1361.92 309.73C1362.47 310.453 1362.76 311.334 1362.76 312.24C1362.76 313.153 1362.47 314.043 1361.93 314.78C1361.38 315.642 1360.42 316.162 1359.4 316.16V316.16ZM1359.46 303L1356.73 299.56V289.05L1359.3 285.6L1362 289V299.54L1359.46 303Z" fill="white"/>
<path fill-rule="evenodd" clip-rule="evenodd" d="M1387 316.16C1385.97 316.158 1385.01 315.654 1384.42 314.81C1383.33 313.291 1383.33 311.249 1384.42 309.73C1385.02 308.913 1385.98 308.442 1386.99 308.47C1388 308.451 1388.95 308.939 1389.52 309.77C1390.07 310.491 1390.37 311.374 1390.36 312.28C1390.36 313.193 1390.07 314.083 1389.53 314.82C1388.97 315.666 1388.02 316.171 1387 316.16ZM1387.06 303L1384.33 299.56V289.05L1386.91 285.6L1389.65 289V299.54L1387.06 303Z" fill="white"/>
<rect x="1369.22" y="163.74" width="230.71" height="40.44" rx="9.96" fill="white"/>
<path fill-rule="evenodd" clip-rule="evenodd" d="M1589.97 160.74H1379.18C1372.02 160.74 1366.22 166.542 1366.22 173.7V194.22C1366.22 201.378 1372.02 207.18 1379.18 207.18H1589.97C1597.13 207.18 1602.93 201.378 1602.93 194.22V173.7C1602.93 166.542 1597.13 160.74 1589.97 160.74ZM1379.18 166.74H1589.97C1593.81 166.74 1596.93 169.856 1596.93 173.7V194.22C1596.93 198.064 1593.81 201.18 1589.97 201.18H1379.18C1375.34 201.18 1372.22 198.064 1372.22 194.22V173.7C1372.22 169.856 1375.34 166.74 1379.18 166.74Z" fill="#2E186A"/>
<rect x="1346.42" y="150.16" width="230.71" height="40.44" rx="8.3" fill="#5D21D1"/>
<path fill-rule="evenodd" clip-rule="evenodd" d="M1379.32 159.56C1376.45 162.22 1371.79 166.27 1371.79 166.27C1370.16 168.484 1369.74 171.361 1370.66 173.95C1370.66 173.95 1366.11 173.54 1366.11 176.2C1366.11 178.86 1368.92 178.76 1368.92 178.76V178.76C1368.92 179 1368.92 181.56 1371.47 181.56C1374.02 181.56 1373.73 177.01 1373.73 177.01C1376.32 177.938 1379.2 177.518 1381.41 175.89C1381.41 175.89 1385.41 171.24 1388.13 168.37C1390.85 165.5 1381.88 157.18 1379.32 159.56Z" fill="#FE7624"/>
<path fill-rule="evenodd" clip-rule="evenodd" d="M1419.87 159.56C1417 162.22 1412.34 166.27 1412.34 166.27C1410.71 168.484 1410.29 171.363 1411.22 173.95C1411.22 173.95 1406.66 173.54 1406.66 176.2C1406.66 178.86 1409.47 178.76 1409.47 178.76V178.76C1409.47 179 1409.47 181.56 1412.02 181.56C1414.57 181.56 1414.28 177.01 1414.28 177.01C1416.87 177.938 1419.75 177.518 1421.96 175.89C1421.96 175.89 1425.96 171.24 1428.68 168.37C1431.4 165.5 1422.43 157.18 1419.87 159.56Z" fill="white"/>
<path fill-rule="evenodd" clip-rule="evenodd" d="M1460.42 159.56C1457.55 162.22 1452.89 166.27 1452.89 166.27C1451.26 168.484 1450.84 171.363 1451.77 173.95C1451.77 173.95 1447.21 173.54 1447.21 176.2C1447.21 178.86 1450.03 178.76 1450.03 178.76V178.76C1450.03 179 1450.03 181.56 1452.58 181.56C1455.13 181.56 1454.84 177.01 1454.84 177.01C1457.43 177.938 1460.31 177.518 1462.52 175.89C1462.52 175.89 1466.52 171.24 1469.24 168.37C1471.96 165.5 1463 157.18 1460.42 159.56Z" fill="white"/>
<path fill-rule="evenodd" clip-rule="evenodd" d="M1501 159.56C1498.13 162.22 1493.47 166.27 1493.47 166.27C1491.84 168.484 1491.42 171.363 1492.35 173.95C1492.35 173.95 1487.79 173.54 1487.79 176.2C1487.79 178.86 1490.61 178.76 1490.61 178.76V178.76C1490.61 179 1490.61 181.56 1493.16 181.56C1495.71 181.56 1495.42 177.01 1495.42 177.01C1498.01 177.938 1500.89 177.518 1503.1 175.89C1503.1 175.89 1507.1 171.24 1509.82 168.37C1512.54 165.5 1503.53 157.18 1501 159.56Z" fill="white"/>
<path fill-rule="evenodd" clip-rule="evenodd" d="M1541.52 159.56C1538.65 162.22 1533.99 166.27 1533.99 166.27C1532.36 168.484 1531.94 171.363 1532.87 173.95C1532.87 173.95 1528.31 173.54 1528.31 176.2C1528.31 178.86 1531.13 178.76 1531.13 178.76V178.76C1531.13 179 1531.13 181.56 1533.68 181.56C1536.23 181.56 1535.94 177.01 1535.94 177.01C1538.53 177.938 1541.41 177.518 1543.62 175.89C1543.62 175.89 1547.67 171.24 1550.34 168.37C1553.01 165.5 1544.08 157.18 1541.52 159.56Z" fill="white"/>
<path fill-rule="evenodd" clip-rule="evenodd" d="M954.108 479.441C954.163 481.097 952.865 482.484 951.209 482.538L948.351 482.621L940.95 482.785L938.833 482.841L937.472 482.883L936.15 482.929L934.236 483.006L932.402 483.095L931.223 483.161L930.076 483.232L928.962 483.309L927.879 483.392L926.825 483.481L925.8 483.577L924.803 483.679L923.833 483.789C923.673 483.808 923.514 483.827 923.357 483.847L922.424 483.968C922.271 483.988 922.118 484.01 921.967 484.031L921.069 484.164C920.922 484.186 920.775 484.21 920.629 484.233L919.764 484.378L918.921 484.531L918.096 484.694C917.96 484.722 917.825 484.75 917.691 484.778L916.894 484.954C916.368 485.075 915.854 485.201 915.349 485.335L914.599 485.54C914.475 485.575 914.352 485.61 914.229 485.646L913.499 485.867L912.78 486.098C912.662 486.138 912.543 486.178 912.425 486.218L911.723 486.466C911.374 486.592 911.029 486.723 910.686 486.858L910.005 487.135C909.892 487.182 909.779 487.229 909.666 487.277L908.994 487.572C908.883 487.622 908.771 487.673 908.66 487.724C899.159 492.092 893.553 500.081 891.84 513.605L891.77 514.179C889.651 532.255 884.018 544.28 874.382 552.04C868.956 556.41 862.555 559.36 854.021 561.555L852.816 561.856C851.394 562.203 849.914 562.529 848.37 562.84L847.032 563.102C846.807 563.145 846.58 563.188 846.351 563.23L844.966 563.481C844.498 563.564 844.026 563.645 843.547 563.725L842.096 563.963L840.61 564.194C840.36 564.232 840.108 564.27 839.854 564.307L839.09 564.419C807.829 568.943 791.367 585.896 798.664 614.068C799.08 615.672 798.116 617.309 796.512 617.724C794.908 618.14 793.271 617.176 792.856 615.572C784.595 583.679 803.448 563.858 837.203 558.635L839.683 558.266C839.922 558.229 840.16 558.193 840.396 558.156L841.796 557.933L843.161 557.705C843.611 557.628 844.055 557.549 844.493 557.47L845.793 557.23L847.06 556.982L848.295 556.728C848.905 556.599 849.503 556.467 850.09 556.332L851.25 556.059C852.586 555.736 853.862 555.395 855.084 555.036L856.118 554.723C862.074 552.871 866.702 550.522 870.618 547.367C878.784 540.791 883.719 530.412 885.725 514.19L885.81 513.481C887.674 497.582 894.566 487.599 906.154 482.272L906.526 482.103L907.272 481.775L908.022 481.461C908.524 481.255 909.028 481.059 909.538 480.871L910.306 480.596C912.878 479.699 915.588 479.008 918.625 478.474L919.546 478.319C919.702 478.294 919.858 478.269 920.015 478.245L920.968 478.103C921.128 478.08 921.29 478.057 921.452 478.035L922.44 477.906L923.451 477.785L924.487 477.672L925.551 477.567L926.641 477.469L927.761 477.378L928.91 477.293L930.091 477.215L931.304 477.144L932.55 477.078L934.484 476.989L936.5 476.912L937.891 476.866L940.051 476.805L948.691 476.61L951.011 476.542C952.667 476.487 954.054 477.785 954.108 479.441Z" fill="white"/>
</svg>
