<svg width="1710" height="739" viewBox="0 0 1710 739" fill="none" xmlns="http://www.w3.org/2000/svg">
<path fill-rule="evenodd" clip-rule="evenodd" d="M353.54 679.289V426.149C353.562 408.441 367.912 394.091 385.62 394.069H644.24L644.85 368.289H311.25C287.177 368.286 264.089 377.847 247.067 394.869C230.044 411.89 220.48 434.976 220.48 459.049V644.879C220.48 668.952 230.044 692.039 247.067 709.06C264.089 726.081 287.177 735.642 311.25 735.639H643.6L644.2 711.369H385.62C367.912 711.347 353.562 696.997 353.54 679.289ZM306.67 414.649C306.667 413.446 307.143 412.291 307.993 411.439C308.843 410.588 309.997 410.109 311.2 410.109H323.64C324.843 410.109 325.997 410.588 326.847 411.439C327.697 412.291 328.173 413.446 328.17 414.649C328.17 417.151 326.142 419.179 323.64 419.179H311.2C308.698 419.179 306.67 417.151 306.67 414.649ZM260.89 475.789C260.89 462.574 268.851 450.661 281.06 445.605C293.269 440.549 307.322 443.346 316.665 452.691C326.007 462.037 328.8 476.091 323.74 488.298C318.68 500.506 306.765 508.463 293.55 508.459C284.886 508.459 276.578 505.017 270.452 498.89C264.327 492.763 260.887 484.453 260.89 475.789ZM331.61 686.889H306.67V661.999H331.61V686.889Z" fill="#2E186A"/>
<path fill-rule="evenodd" clip-rule="evenodd" d="M359.54 426.148V679.288C359.557 693.685 371.223 705.352 385.62 705.368H644.34L644.85 684.668H410.58C405.365 684.668 400.364 682.595 396.678 678.906C392.993 675.217 390.925 670.213 390.93 664.998V440.428C390.93 429.574 399.726 420.774 410.58 420.768H643.58L644.08 400.068H385.62C371.223 400.085 359.557 411.752 359.54 426.148Z" fill="#2E186A"/>
<path fill-rule="evenodd" clip-rule="evenodd" d="M293.55 500.709C279.788 500.704 268.636 489.544 268.64 475.782C268.644 462.021 279.802 450.867 293.563 450.869C307.325 450.871 318.48 462.028 318.48 475.789C318.463 489.549 307.31 500.698 293.55 500.709ZM293.55 456.869C283.102 456.875 274.636 465.348 274.64 475.796C274.644 486.244 283.115 494.711 293.563 494.709C304.011 494.707 312.48 486.237 312.48 475.789C312.469 465.341 303.998 456.875 293.55 456.869Z" fill="#2E186A"/>
<path fill-rule="evenodd" clip-rule="evenodd" d="M333.3 576.34H307.03V550.08H280.95V576.34H254.68V602.42H280.95V628.69H307.03V602.42H333.3V576.34Z" fill="#FE7624"/>
<path fill-rule="evenodd" clip-rule="evenodd" d="M1309.69 706.999C1328.46 724.889 1349.29 736.439 1370.8 733.879C1416.32 728.459 1429.71 648.049 1416.7 555.339C1384.51 548.339 1353.24 593.199 1335.58 625.639C1322.34 649.999 1314 684.619 1309.69 706.999Z" fill="#FE7624"/>
<path fill-rule="evenodd" clip-rule="evenodd" d="M1199.26 295.834L1201.48 295.305C1217.69 291.519 1231.56 289.798 1246.27 290.487C1267.38 291.476 1287.32 297.692 1306.17 310.362C1330.35 326.623 1351.95 353.071 1370.63 391.24C1402.92 457.198 1422.84 540.473 1424.34 610.838C1425.9 684.111 1407.45 732.548 1371.15 736.868C1353.27 738.997 1335.14 732.07 1317.04 717.467C1301.73 705.121 1286.73 687.529 1272.31 665.958C1260.69 648.581 1249.91 629.318 1240.65 610.143L1239.95 608.686L1238.92 606.512L1238.24 605.075L1237.25 602.941L1236.28 600.839L1235.65 599.459L1235.04 598.096L1234.15 596.092L1233.29 594.139L1232.47 592.245L1231.69 590.414L1230.95 588.654L1230.25 586.971L1229.61 585.369L1229.01 583.857L1228.71 583.076L1228.43 583.461C1225.92 586.843 1222.86 590.206 1219.22 593.378L1218.53 593.97C1210.06 601.151 1199.63 606.352 1187.13 608.72C1171.76 611.631 1154.05 610.081 1133.84 603.273C1122.64 599.259 1113.95 592.564 1107.49 583.962C1103.65 578.841 1100.83 573.364 1098.87 567.884C1098.26 566.174 1097.78 564.568 1097.4 563.097L1097.33 562.806L1095.17 562.708L1092.43 562.598C1087.88 562.426 1083.22 562.312 1078.65 562.279C1076.99 562.267 1075.66 560.915 1075.67 559.258C1075.68 557.601 1077.03 556.268 1078.69 556.279C1082.56 556.307 1086.48 556.392 1090.34 556.52L1093.37 556.629L1095.43 556.714L1098.27 556.846L1099.94 556.934C1101.29 557.012 1102.41 557.976 1102.7 559.277L1102.8 559.843L1102.9 560.313L1103.02 560.842C1103.05 560.935 1103.07 561.031 1103.09 561.129C1103.44 562.551 1103.91 564.146 1104.53 565.869C1106.29 570.81 1108.83 575.754 1112.29 580.36C1118.07 588.056 1125.81 594.023 1135.81 597.606C1155.02 604.078 1171.69 605.537 1186.01 602.825C1197.46 600.657 1206.94 595.925 1214.65 589.393C1218.44 586.182 1221.55 582.745 1224.02 579.317C1224.88 578.128 1225.59 577.029 1226.17 576.051L1226.54 575.407L1226.72 575.073L1226.8 574.926C1228.01 572.462 1231.62 572.784 1232.37 575.424L1232.5 575.835L1232.63 576.282L1232.88 577.018L1233.16 577.83L1233.36 578.413L1233.7 579.345L1234.08 580.345L1234.78 582.154L1235.25 583.319L1235.74 584.542L1236.63 586.696L1237.2 588.054L1238.01 589.933L1238.85 591.886L1239.97 594.419L1240.67 595.981L1241.88 598.648L1242.63 600.28L1243.92 603.044L1244.98 605.287L1245.52 606.416L1246.06 607.534C1255.2 626.472 1265.84 645.496 1277.3 662.623C1308.14 708.75 1340.09 734.523 1370.45 730.91C1402.45 727.101 1419.84 681.448 1418.34 610.966C1416.86 541.465 1397.14 459.047 1365.25 393.878C1347 356.604 1326.07 330.974 1302.82 315.342C1284.92 303.305 1266.03 297.419 1245.99 296.48C1230.96 295.776 1216.73 297.716 1199.58 301.932L1196.92 302.607L1188.62 304.766L1182.69 306.274L1180.04 306.924L1178.93 307.183L1178.42 307.295C1148.35 313.627 1110.37 317.525 1078.17 317.699C1076.51 317.708 1075.16 316.372 1075.15 314.715C1075.14 313.059 1076.48 311.708 1078.13 311.699C1109.4 311.53 1146.25 307.8 1175.67 301.739L1177.34 301.389L1178.37 301.155L1179.44 300.898L1182.07 300.244L1185.93 299.26L1197 296.389C1197.76 296.199 1198.51 296.015 1199.26 295.834Z" fill="#2E186A"/>
<path fill-rule="evenodd" clip-rule="evenodd" d="M1175.37 455.52C1149.81 455.52 1128.99 474.691 1128.99 498.47C1128.99 522.248 1149.81 541.42 1175.37 541.42C1200.93 541.42 1221.75 522.248 1221.75 498.47C1221.75 474.691 1200.93 455.52 1175.37 455.52ZM1175.37 461.52C1197.72 461.52 1215.75 478.12 1215.75 498.47C1215.75 518.819 1197.72 535.42 1175.37 535.42C1153.02 535.42 1134.99 518.819 1134.99 498.47C1134.99 478.12 1153.02 461.52 1175.37 461.52Z" fill="#FE7624"/>
<ellipse cx="1175.37" cy="490.28" rx="43.38" ry="39.95" fill="#FE7624"/>
<path fill-rule="evenodd" clip-rule="evenodd" d="M1258.98 411.289C1244.42 411.289 1232.36 420.634 1232.36 432.589C1232.36 444.544 1244.42 453.889 1258.98 453.889C1273.54 453.889 1285.6 444.544 1285.6 432.589C1285.6 420.634 1273.54 411.289 1258.98 411.289ZM1258.98 417.289C1270.51 417.289 1279.6 424.331 1279.6 432.589C1279.6 440.847 1270.51 447.889 1258.98 447.889C1247.45 447.889 1238.36 440.847 1238.36 432.589C1238.36 424.331 1247.45 417.289 1258.98 417.289Z" fill="#FE7624"/>
<path fill-rule="evenodd" clip-rule="evenodd" d="M1204.38 367.709C1189.82 367.709 1177.76 377.054 1177.76 389.009C1177.76 400.964 1189.82 410.309 1204.38 410.309C1218.94 410.309 1231 400.964 1231 389.009C1231 377.054 1218.94 367.709 1204.38 367.709ZM1204.38 373.709C1215.91 373.709 1225 380.751 1225 389.009C1225 397.267 1215.91 404.309 1204.38 404.309C1192.85 404.309 1183.76 397.267 1183.76 389.009C1183.76 380.751 1192.85 373.709 1204.38 373.709Z" fill="#FE7624"/>
<path fill-rule="evenodd" clip-rule="evenodd" d="M1255.64 322.75C1241.08 322.75 1229.02 332.095 1229.02 344.05C1229.02 356.005 1241.08 365.35 1255.64 365.35C1270.2 365.35 1282.26 356.005 1282.26 344.05C1282.26 332.095 1270.2 322.75 1255.64 322.75ZM1255.64 328.75C1267.17 328.75 1276.26 335.792 1276.26 344.05C1276.26 352.308 1267.17 359.35 1255.64 359.35C1244.11 359.35 1235.02 352.308 1235.02 344.05C1235.02 335.792 1244.11 328.75 1255.64 328.75Z" fill="#FE7624"/>
<path fill-rule="evenodd" clip-rule="evenodd" d="M1311.47 367.709C1296.91 367.709 1284.85 377.054 1284.85 389.009C1284.85 400.964 1296.91 410.309 1311.47 410.309C1326.03 410.309 1338.09 400.964 1338.09 389.009C1338.09 377.054 1326.03 367.709 1311.47 367.709ZM1311.47 373.709C1323 373.709 1332.09 380.751 1332.09 389.009C1332.09 397.267 1323 404.309 1311.47 404.309C1299.94 404.309 1290.85 397.267 1290.85 389.009C1290.85 380.751 1299.94 373.709 1311.47 373.709Z" fill="#FE7624"/>
<path fill-rule="evenodd" clip-rule="evenodd" d="M1076.6 331.049L1076.77 331.053C1093.91 331.934 1107.5 344.625 1107.5 360.199C1107.5 375.504 1094.32 388.074 1077.53 389.301C1075.88 389.422 1074.44 388.18 1074.32 386.527C1074.2 384.875 1075.44 383.438 1077.09 383.317C1090.89 382.308 1101.5 372.191 1101.5 360.199C1101.5 347.987 1090.56 337.77 1076.47 337.045C1074.81 336.96 1073.54 335.549 1073.62 333.895C1073.71 332.299 1075.02 331.059 1076.6 331.049Z" fill="#FE7624"/>
<path fill-rule="evenodd" clip-rule="evenodd" d="M1076.56 321.67L1076.73 321.672C1099.74 322.542 1118.09 339.439 1118.09 360.199C1118.09 380.732 1100.12 397.521 1077.42 398.705C1075.76 398.792 1074.35 397.52 1074.26 395.866C1074.18 394.211 1075.45 392.8 1077.1 392.713C1096.77 391.688 1112.09 377.371 1112.09 360.199C1112.09 342.834 1096.43 328.421 1076.51 327.667C1074.85 327.605 1073.56 326.212 1073.62 324.556C1073.68 322.959 1074.98 321.702 1076.56 321.67Z" fill="#FE7624"/>
<path fill-rule="evenodd" clip-rule="evenodd" d="M1252.96 308.107C1220.6 308.307 1193.12 320.508 1174.46 340.621C1158.13 358.223 1150.59 380.218 1154.96 396.686L1155.31 397.959C1162.23 423.197 1156.5 436.275 1136.82 447.859L1136.3 448.164L1136.41 448.109C1121.18 455.476 1110.53 465.051 1103.95 476.316C1096.1 489.741 1094.67 503.915 1096.96 516.729L1097.14 517.682L1097.28 518.372L1097.42 519.013L1097.55 519.606L1097.68 520.149L1097.81 520.641L1097.99 521.281L1098.13 521.757L1098.26 522.21L1098.44 522.786L1098.66 523.481L1098.84 524.008C1099.46 525.814 1100.25 527.819 1101.21 529.971C1103.96 536.106 1107.61 542.237 1112.28 547.969C1124.59 563.05 1141.67 572.664 1164.15 574.093C1192.76 575.446 1214.44 567.677 1229.5 553.376C1240.07 543.339 1246.64 530.237 1247.49 521.501L1247.52 521.101C1248.03 514.495 1250.24 506.94 1254.29 500.084L1254.59 499.584C1259.84 490.949 1267.64 484.063 1278.38 479.597L1278.78 479.432L1278.52 479.49C1297.57 475.311 1313.6 469.415 1327.06 460.599C1344.03 449.485 1355.69 434.34 1360.97 414.438C1366.68 392.897 1357.46 366.15 1337.49 344.678C1316.41 322.018 1286.45 308.185 1253.95 308.105L1252.96 308.107ZM1253 314.107C1284.15 313.917 1312.92 327.074 1333.1 348.765C1351.78 368.845 1360.3 393.568 1355.17 412.9C1350.29 431.303 1339.56 445.243 1323.77 455.58C1311.01 463.935 1295.63 469.594 1277.24 473.629C1277.07 473.665 1276.91 473.714 1276.76 473.777C1264.24 478.823 1255.13 486.883 1249.13 497.03C1244.72 504.491 1242.27 512.661 1241.59 519.975L1241.54 520.638C1240.98 527.856 1235.05 539.834 1225.37 549.025C1211.52 562.181 1191.43 569.377 1164.48 568.103C1143.81 566.787 1128.23 558.021 1116.93 544.176C1112.61 538.881 1109.23 533.198 1106.69 527.519C1105.8 525.537 1105.08 523.702 1104.52 522.063L1104.41 521.731L1104.2 521.117L1104.04 520.572L1103.85 519.937L1103.75 519.61L1103.59 519.031C1103.38 518.222 1103.17 517.277 1102.97 516.209C1100.77 504.541 1101.99 491.559 1109.13 479.343C1115.1 469.133 1124.84 460.371 1139.03 453.51L1139.22 453.406C1161.9 440.277 1168.96 424.275 1160.87 395.556C1156.84 381.272 1163.67 361.07 1178.86 344.702C1196.4 325.798 1222.3 314.297 1253 314.107Z" fill="#2E186A"/>
<path fill-rule="evenodd" clip-rule="evenodd" d="M1099.85 513.469C1101.45 513.469 1102.75 514.718 1102.84 516.292L1102.85 516.469V559.149C1102.85 560.806 1101.51 562.149 1099.85 562.149C1098.25 562.149 1096.95 560.9 1096.85 559.325L1096.85 559.149L1096.85 519.469H1076.62C1075.02 519.469 1073.72 518.22 1073.62 516.645L1073.62 516.469C1073.62 514.871 1074.87 513.565 1076.44 513.474L1076.62 513.469H1099.85Z" fill="#2E186A"/>
<path fill-rule="evenodd" clip-rule="evenodd" d="M1229.35 547.619C1230.95 547.619 1232.25 548.868 1232.34 550.443L1232.35 550.619V573.519C1232.35 575.176 1231.01 576.519 1229.35 576.519C1227.75 576.519 1226.45 575.27 1226.35 573.695L1226.35 573.519V550.619C1226.35 548.962 1227.69 547.619 1229.35 547.619Z" fill="#2E186A"/>
<path fill-rule="evenodd" clip-rule="evenodd" d="M1053 0H668.52C653.676 0 641.85 13.872 641.85 30.77V735.23C641.85 736.887 643.193 738.23 644.85 738.23H1004.35L1004.56 738.223L1004.84 738.2L1005.37 738.149L1006.01 738.075L1007.03 737.937L1007.92 737.803C1010.5 737.396 1013.36 736.79 1016.44 735.945C1025.21 733.534 1033.98 729.685 1042.18 724.07C1065.58 708.043 1079.62 681.171 1079.62 641.3V30.77C1079.62 13.8897 1067.79 0 1053 0ZM668.52 6H1053C1064.24 6 1073.62 17.0089 1073.62 30.77V641.3C1073.62 679.199 1060.55 704.216 1038.79 719.12C1031.18 724.331 1023.01 727.915 1014.85 730.159C1011.99 730.944 1009.35 731.503 1006.99 731.876L1006.2 731.994L1005.48 732.092C1005.37 732.107 1005.26 732.12 1005.15 732.133L1004.56 732.199L1004.23 732.23H647.85V30.77C647.85 16.9922 657.221 6 668.52 6Z" fill="#2E186A"/>
<path fill-rule="evenodd" clip-rule="evenodd" d="M1076.62 42.92H1038.2V23.27C1038.26 15.994 1035.99 8.88921 1031.72 3H1023.67C1028.84 7.56 1032.2 15 1032.2 23.27V42.92H986.77V3H980.77V42.92H696.41V3H690.41V42.92H644.85V48.92H1032.2V640.31C1032.2 715.25 981.32 729.31 965.72 731.85C964.113 732.116 963.012 733.617 963.24 735.23H977.36C988.64 731.789 999.076 726.03 1008 718.32C1028.06 700.76 1038.23 674.51 1038.23 640.32V48.92H1076.65L1076.62 42.92Z" fill="#2E186A"/>
<ellipse cx="882.253" cy="483.233" rx="19.65" ry="21.73" transform="rotate(-9.53 882.253 483.233)" fill="#FE7624"/>
<ellipse cx="925.344" cy="447.876" rx="19.65" ry="21.73" transform="rotate(-9.53 925.344 447.876)" fill="#FE7624"/>
<path fill-rule="evenodd" clip-rule="evenodd" d="M915.165 409.837L850.907 461.625C836.044 473.607 833.249 496.712 844.539 513.327L844.868 513.803C856.385 530.206 877.617 533.896 892.474 521.905L956.723 470.106C971.59 458.121 974.388 435.015 963.091 418.404L962.749 417.909C951.246 401.528 930.014 397.844 915.165 409.837ZM957.839 421.357L958.142 421.796C967.708 435.861 965.335 455.457 952.957 465.435L888.707 517.235C876.622 526.989 859.35 523.987 849.791 510.374L849.488 509.935C839.929 495.866 842.299 476.272 854.673 466.296L918.933 414.506C931.012 404.751 948.282 407.748 957.839 421.357Z" fill="#FE7624"/>
<path fill-rule="evenodd" clip-rule="evenodd" d="M813.458 586.643C819.387 583.107 827.06 585.047 830.596 590.976C834.077 596.814 832.25 604.343 826.533 607.949L826.262 608.115L792.692 628.135C786.763 631.671 779.09 629.731 775.554 623.801C772.073 617.963 773.9 610.435 779.617 606.829L779.888 606.663L813.458 586.643Z" fill="#2E186A"/>
<path fill-rule="evenodd" clip-rule="evenodd" d="M748.882 586.529C754.874 583.101 762.511 585.179 765.94 591.171C769.315 597.071 767.352 604.566 761.572 608.067L761.298 608.229L726.308 628.249C720.316 631.677 712.679 629.599 709.25 623.607C705.875 617.707 707.838 610.213 713.619 606.711L713.892 606.549L748.882 586.529Z" fill="#2E186A"/>
<path fill-rule="evenodd" clip-rule="evenodd" d="M726.14 409.391L725.964 409.396C724.389 409.487 723.14 410.793 723.14 412.391L723.139 446.52L688.9 446.521C687.243 446.521 685.9 447.864 685.9 449.521V484.701L685.905 484.877C685.996 486.452 687.302 487.701 688.9 487.701L723.139 487.7L723.14 521.831C723.14 523.487 724.483 524.831 726.14 524.831H761.42L761.596 524.826C763.171 524.734 764.42 523.428 764.42 521.831L764.419 487.7L798.65 487.701C800.307 487.701 801.65 486.357 801.65 484.701V449.521L801.645 449.344C801.554 447.77 800.248 446.521 798.65 446.521L764.419 446.52L764.42 412.391C764.42 410.734 763.077 409.391 761.42 409.391H726.14ZM758.419 415.39L758.42 449.521L758.425 449.697C758.516 451.272 759.822 452.521 761.42 452.521L795.649 452.52V481.7L761.42 481.701L761.244 481.706C759.669 481.797 758.42 483.103 758.42 484.701L758.419 518.831H729.139L729.14 484.701L729.135 484.524C729.044 482.95 727.738 481.701 726.14 481.701L691.899 481.7V452.52L726.14 452.521L726.316 452.516C727.891 452.424 729.14 451.118 729.14 449.521L729.139 415.39H758.419Z" fill="#FE7624"/>
<path fill-rule="evenodd" clip-rule="evenodd" d="M743.78 455.461C737.332 455.461 732.1 460.674 732.1 467.111C732.1 473.547 737.332 478.761 743.78 478.761C750.228 478.761 755.46 473.547 755.46 467.111C755.46 460.674 750.228 455.461 743.78 455.461ZM743.78 461.461C746.919 461.461 749.46 463.993 749.46 467.111C749.46 470.229 746.919 472.761 743.78 472.761C740.641 472.761 738.1 470.229 738.1 467.111C738.1 463.993 740.641 461.461 743.78 461.461Z" fill="#FE7624"/>
<path fill-rule="evenodd" clip-rule="evenodd" d="M761.84 102.01C763.438 102.01 764.744 103.259 764.835 104.833L764.84 105.01V317.61C764.84 319.267 763.497 320.61 761.84 320.61C760.242 320.61 758.936 319.361 758.845 317.786L758.84 317.61V105.01C758.84 103.353 760.183 102.01 761.84 102.01Z" fill="#2E186A"/>
<path fill-rule="evenodd" clip-rule="evenodd" d="M972 68.1406H700.69C694.39 68.1406 689.28 74.3606 689.28 82.0306V355.481H924.61C924.61 355.481 983.43 356.201 983.43 277.711V82.0006C983.43 74.3606 978.32 68.1406 972 68.1406ZM712.69 186.001C716.5 186.001 719.58 189.621 719.58 194.081C719.58 198.541 716.5 202.161 712.69 202.161C708.88 202.161 705.81 198.541 705.81 194.081C705.81 189.621 708.89 186.001 712.69 186.001ZM721.8 220.261H703.59C701.933 220.261 700.59 218.917 700.59 217.261C700.59 215.604 701.933 214.261 703.59 214.261H721.8C723.457 214.261 724.8 215.604 724.8 217.261C724.8 218.917 723.457 220.261 721.8 220.261ZM937.45 311.001C937.445 315.476 933.815 319.101 929.34 319.101H747.18C742.707 319.101 739.08 315.474 739.08 311.001V113.111C739.08 108.637 742.707 105.011 747.18 105.011H929.34C933.815 105.011 937.445 108.636 937.45 113.111V311.001Z" fill="#2E186A"/>
<path fill-rule="evenodd" clip-rule="evenodd" d="M951.197 584.613C952.665 583.983 954.358 584.616 955.063 586.027L955.137 586.187L979.907 643.917C980.56 645.44 979.856 647.204 978.333 647.857C976.865 648.487 975.172 647.854 974.467 646.443L974.393 646.283L949.623 588.553C948.97 587.03 949.675 585.266 951.197 584.613Z" fill="#2E186A"/>
<path fill-rule="evenodd" clip-rule="evenodd" d="M930.887 596.623C932.355 595.993 934.048 596.626 934.753 598.037L934.827 598.197L959.597 655.927C960.25 657.449 959.546 659.213 958.023 659.867C956.555 660.497 954.862 659.864 954.157 658.453L954.083 658.293L929.313 600.563C928.66 599.04 929.365 597.276 930.887 596.623Z" fill="#2E186A"/>
<path fill-rule="evenodd" clip-rule="evenodd" d="M910.567 608.632C912.035 608.003 913.728 608.635 914.433 610.047L914.507 610.207L939.277 667.937C939.93 669.459 939.226 671.223 937.703 671.876C936.235 672.506 934.542 671.874 933.837 670.462L933.763 670.302L908.993 612.572C908.34 611.05 909.045 609.286 910.567 608.632Z" fill="#2E186A"/>
<path fill-rule="evenodd" clip-rule="evenodd" d="M890.247 620.642C891.715 620.012 893.408 620.645 894.113 622.056L894.187 622.216L918.957 679.946C919.61 681.469 918.905 683.233 917.383 683.886C915.915 684.516 914.222 683.883 913.517 682.472L913.443 682.312L888.673 624.582C888.02 623.06 888.724 621.296 890.247 620.642Z" fill="#2E186A"/>
<path fill-rule="evenodd" clip-rule="evenodd" d="M869.927 632.642C871.396 632.012 873.088 632.645 873.793 634.056L873.867 634.216L898.637 691.956C899.29 693.479 898.586 695.243 897.063 695.896C895.595 696.526 893.902 695.893 893.197 694.482L893.123 694.322L868.353 636.582C867.7 635.059 868.405 633.295 869.927 632.642Z" fill="#2E186A"/>
<path fill-rule="evenodd" clip-rule="evenodd" d="M849.617 644.652C851.085 644.022 852.778 644.655 853.483 646.066L853.557 646.226L878.327 703.956C878.98 705.479 878.276 707.243 876.753 707.896C875.285 708.526 873.592 707.893 872.887 706.482L872.813 706.322L848.043 648.592C847.39 647.069 848.095 645.305 849.617 644.652Z" fill="#2E186A"/>
<path fill-rule="evenodd" clip-rule="evenodd" d="M1706.94 732.58C1708.6 732.58 1709.94 733.923 1709.94 735.58C1709.94 737.178 1708.69 738.484 1707.12 738.575L1706.94 738.58H3C1.34315 738.58 0 737.237 0 735.58C0 733.982 1.24892 732.676 2.82373 732.585L3 732.58H1706.94Z" fill="#2E186A"/>
</svg>
