<svg width="1577" height="787" viewBox="0 0 1577 787" fill="none" xmlns="http://www.w3.org/2000/svg">
<path fill-rule="evenodd" clip-rule="evenodd" d="M1137 0.800049C1154.68 0.800049 1169.01 14.9558 1169.3 32.5654L1169.3 33.1V471.3C1169.3 472.957 1167.96 474.3 1166.3 474.3C1164.7 474.3 1163.4 473.051 1163.31 471.476L1163.3 471.3V33.1C1163.3 18.7023 1151.78 7.03546 1137.44 6.80357L1137 6.80005H442.3C427.902 6.80005 416.235 18.3229 416.004 32.6646L416 33.1V310.1C416 311.757 414.657 313.1 413 313.1C411.402 313.1 410.096 311.851 410.005 310.276L410 310.1V33.1C410 15.4218 424.156 1.08925 441.765 0.804371L442.3 0.800049H1137Z" fill="#262685"/>
<path fill-rule="evenodd" clip-rule="evenodd" d="M474.9 4.30005C476.557 4.30005 477.9 5.64319 477.9 7.30005C477.9 8.9569 476.557 10.3 474.9 10.3C462.216 10.3 451.908 20.9113 451.703 34.1967L451.7 34.6V478.1C451.7 479.757 450.357 481.1 448.7 481.1C447.102 481.1 445.796 479.851 445.705 478.276L445.7 478.1V34.6C445.7 17.8673 458.718 4.30005 474.9 4.30005Z" fill="#262685"/>
<path fill-rule="evenodd" clip-rule="evenodd" d="M702.6 586.2C704.198 586.2 705.504 587.449 705.595 589.024L705.6 589.2V670C705.6 671.657 704.257 673 702.6 673C701.002 673 699.696 671.751 699.605 670.176L699.6 670V589.2C699.6 587.543 700.943 586.2 702.6 586.2Z" fill="#262685"/>
<path fill-rule="evenodd" clip-rule="evenodd" d="M702.6 2.30005C704.198 2.30005 705.504 3.54897 705.595 5.12378L705.6 5.30005V460.9C705.6 462.557 704.257 463.9 702.6 463.9C701.002 463.9 699.696 462.651 699.605 461.076L699.6 460.9V5.30005C699.6 3.64319 700.943 2.30005 702.6 2.30005Z" fill="#262685"/>
<path fill-rule="evenodd" clip-rule="evenodd" d="M857.6 72.8H852.2C849.4 72.8 847.2 70.6 847.2 67.8V57.2C847.2 54.4 849.4 52.2 852.2 52.2H857.6C860.4 52.2 862.6 54.4 862.6 57.2V67.8C862.6 70.5 860.3 72.8 857.6 72.8Z" fill="#262685"/>
<path fill-rule="evenodd" clip-rule="evenodd" d="M836.3 72.8H740.5C737.7 72.8 735.5 70.6 735.5 67.8V57.2C735.5 54.4 737.7 52.2 740.5 52.2H836.3C839.1 52.2 841.3 54.4 841.3 57.2V67.8C841.3 70.5 839 72.8 836.3 72.8Z" fill="#262685"/>
<path fill-rule="evenodd" clip-rule="evenodd" d="M845.9 168.5H740.5C737.7 168.5 735.5 166.3 735.5 163.5V152.9C735.5 150.1 737.7 147.9 740.5 147.9H845.9C848.7 147.9 850.9 150.1 850.9 152.9V163.5C850.9 166.3 848.6 168.5 845.9 168.5Z" fill="#262685"/>
<path fill-rule="evenodd" clip-rule="evenodd" d="M938.6 136.6H769.6C766.8 136.6 764.6 134.4 764.6 131.6V121C764.6 118.2 766.8 116 769.6 116H938.6C941.4 116 943.6 118.2 943.6 121V131.6C943.6 134.4 941.4 136.6 938.6 136.6Z" fill="#262685"/>
<path fill-rule="evenodd" clip-rule="evenodd" d="M1074.6 285.2H1069.2C1066.4 285.2 1064.2 283 1064.2 280.2V269.6C1064.2 266.8 1066.4 264.6 1069.2 264.6H1074.6C1077.4 264.6 1079.6 266.8 1079.6 269.6V280.2C1079.6 283 1077.3 285.2 1074.6 285.2Z" fill="#262685"/>
<path fill-rule="evenodd" clip-rule="evenodd" d="M915.5 104.7H740.5C737.7 104.7 735.5 102.5 735.5 99.6999V89.0999C735.5 86.2999 737.7 84.0999 740.5 84.0999H915.6C918.4 84.0999 920.6 86.2999 920.6 89.0999V99.6999C920.5 102.5 918.3 104.7 915.5 104.7Z" fill="#262685"/>
<path fill-rule="evenodd" clip-rule="evenodd" d="M970.2 72.8H874.4C871.6 72.8 869.4 70.6 869.4 67.8V57.2C869.4 54.4 871.6 52.2 874.4 52.2H970.2C973 52.2 975.2 54.4 975.2 57.2V67.8C975.2 70.5 972.9 72.8 970.2 72.8Z" fill="#262685"/>
<path fill-rule="evenodd" clip-rule="evenodd" d="M1046.5 104.8H933.8C931 104.8 928.8 102.6 928.8 99.7999V89.0999C928.8 86.2999 931 84.0999 933.8 84.0999H1046.5C1049.3 84.0999 1051.5 86.2999 1051.5 89.0999V99.7999C1051.5 102.5 1049.3 104.8 1046.5 104.8Z" fill="#262685"/>
<path fill-rule="evenodd" clip-rule="evenodd" d="M836.3 252.6H740.5C737.7 252.6 735.5 250.4 735.5 247.6V237C735.5 234.2 737.7 232 740.5 232H836.3C839.1 232 841.3 234.2 841.3 237V247.6C841.3 250.4 839 252.6 836.3 252.6Z" fill="#262685"/>
<path fill-rule="evenodd" clip-rule="evenodd" d="M1045.3 316.5H958.6C955.8 316.5 953.6 314.3 953.6 311.5V300.9C953.6 298.1 955.8 295.9 958.6 295.9H1045.3C1048.1 295.9 1050.3 298.1 1050.3 300.9V311.5C1050.3 314.2 1048.1 316.5 1045.3 316.5Z" fill="#262685"/>
<path fill-rule="evenodd" clip-rule="evenodd" d="M915.5 284.5H740.5C737.7 284.5 735.5 282.3 735.5 279.5V268.9C735.5 266.1 737.7 263.9 740.5 263.9H915.6C918.4 263.9 920.6 266.1 920.6 268.9V279.5C920.5 282.3 918.3 284.5 915.5 284.5Z" fill="#262685"/>
<path fill-rule="evenodd" clip-rule="evenodd" d="M970.2 252.6H852.2C849.4 252.6 847.2 250.4 847.2 247.6V237C847.2 234.2 849.4 232 852.2 232H970.2C973 232 975.2 234.2 975.2 237V247.6C975.2 250.4 972.9 252.6 970.2 252.6Z" fill="#262685"/>
<path fill-rule="evenodd" clip-rule="evenodd" d="M1084.2 252.6H988.4C985.6 252.6 983.4 250.4 983.4 247.6V237C983.4 234.2 985.6 232 988.4 232H1084.2C1087 232 1089.2 234.2 1089.2 237V247.6C1089.2 250.4 1086.9 252.6 1084.2 252.6Z" fill="#262685"/>
<path fill-rule="evenodd" clip-rule="evenodd" d="M857.6 221.7H852.2C849.4 221.7 847.2 219.5 847.2 216.7V206.1C847.2 203.3 849.4 201.1 852.2 201.1H857.6C860.4 201.1 862.6 203.3 862.6 206.1V216.7C862.6 219.5 860.3 221.7 857.6 221.7Z" fill="#262685"/>
<path fill-rule="evenodd" clip-rule="evenodd" d="M836.3 221.7H740.5C737.7 221.7 735.5 219.5 735.5 216.7V206.1C735.5 203.3 737.7 201.1 740.5 201.1H836.3C839.1 201.1 841.3 203.3 841.3 206.1V216.7C841.3 219.5 839 221.7 836.3 221.7Z" fill="#262685"/>
<path fill-rule="evenodd" clip-rule="evenodd" d="M970.2 221.7H874.4C871.6 221.7 869.4 219.5 869.4 216.7V206.1C869.4 203.3 871.6 201.1 874.4 201.1H970.2C973 201.1 975.2 203.3 975.2 206.1V216.7C975.2 219.5 972.9 221.7 970.2 221.7Z" fill="#262685"/>
<path fill-rule="evenodd" clip-rule="evenodd" d="M1054.4 284.6H933.9C931.1 284.6 928.9 282.4 928.9 279.6V268.9C928.9 266.1 931.1 263.9 933.9 263.9H1054.4C1057.2 263.9 1059.4 266.1 1059.4 268.9V279.6C1059.4 282.4 1057.1 284.6 1054.4 284.6Z" fill="#262685"/>
<path fill-rule="evenodd" clip-rule="evenodd" d="M529.4 234.1H509.5C506.7 234.1 504.5 231.9 504.5 229.1V218.5C504.5 215.7 506.7 213.5 509.5 213.5H529.4C532.2 213.5 534.4 215.7 534.4 218.5V229.1C534.4 231.9 532.2 234.1 529.4 234.1Z" fill="#262685"/>
<path fill-rule="evenodd" clip-rule="evenodd" d="M568.4 198.9H509.5C506.7 198.9 504.5 196.7 504.5 193.9V183.3C504.5 180.5 506.7 178.3 509.5 178.3H568.4C571.2 178.3 573.4 180.5 573.4 183.3V193.9C573.4 196.7 571.1 198.9 568.4 198.9Z" fill="#262685"/>
<path fill-rule="evenodd" clip-rule="evenodd" d="M590.4 168.1H509.5C506.7 168.1 504.5 165.9 504.5 163.1V152.5C504.5 149.7 506.7 147.5 509.5 147.5H590.4C593.2 147.5 595.4 149.7 595.4 152.5V163.1C595.4 165.9 593.2 168.1 590.4 168.1Z" fill="#262685"/>
<path fill-rule="evenodd" clip-rule="evenodd" d="M568.4 136.8H509.5C506.7 136.8 504.5 134.6 504.5 131.8V121.2C504.5 118.4 506.7 116.2 509.5 116.2H568.4C571.2 116.2 573.4 118.4 573.4 121.2V131.8C573.4 134.6 571.1 136.8 568.4 136.8Z" fill="#262685"/>
<path fill-rule="evenodd" clip-rule="evenodd" d="M544.7 103.7H509.5C506.7 103.7 504.5 101.5 504.5 98.7001V88.1001C504.5 85.3001 506.7 83.1001 509.5 83.1001H544.7C547.5 83.1001 549.7 85.3001 549.7 88.1001V98.7001C549.7 101.5 547.4 103.7 544.7 103.7Z" fill="#262685"/>
<path fill-rule="evenodd" clip-rule="evenodd" d="M569.8 103.7H561.3C559.5 103.7 558 102.2 558 100.4V86.4001C558 84.6001 559.5 83.1001 561.3 83.1001H569.8C571.6 83.1001 573.1 84.6001 573.1 86.4001V100.4C573.1 102.2 571.6 103.7 569.8 103.7Z" fill="#262685"/>
<path fill-rule="evenodd" clip-rule="evenodd" d="M592.7 136.4H584.2C582.4 136.4 580.9 134.9 580.9 133.1V119.1C580.9 117.3 582.4 115.8 584.2 115.8H592.7C594.5 115.8 596 117.3 596 119.1V133.1C596 135 594.5 136.4 592.7 136.4Z" fill="#262685"/>
<path fill-rule="evenodd" clip-rule="evenodd" d="M617.1 168.2H608.6C606.8 168.2 605.3 166.7 605.3 164.9V150.9C605.3 149.1 606.8 147.6 608.6 147.6H617.1C618.9 147.6 620.4 149.1 620.4 150.9V164.9C620.4 166.7 618.9 168.2 617.1 168.2Z" fill="#262685"/>
<path fill-rule="evenodd" clip-rule="evenodd" d="M593.5 199.2H585C583.2 199.2 581.7 197.7 581.7 195.9V181.9C581.7 180.1 583.2 178.6 585 178.6H593.5C595.3 178.6 596.8 180.1 596.8 181.9V195.9C596.8 197.7 595.3 199.2 593.5 199.2Z" fill="#262685"/>
<path fill-rule="evenodd" clip-rule="evenodd" d="M553.5 234.1H545C543.2 234.1 541.7 232.6 541.7 230.8V216.8C541.7 215 543.2 213.5 545 213.5H553.5C555.3 213.5 556.8 215 556.8 216.8V230.8C556.8 232.7 555.3 234.1 553.5 234.1Z" fill="#262685"/>
<path fill-rule="evenodd" clip-rule="evenodd" d="M643.5 264.1H635C633.2 264.1 631.7 262.6 631.7 260.8V246.8C631.7 245 633.2 243.5 635 243.5H643.5C645.3 243.5 646.8 245 646.8 246.8V260.8C646.8 262.6 645.3 264.1 643.5 264.1Z" fill="#262685"/>
<path fill-rule="evenodd" clip-rule="evenodd" d="M581.5 70.6H508.2C505.4 70.6 503.2 68.4 503.2 65.6V55C503.2 52.2 505.4 50 508.2 50H581.5C584.3 50 586.5 52.2 586.5 55V65.6C586.5 68.3 584.3 70.6 581.5 70.6Z" fill="#262685"/>
<path fill-rule="evenodd" clip-rule="evenodd" d="M621.3 243.5H572.4C571.3 245.4 569.5 248 567.4 250.9C570.1 249.1 579.1 242.9 579.3 247.5C579.4 250.1 571.6 258 565.4 264H621.3C624.1 264 626.3 261.8 626.3 259V248.4C626.3 245.8 624.1 243.5 621.3 243.5Z" fill="#262685"/>
<path fill-rule="evenodd" clip-rule="evenodd" d="M509.5 264.1H511.3C516.5 257.5 531.3 251.9 531.3 251.9C533.7 250.3 538.4 246.2 541.5 243.5H509.4C506.6 243.5 504.4 245.7 504.4 248.5V259.1C504.5 261.9 506.7 264.1 509.5 264.1Z" fill="#262685"/>
<path fill-rule="evenodd" clip-rule="evenodd" d="M994.2 129.7C987.9 132.3 975.5 134.9 974 130.9C973.4 129.2 988.2 121.8 991.1 121.4C994.1 120.9 1013.2 117.2 1013.2 117.2C1013.2 117.2 1022.7 117.1 1030.8 117C1031.5 117 1032.2 117 1032.9 117.1C1032.1 116.5 1031 116.1 1029.9 116.1H958.7C955.9 116.1 953.7 118.3 953.7 121.1V131.7C953.7 134.5 955.9 136.7 958.7 136.7H1016.6C1015.9 133.4 1000.5 127.1 994.2 129.7Z" fill="#262685"/>
<path fill-rule="evenodd" clip-rule="evenodd" d="M299.6 738.4L299.5 524.9C299.5 524.9 221.8 525.3 221.6 524.9C221.5 524.8 221.5 524.8 221.4 524.7H137.2V782H366.2V738.4H299.6Z" fill="#262685"/>
<path fill-rule="evenodd" clip-rule="evenodd" d="M431 780.9L430 781.3H407.5C405.3 781.5 393.7 781 403.6 774.8C405.6 773.9 422.2 763.3 428.8 762.1C435.4 760.9 460.7 760.9 461.2 760.9C461.5 760.9 464.2 753.5 466.7 746.5C462.2 745.5 456.8 741.8 452.2 737.6C452.6 738.4 313.4 735.5 313.4 735.5L314.6 783.9H335.2L336.4 740.8C336.4 740.8 344.8 782.9 373.5 784.8C382.6 785.4 417.4 783.3 445 781.2C438.5 781.2 433.2 781 431 780.9Z" fill="#FE7624"/>
<path fill-rule="evenodd" clip-rule="evenodd" d="M574.811 249.986L574.437 250.18C573.969 250.427 573.478 250.702 572.964 251.005L572.308 251.398C571.02 252.191 568.548 253.811 568.421 253.886C566.993 254.726 565.154 254.249 564.314 252.821C563.505 251.446 563.917 249.69 565.224 248.812L567.827 247.129C568.438 246.739 569.043 246.359 569.482 246.095C570.23 245.645 570.947 245.237 571.639 244.872C573.713 243.779 575.467 243.107 577.036 242.957C579.83 242.691 582.088 244.257 582.373 247.142L582.392 247.378C582.668 251.103 578.724 255.484 567.159 266.682C563.984 269.679 560.031 272.399 555.475 274.867C551.318 277.119 546.885 279.043 542.455 280.649C541.099 281.14 539.826 281.571 538.661 281.941L537.329 282.352C536.964 282.461 536.681 282.542 536.489 282.594C534.891 283.03 533.242 282.088 532.806 280.489C532.37 278.891 533.312 277.242 534.911 276.806L535.275 276.702C535.529 276.628 535.818 276.542 536.139 276.443L536.385 276.367C537.597 275.99 538.951 275.537 540.411 275.008C544.58 273.497 548.747 271.688 552.617 269.592C556.748 267.354 560.284 264.92 563.013 262.345L565.449 259.973C568.339 257.14 570.422 255.013 572.224 253.027L572.458 252.768C573.251 251.886 573.94 251.082 574.516 250.361L574.811 249.986Z" fill="#262685"/>
<path fill-rule="evenodd" clip-rule="evenodd" d="M566.72 235.473C571.653 233.52 576.345 235.476 576.697 240.764C576.795 242.932 573.566 247.835 567.522 255.866L566.854 256.75C561.848 263.347 556.925 269.198 554.19 271.645C549.183 276.083 542.344 280.324 533.653 284.091L533.201 284.284L531.971 287.249C531.359 288.725 529.705 289.453 528.216 288.934L528.051 288.871C526.575 288.259 525.847 286.605 526.366 285.116L526.429 284.951L528.129 280.851C528.433 280.118 529.015 279.535 529.748 279.23C538.614 275.543 545.418 271.403 550.2 267.164L550.521 266.869C552.972 264.561 557.516 259.13 562.102 253.086L562.728 252.259C565.074 249.141 567.179 246.191 568.679 243.914L569.075 243.306C569.643 242.425 570.093 241.683 570.405 241.111L570.558 240.822L570.602 240.732L570.575 240.726C570.295 240.68 569.786 240.739 569.116 240.981L568.93 241.052C566.209 242.129 563.224 245.197 561.227 249.551C560.536 251.057 558.755 251.718 557.249 251.027C555.743 250.336 555.082 248.555 555.773 247.049C558.383 241.36 562.474 237.155 566.72 235.473Z" fill="#262685"/>
<path fill-rule="evenodd" clip-rule="evenodd" d="M554.205 235.892L554.216 235.885C557.642 233.629 561.95 232.719 564.007 234.57C565.843 236.223 565.612 238.116 564.362 241.574L564.253 241.875C563.491 243.94 562.301 246.589 560.5 250.308C560 251.339 559.37 252.407 558.621 253.512C557.502 255.161 556.131 256.875 554.561 258.63C553.074 260.292 551.489 261.904 549.905 263.408L549.258 264.016C549.05 264.21 548.848 264.396 548.654 264.572L547.818 265.321L547.763 265.369C546.51 266.453 544.615 266.316 543.531 265.063C542.489 263.858 542.575 262.06 543.698 260.96L544.352 260.374L544.889 259.885C545.168 259.628 545.464 259.351 545.773 259.057C547.247 257.658 548.721 256.159 550.089 254.63C551.493 253.06 552.702 251.549 553.655 250.143C554.251 249.265 554.736 248.443 555.1 247.692L555.747 246.346C556.776 244.191 557.557 242.465 558.13 241.063L558.407 240.367L558.213 240.466C557.104 241.05 556.17 241.818 555.601 242.645L555.574 242.686L555.537 242.778C554.988 244.072 554.199 245.427 553.196 246.851L552.889 247.28C551.775 248.812 550.434 250.404 548.912 252.036C547.638 253.401 546.294 254.735 544.939 256.005L544.57 256.345L544.541 256.376C543.146 257.775 541.942 258.805 541.197 259.149L541.077 259.2C537.967 260.396 535.558 256.413 537.947 254.211L538.608 253.642L539.161 253.155C539.354 252.984 539.553 252.805 539.76 252.618L540.074 252.332L540.701 251.75L540.947 251.49C541.315 251.097 541.706 250.67 542.11 250.218L542.416 249.875C544.591 247.416 546.779 244.678 548.095 242.749C548.364 242.342 548.603 241.903 548.801 241.466L548.852 241.342L548.764 241.402C548.189 241.785 547.532 242.274 546.801 242.873L546.55 243.081L544.841 244.594L544.517 244.88C543.26 245.984 541.988 247.088 540.75 248.146L539.207 249.455L538.152 250.337C535.995 252.13 534.275 253.478 533.08 254.286C532.886 254.417 532.678 254.524 532.459 254.607L531.585 254.952L530.839 255.258C530.323 255.473 529.773 255.708 529.195 255.963C526.72 257.052 524.247 258.265 521.953 259.564C517.523 262.072 514.349 264.586 513.115 266.671L512.421 267.863C511.173 269.97 508.743 273.939 504.952 280.076C504.082 281.486 502.233 281.923 500.824 281.052C499.414 280.182 498.977 278.333 499.848 276.924L505.604 267.553C506.77 265.636 507.533 264.356 507.918 263.673C509.862 260.386 513.72 257.33 518.997 254.342C521.483 252.935 524.131 251.636 526.777 250.471C527.548 250.132 528.274 249.824 528.943 249.55L529.987 249.129L530.04 249.093C531.103 248.341 532.698 247.075 534.668 245.43L535.949 244.353C537.143 243.341 538.386 242.269 539.627 241.186L542.677 238.497C545.122 236.456 547.169 235.187 548.927 234.663C550.91 234.071 552.805 234.401 554.05 235.719L554.205 235.892Z" fill="#262685"/>
<path fill-rule="evenodd" clip-rule="evenodd" d="M491.171 276.355L466.871 320.555C466.455 321.311 466.385 322.21 466.679 323.022L489.279 385.422C490.214 388.001 493.834 388.077 494.876 385.539L534.876 288.039C535.575 286.334 534.586 284.407 532.793 283.981L494.493 274.881C493.181 274.569 491.821 275.172 491.171 276.355ZM495.328 281.246L527.992 289.007L492.274 376.071L472.782 322.255L495.328 281.246Z" fill="#262685"/>
<path fill-rule="evenodd" clip-rule="evenodd" d="M290.086 268.6C291.743 268.592 293.092 269.929 293.1 271.586C293.107 273.184 291.865 274.496 290.29 274.594L290.114 274.6L268.5 274.7C258.109 274.7 244.505 286.255 243.075 297.184L242.887 298.602C241.226 310.8 238.233 324.762 232.836 346.845L226.058 374.396C225.391 377.159 224.902 379.246 224.222 382.178C224.203 382.263 224.179 382.347 224.152 382.43C215.063 410.304 209.004 436.753 207.38 459.848C205.417 487.769 210.123 508.87 222.494 521.478L222.89 521.875L224.141 521.902L228.166 521.944L237.376 521.975C241.321 521.98 245.911 521.978 251.059 521.97L268.881 521.926L299.485 521.8C301.088 521.792 302.402 523.042 302.495 524.622L302.5 524.799L302.598 735.299H451.89L453.593 722.946C454.146 718.898 454.731 714.583 455.343 710.032C458.204 688.758 461.065 666.719 463.735 645.079L464.425 639.461C465.108 633.875 465.768 628.387 466.405 623.009L467.176 616.443C474.526 553.395 477.729 511.502 475.052 505.303C472.748 500.043 459.584 489.502 439.042 476.025C435.494 473.697 431.754 471.299 427.845 468.84C417.905 462.589 407.296 456.214 396.643 450.013L392.535 447.632C390.431 446.418 388.415 445.262 386.5 444.172L382.472 441.889L379.145 440.024C377.888 439.327 377.31 437.843 377.741 436.49L377.853 436.187L378.3 435.008L378.832 433.583C379.588 431.54 380.424 429.222 381.322 426.661L381.568 425.956C384.402 417.831 387.237 409.045 389.882 399.924C393.366 387.909 396.251 376.23 398.335 365.241C403.721 336.83 403.26 315.6 395.69 304.987C386.656 292.807 374.864 286.678 359.307 283.541C357.683 283.213 356.632 281.631 356.959 280.007C357.287 278.383 358.869 277.332 360.493 277.659C377.376 281.064 390.46 287.864 400.542 301.458C409.42 313.903 409.908 336.405 404.23 366.359C402.108 377.551 399.178 389.41 395.644 401.595C393.135 410.248 390.459 418.599 387.771 426.383L387.234 427.932C386.313 430.571 385.453 432.969 384.67 435.093L384.318 436.042L387.845 438.035C390.509 439.546 393.39 441.195 396.445 442.962L397.367 443.495C408.843 450.144 420.321 457.021 431.039 463.761C434.487 465.93 437.806 468.053 440.981 470.124L442.333 471.008C464.165 485.332 477.549 496.048 480.554 502.91C483.946 510.763 480.776 551.925 472.919 618.991L472.68 621.031C471.736 629.054 470.737 637.328 469.69 645.813C467.223 665.811 464.593 686.146 461.951 705.905L460.154 719.234C459.788 721.934 459.433 724.53 459.092 727.014L457.471 738.718C457.271 740.14 456.095 741.211 454.678 741.295L454.5 741.3H299.6C298.003 741.3 296.697 740.052 296.605 738.478L296.6 738.302L296.501 527.814L270.614 527.92L247.115 527.975C242.262 527.98 237.988 527.979 234.384 527.97L226.956 527.935L224.958 527.915C224.183 527.905 223.534 527.894 223.01 527.881L222.407 527.864C222.08 527.854 221.823 527.842 221.625 527.828L220.457 527.744C219 527.632 219.421 527.564 219.135 526.669L219.097 526.559L218.665 526.136C204.642 512.241 199.407 489.682 201.333 460.337L201.395 459.427C203.031 436.158 209.015 409.766 217.989 381.984L218.407 380.691L219.901 374.338C220.575 371.523 221.386 368.21 222.81 362.44L226.368 348.031C232.336 323.75 235.482 309.131 237.125 296.411C238.933 282.587 254.815 268.975 268.085 268.704L268.486 268.7L290.086 268.6ZM222.919 521.903L223.261 522.239L223.656 522.615C223.913 522.857 224.125 523.143 224.283 523.458C223.649 522.189 224.428 522.045 223.405 521.943L222.919 521.903Z" fill="#262685"/>
<path fill-rule="evenodd" clip-rule="evenodd" d="M292.6 239.193C293.321 237.702 295.115 237.078 296.607 237.799C298.098 238.521 298.722 240.315 298.001 241.807C296.732 244.428 296.274 248.141 296.865 251.941C297.925 258.792 301.848 263.531 305.086 263.335L305.256 263.32C306.902 263.13 308.39 264.31 308.58 265.956C308.77 267.602 307.59 269.09 305.944 269.28C298.772 270.108 292.446 262.621 290.936 252.861C290.165 247.906 290.775 242.964 292.6 239.193Z" fill="#FE7624"/>
<path fill-rule="evenodd" clip-rule="evenodd" d="M374.941 244.135C376.579 243.882 378.111 245.004 378.365 246.641C379.425 253.492 383.348 258.231 386.586 258.035L386.756 258.02C388.402 257.83 389.89 259.01 390.08 260.656C390.27 262.302 389.09 263.79 387.444 263.98C380.272 264.808 373.946 257.321 372.435 247.559C372.182 245.921 373.304 244.389 374.941 244.135Z" fill="#FE7624"/>
<path fill-rule="evenodd" clip-rule="evenodd" d="M300.9 174.7C313.1 165.7 321.2 118.4 288.1 86.7C254.5 54.6 226.6 87.4 220.4 96C214.2 104.6 209.5 128.4 238.5 150.9C267.6 173.3 287 185 300.9 174.7Z" fill="#262685"/>
<path fill-rule="evenodd" clip-rule="evenodd" d="M318.7 195.6L317.9 196.1C313.4 199 307.1 197.8 303.9 193.3L295 180.8C291.8 176.3 292.9 170.3 297.4 167.4L298.2 166.9C302.7 164 309 165.2 312.2 169.7L321.1 182.2C324.3 186.7 323.2 192.7 318.7 195.6Z" fill="#FE7624"/>
<path fill-rule="evenodd" clip-rule="evenodd" d="M289.593 224.108C292.248 218.543 298.221 215.612 304.393 216.641C306.028 216.913 307.132 218.459 306.859 220.093C306.587 221.728 305.041 222.832 303.407 222.559C299.817 221.961 296.485 223.596 295.022 226.661C293.225 230.543 295.049 235.295 299.242 237.317C301.721 238.557 304.603 238.47 306.882 237.189L307.132 237.042C308.545 236.177 310.392 236.62 311.258 238.032C312.124 239.445 311.68 241.292 310.268 242.158C306.193 244.655 300.991 244.9 296.597 242.702C289.545 239.302 286.378 231.052 289.593 224.108Z" fill="#262685"/>
<path fill-rule="evenodd" clip-rule="evenodd" d="M375.318 213.433C378.747 212.378 382.611 212.613 385.903 214.198C392.955 217.598 396.122 225.848 392.906 232.794C390.108 238.644 383.409 241.655 377 240.117C375.389 239.73 374.396 238.111 374.783 236.5C375.17 234.889 376.789 233.896 378.4 234.283C382.11 235.173 385.942 233.451 387.478 230.24C389.275 226.357 387.451 221.605 383.299 219.603C381.499 218.737 379.336 218.565 377.402 219.076L377.082 219.167C375.499 219.654 373.82 218.766 373.333 217.182C372.845 215.599 373.734 213.92 375.318 213.433Z" fill="#262685"/>
<path fill-rule="evenodd" clip-rule="evenodd" d="M311.412 245.4C313.01 245.406 314.311 246.661 314.396 248.236L314.4 248.412L314.3 273.712C314.293 275.442 312.833 276.794 311.13 276.695L310.953 276.68L295.064 274.828L295.146 275.062C298.422 284.354 301.728 291.469 305.888 297.498L306.228 297.985C312.515 306.91 320.141 312.222 329.704 313.527C343.543 315.407 351.887 310.313 356.33 300.228C357.978 296.486 358.965 292.254 359.36 288.026C359.494 286.591 359.551 285.228 359.539 284.049L359.532 283.654L348.245 281.128C346.968 280.842 346.03 279.764 345.913 278.474L345.902 278.297L345.702 272.097C345.648 270.441 346.947 269.055 348.603 269.002C350.2 268.95 351.546 270.156 351.688 271.727L351.698 271.903L351.823 275.78L362.955 278.273C363.887 278.481 364.66 279.12 365.043 279.986L365.119 280.175C366.339 283.53 365.289 294.773 361.82 302.647C356.335 315.1 345.482 321.726 328.894 319.473C317.528 317.92 308.505 311.636 301.323 301.44C295.9 293.743 291.93 284.677 287.849 272.235C287.185 270.209 288.784 268.177 290.876 268.305L291.047 268.32L308.313 270.332L308.4 248.388C308.406 246.791 309.66 245.49 311.236 245.405L311.412 245.4Z" fill="#262685"/>
<path fill-rule="evenodd" clip-rule="evenodd" d="M332.808 178.173C311.602 182.07 298.728 206.838 303.583 233.26C308.437 259.682 329.275 278.256 350.481 274.36C371.687 270.463 384.56 245.695 379.706 219.273C374.851 192.852 354.014 174.277 332.808 178.173ZM333.892 184.074C351.469 180.845 369.498 196.916 373.805 220.358C378.112 243.799 366.973 265.229 349.396 268.459C331.82 271.688 313.791 255.617 309.484 232.175C305.177 208.734 316.316 187.304 333.892 184.074Z" fill="#262685"/>
<path fill-rule="evenodd" clip-rule="evenodd" d="M347.032 214.1C348.576 213.691 350.159 214.564 350.65 216.063L350.7 216.232L355.585 234.676C356.304 237.194 354.521 239.774 351.976 239.894L351.788 239.899L344.988 240.099C343.332 240.147 341.95 238.844 341.901 237.188C341.854 235.591 343.064 234.249 344.636 234.112L344.812 234.101L349.191 233.973L344.9 217.768C344.491 216.224 345.364 214.641 346.863 214.15L347.032 214.1Z" fill="#262685"/>
<path fill-rule="evenodd" clip-rule="evenodd" d="M326.555 203.945C329.562 202.241 332.794 201.599 335.996 202.834C337.106 203.262 338.149 203.908 339.107 204.77C340.338 205.878 340.438 207.775 339.33 209.007C338.264 210.191 336.469 210.329 335.238 209.352L335.093 209.23C334.673 208.852 334.257 208.594 333.837 208.432C332.616 207.961 331.11 208.26 329.513 209.165C329.113 209.391 328.746 209.636 328.426 209.877L328.271 209.996C328.183 210.064 328.127 210.111 328.107 210.13C326.875 211.238 324.978 211.138 323.87 209.907C322.762 208.675 322.862 206.778 324.093 205.67C324.617 205.199 325.455 204.568 326.555 203.945Z" fill="#262685"/>
<path fill-rule="evenodd" clip-rule="evenodd" d="M354.046 202.923C356.027 202.458 358.09 202.317 360.118 202.718C363.041 203.297 365.462 204.961 366.956 207.805C367.726 209.271 367.162 211.085 365.695 211.856C364.283 212.598 362.549 212.102 361.734 210.755L361.644 210.595C361.037 209.439 360.174 208.846 358.953 208.604C357.885 208.393 356.636 208.478 355.418 208.764L355.117 208.839C354.934 208.887 354.787 208.931 354.682 208.965L354.557 209.008C353.007 209.592 351.276 208.808 350.693 207.257C350.109 205.707 350.892 203.977 352.443 203.393L352.742 203.287C353.078 203.175 353.518 203.047 354.046 202.923Z" fill="#262685"/>
<path fill-rule="evenodd" clip-rule="evenodd" d="M338.925 223.099C338.999 220.835 337.85 218.961 336.36 218.913C334.869 218.864 333.601 220.66 333.528 222.923C333.454 225.186 334.603 227.06 336.093 227.109C337.583 227.157 338.851 225.362 338.925 223.099Z" fill="#262685"/>
<path fill-rule="evenodd" clip-rule="evenodd" d="M361.901 228.067C363.388 227.959 364.461 226.041 364.297 223.783C364.134 221.524 362.796 219.781 361.308 219.888C359.821 219.996 358.748 221.914 358.911 224.173C359.075 226.431 360.413 228.175 361.901 228.067Z" fill="#262685"/>
<path fill-rule="evenodd" clip-rule="evenodd" d="M383.752 226.734C390.969 225.644 396.563 233.489 398.166 243.847C399.686 253.786 395.758 262.963 388.448 264.066C388.349 264.081 388.25 264.091 388.15 264.096L388 264.1H387.8C386.143 264.1 384.8 262.757 384.8 261.1C384.8 259.502 386.049 258.196 387.624 258.105L387.726 258.102L387.877 258.067C390.939 257.264 393.202 251.789 392.286 245.111L392.235 244.759C391.093 237.38 387.618 232.407 384.793 232.649L384.648 232.666C383.01 232.914 381.481 231.786 381.234 230.148C380.986 228.51 382.114 226.981 383.752 226.734Z" fill="#FE7624"/>
<path fill-rule="evenodd" clip-rule="evenodd" d="M300.552 232.734C307.84 231.634 314.34 239.192 315.866 249.047C317.386 258.986 313.458 268.163 306.148 269.267C306.049 269.281 305.95 269.291 305.85 269.296L305.7 269.3H305.5C303.843 269.3 302.5 267.957 302.5 266.3C302.5 264.702 303.749 263.396 305.324 263.305L305.426 263.302L305.577 263.267C308.639 262.464 310.902 256.989 309.986 250.311L309.935 249.959C308.871 243.081 304.87 238.334 301.615 238.646L301.448 238.667C299.81 238.914 298.281 237.786 298.034 236.148C297.786 234.51 298.914 232.981 300.552 232.734Z" fill="#FE7624"/>
<path fill-rule="evenodd" clip-rule="evenodd" d="M326.902 239.315C327.297 249.623 331.286 255.076 337.768 255.653C340.201 255.87 342.666 255.354 345.073 254.382C346.269 253.899 347.2 253.409 347.78 253.05C349.616 251.913 349.685 249.265 347.909 248.034L331.609 236.734C329.576 235.325 326.808 236.843 326.902 239.315ZM333.894 245.62L339.708 249.65L339.504 249.672C339.087 249.708 338.684 249.711 338.3 249.677C336.398 249.507 334.904 248.404 333.967 245.826L333.894 245.62Z" fill="#262685"/>
<path fill-rule="evenodd" clip-rule="evenodd" d="M328.8 170.4L328.7 170.5C317.1 172.2 304.1 177.5 296.9 185.3C284.1 199.1 290 228.6 303 230.6C304.1 230.8 305.2 230.9 306.3 230.9C306.2 230.2 306.1 229.4 306 228.7C305.7 226 305.6 223.3 305.6 220.6C323.4 214 323.3 187.3 323.3 185.1C327.1 188.1 332 193.2 330.7 198.9L370 201.4C373.8 207.9 376.4 215.5 377.3 223.7C377.3 223.8 377.3 223.9 377.3 224C381 218.7 381.1 210.5 378.1 201.9L391.4 202.7C391.5 202.7 403.6 157.8 328.8 170.4Z" fill="#262685"/>
<path fill-rule="evenodd" clip-rule="evenodd" d="M287.025 335.213C287.239 333.57 288.744 332.411 290.387 332.625C291.972 332.831 293.105 334.238 292.993 335.812L292.975 335.987L288.714 368.708L368.907 368.9C370.505 368.904 371.808 370.156 371.895 371.731L371.9 371.907C371.896 373.505 370.644 374.808 369.069 374.895L368.893 374.9L285.293 374.7C283.545 374.696 282.185 373.21 282.307 371.491L282.325 371.313L287.025 335.213Z" fill="#262685"/>
<path fill-rule="evenodd" clip-rule="evenodd" d="M217.392 384.563C217.799 382.957 219.431 381.985 221.037 382.392C222.643 382.799 223.615 384.431 223.208 386.037C219.95 398.892 230.728 414.234 243.413 414.788L243.798 414.8L365.098 414.7C366.754 414.699 368.099 416.041 368.1 417.698C368.101 419.295 366.853 420.602 365.279 420.695L365.102 420.7L243.74 420.799C226.865 420.464 213.176 401.2 217.392 384.563Z" fill="#262685"/>
<path fill-rule="evenodd" clip-rule="evenodd" d="M269.001 370.911C274.321 367.413 279.976 366.976 285.117 368.322C286.111 368.582 286.862 368.854 287.327 369.062C288.839 369.739 289.515 371.514 288.838 373.026C288.185 374.484 286.511 375.166 285.036 374.605L284.736 374.481C284.51 374.394 284.123 374.264 283.598 374.126C279.964 373.175 276.015 373.48 272.297 375.925C270.392 377.177 268.612 378.967 266.988 381.377C266.062 382.751 264.197 383.114 262.823 382.187C261.449 381.261 261.086 379.397 262.012 378.023C264.072 374.968 266.417 372.61 269.001 370.911Z" fill="#262685"/>
<path fill-rule="evenodd" clip-rule="evenodd" d="M257.786 366.79C267.04 359.121 276.213 358.702 284.042 362.717C285.083 363.251 286.009 363.826 286.814 364.406L287.167 364.667C287.495 364.915 287.744 365.123 287.913 365.276C289.142 366.388 289.236 368.285 288.124 369.513C287.055 370.694 285.26 370.827 284.031 369.847L283.789 369.643C283.657 369.535 283.495 369.41 283.304 369.273C282.735 368.863 282.065 368.446 281.303 368.056C275.492 365.075 268.894 365.376 261.614 371.41C260.339 372.467 258.447 372.29 257.39 371.014C256.333 369.739 256.51 367.847 257.786 366.79Z" fill="#262685"/>
<path fill-rule="evenodd" clip-rule="evenodd" d="M268.3 403.9L329.6 404.5L349.8 309.5C350.2 307.4 352 305.9 353.9 305.9L503.3 308.2C506 308.2 508 311.1 507.4 314L488.4 415.3C487.1 421.6 479.2 426.4 473.5 426.3C436.8 425.7 289 423.6 284.6 423.5C264.9 423.4 268.3 403.9 268.3 403.9Z" fill="#FE7624"/>
<path fill-rule="evenodd" clip-rule="evenodd" d="M526.1 421.1C527.698 421.1 529.004 422.349 529.095 423.924L529.1 424.1V779C529.1 780.657 527.757 782 526.1 782C524.502 782 523.196 780.751 523.105 779.176L523.1 779L523.099 427.099H189.399L189.4 779C189.4 780.598 188.151 781.904 186.576 781.995L186.4 782C184.802 782 183.496 780.751 183.405 779.176L183.4 779V424.1C183.4 422.502 184.649 421.196 186.224 421.105L186.4 421.1H526.1Z" fill="#262685"/>
<path fill-rule="evenodd" clip-rule="evenodd" d="M502.332 739.017L472.902 737.701L472.479 739.009C471.686 741.422 470.56 744.698 469.294 748.291L468.084 751.695C467.328 753.802 466.627 755.717 466.028 757.307L465.458 758.803C465.09 759.754 464.778 760.528 464.527 761.11L464.325 761.568C464.229 761.778 464.14 761.96 464.057 762.118L463.707 762.768C463.103 763.845 462.8 763.989 461.39 763.999L458.401 764.009C457.568 764.013 456.685 764.019 455.761 764.028C452.336 764.058 448.919 764.109 445.68 764.186L442.806 764.264C436.283 764.46 431.499 764.758 429.337 765.151C427.335 765.515 423.656 767.129 418.858 769.687C418.212 770.032 417.549 770.391 416.867 770.767L415.477 771.542C413.135 772.866 408.819 775.383 406.452 776.735L405.156 777.465L404.917 777.617C404.737 777.733 404.567 777.845 404.407 777.955L403.988 778.248L404.14 778.271C405.125 778.41 406.219 778.469 406.986 778.429L407.364 778.403L407.5 778.4H427.48L427.533 778.261C427.925 777.248 428.472 776.246 429.198 775.292L429.479 774.937C431.717 772.212 435.107 770.409 439.676 769.917L441.085 769.768C444.078 769.457 446.671 769.236 448.882 769.091L449.876 769.03C451.545 768.933 452.641 768.9 453.2 768.9C454.857 768.9 456.2 770.243 456.2 771.9C456.2 773.498 454.951 774.804 453.376 774.895L452.522 774.914L451.644 774.947C451.219 774.965 450.746 774.989 450.224 775.02L448.767 775.113C446.406 775.276 443.598 775.526 440.321 775.883C437.903 776.143 436.171 776.859 434.944 777.902L434.779 778.048L437.861 778.126C444.119 778.274 450.425 778.359 456.382 778.351L458.158 778.345C471.687 778.282 481.302 777.687 484.139 776.594C485.186 776.198 486.964 774.161 488.976 770.766C491.006 767.339 493.185 762.745 495.478 757.2L495.765 756.502C497.097 753.246 499.162 747.713 500.858 743.076L502.332 739.017ZM509.289 737.304L509.334 737.201C509.411 737.126 503.986 752.256 501.318 758.775C498.819 764.881 496.429 769.956 494.138 773.824C491.468 778.332 488.984 781.177 486.279 782.199C482.448 783.676 472.73 784.277 458.186 784.345C452.246 784.373 445.923 784.303 439.612 784.167L437.719 784.125C436.148 784.087 434.667 784.048 433.297 784.009L431.567 783.957L431.466 784.018C431.081 784.234 430.643 784.368 430.176 784.395L430 784.4H407.602L407.407 784.415C405.283 784.546 402.184 784.242 400.129 783.432L399.778 783.284C397.502 782.256 396.088 780.279 396.846 777.71C397.403 775.822 399.099 774.179 402.008 772.357L402.185 772.255L402.43 772.132C403.209 771.71 410.352 767.521 413.264 765.903C413.981 765.505 414.679 765.122 415.36 764.755L416.035 764.393C421.383 761.541 425.442 759.761 428.263 759.248L428.685 759.176C431.552 758.718 436.885 758.417 444.143 758.223C447.823 758.125 451.761 758.062 455.708 758.028L459.321 758.004L459.583 757.351C459.708 757.037 459.842 756.692 459.985 756.319L460.551 754.826C461.12 753.308 461.778 751.507 462.484 749.536L463.972 745.335C465.905 739.815 467.684 734.498 467.73 734.176C467.94 732.706 469.19 731.62 470.657 731.6L470.834 731.603L506.634 733.203C508.693 733.295 510.048 735.388 509.289 737.304Z" fill="#FE7624"/>
<path fill-rule="evenodd" clip-rule="evenodd" d="M590.317 476.259C591.058 474.777 592.86 474.176 594.342 474.917C595.769 475.631 596.379 477.328 595.76 478.776L595.683 478.942L582.57 505.166L606.162 523.948C618.261 533.526 635.699 523.238 633.327 508.198L633.249 507.741C633.189 507.411 633.184 507.074 633.235 506.744L633.283 506.498L638.483 484.898C638.871 483.287 640.491 482.296 642.102 482.684C643.655 483.058 644.633 484.577 644.353 486.13L644.317 486.302L639.26 507.305L639.346 507.896C641.97 527.756 619.139 541.222 602.931 529.033L602.432 528.647L576.932 508.347C575.873 507.505 575.515 506.065 576.036 504.833L576.117 504.659L590.317 476.259Z" fill="#262685"/>
<path fill-rule="evenodd" clip-rule="evenodd" d="M658.638 427.134L658.635 427.12L658.882 427.742L659.348 428.944C659.454 429.222 659.562 429.511 659.674 429.814C660.501 432.047 661.312 434.458 662.072 437.034C663.757 442.741 664.936 448.388 665.389 453.747C665.529 455.398 664.304 456.85 662.653 456.989C661.002 457.129 659.55 455.904 659.411 454.253C658.995 449.345 657.896 444.08 656.318 438.732C655.598 436.294 654.829 434.009 654.047 431.897L653.74 431.077C653.64 430.814 653.543 430.561 653.446 430.314L653.018 429.228C653.011 429.236 653.006 429.241 652.999 429.219L652.975 429.119L652.579 428.149C647.392 415.568 640.605 402.884 633.138 392.574L632.497 391.696C627.252 384.677 620.268 382.703 611.859 384.485C608.659 385.163 605.435 386.361 602.302 387.918C600.18 388.973 598.474 389.99 596.971 390.992C589.284 396.145 584.207 402.052 581.374 408.569C577.175 418.227 578.03 428.678 582.055 438.749C582.805 440.627 583.608 442.327 584.408 443.815C584.629 444.226 584.836 444.595 585.026 444.92L585.293 445.368L585.382 445.477L585.526 445.681L587.379 448.437C587.833 449.11 588.314 449.819 588.818 450.558L590.712 453.324C592.293 455.622 593.878 457.896 595.428 460.085L596.796 462.006L598.281 464.066C602.334 469.651 605.509 473.686 607.349 475.51L607.484 475.643C613.71 481.657 616.6 483.015 627.431 484.218C633.297 484.87 640.59 483.381 646.696 480.149C648.161 479.374 649.976 479.932 650.751 481.396C651.527 482.861 650.968 484.676 649.504 485.451C642.357 489.235 633.86 490.97 626.769 490.182L625.67 490.055C614.542 488.729 610.406 486.745 603.645 480.274L603.316 479.958C601.168 477.883 597.818 473.642 593.476 467.661L592.8 466.727C592.364 466.122 591.92 465.503 591.469 464.871C589.296 461.825 587.043 458.59 584.813 455.333L583.859 453.936C583.098 452.818 582.387 451.769 581.74 450.807L580.653 449.187L580.636 449.168C580.59 449.116 580.546 449.061 580.504 449.006L580.384 448.834L580.15 448.462C579.887 448.031 579.536 447.425 579.123 446.655C578.22 444.976 577.321 443.073 576.483 440.976C571.918 429.553 570.934 417.532 575.871 406.177C579.175 398.577 585.014 391.784 593.636 386.004C595.34 384.868 597.255 383.726 599.632 382.545C603.187 380.778 606.874 379.408 610.616 378.615C621.148 376.384 630.525 379.033 637.314 388.119C645.36 399.025 652.616 412.496 658.125 425.86L658.58 426.974L658.638 427.134Z" fill="#262685"/>
<path fill-rule="evenodd" clip-rule="evenodd" d="M634.617 423.087C635.899 422.141 637.685 422.365 638.695 423.568L638.813 423.717L650.413 439.417C651.417 440.776 651.097 442.682 649.738 443.645L649.583 443.749L642.983 447.849C641.576 448.723 639.726 448.291 638.852 446.883C638.01 445.528 638.379 443.763 639.665 442.853L639.817 442.752L643.655 440.366L633.987 427.283C633.04 426.002 633.265 424.216 634.468 423.205L634.617 423.087Z" fill="#262685"/>
<path fill-rule="evenodd" clip-rule="evenodd" d="M644.489 421.18C645.503 420.616 645.606 418.868 644.719 417.275C643.833 415.683 642.293 414.849 641.28 415.413C640.266 415.977 640.163 417.725 641.049 419.318C641.936 420.91 643.476 421.744 644.489 421.18Z" fill="#262685"/>
<path fill-rule="evenodd" clip-rule="evenodd" d="M629.799 433.894C630.9 433.53 631.328 431.831 630.755 430.101C630.182 428.371 628.825 427.264 627.724 427.629C626.623 427.993 626.195 429.692 626.768 431.422C627.341 433.152 628.698 434.259 629.799 433.894Z" fill="#262685"/>
<path fill-rule="evenodd" clip-rule="evenodd" d="M617.311 415.635C618.893 415.144 620.574 416.028 621.065 417.611C621.539 419.137 620.733 420.754 619.256 421.308L619.089 421.365C617.607 421.825 616.515 422.612 615.704 423.654C615.243 424.246 614.901 424.889 614.664 425.527L614.578 425.772C614.516 425.958 614.481 426.092 614.466 426.16L614.459 426.193C614.187 427.827 612.641 428.931 611.007 428.659C609.372 428.387 608.268 426.841 608.541 425.207C608.611 424.786 608.765 424.179 609.038 423.443C609.476 422.259 610.106 421.079 610.968 419.97C612.509 417.988 614.617 416.471 617.311 415.635Z" fill="#262685"/>
<path fill-rule="evenodd" clip-rule="evenodd" d="M633.509 402.586C636.256 400.605 639.168 399.576 642.182 400.222C642.968 400.39 643.728 400.674 644.452 401.075C645.902 401.877 646.427 403.703 645.625 405.152C644.853 406.548 643.131 407.087 641.71 406.409L641.548 406.325C641.341 406.211 641.136 406.134 640.925 406.089C639.92 405.874 638.524 406.367 637.018 407.453C636.531 407.804 636.076 408.185 635.674 408.564L635.357 408.873L635.232 409.005C634.125 410.238 632.228 410.339 630.995 409.232C629.763 408.125 629.661 406.228 630.768 404.995C631.345 404.353 632.282 403.471 633.509 402.586Z" fill="#262685"/>
<path fill-rule="evenodd" clip-rule="evenodd" d="M595 406.7C595 406.7 635.3 454.5 601.3 476.6C601.3 476.6 586.4 485.6 578.2 480.3C578.2 480.3 588.2 471.8 582.3 463.9C582.3 463.9 571.8 489.9 550.7 483.1C550.7 483.1 571.3 467.2 562.8 451.5C554.3 435.7 583.5 396.1 595 406.7Z" fill="#262685"/>
<path fill-rule="evenodd" clip-rule="evenodd" d="M638.2 388C638.2 388 608.4 348.8 570.6 382.9C548.8 402.5 551.2 423.7 557.1 438.2L539.1 457.2C535.2 461.3 535.4 467.8 539.5 471.7C541.5 473.6 544 474.5 546.6 474.5C549.3 474.5 552 473.4 554.1 471.3L638.2 388Z" fill="#FE7624"/>
<path fill-rule="evenodd" clip-rule="evenodd" d="M637.6 455.8L646.4 453.4L637.6 455.8Z" fill="white"/>
<path fill-rule="evenodd" clip-rule="evenodd" d="M645.611 450.506C647.209 450.07 648.858 451.012 649.294 452.611C649.715 454.152 648.853 455.741 647.358 456.243L647.189 456.294L638.389 458.694C636.791 459.13 635.142 458.188 634.706 456.59C634.285 455.048 635.147 453.46 636.642 452.957L636.811 452.906L645.611 450.506Z" fill="#262685"/>
<path fill-rule="evenodd" clip-rule="evenodd" d="M672.566 482.705C673.395 482.751 674.254 482.823 675.183 482.923L676.334 483.056C676.774 483.11 677.199 483.165 677.682 483.23L680.95 483.685C686.259 484.398 688.463 484.424 689.753 483.745L689.928 483.645C691.299 482.802 693.079 483.194 693.975 484.505L694.76 485.763L695.104 486.303C695.982 487.67 697.031 489.244 698.252 491.002C701.75 496.041 705.906 501.53 710.703 507.278C711.765 508.55 711.594 510.442 710.322 511.504C709.05 512.565 707.158 512.395 706.097 511.123C701.182 505.233 696.919 499.603 693.323 494.424L692.586 493.355C691.87 492.308 691.217 491.33 690.625 490.425L690.314 489.945L690.249 489.963C687.984 490.513 685.118 490.313 679.964 489.607L676.662 489.147C676.364 489.107 676.087 489.071 675.811 489.037L675.604 489.011C674.338 488.856 673.246 488.752 672.234 488.696C670.579 488.604 669.313 487.188 669.405 485.534C669.493 483.939 670.813 482.704 672.39 482.7L672.566 482.705Z" fill="#262685"/>
<path fill-rule="evenodd" clip-rule="evenodd" d="M676.372 449.818C686.272 448.73 696.102 451.766 703.613 458.189L704.23 458.704C706.426 460.552 708.985 462.856 712.125 465.808L714.47 468.029L714.583 468.143C718.999 472.829 726.507 478.546 736.521 484.976C737.915 485.871 738.32 487.727 737.424 489.121C736.529 490.515 734.673 490.92 733.279 490.024L731.909 489.139C722.422 482.97 715.171 477.414 710.543 472.6L710.279 472.324L708.928 471.04C705.441 467.742 702.677 465.239 700.348 463.279L699.75 462.78C693.461 457.402 685.279 454.875 677.046 455.78L674.773 456.051C667.236 456.976 662.01 457.898 659.301 458.914L655.485 460.422L653.171 461.347L651.323 462.096C649.208 462.96 647.234 463.789 645.346 464.611C643.245 465.526 641.321 466.403 639.591 467.239L638.613 467.718C636.866 468.584 635.369 469.39 634.153 470.123L633.698 470.401L633.765 470.4C634.316 470.388 634.913 470.361 635.553 470.317L636.46 470.248C640.076 469.943 644.649 469.215 648.795 468.362C650.418 468.028 652.004 469.072 652.338 470.695C652.673 472.318 651.628 473.904 650.005 474.238C645.645 475.136 640.851 475.898 636.965 476.227L636.202 476.288C630.081 476.752 626.764 476.282 625.535 473.264C624.386 470.534 625.945 468.497 629.022 466.307C630.91 464.962 633.585 463.478 636.98 461.837C638.561 461.073 640.286 460.282 642.145 459.463L642.95 459.11C645.159 458.148 647.474 457.181 649.98 456.165L652.312 455.227L656.899 453.41C660.494 451.99 666.795 450.928 676.372 449.818Z" fill="#262685"/>
<path fill-rule="evenodd" clip-rule="evenodd" d="M657.017 460.852C658.424 459.978 660.274 460.41 661.148 461.817C662.023 463.225 661.591 465.074 660.183 465.949L659.737 466.237L659.259 466.555C659.01 466.724 658.746 466.906 658.47 467.101C657.155 468.03 655.841 469.047 654.624 470.112C652.475 471.994 650.893 473.805 650.141 475.328C649.744 476.13 649.634 476.73 649.726 477.14C650.045 478.55 650.463 479.097 650.915 479.284C651.149 479.381 651.468 479.398 651.79 479.346L652.03 479.297L652.016 479.303C653.56 478.704 655.298 479.471 655.897 481.016C656.496 482.561 655.729 484.298 654.185 484.897C653.97 484.981 653.673 485.075 653.304 485.16C651.816 485.505 650.212 485.488 648.616 484.826C646.26 483.848 644.601 481.68 643.874 478.461C643.444 476.558 643.803 474.611 644.761 472.671C645.933 470.299 647.981 467.953 650.672 465.597C652.06 464.382 653.535 463.241 655.01 462.2L655.475 461.874C656.143 461.412 656.674 461.065 657.017 460.852Z" fill="#262685"/>
<path fill-rule="evenodd" clip-rule="evenodd" d="M663.186 465.611C664.505 464.609 666.387 464.866 667.389 466.186C668.391 467.505 668.134 469.387 666.814 470.389L666.372 470.736L665.904 471.114C665.659 471.314 665.4 471.53 665.13 471.759C663.839 472.853 662.549 474.038 661.354 475.262C659.741 476.913 658.437 478.501 657.561 479.932C656.586 481.522 656.275 482.7 656.464 483.308C656.865 484.596 657.31 485.148 657.735 485.339C658 485.458 658.38 485.452 658.773 485.336L658.893 485.299L658.881 485.306C660.37 484.577 662.166 485.193 662.895 486.682C663.623 488.17 663.007 489.967 661.519 490.695C661.267 490.818 660.915 490.959 660.473 491.09C658.827 491.576 657.044 491.604 655.282 490.814C653.18 489.873 651.621 487.934 650.736 485.092C649.924 482.485 650.655 479.718 652.444 476.798C653.587 474.931 655.16 473.016 657.061 471.07C658.4 469.699 659.825 468.39 661.25 467.182L661.858 466.673C662.429 466.2 662.884 465.84 663.186 465.611Z" fill="#262685"/>
<path fill-rule="evenodd" clip-rule="evenodd" d="M668.048 473.44C669.351 472.417 671.237 472.644 672.26 473.948C673.244 475.201 673.071 476.993 671.898 478.038L671.41 478.437C671.117 478.678 670.788 478.956 670.433 479.265C669.418 480.15 668.404 481.104 667.465 482.086C666.302 483.302 665.345 484.467 664.673 485.516L664.431 485.9C663.3 487.714 663.418 488.001 664.813 488.442C669.089 489.809 672.055 490.106 673.929 489.803L674.088 489.774C673.993 489.693 673.866 489.606 673.688 489.507L673.544 489.43C672.729 489.013 671.452 488.676 669.675 488.482C668.028 488.303 666.838 486.822 667.018 485.175C667.197 483.528 668.678 482.338 670.325 482.518C675.23 483.052 678.34 484.643 679.647 487.348C680.495 489.105 680.396 490.884 679.776 492.499C679.597 492.965 679.405 493.334 679.239 493.598C679.052 493.895 678.814 494.157 678.537 494.372C678.126 494.69 677.513 495.018 676.685 495.291C673.615 496.306 669.13 496.121 662.995 494.16C656.975 492.256 656.385 487.332 659.621 482.28C660.529 480.863 661.72 479.412 663.13 477.938C664.205 476.814 665.348 475.738 666.49 474.742L667.069 474.245C667.485 473.891 667.82 473.619 668.048 473.44Z" fill="#262685"/>
<path fill-rule="evenodd" clip-rule="evenodd" d="M838.168 533.862C855.291 533.823 871.696 540.085 882.058 550.816C883.209 552.008 883.176 553.907 881.984 555.058C880.792 556.209 878.893 556.176 877.742 554.984C868.571 545.487 853.743 539.826 838.182 539.862C821.654 539.901 806.239 546.254 795.547 558.288L794.373 559.609C781.108 574.487 747.983 609.987 700.585 660.356C699.449 661.563 697.551 661.62 696.344 660.485C695.138 659.349 695.08 657.451 696.215 656.244L721.063 629.807C756.454 592.099 780.933 565.749 791.057 554.307C802.939 540.934 819.996 533.905 838.168 533.862Z" fill="#262685"/>
<path fill-rule="evenodd" clip-rule="evenodd" d="M828.821 677.813L828.678 677.83L653.278 702.73C652.408 702.853 651.636 703.353 651.165 704.095L601.965 781.795C600.7 783.793 602.137 786.402 604.502 786.4L1019 786.1C1020.65 786.099 1021.99 784.765 1022 783.115L1022.4 701.715C1022.41 700.195 1021.28 698.91 1019.77 698.723L852.169 677.923L852.075 677.913C844.006 677.17 836.264 677.118 828.821 677.813ZM851.478 683.883L1016.39 704.349L1016.01 780.102L609.952 780.396L655.492 708.475L829.44 683.782L829.379 683.787C836.066 683.163 843.036 683.174 850.31 683.781L851.478 683.883Z" fill="#262685"/>
<path fill-rule="evenodd" clip-rule="evenodd" d="M834.7 542.4C831.1 541.7 827.5 544 826.8 547.6L802.8 670.5L680.7 687L681.1 689.7C681.8 694.9 686.6 698.6 691.8 697.9L808.1 682.2C813.3 681.5 817 676.7 816.3 671.5V671.5L839.9 550.4C840.6 546.7 838.3 543.2 834.7 542.4Z" fill="#FE7624"/>
<path fill-rule="evenodd" clip-rule="evenodd" d="M757.9 596.2C773.1 579.2 785.5 565 793.3 556.3C795.5 553.8 798 551.5 800.5 549.5C799 546.4 797.2 543.1 794.8 539.9C783.4 525.1 736.4 469 736.4 469L697.2 502.6L704 511.9C677.4 505.5 650.9 501.8 637.4 502.5L636.3 507.2V507.2C639.6 525.2 618.8 537.7 604.4 526.3L578.9 506L581 501.8C558.2 500.8 538 505.3 531.6 522.1C519.6 544.3 465.9 742.6 465.9 742.6L535.1 744.4L542.1 716.9C543.9 734.8 545.9 751 548.3 763.6C551.6 780.9 587 784.9 604.6 784.7L650.2 784.1L718.2 702.7L683.6 588.9C704.3 593 734.9 597.6 757.9 596.2Z" fill="#262685"/>
<path fill-rule="evenodd" clip-rule="evenodd" d="M683 404.1C683 404.1 661 410.8 653.9 396.6C650.9 390.6 641.5 387.3 631.7 386.5C632.8 387.5 633.9 388.7 634.9 390C643.9 402.2 651.1 416.6 655.8 428.2C655.8 428.2 656.8 430.6 658 434.2C662 431.6 666.5 427.5 666.7 422.6C666.7 422.6 655.5 425.5 652.7 417.1C652.9 417.1 677.1 422.9 683 404.1Z" fill="#262685"/>
<path fill-rule="evenodd" clip-rule="evenodd" d="M1375.4 737.1C1375.4 737.1 1424.4 761.4 1420 786.5L1316.6 786.1L1318.4 737.3L1375.4 737.1Z" fill="#FE7624"/>
<path fill-rule="evenodd" clip-rule="evenodd" d="M1342.9 146.5C1338.3 133 1322 126.4 1306.6 131.8C1298.6 134.6 1292.4 140 1288.9 146.5L1299.9 172.9L1319.5 176.5C1318.1 178.5 1316.5 180.5 1314.7 182.5C1317.5 182.3 1320.4 181.7 1323.2 180.7C1338.7 175.3 1347.5 160 1342.9 146.5Z" fill="#262685"/>
<path fill-rule="evenodd" clip-rule="evenodd" d="M1352.88 202.514C1364.81 198.008 1371.31 185.936 1367.39 175.551C1363.47 165.166 1350.62 160.401 1338.68 164.907C1326.75 169.413 1320.25 181.484 1324.17 191.869C1328.09 202.254 1340.94 207.02 1352.88 202.514Z" fill="#262685"/>
<path fill-rule="evenodd" clip-rule="evenodd" d="M1378.24 223.242C1388.94 219.204 1394.76 208.392 1391.25 199.092C1387.74 189.792 1376.22 185.526 1365.53 189.564C1354.83 193.602 1349.01 204.415 1352.52 213.714C1356.03 223.014 1367.55 227.28 1378.24 223.242Z" fill="#262685"/>
<path fill-rule="evenodd" clip-rule="evenodd" d="M1405.4 229C1408 236.8 1403 245.6 1394.1 248.7C1385.2 251.8 1375.8 248 1373.2 240.3C1370.6 232.5 1375.2 223.3 1384.1 220.2C1393 217 1402.8 221.2 1405.4 229Z" fill="#262685"/>
<path fill-rule="evenodd" clip-rule="evenodd" d="M1421.8 250C1422 258.4 1426.2 261.8 1430.2 263.1C1432.1 263.7 1432.2 266.4 1430.4 267.1C1419.8 271.3 1400.7 276.4 1394.8 261.5C1392 254.5 1395.4 246 1403.2 242.3C1411.1 238.6 1421.6 242.4 1421.8 250Z" fill="#262685"/>
<path fill-rule="evenodd" clip-rule="evenodd" d="M1336.43 162.118C1337.96 160.53 1340.5 160.489 1342.08 162.026C1343.62 163.511 1343.71 165.927 1342.32 167.52L1342.17 167.682L1326.97 183.382C1325.44 184.969 1322.9 185.01 1321.32 183.474C1319.78 181.988 1319.69 179.572 1321.08 177.979L1321.23 177.818L1336.43 162.118Z" fill="#FE7624"/>
<path fill-rule="evenodd" clip-rule="evenodd" d="M1364.42 186.234C1366.05 184.752 1368.58 184.878 1370.07 186.516C1371.5 188.099 1371.43 190.516 1369.94 192.014L1369.78 192.166L1356.08 204.566C1354.45 206.048 1351.92 205.922 1350.43 204.284C1349 202.701 1349.07 200.284 1350.56 198.786L1350.72 198.634L1364.42 186.234Z" fill="#FE7624"/>
<path fill-rule="evenodd" clip-rule="evenodd" d="M1381.6 217.326C1383.41 216.057 1385.9 216.493 1387.17 218.301C1388.4 220.051 1388.03 222.444 1386.37 223.747L1386.2 223.874L1381.5 227.174C1379.69 228.443 1377.2 228.006 1375.93 226.198C1374.7 224.449 1375.07 222.056 1376.73 220.753L1376.9 220.626L1381.6 217.326Z" fill="#FE7624"/>
<path fill-rule="evenodd" clip-rule="evenodd" d="M1398.94 239.542C1400.69 238.186 1403.2 238.5 1404.56 240.244C1405.87 241.93 1405.62 244.334 1404.03 245.718L1403.86 245.857L1399.36 249.357C1397.61 250.714 1395.1 250.399 1393.74 248.656C1392.43 246.97 1392.68 244.565 1394.27 243.182L1394.44 243.042L1398.94 239.542Z" fill="#FE7624"/>
<path fill-rule="evenodd" clip-rule="evenodd" d="M1442.7 314C1439.5 308.3 1433.6 294.3 1429.6 287.9C1403.3 245.1 1362.3 190 1342.2 183.3C1341.7 183.1 1341.2 182.9 1340.6 182.8L1317.9 178.5C1305.2 195.1 1279.4 212.4 1257.1 207.3C1221.7 199.2 1236.3 167.7 1237.6 165.5L1248.9 168L1247.6 165.1L1239 163.4C1230.3 161.3 1219 161.9 1204.9 166.6C1183.5 173.8 1145 186.9 1117.9 196.2C1118.1 196.4 1118.3 196.6 1118.5 196.8C1128.1 207.2 1148.9 235.9 1133.2 248C1128.9 251.3 1124.8 253.5 1120.8 254.4L1122.4 256.7C1122.4 256.7 1134 250.9 1171.4 238.6C1178.8 236.2 1187 233.8 1195.2 231.4C1196.6 248.3 1205.4 268 1227.1 290C1238.1 303.7 1281.8 309.5 1281.8 309.5C1294.7 313.2 1321.2 292.6 1328.2 280.9C1330.5 277.1 1332.9 272.8 1335.3 268.1C1347.3 283.9 1362.6 303.4 1375.3 319.4C1397.3 299.2 1416.1 297 1442.7 314Z" fill="#262685"/>
<path fill-rule="evenodd" clip-rule="evenodd" d="M1281.18 298.939C1297.77 301.655 1309.07 306.042 1317.19 312.665C1323.75 318.022 1327.91 324.181 1332.84 334.742L1333.68 336.553C1334.76 338.934 1337.35 344.753 1337.94 346.049L1338.68 347.668C1340.26 351.1 1341.7 354.053 1343.25 357.001C1348.78 367.485 1357.32 414.623 1368.4 491.045L1369.08 495.76C1371.07 509.579 1373.12 524.183 1375.21 539.482L1376.16 546.413C1381.32 584.285 1386.54 624.614 1391.61 665.166L1393.54 680.666C1394.37 687.291 1395.16 693.707 1395.91 699.884L1399.52 729.66L1400.38 736.848C1400.58 738.555 1399.31 740.069 1397.62 740.192L1397.44 740.2L1276.04 742C1274.46 742.023 1273.14 740.815 1273.01 739.257L1273 739.082L1266.71 510.297L1240.54 635.812C1240.21 637.376 1238.72 638.4 1237.16 638.168L1236.99 638.137C1235.42 637.811 1234.4 636.321 1234.63 634.761L1234.66 634.588L1266.06 483.988C1266.78 480.567 1271.72 480.944 1271.99 484.326L1272 484.517L1278.92 735.956L1394.03 734.249L1392.46 721.199L1390.15 702.151C1389.39 696.018 1388.61 689.642 1387.79 683.055L1386.17 669.965C1381.28 630.772 1376.24 591.718 1371.25 554.824L1369.58 542.595C1367.69 528.776 1365.84 515.516 1364.04 502.881L1363.14 496.616C1351.94 418.874 1343.08 369.536 1337.95 359.799C1336.21 356.515 1334.63 353.239 1332.85 349.368L1328.13 338.848C1328.07 338.71 1328.01 338.588 1327.96 338.483L1327.41 337.285C1322.82 327.479 1319.12 321.983 1313.4 317.314C1306.55 311.727 1296.86 307.822 1282.5 305.251L1281.4 305.06L1280.52 305.656C1280.11 305.931 1279.67 306.217 1279.21 306.514L1278.27 307.12C1275.04 309.18 1271.52 311.239 1267.84 313.164C1262.26 316.081 1256.81 318.426 1251.64 319.991C1251.25 320.11 1250.86 320.225 1250.47 320.335L1249.88 320.495C1234.04 324.788 1223.52 334.29 1214.02 354.566L1213.75 355.151C1209.07 365.674 1187.76 422.892 1153.62 516.132C1153.05 517.687 1151.32 518.487 1149.77 517.917C1148.21 517.347 1147.41 515.624 1147.98 514.068L1160 481.297C1187.9 405.326 1204.88 359.987 1208.58 352.027C1218.71 330.43 1230.45 319.696 1247.79 314.849L1248.32 314.704C1248.84 314.563 1249.37 314.411 1249.9 314.249C1254.67 312.804 1259.79 310.603 1265.06 307.848C1268.58 306.007 1271.95 304.033 1275.05 302.059L1275.95 301.48C1276.53 301.103 1277.07 300.744 1277.58 300.407L1278.54 299.75L1278.96 299.459C1279.6 298.998 1280.4 298.811 1281.18 298.939Z" fill="#262685"/>
<path fill-rule="evenodd" clip-rule="evenodd" d="M1297.35 95.135C1297.67 93.5078 1299.24 92.4416 1300.87 92.7537C1306.36 93.8067 1311.27 95.6989 1314.95 98.844C1320.2 103.329 1322.05 109.753 1319.57 117.788C1316.99 126.108 1311.99 130.701 1305.42 131.865C1301.49 132.562 1297.42 131.981 1293.47 130.612C1291.81 130.037 1290.53 129.453 1289.77 129.035C1288.31 128.243 1287.77 126.422 1288.56 124.966C1289.33 123.565 1291.04 123.014 1292.47 123.682L1292.94 123.918C1293.04 123.97 1293.18 124.032 1293.33 124.102C1293.95 124.387 1294.66 124.674 1295.44 124.943C1298.5 126.005 1301.61 126.448 1304.37 125.957C1308.68 125.193 1311.91 122.23 1313.83 116.014C1315.61 110.266 1314.48 106.333 1311.05 103.406C1308.32 101.071 1304.3 99.5209 1299.73 98.6463C1298.11 98.3343 1297.04 96.7622 1297.35 95.135Z" fill="#262685"/>
<path fill-rule="evenodd" clip-rule="evenodd" d="M1283.05 132.529C1284.53 131.917 1286.21 132.57 1286.9 133.99L1286.97 134.15L1301.95 170.244L1319.94 173.549C1322.03 173.934 1323.06 176.3 1321.95 178.076L1321.85 178.226C1315.27 187.585 1305.03 196.74 1293.92 202.91C1281.19 209.983 1268.17 212.784 1256.53 210.124C1239.72 206.268 1231.61 196.91 1230.77 184.288C1230.47 179.848 1231.11 175.309 1232.4 170.882C1233.24 167.977 1234.33 165.304 1235.07 163.964C1235.68 162.847 1236.92 162.242 1238.16 162.436L1238.35 162.471L1243.81 163.677L1239.37 153.833C1238.71 152.377 1239.31 150.673 1240.71 149.942L1240.87 149.865C1242.32 149.209 1244.03 149.81 1244.76 151.208L1244.83 151.367L1251.73 166.667C1252.73 168.868 1250.85 171.254 1248.51 170.86L1248.35 170.829L1239.43 168.856L1239.32 169.149C1238.97 170.024 1238.64 170.967 1238.34 171.958L1238.16 172.558C1237.05 176.359 1236.51 180.22 1236.76 183.888C1237.42 193.848 1243.63 201.008 1257.87 204.275C1275.87 208.389 1299.64 196.173 1313.9 178.784L1314.07 178.57L1299.26 175.851C1298.32 175.679 1297.53 175.077 1297.11 174.234L1297.03 174.05L1281.43 136.45C1280.79 134.919 1281.52 133.164 1283.05 132.529Z" fill="#262685"/>
<path fill-rule="evenodd" clip-rule="evenodd" d="M1247.23 39.0793C1233.31 42.382 1222.27 56.6351 1213.87 84.6034L1213.62 85.4551C1211.31 93.3328 1209.75 106.349 1210.79 117.724C1212.35 134.756 1219.26 147.31 1232.92 152.598C1260.48 163.269 1289.31 144.288 1300.81 113.139C1311.06 85.3908 1304.81 57.6426 1285.92 49.3703L1284.78 48.8893C1283.93 48.5215 1282.99 48.0896 1281.85 47.544L1276.16 44.7869L1274.97 44.2197C1263.7 38.9501 1255.77 37.0525 1247.23 39.0793ZM1219.25 87.5913L1219.38 87.1493C1227.25 60.4697 1237.08 47.6539 1248.61 44.9172C1255.61 43.2584 1262.57 44.9883 1273 49.9264L1274.72 50.7507C1276.14 51.4396 1278.14 52.4162 1278.45 52.5656L1279.68 53.1544C1280.97 53.7665 1282.03 54.2457 1283.05 54.6687C1298.87 61.1793 1304.55 85.7144 1295.19 111.06C1284.72 139.388 1259.06 156.285 1235.08 147.002C1223.92 142.681 1218.14 132.171 1216.76 117.176C1215.81 106.821 1217.21 94.8354 1219.25 87.5913Z" fill="#262685"/>
<path fill-rule="evenodd" clip-rule="evenodd" d="M1245 121.6C1239.3 122.6 1235 121 1232.6 119.8C1231.5 119.3 1230.3 119.9 1230.1 121.1C1229.5 124.5 1229.7 130.5 1237.2 132.3C1245.1 134.2 1246.7 127.3 1247.1 123.4C1247.2 122.4 1246.2 121.4 1245 121.6Z" fill="#262685"/>
<path fill-rule="evenodd" clip-rule="evenodd" d="M1243.45 72.2915C1244.12 70.7751 1245.89 70.0868 1247.41 70.7542C1248.87 71.3978 1249.56 73.067 1249.01 74.5451L1248.95 74.7085L1235.66 104.896L1240.97 106.3C1242.51 106.708 1243.45 108.249 1243.14 109.795L1243.1 109.967C1242.69 111.511 1241.15 112.455 1239.61 112.141L1239.43 112.1L1230.73 109.8C1229.01 109.345 1228.08 107.507 1228.69 105.861L1228.75 105.692L1243.45 72.2915Z" fill="#262685"/>
<path fill-rule="evenodd" clip-rule="evenodd" d="M1253.07 76.062C1257.74 73.9728 1261.97 75.4916 1265.31 79.0028C1266.05 79.778 1266.69 80.5985 1267.24 81.4206L1267.47 81.7807C1267.69 82.1217 1267.85 82.4032 1267.96 82.6068C1268.73 84.0742 1268.16 85.8875 1266.69 86.6569C1265.28 87.3979 1263.55 86.9007 1262.73 85.5526L1262.58 85.2799C1262.51 85.1594 1262.4 84.9764 1262.25 84.7483C1261.88 84.1969 1261.45 83.6439 1260.96 83.1373C1259.26 81.3464 1257.6 80.709 1255.73 81.4501L1255.53 81.5381C1254.01 82.2152 1252.24 81.5382 1251.56 80.0261C1250.88 78.5139 1251.56 76.7391 1253.07 76.062Z" fill="#262685"/>
<path fill-rule="evenodd" clip-rule="evenodd" d="M1229 58.8606C1233.48 56.0418 1238.01 57.1145 1241.86 60.3359C1243.14 61.4043 1244.07 62.4693 1244.63 63.2471C1245.6 64.5916 1245.3 66.4665 1243.95 67.4346C1242.66 68.3654 1240.88 68.1191 1239.88 66.9034L1239.65 66.6018C1239.57 66.5103 1239.47 66.388 1239.34 66.2423C1238.95 65.798 1238.5 65.3513 1238.01 64.9399C1236.01 63.2664 1234.2 62.7949 1232.39 63.8234L1232.2 63.9393C1230.79 64.8215 1228.94 64.3998 1228.06 62.9973C1227.18 61.5949 1227.6 59.7428 1229 58.8606Z" fill="#262685"/>
<path fill-rule="evenodd" clip-rule="evenodd" d="M1254.85 99.2129C1255.37 96.6704 1254.48 94.3385 1252.86 94.0044C1251.24 93.6704 1249.5 95.4608 1248.97 98.0033C1248.45 100.546 1249.34 102.878 1250.96 103.212C1252.59 103.546 1254.33 101.755 1254.85 99.2129Z" fill="#262685"/>
<path fill-rule="evenodd" clip-rule="evenodd" d="M1226.28 93.7664C1226.81 91.2238 1225.92 88.8919 1224.29 88.5579C1222.67 88.2239 1220.93 90.0142 1220.41 92.5568C1219.88 95.0993 1220.77 97.4312 1222.4 97.7652C1224.02 98.0992 1225.76 96.3089 1226.28 93.7664Z" fill="#262685"/>
<path fill-rule="evenodd" clip-rule="evenodd" d="M1241.29 90.6544C1238.75 105.59 1245.78 119.463 1257.41 121.438C1269.04 123.413 1280.26 112.637 1282.79 97.702C1285.33 82.7664 1278.3 68.8929 1266.67 66.918C1255.04 64.9432 1243.82 75.7189 1241.29 90.6544ZM1245.72 91.4077C1247.88 78.6828 1257.07 69.8533 1265.91 71.3546C1274.76 72.8559 1280.52 84.2237 1278.36 96.9487C1276.2 109.674 1267.01 118.503 1258.16 117.002C1249.32 115.5 1243.56 104.133 1245.72 91.4077Z" fill="#FE7624"/>
<path fill-rule="evenodd" clip-rule="evenodd" d="M1192.53 81.2513C1190 96.1869 1197.03 110.06 1208.66 112.035C1220.29 114.01 1231.51 103.234 1234.04 88.2989C1236.58 73.3633 1229.55 59.4899 1217.92 57.515C1206.29 55.5401 1195.07 66.3158 1192.53 81.2513ZM1196.97 82.0046C1199.13 69.2797 1208.32 60.4502 1217.16 61.9515C1226.01 63.4529 1231.77 74.8206 1229.6 87.5456C1227.44 100.271 1218.25 109.1 1209.41 107.599C1200.57 106.097 1194.81 94.7296 1196.97 82.0046Z" fill="#FE7624"/>
<path fill-rule="evenodd" clip-rule="evenodd" d="M1230.69 81.3772C1230.91 80.2098 1232 79.4269 1233.16 79.5654L1233.32 79.59L1244.82 81.79C1246.04 82.0235 1246.84 83.2022 1246.61 84.4227C1246.39 85.5902 1245.3 86.373 1244.14 86.2345L1243.98 86.2099L1232.48 84.0099C1231.26 83.7764 1230.46 82.5977 1230.69 81.3772Z" fill="#FE7624"/>
<path fill-rule="evenodd" clip-rule="evenodd" d="M1279.17 87.8811C1279.55 86.7548 1280.73 86.1269 1281.86 86.4219L1282.02 86.4679L1308.12 95.2679C1309.3 95.6649 1309.93 96.9413 1309.53 98.1188C1309.15 99.2452 1307.97 99.873 1306.84 99.578L1306.68 99.5321L1280.58 90.7321C1279.4 90.335 1278.77 89.0586 1279.17 87.8811Z" fill="#FE7624"/>
<path fill-rule="evenodd" clip-rule="evenodd" d="M1332.2 81.7C1330.1 67.8 1309.5 44.8 1290.6 45C1266.2 20.2 1229.7 -4.69998 1208.4 39C1206.2 43.6 1208.7 49.2 1213.6 50.3L1283 68.3C1284.9 78.8 1290.3 95.4 1304.9 102C1309.1 103.9 1312 103.7 1313.8 102C1317.1 105.3 1318.9 110 1316.7 116.8C1310.9 135.5 1293.1 127.3 1290.9 126.1C1287.3 131.7 1286.7 133.5 1281.8 137.7C1296.9 146 1309.5 153.2 1319.4 140C1332.4 123.1 1335 101.1 1332.2 81.7Z" fill="#262685"/>
<path fill-rule="evenodd" clip-rule="evenodd" d="M1030.76 114L1013.17 114.2C1012.99 114.202 1012.81 114.22 1012.63 114.255L998.566 116.958C995.288 117.583 992.839 118.043 991.471 118.289L990.607 118.441C988.712 118.757 984.168 120.751 979.758 123.087L978.832 123.584C977.017 124.573 975.434 125.521 974.245 126.346C973.408 126.926 972.747 127.456 972.251 127.971L972.116 128.113C971.107 129.206 970.575 130.352 971.168 131.899L971.191 131.953C972.577 135.65 976.752 136.461 982.638 135.793C986.824 135.318 991.793 133.995 995.382 132.457C996.928 131.819 999.582 131.517 1002.92 131.578C1005.25 131.62 1007.77 131.833 1010.31 132.16L1010.91 132.239C1011.3 132.293 1011.68 132.347 1012.05 132.402L1012.38 132.452L1012.54 133.024C1012.66 133.452 1012.78 133.888 1012.89 134.326C1013.08 135.044 1013.25 135.736 1013.39 136.39L1013.47 136.727C1013.6 137.391 1013.71 137.994 1013.78 138.518L1013.8 138.636L1013.93 138.64C1011.01 138.549 1008.7 138.546 1006.33 138.692L1005.5 138.749C999.669 139.193 995.815 140.462 994.217 143.658C990.877 150.338 993.724 156.033 1001.53 155.182C1002.42 155.084 1003.51 155.132 1004.75 155.318C1006.25 155.544 1007.89 155.962 1009.57 156.516C1010.52 156.829 1011.42 157.165 1012.25 157.499L1012.86 157.757C1013.03 157.829 1013.16 157.885 1013.24 157.924C1013.72 158.146 1014.25 158.236 1014.78 158.187L1015.1 158.141L1018.06 157.614C1018.4 157.552 1018.75 157.488 1019.11 157.421C1022.18 156.85 1025.25 156.24 1028.12 155.615L1029.4 155.334C1031.69 154.821 1033.73 154.321 1035.46 153.839L1035.9 153.718C1037.31 153.315 1038.51 152.928 1039.48 152.545L1039.6 152.493L1039.72 152.62C1040.1 153.015 1040.56 153.571 1041.08 154.275L1041.27 154.546C1042.92 156.827 1045.03 160.321 1047.74 165.218L1048.68 166.946C1052.6 174.209 1064.45 196.93 1067.23 202.112L1068.8 205.02C1072.24 211.361 1075.38 216.922 1078.39 221.969L1078.84 222.723C1079.83 224.376 1080.8 225.965 1081.76 227.492C1101.3 258.699 1116.16 264.76 1134.93 250.275C1143.38 243.764 1143.63 233.167 1137.98 220.444C1134.12 211.754 1127.49 202.25 1121.12 195.229L1118.87 192.791C1114.97 188.622 1107.34 180.619 1095.47 168.242L1052.07 123.025C1046.52 117.146 1038.82 113.888 1030.76 114ZM1030.84 120C1037.08 119.913 1043.03 122.37 1047.41 126.843L1102.24 183.986C1109.53 191.619 1114.1 196.442 1116.19 198.726C1122.31 205.359 1128.83 214.622 1132.5 222.881C1137.16 233.374 1136.97 241.126 1131.27 245.524C1115.86 257.415 1104.73 252.879 1086.84 224.308C1086.09 223.113 1085.34 221.878 1084.56 220.602L1083.98 219.638C1080.59 213.979 1077.03 207.647 1073.04 200.245L1071.74 197.813C1067.85 190.479 1056.71 169.14 1053.52 163.284L1052.68 161.765C1050.11 157.135 1048.05 153.724 1046.34 151.308L1046.14 151.034C1045.03 149.492 1044.04 148.348 1043.1 147.568C1041.6 146.324 1039.97 145.755 1038.24 146.528L1038.04 146.628C1037.29 147.009 1035.84 147.508 1033.86 148.058C1031.93 148.593 1029.56 149.163 1026.85 149.752C1024.04 150.363 1021.03 150.962 1018.01 151.522L1016.01 151.889L1014.87 152.09L1014.51 151.942C1013.57 151.558 1012.53 151.175 1011.45 150.817C1009.47 150.165 1007.51 149.667 1005.64 149.385C1003.93 149.127 1002.34 149.058 1000.87 149.218C999.358 149.383 998.885 149.211 998.846 149.133C998.814 149.069 998.789 148.859 998.841 148.481C998.922 147.904 999.168 147.172 999.583 146.342C999.884 145.741 1002.6 144.933 1006.69 144.681C1008.51 144.569 1010.33 144.554 1012.51 144.604L1015.76 144.698C1015.85 144.699 1015.93 144.7 1016 144.7C1017.6 144.7 1018.84 143.751 1019.44 142.39C1019.77 141.627 1019.89 140.799 1019.89 139.841C1019.89 138.556 1019.66 136.976 1019.26 135.11C1019.09 134.37 1018.91 133.598 1018.7 132.804C1018.51 132.089 1018.31 131.383 1018.11 130.702L1017.85 129.802L1017.55 128.866C1017.21 127.828 1016.33 127.057 1015.26 126.853L1014.47 126.712L1014.08 126.647C1013.17 126.498 1012.16 126.349 1011.08 126.21C1008.34 125.856 1005.61 125.626 1003.03 125.579C998.938 125.504 995.573 125.888 993.056 126.927C989.965 128.251 985.563 129.423 981.962 129.832L981.592 129.871C980.984 129.932 980.412 129.97 979.882 129.984L979.699 129.986L979.964 129.832C980.752 129.372 981.629 128.885 982.567 128.389L983.188 128.063C986.72 126.228 990.409 124.615 991.503 124.377L992.69 124.166C993.635 123.995 994.999 123.741 996.729 123.414L1002.72 122.274L1013.5 120.197L1030.84 120Z" fill="#262685"/>
<path fill-rule="evenodd" clip-rule="evenodd" d="M1364.97 323.606C1390.82 301.828 1413.98 295.657 1430.4 302.879C1444.35 309.02 1449.72 324.572 1440.64 332.999C1436.16 337.16 1430.01 341.539 1422.33 346.133C1410.93 352.954 1396.35 360.14 1379.32 367.537C1364.29 374.063 1348.2 380.392 1332.11 386.281L1328.78 387.493C1324.78 388.944 1321 390.284 1317.51 391.499L1313.53 392.873L1310.65 393.847C1309.96 394.075 1309.22 394.047 1308.55 393.773L1308.36 393.683L1307.96 393.483C1306.48 392.742 1305.88 390.94 1306.62 389.458C1307.19 388.306 1308.41 387.686 1309.62 387.816L1309.72 387.829L1313.54 386.525L1316.49 385.5C1320.65 384.047 1325.2 382.422 1330.05 380.647C1346.04 374.795 1362.02 368.508 1376.93 362.034L1379.15 361.061C1394.64 354.265 1407.97 347.669 1418.5 341.429L1419.25 340.984C1426.6 336.588 1432.43 332.438 1436.56 328.602C1442.04 323.516 1438.39 312.953 1427.98 308.371C1413.95 302.199 1393.09 307.757 1368.85 328.18C1362.92 333.245 1356.73 337.832 1350.13 342.115C1348.75 343.018 1346.89 342.624 1345.98 341.235C1345.08 339.846 1345.48 337.988 1346.87 337.085C1353.24 332.939 1359.23 328.508 1364.97 323.606Z" fill="#262685"/>
<path fill-rule="evenodd" clip-rule="evenodd" d="M1386.6 357.3L1363 357.9L1342.8 262.9C1342.4 260.8 1340.6 259.3 1338.7 259.3L1189.3 261.6C1186.6 261.6 1184.6 264.5 1185.2 267.4L1204.2 368.7C1205.5 375 1213.4 379.8 1219.1 379.7C1229.1 379.5 1244.5 379.3 1261.7 378.9C1259.8 376.6 1258.2 374 1256.7 371.3C1249.2 357.3 1240.4 338.5 1246.3 335.6C1249 335 1251.9 339.1 1254.4 344C1252.1 337.4 1250.7 330.6 1253.9 330C1257 329.4 1260 333.3 1263.2 340.4C1261.7 336 1260.5 332 1260.5 330.7C1260.8 322.8 1266.2 320.7 1272.7 337.8L1270.5 330.4C1269.1 322.5 1276.4 323.6 1280.4 330.8C1282.9 335.4 1288 346.4 1292.2 356.3C1294.3 352.5 1299.2 345.5 1303.7 348.4C1308.3 351.4 1301.4 364.5 1298 370.4C1298.4 371.4 1298.7 372.3 1298.9 373.1L1306.2 378.1C1339 377.5 1367.9 376.9 1370.1 376.9C1390 376.8 1386.6 357.3 1386.6 357.3Z" fill="#FE7624"/>
<path fill-rule="evenodd" clip-rule="evenodd" d="M1259.99 323.267C1262.33 321.068 1265.46 321.493 1268.06 323.895L1268.24 324.066L1268.5 324.329L1268.53 324.295C1269.57 322.834 1271.22 322.013 1273.35 322.132L1273.59 322.149C1277.01 322.448 1280.59 325.343 1282.92 329.543L1283.19 330.032C1285.68 334.623 1290.17 344.377 1294.56 354.618C1295.21 356.141 1294.5 357.905 1292.98 358.557C1291.46 359.21 1289.7 358.505 1289.04 356.982L1288.1 354.793C1283.93 345.173 1279.81 336.293 1277.68 332.457C1276.33 330.03 1274.51 328.464 1273.33 328.171L1273.27 328.159L1273.26 328.236L1273.24 328.361C1273.2 328.742 1273.22 329.23 1273.31 329.818L1273.33 329.925L1275.36 336.782L1275.41 336.904C1277.17 341.58 1278.89 347.353 1280.55 354.213L1280.72 354.903C1281.61 358.63 1276.21 360.137 1274.98 356.628L1274.92 356.451L1269.65 338.625L1269.55 338.37C1267.63 333.373 1265.77 330.036 1264.12 328.431L1263.94 328.254L1263.83 328.158L1263.8 328.243C1263.62 328.771 1263.46 329.591 1263.41 330.623L1263.4 330.886C1263.39 331.173 1263.7 332.548 1264.28 334.477L1264.36 334.743C1264.69 335.825 1265.08 337.06 1265.54 338.428L1265.75 339.045L1265.77 339.091C1267.5 342.949 1269.3 347.841 1271.3 353.972L1271.76 355.382C1272.94 359.075 1267.52 361.004 1266.11 357.392L1264.94 354.365L1264.77 353.91C1263.97 351.802 1263.16 349.656 1262.4 347.552L1261.63 345.421L1260.83 343.192C1260.71 342.824 1260.58 342.463 1260.46 342.111L1260.16 341.233L1259.99 340.862C1259.57 339.965 1259.17 339.139 1258.77 338.382L1258.6 338.061C1257.47 335.974 1256.42 334.504 1255.51 333.674C1255.36 333.536 1255.21 333.422 1255.08 333.33L1254.99 333.264L1254.98 333.335C1254.97 333.611 1254.98 333.941 1255 334.319L1255.02 334.552C1255.2 336.522 1255.87 339.257 1256.94 342.522L1257.14 343.122L1257.36 343.57C1257.6 344.052 1257.84 344.549 1258.08 345.059L1258.32 345.574C1259.46 348.076 1260.54 350.742 1261.51 353.407L1261.84 354.315C1261.95 354.61 1262.05 354.897 1262.15 355.175L1262.61 356.547L1262.76 356.984C1263.88 360.492 1258.95 362.502 1257.27 359.343L1257.19 359.184C1257.12 359.042 1257 358.783 1256.83 358.417L1256.49 357.655C1256.31 357.255 1256.12 356.828 1255.92 356.377C1254.97 354.229 1254.02 351.962 1253.14 349.673C1252.63 348.365 1252.16 347.087 1251.73 345.848L1251.61 345.492L1251.51 345.294C1250.05 342.465 1248.65 340.373 1247.47 339.312L1247.32 339.184L1247.32 339.218C1247.28 339.502 1247.26 339.845 1247.27 340.245L1247.28 340.492C1247.37 342.424 1248.02 345.142 1249.2 348.491C1251.26 354.326 1254.73 361.654 1259.24 370.08C1270.12 390.323 1289.77 396.73 1318.54 384.634C1320.06 383.992 1321.82 384.71 1322.47 386.237C1323.11 387.765 1322.39 389.523 1320.86 390.165C1289.3 403.436 1266.33 395.946 1253.96 372.917C1249.31 364.239 1245.73 356.672 1243.55 350.484L1243.26 349.657C1240.34 341.067 1240.22 335.395 1244.88 333.108C1245.1 332.997 1245.34 332.915 1245.58 332.864C1246.73 332.623 1247.85 332.755 1248.92 333.188L1248.98 333.212C1249.07 330.155 1250.21 327.924 1252.98 327.214L1253.21 327.158C1254.77 326.847 1256.2 327.071 1257.56 327.777L1257.71 327.859L1257.77 327.595C1258.14 325.896 1258.81 324.478 1259.8 323.454L1259.99 323.267Z" fill="#262685"/>
<path fill-rule="evenodd" clip-rule="evenodd" d="M1297.44 345.871C1300 344.446 1302.81 344.414 1305.35 346.097C1309.52 348.849 1308.89 354.29 1305.7 361.945C1305.03 363.553 1304.25 365.233 1303.38 366.959C1302.36 368.966 1301.28 370.935 1300.2 372.787L1299.75 373.536C1299.61 373.776 1299.47 374.006 1299.34 374.224L1298.83 375.051C1298.79 375.114 1298.76 375.167 1298.73 375.208C1297.84 376.607 1295.99 377.021 1294.59 376.132C1293.24 375.277 1292.81 373.526 1293.57 372.149L1294.03 371.41C1294.33 370.924 1294.66 370.37 1295.02 369.757C1296.04 368.004 1297.07 366.14 1298.02 364.252C1298.83 362.649 1299.55 361.101 1300.16 359.639C1301.26 356.999 1301.95 354.742 1302.15 353.051C1302.23 352.274 1302.21 351.677 1302.11 351.297L1302.07 351.17C1302.05 351.113 1302.05 351.104 1302.05 351.103C1300.98 350.397 1299.44 351.249 1297.44 354.02C1296.82 354.876 1296.24 355.808 1295.74 356.741L1295.49 357.211C1295.45 357.286 1295.41 357.359 1295.38 357.43L1295.14 357.931C1294.46 359.442 1292.68 360.116 1291.17 359.436C1289.66 358.756 1288.98 356.98 1289.66 355.469L1289.86 355.061C1290.01 354.745 1290.21 354.346 1290.46 353.884C1291.08 352.736 1291.79 351.587 1292.58 350.5C1294.05 348.462 1295.65 346.864 1297.44 345.871Z" fill="#262685"/>
<path fill-rule="evenodd" clip-rule="evenodd" d="M1072.33 439.348C1072.97 437.818 1074.72 437.094 1076.25 437.73C1091.2 443.943 1099.51 454.737 1102.72 468.787L1102.84 469.357L1103.15 469.512C1108.36 472.205 1113.81 476.09 1119.95 481.332L1122.28 483.348C1124.93 485.66 1127.05 487.618 1131.21 491.6L1142.09 502.106C1146.03 505.903 1148.92 508.619 1151.86 511.261L1152.2 511.565L1152.32 511.678L1152.98 512.337L1153.89 513.174C1185.64 542.638 1197.47 588.015 1184.36 629.566L1183.95 630.837L1174.55 659.437C1174.29 660.222 1173.72 660.863 1172.98 661.213L1172.33 661.475L1162.84 665.15C1158.09 666.986 1152.89 668.98 1147.34 671.099C1129.36 677.962 1111.07 684.824 1093.41 691.289L1089.64 692.668C1086.97 693.641 1084.34 694.599 1081.74 695.54L1076.87 697.297C1029.44 714.359 998.12 724.2 988.5 724.2C974.756 724.2 935.209 696.821 906.895 666.497C890.247 648.667 877.838 630.562 871.299 613.426C863.643 593.364 864.182 575.069 874.181 559.571C887.472 539.014 902.295 521.602 918.029 507.094C928.993 496.984 939.678 488.929 949.592 482.738L950.119 482.41L950.099 482.323C945.855 463.787 960.039 448.679 994.864 438.438L995.971 438.117C997.563 437.659 999.225 438.578 999.683 440.171C1000.14 441.763 999.221 443.425 997.629 443.883C963.329 453.745 951.58 467.034 956.467 482.918C956.873 484.236 956.328 485.66 955.146 486.371C944.887 492.539 933.665 500.838 922.096 511.505C906.726 525.678 892.23 542.705 879.221 562.826C862.409 588.884 876.076 624.699 911.28 662.402C925.254 677.368 941.83 691.578 957.537 702.452L958.543 703.144C972.234 712.515 983.763 718.2 988.5 718.2C997.146 718.2 1029.26 708.073 1076.32 691.116L1077.75 690.6C1080.98 689.436 1084.26 688.246 1087.58 687.032C1105.11 680.636 1123.35 673.813 1141.35 666.962L1152.12 662.844C1155.48 661.556 1158.68 660.326 1161.7 659.162L1169.29 656.218L1178.25 628.964C1191.28 589.292 1180.16 545.739 1149.81 517.572L1148.89 516.723L1148.78 516.621L1148.14 515.979L1146.82 514.788C1143.93 512.172 1140.99 509.39 1137 505.534L1126.39 495.298C1121.97 491.07 1119.98 489.277 1116.7 486.444C1109.99 480.665 1104.26 476.632 1098.92 474.113C1098.05 473.703 1097.43 472.902 1097.25 471.959C1094.75 458.784 1087.63 448.955 1073.95 443.27C1072.42 442.634 1071.69 440.878 1072.33 439.348Z" fill="#262685"/>
<path fill-rule="evenodd" clip-rule="evenodd" d="M1096.7 470C1098.5 479 1097.8 487.5 1097.5 492.7C1096.6 514.4 1088.4 526.1 1086 534.2C1101.8 524.8 1116.4 503.1 1123.6 488.9C1119.1 484.5 1104.6 473.8 1096.7 470Z" fill="#262685"/>
<path fill-rule="evenodd" clip-rule="evenodd" d="M1010.2 535.8C1002.4 532.2 962.6 506.5 955.9 481.5C947.9 485.8 935.3 493.4 927.5 502.7C936.5 508.2 987.3 538.4 1009.8 536.7C1010.1 536.7 1010.4 536.6 1010.7 536.6C1010.5 536.3 1010.4 536 1010.2 535.8Z" fill="#262685"/>
<path fill-rule="evenodd" clip-rule="evenodd" d="M1071.4 536C1080 511.1 1073.5 483.3 1067.5 475.2C1061.1 500.2 1046.6 515.5 1046.6 515.5C1022.3 487.8 996.9 472.1 996.9 472.1L997.6 471.3C996.5 471.3 995.9 471.4 995.9 471.4L986.8 480.8C986.8 480.8 1030.1 513.7 1044.2 593.1C1053.4 644.7 1058.1 693.1 1058.1 693.1L1084.9 691.7C1084.9 691.5 1062.1 563.2 1071.4 536Z" fill="#FE7624"/>
<path fill-rule="evenodd" clip-rule="evenodd" d="M983.794 413.553C985.311 412.887 987.081 413.577 987.747 415.094C988.413 416.611 987.723 418.381 986.206 419.047C980.344 421.621 977.688 425.497 980.618 431.731C983.17 437.198 987.783 437.358 994.074 433.96C995.532 433.173 997.352 433.717 998.14 435.175C998.927 436.633 998.383 438.453 996.925 439.24C993.35 441.171 989.761 442.306 986.296 442.186C981.5 442.02 977.579 439.407 975.185 434.276C972.61 428.798 972.935 423.879 975.675 419.879C977.617 417.045 980.505 414.997 983.794 413.553Z" fill="#262685"/>
<path fill-rule="evenodd" clip-rule="evenodd" d="M1061 370.008C1062.54 369.402 1064.29 370.161 1064.89 371.703C1072.62 391.375 1077.07 417.025 1077.5 435.228C1077.54 436.885 1076.23 438.26 1074.57 438.299C1072.91 438.338 1071.54 437.028 1071.5 435.371C1071.08 417.825 1066.76 392.856 1059.31 373.897C1058.7 372.355 1059.46 370.614 1061 370.008Z" fill="#262685"/>
<path fill-rule="evenodd" clip-rule="evenodd" d="M1005.81 452.9L1005.99 452.906C1007.58 453.007 1008.81 454.336 1008.8 455.914L1008.79 456.09L1008.39 462.39C1008.36 462.973 1008.15 463.532 1007.8 463.997L1007.66 464.167L1001.32 471.471L1002.51 472.28C1005.75 474.503 1009.35 477.128 1013.23 480.142C1023.91 488.45 1034.59 498.072 1044.62 508.924L1045.69 510.091L1046.45 510.938L1046.48 510.904C1046.81 510.5 1047.14 510.072 1047.49 509.621L1047.84 509.162C1050.55 505.585 1053.26 501.417 1055.8 496.709C1061.23 486.616 1065.07 475.491 1066.62 463.514C1066.84 461.871 1068.34 460.712 1069.99 460.925C1071.63 461.138 1072.79 462.643 1072.57 464.286C1070.92 477.035 1066.84 488.849 1061.08 499.553C1058.39 504.545 1055.51 508.97 1052.62 512.784C1051.73 513.958 1050.9 515.003 1050.13 515.914L1049.48 516.677C1049.12 517.088 1048.85 517.385 1048.67 517.566C1047.46 518.845 1045.41 518.805 1044.24 517.478C1043.26 516.355 1042.26 515.24 1041.25 514.134C1031.17 503.074 1020.35 493.285 1009.54 484.879C1006.01 482.135 1002.72 479.727 999.746 477.664L999.113 477.227C998.428 476.757 997.792 476.327 997.208 475.939L995.773 475.001C995.516 474.836 995.331 474.719 995.223 474.652C993.704 473.713 993.346 471.676 994.415 470.28L994.535 470.133L1002.47 460.997L1002.81 455.71C1002.9 454.174 1004.14 452.982 1005.64 452.904L1005.81 452.9Z" fill="#262685"/>
<path fill-rule="evenodd" clip-rule="evenodd" d="M995.37 413.548L986.47 416.448C984.797 416.993 983.962 418.845 984.628 420.447L985.022 421.269L987.379 426.085L989.904 431.212C990.647 432.716 991.387 434.21 992.119 435.681L995.539 442.515C999.097 449.575 1001.81 454.77 1003.4 457.517L1003.51 457.714C1008.88 466.896 1012.58 470.045 1024.88 474.984C1032.01 477.846 1041.78 478.503 1050.6 476.608C1060.78 474.423 1068.86 469.14 1072.89 461.035C1075.03 456.694 1076.36 451.547 1077.02 445.755C1077.82 438.653 1077.57 431.117 1076.68 423.861C1076.5 422.407 1076.3 421.084 1076.11 419.915L1075.91 418.77C1075.88 418.627 1075.86 418.508 1075.84 418.414C1075.57 417.068 1074.43 416.076 1073.06 416.004C1070.91 415.891 1067.88 416.16 1064.1 416.721C1062.81 416.914 1061.45 417.137 1060.06 417.386C1058.7 417.628 1057.35 417.883 1056.06 418.142L1054.47 418.468L1053.05 418.771L1052.93 418.801C1046.83 420.425 1040.95 422.353 1035.32 424.521C1028.96 426.967 1023.25 429.588 1018.25 432.214L1017.68 432.519L1016.57 433.114C1016.21 433.309 1015.86 433.501 1015.53 433.689L1014.68 434.165L1014.48 433.842C1009.92 426.592 1001.23 415.941 997.89 413.856C997.137 413.385 996.215 413.272 995.37 413.548ZM995.713 419.746L995.815 419.839C999.583 423.332 1008.19 434.347 1010.93 439.674C1011.74 441.248 1013.73 441.781 1015.22 440.823L1015.57 440.608L1016.19 440.232C1016.34 440.14 1016.5 440.044 1016.67 439.944L1017.53 439.446C1018.57 438.852 1019.75 438.208 1021.04 437.525C1025.84 435.004 1031.35 432.479 1037.47 430.121L1038.84 429.602C1043.4 427.89 1048.13 426.343 1053.01 424.997L1054.41 424.614L1055.41 424.402C1055.69 424.342 1055.99 424.279 1056.31 424.214C1057.84 423.9 1059.46 423.586 1061.11 423.293C1062.18 423.102 1063.23 422.926 1064.24 422.77L1065.43 422.592C1067.13 422.346 1068.64 422.17 1069.93 422.071L1070.37 422.039L1070.42 422.378C1070.52 423.073 1070.62 423.815 1070.72 424.597C1071.56 431.423 1071.8 438.514 1071.06 445.081C1070.47 450.234 1069.31 454.728 1067.51 458.372C1064.39 464.649 1057.88 468.91 1049.35 470.742C1041.65 472.393 1033.1 471.818 1027.12 469.416L1026.15 469.023C1016.2 464.956 1013.41 462.612 1009.1 455.389L1008.69 454.686C1007.41 452.488 1005.21 448.313 1002.33 442.641L999.647 437.327L998.216 434.466C997.253 432.533 996.27 430.553 995.282 428.553L991.931 421.74L991.609 421.083L995.713 419.746Z" fill="#262685"/>
<path fill-rule="evenodd" clip-rule="evenodd" d="M990.7 423.4C990.7 423.4 980.5 413.8 974.7 402.6C969.3 392.1 971.6 379.1 980.7 371.5C988.3 365.2 995.5 366.9 995.5 366.9C995.5 366.9 982.5 353.5 992.8 336.3C996.5 330.2 1002.5 325.9 1009.4 324.4C1026.3 320.7 1035.1 333.7 1035.1 333.7C1035.1 333.7 1044.9 296.2 1086.7 306.6C1090.9 307.7 1096.5 312.1 1099.4 315.3C1117.1 334.8 1083.5 371.3 1063.1 378.6C1040.7 386.6 1026.3 386.1 1017.5 382.3C1023.9 384.3 1026.2 420.3 990.7 423.4Z" fill="#262685"/>
<path fill-rule="evenodd" clip-rule="evenodd" d="M1052.16 408.886C1053.66 408.332 1055.32 409.051 1055.95 410.496L1056.01 410.66L1063.81 431.76C1064.52 433.679 1063.15 435.71 1061.14 435.797L1060.96 435.8L1052.86 435.7C1051.21 435.679 1049.88 434.32 1049.9 432.663C1049.92 431.065 1051.18 429.775 1052.76 429.703L1052.94 429.7L1056.67 429.746L1050.39 412.74C1049.83 411.242 1050.55 409.584 1052 408.952L1052.16 408.886Z" fill="#262685"/>
<path fill-rule="evenodd" clip-rule="evenodd" d="M1063.76 412.965C1065 412.661 1065.62 410.892 1065.16 409.016C1064.69 407.139 1063.32 405.865 1062.08 406.17C1060.85 406.474 1060.23 408.242 1060.69 410.119C1061.15 411.996 1062.53 413.27 1063.76 412.965Z" fill="#262685"/>
<path fill-rule="evenodd" clip-rule="evenodd" d="M1043.75 417.753C1045.02 417.684 1045.96 416.064 1045.86 414.134C1045.75 412.203 1044.64 410.694 1043.37 410.763C1042.1 410.832 1041.16 412.452 1041.26 414.382C1041.37 416.313 1042.48 417.821 1043.75 417.753Z" fill="#262685"/>
<path fill-rule="evenodd" clip-rule="evenodd" d="M1037.16 397.203C1038.82 397.128 1040.22 398.409 1040.3 400.064C1040.37 401.66 1039.18 403.021 1037.61 403.184L1037.44 403.197C1035.37 403.291 1033.78 404.03 1032.51 405.226C1032.03 405.678 1031.63 406.163 1031.32 406.642L1031.2 406.844C1031.12 406.963 1031.08 407.049 1031.05 407.093L1031.04 407.118C1030.37 408.632 1028.6 409.314 1027.08 408.641C1025.57 407.969 1024.89 406.196 1025.56 404.682C1025.7 404.365 1025.94 403.914 1026.29 403.373C1026.85 402.512 1027.54 401.659 1028.39 400.861C1030.66 398.722 1033.59 397.365 1037.16 397.203Z" fill="#262685"/>
<path fill-rule="evenodd" clip-rule="evenodd" d="M1062.53 384.723C1064.91 384.766 1067.07 385.569 1068.8 387.253C1069.98 388.411 1070 390.31 1068.85 391.496C1067.74 392.634 1065.94 392.7 1064.75 391.68L1064.6 391.547C1064.04 390.997 1063.35 390.739 1062.42 390.722C1061.33 390.702 1060.02 391.033 1058.68 391.613C1058.32 391.769 1057.98 391.933 1057.67 392.098L1057.36 392.263C1057.21 392.346 1057.1 392.414 1057.02 392.46L1056.94 392.512C1055.55 393.418 1053.69 393.027 1052.79 391.64C1051.88 390.252 1052.27 388.393 1053.66 387.488C1054.23 387.117 1055.14 386.61 1056.29 386.108C1058.35 385.216 1060.45 384.686 1062.53 384.723Z" fill="#262685"/>
<path fill-rule="evenodd" clip-rule="evenodd" d="M1052.9 447.5C1045.8 446.8 1043.4 443.3 1043.4 443.3L1055.7 442.5C1055.6 442.5 1057.6 447.4 1052.9 447.5Z" fill="#262685"/>
<path fill-rule="evenodd" clip-rule="evenodd" d="M1013.91 527.146C1015.38 526.513 1017.07 527.141 1017.78 528.55L1017.9 528.825L1018.48 530.206L1018.86 531.131C1019.25 532.086 1019.67 533.132 1020.12 534.26C1021.81 538.553 1023.49 543.154 1025.07 547.884C1026.75 552.933 1028.21 557.837 1029.37 562.492C1030.73 567.93 1031.66 572.901 1032.09 577.312C1032.25 578.961 1031.04 580.427 1029.39 580.586C1027.74 580.745 1026.27 579.537 1026.11 577.888C1025.72 573.805 1024.85 569.117 1023.55 563.947C1022.43 559.453 1021.02 554.693 1019.38 549.781C1017.99 545.621 1016.52 541.557 1015.03 537.725L1014.53 536.456C1013.96 534.987 1013.42 533.662 1012.94 532.504L1012.35 531.09C1011.69 529.569 1012.39 527.804 1013.91 527.146Z" fill="#262685"/>
<path fill-rule="evenodd" clip-rule="evenodd" d="M1079.64 528.111C1081.23 527.974 1082.64 529.107 1082.87 530.668L1083.84 541.551L1084.21 545.565C1084.76 551.578 1085.33 557.541 1085.89 563.227L1086.42 568.504C1086.64 570.722 1086.87 572.851 1087.08 574.882C1087.26 576.53 1086.07 578.008 1084.42 578.183C1082.77 578.359 1081.29 577.166 1081.12 575.518L1080.79 572.386C1080.56 570.25 1080.34 568.021 1080.11 565.708L1079.54 559.98C1079.04 554.813 1078.54 549.469 1078.05 544.105L1077.24 535.104L1076.91 531.358C1076.77 529.707 1077.99 528.253 1079.64 528.111Z" fill="#262685"/>
<path fill-rule="evenodd" clip-rule="evenodd" d="M982.708 569.557C983.947 568.457 985.844 568.57 986.944 569.809C988.001 571 987.938 572.799 986.83 573.914L986.692 574.044L967.992 590.644C967 591.524 965.548 591.649 964.421 590.951C953.863 584.415 945.113 584.629 938.032 588.785C936.958 589.415 936.027 590.087 935.247 590.751L934.976 590.987C934.771 591.17 934.617 591.316 934.517 591.417L934.421 591.517C933.308 592.744 931.41 592.835 930.184 591.722C928.957 590.608 928.865 588.711 929.979 587.484C930.249 587.186 930.709 586.736 931.355 586.185C932.392 585.301 933.606 584.425 934.995 583.61C943.376 578.691 953.689 578.148 965.276 584.505L965.641 584.707L982.708 569.557Z" fill="#262685"/>
<path fill-rule="evenodd" clip-rule="evenodd" d="M961.595 585.913C962.386 584.528 964.114 584.012 965.526 584.709L966.233 585.106L980.104 593.013L1006.81 608.175C1010.87 610.461 1013.46 611.909 1014.23 612.309L1014.39 612.394C1015.89 613.109 1016.52 614.9 1015.81 616.395C1015.09 617.889 1013.3 618.522 1011.81 617.807L1011.14 617.459C1009.54 616.597 1005.52 614.343 999.404 610.881L985.449 602.959L962.713 590.006C961.274 589.184 960.773 587.352 961.595 585.913Z" fill="#262685"/>
<path fill-rule="evenodd" clip-rule="evenodd" d="M1118.19 563.055C1119.65 562.411 1121.35 563.027 1122.07 564.431L1122.15 564.59L1131.45 585.69C1132.11 587.206 1131.43 588.977 1129.91 589.645C1128.45 590.29 1126.75 589.674 1126.03 588.269L1125.95 588.11L1116.65 567.01C1115.99 565.494 1116.67 563.723 1118.19 563.055Z" fill="#262685"/>
<path fill-rule="evenodd" clip-rule="evenodd" d="M1010.8 697.4C1010.8 697.4 964.4 678.1 906.9 638.3C849.5 598.5 812.9 660.1 828.4 685.3C842 707.5 918.5 783.9 918.5 783.9L1178.7 781.8C1178.7 781.8 1239.8 704.9 1249.4 692.8C1281.9 652 1255 630.5 1219.4 627.4C1185.8 624.5 1095.2 690.5 1084.1 699L1010.8 697.4Z" fill="#262685"/>
<path fill-rule="evenodd" clip-rule="evenodd" d="M1170 584.7H1002.8C1000.6 584.7 998.7 586.2 998.2 588.3L975.5 684.2H933.5C933.5 684.2 929.7 703.9 951.9 703.9C957.6 703.9 966 703.9 975.5 703.9C975.9 704 976.4 704.1 976.8 704.1H1144C1146.2 704.1 1148.1 702.6 1148.6 700.5L1174.6 590.6C1175.3 587.5 1173 584.7 1170 584.7Z" fill="#FE7624"/>
<path fill-rule="evenodd" clip-rule="evenodd" d="M1573.4 780.5C1575.06 780.5 1576.4 781.843 1576.4 783.5C1576.4 785.098 1575.15 786.404 1573.58 786.495L1573.4 786.5H3C1.34315 786.5 0 785.157 0 783.5C0 781.902 1.24892 780.596 2.82373 780.505L3 780.5H1573.4Z" fill="#262685"/>
</svg>
