<svg width="1379" height="874" viewBox="0 0 1379 874" fill="none" xmlns="http://www.w3.org/2000/svg">
<path fill-rule="evenodd" clip-rule="evenodd" d="M734.402 550.36C735.967 550.042 737.496 551.005 737.9 552.53L737.94 552.702L778.74 753.202C779.07 754.825 778.022 756.409 776.398 756.74C774.833 757.058 773.304 756.095 772.9 754.57L772.86 754.398L732.06 553.898C731.73 552.275 732.778 550.691 734.402 550.36Z" fill="#262685"/>
<path fill-rule="evenodd" clip-rule="evenodd" d="M602.44 352.833C603.968 352.193 605.726 352.912 606.367 354.44C617.702 381.477 624.287 411.348 626.891 443.17L627.353 449.177L627.534 451.423C627.652 452.863 627.767 454.203 627.888 455.529C628.038 457.179 626.822 458.638 625.172 458.788C623.522 458.938 622.062 457.722 621.912 456.072L621.792 454.721C621.732 454.04 621.673 453.349 621.614 452.637L620.91 443.645C618.355 412.43 611.904 383.167 600.833 356.76C600.193 355.232 600.912 353.474 602.44 352.833Z" fill="#262685"/>
<path fill-rule="evenodd" clip-rule="evenodd" d="M144.25 293.683C181.317 244.987 246.63 220.228 344.134 224.603C345.79 224.677 347.071 226.079 346.997 227.735C346.923 229.39 345.521 230.671 343.866 230.597C248.187 226.304 184.784 250.339 149.025 297.317C120.769 334.437 110.837 384.394 115.252 441.523L149.99 867.556C150.125 869.207 148.895 870.655 147.244 870.79C145.593 870.925 144.145 869.695 144.01 868.044L109.41 443.746C104.548 384.553 114.669 332.544 144.25 293.683Z" fill="#262685"/>
<path fill-rule="evenodd" clip-rule="evenodd" d="M707.8 821.1C707.3 821.6 706.4 821.7 705.8 821.1L695.5 810.2L691.7 801C687.4 801.6 681.8 800.9 677.5 797V797V797L675.4 794.8C681.2 802.3 681.4 811.2 661.2 802.2C661.2 802.2 627.3 792.1 626.6 792C626.6 792 503.3 805.6 372.1 790.8L377 869.6L718.1 870.7L707.8 821.1ZM580.6 861.9H566.9C562.6 861.9 559.2 858.5 559.2 854.2C559.2 849.9 562.6 846.5 566.9 846.5H580.6C584.9 846.5 588.3 849.9 588.3 854.2C588.3 858.5 584.8 861.9 580.6 861.9ZM580.6 825.1H566.9C562.6 825.1 559.2 821.7 559.2 817.4C559.2 813.1 562.6 809.7 566.9 809.7H580.6C584.9 809.7 588.3 813.1 588.3 817.4C588.3 821.7 584.8 825.1 580.6 825.1Z" fill="#262685"/>
<path fill-rule="evenodd" clip-rule="evenodd" d="M580.8 431.9C584.1 436.6 620.8 494.4 539.9 501.4C487.1 506 428.9 475 397.6 438.3C397.6 438.3 394.6 436 394.4 436C372.8 440.8 351.8 446.4 343.2 451.5C333.2 457.4 285.8 486.1 268.3 562.8C268.2 562.9 271.2 563.6 271.3 563.7C271.2 563.5 400 602.3 400 602.3L389.4 696.4C389.4 696.4 533.3 715.5 606.8 722.5V722.5C607.1 722.5 607.3 722.6 607.6 722.6C619.2 722.6 631.5 725.8 641.8 729.5C649 730.8 656.8 732.6 664.4 735.1L632.8 658.7L646 653.3L683.2 743.4C686.2 745.1 689.4 746.9 692.6 748.8L680 688.4C680 688.4 701.8 661.2 700.1 622.8C700 620.3 699.8 617.7 699.4 615.1C699.6 614.6 745.4 599.7 748 594.2C746.3 563 720.8 479.9 676 460.6C661.6 453.9 627.3 441.7 620.3 439.3C610.3 435.9 596 432.4 580.5 428.7" fill="#262685"/>
<rect x="448.496" y="107.174" width="24.3006" height="42.801" transform="rotate(155.078 448.496 107.174)" fill="#FE7624"/>
<path fill-rule="evenodd" clip-rule="evenodd" d="M402.9 86.5C426.538 86.5 445.7 67.3378 445.7 43.7C445.7 20.0622 426.538 0.900024 402.9 0.900024C379.262 0.900024 360.1 20.0622 360.1 43.7C360.1 67.3378 379.262 86.5 402.9 86.5Z" fill="#262685"/>
<path fill-rule="evenodd" clip-rule="evenodd" d="M551.7 81.6C514.7 68.4 475 75 438.8 87.8C322.6 130.9 316.5 298.8 305 350C303.2 358.2 310 366.5 318.6 366.5L455.8 384.9L462.3 323.5C462.3 323.5 457.5 311.7 453.6 301.9L453.8 308.4C453.8 308.4 404.7 315.5 402.4 269.8C401 241.2 424 237 441.5 237.9C441.4 234.9 441.3 233.2 441.3 233.2V233.2C504.9 230.8 577.8 189.9 595.6 155C616.8 167.6 627.7 189.1 632.3 246.5V246.5C673.6 208.3 664.5 127.3 551.7 81.6Z" fill="#262685"/>
<path fill-rule="evenodd" clip-rule="evenodd" d="M419.346 237.436C428.768 234.088 440.282 233.955 452.361 235.836C453.999 236.091 455.119 237.624 454.864 239.262C454.609 240.899 453.076 242.019 451.438 241.764C440.256 240.023 429.639 240.146 421.354 243.089C410.545 246.93 404.892 255.182 405.596 269.549C406.517 287.845 415.147 298.282 429.212 303C436.757 305.53 444.806 306.085 451.846 305.51L452.417 305.459L453.159 305.382C453.374 305.357 453.513 305.339 453.571 305.331C455.21 305.094 456.732 306.231 456.969 307.871C457.206 309.51 456.069 311.032 454.429 311.269L454.031 311.322C453.617 311.372 453.047 311.431 452.335 311.49C444.554 312.126 435.741 311.518 427.304 308.689C410.987 303.216 400.654 290.717 399.604 269.847C398.769 252.806 406.065 242.154 419.346 237.436Z" fill="#262685"/>
<path fill-rule="evenodd" clip-rule="evenodd" d="M593.528 155.637C584.979 172.393 564.704 190.523 538.351 204.578C509.564 219.931 476.127 229.211 443.128 230.001C441.698 230.035 440.491 231.074 440.245 232.483L439.598 236.17C439.459 237.026 439.425 237.471 439.543 238.057L439.661 238.564C439.673 238.621 439.661 238.607 439.675 238.787L439.701 239.23C439.732 239.95 439.735 241.026 439.701 242.531L439.703 242.733C440.106 251.803 440.81 262.15 441.613 270.778C441.62 270.853 441.63 270.927 441.642 271.001C444.066 285.326 447.938 298.407 452.673 309.997C454.234 313.818 455.792 317.233 457.288 320.215L457.779 321.183L458.265 322.12C458.885 323.3 459.385 324.196 459.741 324.798L459.809 324.913L459.774 324.85C479.088 359.837 509.432 382.198 546.426 385.588C577.469 388.384 600.708 371.013 616.732 339.769C627.566 318.644 634.338 291.709 635.592 274.316L635.657 273.273C635.9 269 635.958 263.549 635.878 257.399L635.868 256.626C635.842 254.861 635.806 253.123 635.762 251.451L635.661 248.018L635.596 246.237C631.182 191.153 621.399 168.553 597.738 154.424C596.248 153.535 594.316 154.091 593.528 155.637ZM597.307 161.238L597.815 161.577C616.993 174.531 625.377 195.586 629.48 245.051L629.605 246.58L629.695 249.162L629.71 249.659C629.767 251.57 629.816 253.597 629.852 255.673L629.868 256.714C629.969 263.548 629.901 269.532 629.607 273.899C628.408 290.519 621.832 316.678 611.393 337.031C596.375 366.315 575.185 382.154 546.969 379.612C512.447 376.449 484.007 355.713 465.582 322.947L464.973 321.858L464.677 321.346C464.599 321.209 464.51 321.051 464.411 320.872C463.978 320.094 463.49 319.177 462.954 318.125C461.435 315.141 459.835 311.664 458.227 307.728L457.801 306.674C453.561 296.09 450.064 284.227 447.782 271.296L447.577 270.116L447.456 268.785C446.76 261.041 446.15 252.069 445.766 243.974L445.701 242.559L445.723 241.39C445.751 239.359 445.701 238.363 445.561 237.531L445.504 237.232L445.73 235.924L446.669 235.889C479.521 234.544 512.571 225.127 541.174 209.872C566.881 196.162 587.13 178.611 597.092 161.611L597.307 161.238Z" fill="#262685"/>
<path fill-rule="evenodd" clip-rule="evenodd" d="M581.589 219.444C583.163 219.172 584.663 220.18 585.021 221.716L585.056 221.889L598.156 297.689C598.463 299.464 597.15 301.092 595.379 301.195L595.2 301.2H576C574.343 301.2 573 299.857 573 298.2C573 296.602 574.249 295.296 575.824 295.205L576 295.2L591.636 295.199L579.144 222.911C578.872 221.337 579.88 219.837 581.416 219.479L581.589 219.444Z" fill="#262685"/>
<path fill-rule="evenodd" clip-rule="evenodd" d="M529.717 216.89C537.16 211.055 545.453 209.319 553.538 214.586C554.926 215.491 555.318 217.35 554.414 218.738C553.509 220.126 551.651 220.518 550.262 219.614C544.724 216.006 539.057 217.192 533.419 221.612C532.22 222.551 531.132 223.563 530.182 224.572C529.919 224.852 529.683 225.114 529.475 225.354L529.072 225.837C528.058 227.147 526.174 227.387 524.863 226.372C523.553 225.358 523.314 223.474 524.328 222.164L524.643 221.773C524.932 221.425 525.325 220.979 525.813 220.46C526.959 219.242 528.265 218.028 529.717 216.89Z" fill="#262685"/>
<path fill-rule="evenodd" clip-rule="evenodd" d="M542.312 319.468C543.876 318.922 545.587 319.747 546.132 321.312C547.726 325.878 550.896 328.398 555.417 329.43C558.452 330.124 561.787 330.073 564.94 329.56L565.525 329.459C565.711 329.424 565.888 329.389 566.056 329.354L566.529 329.25L566.722 329.203C568.322 328.773 569.968 329.722 570.397 331.322C570.827 332.922 569.878 334.568 568.278 334.997L567.981 335.073C567.488 335.193 566.784 335.339 565.904 335.482C562.052 336.109 557.981 336.171 554.081 335.28C547.66 333.813 542.789 329.941 540.468 323.289C539.922 321.724 540.747 320.013 542.312 319.468Z" fill="#262685"/>
<path fill-rule="evenodd" clip-rule="evenodd" d="M607.852 216.952C612.342 215.171 616.949 214.334 621.39 215.01C626.115 215.73 630.21 218.147 633.327 222.437C634.301 223.777 634.004 225.653 632.663 226.627C631.323 227.601 629.447 227.304 628.473 225.963C626.317 222.996 623.654 221.424 620.486 220.942C617.261 220.45 613.652 221.106 610.064 222.53C609.083 222.919 608.183 223.335 607.388 223.749L606.933 223.992C606.716 224.11 606.562 224.2 606.475 224.253C605.065 225.123 603.216 224.685 602.347 223.275C601.477 221.865 601.915 220.016 603.325 219.147C604.258 218.571 605.821 217.758 607.852 216.952Z" fill="#262685"/>
<path fill-rule="evenodd" clip-rule="evenodd" d="M555.555 261.339C555.744 255.874 553.034 251.346 549.501 251.223C545.969 251.101 542.952 255.432 542.763 260.896C542.574 266.36 545.284 270.889 548.817 271.011C552.349 271.134 555.366 266.803 555.555 261.339Z" fill="#262685"/>
<path fill-rule="evenodd" clip-rule="evenodd" d="M623.227 263.215C623.416 257.751 620.705 253.222 617.173 253.1C613.64 252.977 610.623 257.308 610.434 262.772C610.245 268.237 612.956 272.766 616.488 272.888C620.021 273.01 623.038 268.679 623.227 263.215Z" fill="#262685"/>
<path fill-rule="evenodd" clip-rule="evenodd" d="M488.681 241.59C487.738 272.517 506.224 298.449 530.443 299.188C554.663 299.926 574.694 275.168 575.637 244.241C576.58 213.315 558.094 187.382 533.875 186.644C509.655 185.906 489.624 210.664 488.681 241.59ZM494.678 241.773C495.529 213.856 513.199 192.016 533.692 192.641C554.185 193.266 570.491 216.141 569.64 244.059C568.789 271.976 551.119 293.815 530.626 293.191C510.133 292.566 493.826 269.691 494.678 241.773Z" fill="#FE7624"/>
<path fill-rule="evenodd" clip-rule="evenodd" d="M596.024 248.622C595.081 279.548 613.567 305.481 637.786 306.219C662.006 306.957 682.037 282.199 682.98 251.273C683.923 220.346 665.437 194.414 641.218 193.675C616.998 192.937 596.967 217.695 596.024 248.622ZM602.021 248.804C602.872 220.887 620.542 199.048 641.035 199.672C661.528 200.297 677.834 223.172 676.983 251.09C676.132 279.007 658.462 300.847 637.969 300.222C617.476 299.597 601.17 276.722 602.021 248.804Z" fill="#FE7624"/>
<path fill-rule="evenodd" clip-rule="evenodd" d="M597.888 237.9C599.545 237.894 600.893 239.231 600.9 240.888C600.906 242.486 599.662 243.797 598.088 243.894L597.912 243.9L572.512 244C570.855 244.007 569.507 242.669 569.5 241.012C569.494 239.414 570.738 238.103 572.312 238.006L572.488 238L597.888 237.9Z" fill="#FE7624"/>
<path fill-rule="evenodd" clip-rule="evenodd" d="M491.882 229.317C493.529 229.141 495.007 230.334 495.183 231.982C495.352 233.571 494.249 235.002 492.693 235.259L492.518 235.283L438.118 241.083C436.471 241.259 434.993 240.066 434.817 238.418C434.648 236.829 435.751 235.398 437.307 235.141L437.482 235.117L491.882 229.317Z" fill="#FE7624"/>
<path fill-rule="evenodd" clip-rule="evenodd" d="M630.631 726.167C630.87 724.528 632.393 723.392 634.033 723.631C649.969 725.955 669.393 732.173 683.228 739.867L683.977 740.289C709.725 754.848 724.044 764.503 725.247 770.74C726.406 776.845 722.051 779.465 715.465 779.031C711.396 778.763 706.376 777.509 700.07 775.452C698.495 774.939 697.634 773.245 698.148 771.67C698.661 770.095 700.355 769.234 701.93 769.748L703.124 770.132C708.225 771.751 712.352 772.757 715.501 773.017L715.86 773.044C719.114 773.258 719.567 772.986 719.354 771.868C718.71 768.531 703.579 758.3 681.683 745.885L681.017 745.508C667.82 738.005 648.688 731.832 633.167 729.569C631.528 729.33 630.392 727.807 630.631 726.167Z" fill="#262685"/>
<path fill-rule="evenodd" clip-rule="evenodd" d="M690.9 761.8L645.2 651.1L632.1 656.5L667.7 742.8" fill="#FE7624"/>
<path fill-rule="evenodd" clip-rule="evenodd" d="M270.952 560.719L270.747 560.74C270.466 560.779 270.307 560.867 269.409 561.37L269.244 561.514L268.912 561.883L268.614 562.363L268.401 562.928L268.341 563.295L268.328 563.294C258.904 632.402 259.787 715.398 269.227 746.862C274.604 765.063 294.489 781.645 314.159 785.251C324.149 787.081 334.349 788.74 344.746 790.233C389.639 796.679 437.301 799.927 486.254 800.525C522.839 800.972 557.809 799.925 589.777 797.893L594.29 797.599C602.963 797.016 610.783 796.4 617.655 795.783L621.347 795.442C622.303 795.351 623.201 795.264 624.04 795.181L626.413 794.937L643.182 799.876L660.157 804.919L660.902 805.247C671.138 809.687 677.736 810.205 680.645 806.114L680.784 805.91C681.366 805.02 681.69 804.029 681.787 802.966L681.793 802.885L681.887 802.919C684.374 803.785 687.053 804.156 689.779 804.061C694.334 803.902 698.595 802.43 700.235 800.153L700.367 799.96C700.831 799.249 701.053 798.506 701.078 797.736L701.078 797.599L701.474 797.807C703.252 798.731 704.984 799.485 706.643 800.051C715.873 803.205 722.543 799.711 720.527 790.742C718.933 783.64 675.318 741.17 661.213 734.303L660.32 733.877C642.74 725.538 624.833 719.794 608.433 719.605L607.748 719.6L607.788 719.608C607.641 719.579 607.561 719.564 607.434 719.546L607.233 719.524L607.023 719.508L600.975 718.929C579.624 716.845 552.011 713.754 519.618 709.872L509.397 708.64C506.812 708.327 504.205 708.01 501.577 707.689C479.969 705.049 457.72 702.249 435.748 699.425L414.584 696.687L392.71 693.813L402.981 602.636C403.137 601.256 402.325 599.958 401.036 599.485L399.426 598.994L303.857 570.257L274.226 561.412L272.343 560.868L271.948 560.768L271.789 560.739L271.534 560.705C271.439 560.697 271.335 560.702 270.952 560.719ZM714.677 792.084L714.673 792.057C715.105 793.979 714.88 794.7 714.378 794.963C713.466 795.441 711.394 795.334 708.583 794.374C701.537 791.966 692.486 785.313 684.673 776.242C684.507 776.049 684.317 775.878 684.108 775.733L682.808 774.833C679.863 772.795 676.467 776.699 678.893 779.332L679.947 780.462C682.974 783.691 690.228 791.357 691.802 793.16L692.064 793.462C693.262 794.85 694.097 795.937 694.601 796.759L694.73 796.978L694.61 797.035C694.398 797.13 694.161 797.223 693.902 797.313C692.683 797.734 691.161 798.009 689.571 798.064L689.175 798.074C685.626 798.118 682.307 797.09 679.802 794.933L679.726 794.864L679.666 794.784C678.977 793.877 678.308 793.165 676.921 791.779C674.22 789.077 670.051 792.88 672.493 795.818C673.902 797.512 674.956 799.264 675.469 800.729C675.86 801.846 675.855 802.497 675.755 802.636L675.735 802.65C675.704 802.668 675.63 802.701 675.474 802.748C675.003 802.888 674.273 802.935 673.292 802.839C670.766 802.592 667.123 801.462 662.425 799.361L662.243 799.287L660.584 798.786L632.982 790.608C629.133 789.48 627.345 788.976 627.024 788.93C626.837 788.903 626.647 788.894 626.459 788.903L626.052 788.942L623.935 789.161L620.778 789.469C619.641 789.577 618.421 789.69 617.118 789.807L614.272 790.057C607.509 790.642 599.895 791.223 591.513 791.769C559.119 793.881 523.56 794.981 486.327 794.526C437.62 793.931 390.212 790.7 345.599 784.294C335.277 782.812 325.153 781.165 315.241 779.349C297.716 776.136 279.691 761.106 274.977 745.15L274.705 744.22C265.993 713.646 265.082 635.018 273.726 568.221L273.814 567.545L298.481 574.909L345.062 588.899L396.738 604.45L386.419 696.064C386.243 697.629 387.304 699.052 388.831 699.346L390.448 699.566L411.28 702.306C415.037 702.797 418.958 703.307 423.026 703.833C448.851 707.178 475.296 710.523 500.849 713.644L513.82 715.218L524.317 716.476C557.075 720.377 584.704 723.429 605.662 725.406L606.631 725.495L606.612 725.492C606.983 725.566 607.221 725.6 607.6 725.6C623.371 725.6 641.206 731.362 658.603 739.705C665.003 742.821 677.622 753.382 691.444 766.801L691.945 767.287C697.762 772.952 703.296 778.653 707.543 783.343L708.757 784.696C710.539 786.7 711.996 788.428 713.057 789.797L713.428 790.283C713.78 790.749 714.07 791.158 714.297 791.503L714.404 791.669C714.584 791.953 714.68 792.138 714.677 792.084Z" fill="#262685"/>
<path fill-rule="evenodd" clip-rule="evenodd" d="M641.999 774.015C647.929 774.608 666.059 782.153 673.748 788.719C674.087 789.008 674.346 789.357 674.522 789.737L674.571 789.853L674.61 789.884C676.546 791.463 678.207 793.092 679.564 794.773L679.871 795.162C680.886 796.472 680.647 798.356 679.338 799.371C678.028 800.386 676.144 800.147 675.129 798.838C672.154 795 666.816 791.186 659.822 787.604C655.674 785.479 651.21 783.568 646.745 781.907C645.181 781.325 643.729 780.816 642.43 780.385L641.234 779.997L640.833 779.872C637.357 778.823 638.386 773.654 641.999 774.015Z" fill="#262685"/>
<path fill-rule="evenodd" clip-rule="evenodd" d="M650.077 760.924C650.45 759.31 652.062 758.304 653.676 758.677L654.086 758.777C654.358 758.847 654.703 758.938 655.114 759.054L655.369 759.126C656.659 759.495 658.091 759.952 659.63 760.503C664.025 762.078 668.422 764.1 672.545 766.625C676.59 769.103 680.159 771.941 683.115 775.176C684.232 776.399 684.147 778.297 682.924 779.415C681.701 780.532 679.803 780.447 678.685 779.224C676.136 776.434 673.003 773.942 669.411 771.742C665.669 769.45 661.639 767.596 657.606 766.152C656.372 765.709 655.217 765.335 654.165 765.024L653.721 764.895C653.398 764.803 653.106 764.723 652.846 764.655L652.324 764.523C650.71 764.15 649.704 762.538 650.077 760.924Z" fill="#262685"/>
<path fill-rule="evenodd" clip-rule="evenodd" d="M753 804.7H485.8C479.7 804.7 474.8 809.6 474.8 815.7V823.7C474.8 829.8 479.7 834.7 485.8 834.7H753C759.1 834.7 764 829.8 764 823.7V815.7C764 809.6 759 804.7 753 804.7Z" fill="#FE7624"/>
<path fill-rule="evenodd" clip-rule="evenodd" d="M817.9 513.4C811.9 513.4 806.8 517.9 805.4 524.3L739.7 829.6H456.7C456.7 829.6 448.9 869.9 494.4 869.9C513.3 869.9 638.5 869.8 778.3 869.7C774.2 863.8 772.2 855.2 773.5 848.9L843.3 526.6C845 518.8 851.3 513.4 858.7 513.4H817.9V513.4ZM588.3 854.2C588.3 858.5 584.9 861.9 580.6 861.9H566.9C562.6 861.9 559.2 858.5 559.2 854.2V854.2C559.2 849.9 562.6 846.5 566.9 846.5H580.6C584.8 846.5 588.3 850 588.3 854.2V854.2Z" fill="#262685"/>
<path fill-rule="evenodd" clip-rule="evenodd" d="M553.873 814.749C558.828 813.785 564.019 813.674 568.885 814.079L569.651 814.147C570.769 814.253 571.599 814.361 572.075 814.438C573.711 814.7 574.824 816.239 574.562 817.875C574.309 819.452 572.87 820.544 571.3 820.385L570.622 820.292C570.177 820.234 569.662 820.175 569.084 820.12C564.522 819.688 559.585 819.75 555.019 820.639C545.907 822.411 540.676 826.916 540.313 835.22L540.3 835.6L540.299 836.124C540.518 844.746 545.769 849.362 555.019 851.161C559.585 852.049 564.522 852.112 569.084 851.679L569.747 851.612C569.957 851.589 570.158 851.566 570.347 851.543L570.942 851.465C571.026 851.453 571.088 851.444 571.125 851.438C572.761 851.176 574.3 852.289 574.562 853.925C574.824 855.561 573.711 857.1 572.075 857.362L571.483 857.448C571.072 857.502 570.548 857.564 569.924 857.626L569.651 857.653C564.566 858.135 559.089 858.065 553.873 857.051C542.273 854.795 534.777 848.296 534.313 836.61L534.3 836.2L534.301 835.524C534.603 823.656 542.138 817.031 553.873 814.749Z" fill="#262685"/>
<rect x="913.265" y="246.207" width="79.7989" height="78.3989" transform="rotate(3.78946 913.265 246.207)" fill="#FE7624"/>
<path fill-rule="evenodd" clip-rule="evenodd" d="M979.679 291.599L961.12 290.37C959.467 290.261 958.038 291.512 957.929 293.165L956.699 311.724C956.59 313.377 957.841 314.806 959.495 314.916L978.054 316.145C979.707 316.255 981.136 315.003 981.245 313.35L982.475 294.791C982.584 293.138 981.333 291.709 979.679 291.599ZM976.289 297.387L975.456 309.96L962.884 309.127L963.716 296.554L976.289 297.387Z" fill="#262685"/>
<path fill-rule="evenodd" clip-rule="evenodd" d="M977.521 292.446C978.765 291.353 980.661 291.476 981.754 292.721C982.806 293.918 982.732 295.716 981.618 296.825L981.48 296.954L961.78 314.254C960.535 315.348 958.639 315.225 957.546 313.98C956.495 312.783 956.568 310.984 957.682 309.876L957.821 309.746L977.521 292.446Z" fill="#262685"/>
<path fill-rule="evenodd" clip-rule="evenodd" d="M981.602 260.53L922.832 256.637C921.178 256.528 919.749 257.779 919.64 259.433L918.463 277.193C918.354 278.847 919.605 280.276 921.259 280.385L980.029 284.278C981.682 284.387 983.111 283.136 983.221 281.483L984.397 263.722C984.507 262.069 983.255 260.64 981.602 260.53ZM978.211 266.318L977.431 278.092L924.648 274.596L925.428 262.822L978.211 266.318Z" fill="#262685"/>
<path fill-rule="evenodd" clip-rule="evenodd" d="M919.6 306.907L949.5 308.907C951.153 309.017 952.404 310.447 952.293 312.1C952.187 313.694 950.853 314.914 949.276 314.9L949.1 314.893L919.2 312.893C917.547 312.783 916.296 311.353 916.407 309.7C916.513 308.106 917.847 306.886 919.424 306.9L919.6 306.907Z" fill="#262685"/>
<path fill-rule="evenodd" clip-rule="evenodd" d="M920.2 297.607L950.1 299.607C951.753 299.717 953.004 301.147 952.893 302.8C952.787 304.394 951.453 305.614 949.876 305.6L949.7 305.593L919.8 303.593C918.147 303.483 916.896 302.053 917.007 300.4C917.113 298.806 918.447 297.586 920.024 297.6L920.2 297.607Z" fill="#262685"/>
<path fill-rule="evenodd" clip-rule="evenodd" d="M920.79 288.406L950.69 290.306C952.344 290.411 953.599 291.837 953.494 293.49C953.393 295.085 952.063 296.309 950.486 296.3L950.31 296.294L920.41 294.394C918.756 294.289 917.501 292.863 917.606 291.21C917.707 289.615 919.037 288.391 920.614 288.4L920.79 288.406Z" fill="#262685"/>
<path fill-rule="evenodd" clip-rule="evenodd" d="M980.823 260.577C982.437 260.204 984.049 261.209 984.423 262.823C984.783 264.379 983.861 265.934 982.348 266.378L982.177 266.423L922.177 280.323C920.563 280.697 918.951 279.691 918.577 278.077C918.217 276.521 919.139 274.967 920.652 274.522L920.823 274.477L980.823 260.577Z" fill="#262685"/>
<path fill-rule="evenodd" clip-rule="evenodd" d="M1010.95 162.272L1010.37 163.902C1007.13 173.861 1012.51 184.545 1022.37 187.753L1089.86 209.95C1099.57 213.226 1110.07 207.977 1113.53 198.284L1114.23 196.299C1117.47 186.34 1112.09 175.656 1102.23 172.447L1034.73 150.247C1024.84 147.03 1014.16 152.409 1010.95 162.272ZM1032.87 155.953L1100.36 178.15C1107.07 180.332 1110.74 187.623 1108.55 194.372L1107.97 196.002C1105.67 202.828 1098.43 206.509 1091.76 204.257L1024.24 182.05C1017.53 179.868 1013.86 172.577 1016.05 165.828L1016.63 164.199C1018.83 157.428 1026.12 153.758 1032.87 155.953Z" fill="#262685"/>
<path fill-rule="evenodd" clip-rule="evenodd" d="M1093.8 215.7C1108.1 215.7 1119.7 204.104 1119.7 189.8C1119.7 175.496 1108.1 163.9 1093.8 163.9C1079.5 163.9 1067.9 175.496 1067.9 189.8C1067.9 204.104 1079.5 215.7 1093.8 215.7Z" fill="#FE7624"/>
<rect x="1173.1" y="260.229" width="158.403" height="158.403" transform="rotate(67.6358 1173.1 260.229)" fill="#FE7624"/>
<path fill-rule="evenodd" clip-rule="evenodd" d="M1141.22 467.644C1142.3 466.388 1144.2 466.245 1145.46 467.325C1146.66 468.364 1146.84 470.155 1145.89 471.408L1145.77 471.556L1140.87 477.256C1139.84 478.464 1138.05 478.643 1136.79 477.694L1136.64 477.575L1130.94 472.675C1129.69 471.595 1129.54 469.701 1130.62 468.444C1131.66 467.236 1133.45 467.058 1134.71 468.006L1134.86 468.125L1138.28 471.07L1141.22 467.644Z" fill="#262685"/>
<path fill-rule="evenodd" clip-rule="evenodd" d="M1122.75 457.723L1110.66 447.347C1109.4 446.268 1107.51 446.413 1106.43 447.671C1105.35 448.928 1105.49 450.822 1106.75 451.901L1118.85 462.277C1120.1 463.356 1122 463.211 1123.08 461.953C1124.16 460.696 1124.01 458.802 1122.75 457.723ZM1098.56 436.971L1086.46 426.595C1085.21 425.516 1083.31 425.661 1082.23 426.919C1081.15 428.176 1081.3 430.07 1082.56 431.149L1094.65 441.525C1095.91 442.604 1097.81 442.459 1098.88 441.201C1099.96 439.944 1099.82 438.05 1098.56 436.971ZM1074.37 416.219L1062.27 405.843C1061.01 404.764 1059.12 404.909 1058.04 406.167C1056.96 407.424 1057.11 409.318 1058.36 410.397L1070.46 420.773C1071.72 421.852 1073.61 421.707 1074.69 420.449C1075.77 419.192 1075.62 417.298 1074.37 416.219ZM1050.17 395.467L1038.08 385.091C1036.82 384.012 1034.93 384.157 1033.85 385.415C1032.77 386.672 1032.91 388.566 1034.17 389.645L1046.27 400.021C1047.53 401.1 1049.42 400.955 1050.5 399.697C1051.58 398.44 1051.43 396.546 1050.17 395.467Z" fill="#262685"/>
<path fill-rule="evenodd" clip-rule="evenodd" d="M1020.92 364.544C1022 363.288 1023.9 363.145 1025.16 364.225C1026.36 365.264 1026.54 367.055 1025.59 368.308L1025.47 368.456L1022.55 371.857L1025.93 374.705C1027.15 375.732 1027.35 377.521 1026.41 378.784L1026.29 378.932C1025.27 380.151 1023.48 380.348 1022.22 379.412L1022.07 379.295L1016.37 374.495C1015.14 373.461 1014.95 371.656 1015.9 370.393L1016.02 370.244L1020.92 364.544Z" fill="#262685"/>
<path fill-rule="evenodd" clip-rule="evenodd" d="M1035.88 356.352L1046.25 344.25C1047.33 342.992 1047.18 341.098 1045.92 340.02C1044.66 338.942 1042.77 339.088 1041.69 340.346L1031.32 352.448C1030.24 353.706 1030.39 355.6 1031.65 356.678C1032.91 357.756 1034.8 357.61 1035.88 356.352ZM1056.62 332.148L1066.99 320.046C1068.06 318.788 1067.92 316.894 1066.66 315.816C1065.4 314.738 1063.51 314.884 1062.43 316.142L1052.06 328.244C1050.98 329.502 1051.13 331.396 1052.39 332.474C1053.64 333.552 1055.54 333.406 1056.62 332.148ZM1077.36 307.944L1087.73 295.842C1088.8 294.583 1088.66 292.69 1087.4 291.612C1086.14 290.533 1084.25 290.68 1083.17 291.938L1072.8 304.04C1071.72 305.298 1071.87 307.192 1073.13 308.27C1074.38 309.348 1076.28 309.202 1077.36 307.944ZM1098.09 283.74L1108.46 271.637C1109.54 270.379 1109.4 268.485 1108.14 267.407C1106.88 266.329 1104.99 266.475 1103.91 267.734L1093.54 279.836C1092.46 281.094 1092.61 282.988 1093.86 284.066C1095.12 285.144 1097.02 284.998 1098.09 283.74Z" fill="#262685"/>
<path fill-rule="evenodd" clip-rule="evenodd" d="M1119.22 249.944C1120.26 248.736 1122.05 248.558 1123.31 249.506L1123.46 249.625L1129.16 254.525C1130.41 255.605 1130.55 257.499 1129.47 258.756C1128.44 259.964 1126.65 260.142 1125.39 259.194L1125.24 259.075L1121.82 256.129L1118.87 259.556C1117.84 260.764 1116.05 260.942 1114.79 259.994L1114.64 259.875C1113.44 258.836 1113.26 257.045 1114.21 255.792L1114.32 255.644L1119.22 249.944Z" fill="#262685"/>
<path fill-rule="evenodd" clip-rule="evenodd" d="M1137.35 269.477L1149.44 279.853C1150.7 280.932 1152.59 280.787 1153.67 279.529C1154.75 278.272 1154.61 276.378 1153.35 275.299L1141.25 264.923C1140 263.844 1138.1 263.989 1137.02 265.247C1135.94 266.505 1136.09 268.398 1137.35 269.477ZM1161.54 290.229L1173.64 300.605C1174.89 301.684 1176.79 301.539 1177.87 300.281C1178.94 299.024 1178.8 297.13 1177.54 296.051L1165.45 285.675C1164.19 284.596 1162.29 284.741 1161.22 285.999C1160.14 287.256 1160.28 289.15 1161.54 290.229ZM1185.73 310.981L1197.83 321.357C1199.09 322.436 1200.98 322.291 1202.06 321.033C1203.14 319.776 1202.99 317.882 1201.74 316.803L1189.64 306.427C1188.38 305.348 1186.49 305.493 1185.41 306.751C1184.33 308.008 1184.47 309.902 1185.73 310.981ZM1209.93 331.733L1222.02 342.109C1223.28 343.188 1225.17 343.043 1226.25 341.785C1227.33 340.528 1227.19 338.634 1225.93 337.555L1213.83 327.179C1212.57 326.1 1210.68 326.245 1209.6 327.503C1208.52 328.76 1208.67 330.654 1209.93 331.733Z" fill="#262685"/>
<path fill-rule="evenodd" clip-rule="evenodd" d="M1233.71 348.268C1234.73 347.049 1236.52 346.852 1237.78 347.788L1237.93 347.905L1243.63 352.705C1244.85 353.731 1245.05 355.521 1244.11 356.784L1243.99 356.932L1239.19 362.632C1238.13 363.9 1236.23 364.062 1234.97 362.995C1233.75 361.969 1233.55 360.179 1234.49 358.917L1234.61 358.768L1237.47 355.362L1234.07 352.495C1232.85 351.469 1232.65 349.679 1233.59 348.417L1233.71 348.268Z" fill="#262685"/>
<path fill-rule="evenodd" clip-rule="evenodd" d="M1224.22 370.848L1213.85 382.95C1212.77 384.208 1212.92 386.102 1214.18 387.18C1215.44 388.258 1217.33 388.112 1218.41 386.854L1228.78 374.752C1229.86 373.494 1229.71 371.6 1228.45 370.522C1227.19 369.444 1225.3 369.59 1224.22 370.848ZM1203.48 395.052L1193.11 407.154C1192.04 408.413 1192.18 410.306 1193.44 411.384C1194.7 412.462 1196.59 412.316 1197.67 411.058L1208.04 398.956C1209.12 397.698 1208.97 395.804 1207.71 394.726C1206.45 393.648 1204.56 393.794 1203.48 395.052ZM1182.74 419.256L1172.37 431.359C1171.3 432.617 1171.44 434.511 1172.7 435.589C1173.96 436.667 1175.85 436.521 1176.93 435.262L1187.3 423.16C1188.38 421.902 1188.23 420.008 1186.97 418.93C1185.72 417.852 1183.82 417.998 1182.74 419.256ZM1162.01 443.461L1151.64 455.563C1150.56 456.821 1150.7 458.715 1151.96 459.793C1153.22 460.871 1155.11 460.725 1156.19 459.467L1166.56 447.365C1167.64 446.106 1167.49 444.212 1166.24 443.134C1164.98 442.056 1163.08 442.202 1162.01 443.461Z" fill="#262685"/>
<path fill-rule="evenodd" clip-rule="evenodd" d="M1142.34 411.874L1146.26 407.326L1146.94 407.933L1147.24 408.197C1147.92 408.809 1148.69 409.521 1149.54 410.332L1149.92 410.685C1152.78 413.411 1155.97 416.621 1159.4 420.299C1169.18 430.793 1178.95 442.942 1188.08 456.607C1199.9 474.314 1209.74 493.26 1216.93 513.305L1217.43 514.705L1211.77 516.695C1204.71 496.633 1194.92 477.66 1183.09 459.939C1174.15 446.557 1164.58 434.658 1155.01 424.391L1153.76 423.067C1150.89 420.028 1148.21 417.346 1145.78 415.032L1144.74 414.049C1144.3 413.636 1143.88 413.255 1143.5 412.906L1142.62 412.119L1142.34 411.874Z" fill="#262685"/>
<path fill-rule="evenodd" clip-rule="evenodd" d="M1144.7 417.3C1148.9 417.3 1152.3 413.897 1152.3 409.7C1152.3 405.503 1148.9 402.1 1144.7 402.1C1140.5 402.1 1137.1 405.503 1137.1 409.7C1137.1 413.897 1140.5 417.3 1144.7 417.3Z" fill="#262685"/>
<path fill-rule="evenodd" clip-rule="evenodd" d="M1271.8 513.4H1216.9C1228.1 543.5 1232.4 574 1229.5 604C1226 641 1211.6 678.5 1186.8 715.6C1186.2 716.5 1185.3 716.9 1184.3 716.9C1183.7 716.9 1183.1 716.7 1182.6 716.4C1181.2 715.5 1180.9 713.6 1181.8 712.2C1226.5 645.4 1236 580.5 1210.6 514C1210.5 513.8 1210.5 513.6 1210.4 513.4H858.8C860.5 513.4 861.8 514.7 861.8 516.4C861.8 518.1 860.5 519.4 858.8 519.4C854.2 519.4 850.3 522.9 849.2 527.9L779.4 850.2C778.3 855.2 780.4 862.8 783.9 867.3C784.6 868.2 785.6 869.1 786.7 869.8C981.5 869.7 1201.2 869.5 1201.2 869.5C1207.2 869.5 1212.3 865 1213.7 858.6L1284.2 530.8C1286.2 521.9 1280.1 513.4 1271.8 513.4ZM1050.7 666.2C1050.7 666.2 1036.4 671.9 1031.7 655.1C1031.6 655.1 1049.5 650.7 1050.7 666.2ZM1064.9 730.5C1053.6 742.5 1035 746.1 1023.4 738.5C1011.8 730.9 1011.5 714.9 1022.8 702.9C1028 697.3 1034.8 693.6 1041.7 691.9C1040.8 690.3 1040.2 688.4 1040.2 686.2C1040.2 679.5 1045.2 673.1 1051.4 672C1051.5 672 1051.6 672 1051.7 672C1053.3 667.1 1056.6 657.9 1059.8 654.1C1060.9 652.8 1062.8 652.7 1064 653.8C1065.3 654.9 1065.4 656.8 1064.3 658C1062.1 660.6 1059.4 667.9 1057.7 673C1060.7 674.6 1062.7 678 1062.7 682.1C1062.7 685.9 1061.1 689.5 1058.6 692.2C1060.6 692.9 1062.6 693.7 1064.3 694.9C1075.9 702.6 1076.2 718.5 1064.9 730.5Z" fill="#262685"/>
<path fill-rule="evenodd" clip-rule="evenodd" d="M1216.2 511.8C1215.6 510.3 1213.9 509.5 1212.3 510.1C1210.9 510.6 1210.2 512 1210.4 513.4H1216.7C1216.6 512.9 1216.4 512.4 1216.2 511.8Z" fill="#262685"/>
<path fill-rule="evenodd" clip-rule="evenodd" d="M938.807 299.493L831.898 334.503C830.323 335.019 829.465 336.713 829.98 338.288L864.99 445.196C865.506 446.771 867.2 447.629 868.775 447.114L975.684 412.104C977.258 411.588 978.117 409.894 977.601 408.319L942.591 301.41C942.075 299.836 940.381 298.978 938.807 299.493ZM937.822 306.128L970.965 407.336L869.758 440.479L836.615 339.271L937.822 306.128Z" fill="#262685"/>
<path fill-rule="evenodd" clip-rule="evenodd" d="M937.23 301.033C937.985 299.558 939.793 298.975 941.267 299.73C942.688 300.457 943.281 302.16 942.649 303.602L942.57 303.767L870.37 444.767C869.615 446.242 867.808 446.825 866.333 446.07C864.913 445.343 864.319 443.64 864.951 442.198L865.03 442.033L937.23 301.033Z" fill="#262685"/>
<path fill-rule="evenodd" clip-rule="evenodd" d="M830.324 336.043C831.046 334.62 832.747 334.02 834.191 334.647L834.357 334.724L976.357 406.724C977.834 407.474 978.425 409.279 977.676 410.757C976.954 412.18 975.253 412.78 973.809 412.154L973.643 412.076L831.643 340.076C830.166 339.326 829.575 337.521 830.324 336.043Z" fill="#262685"/>
<path fill-rule="evenodd" clip-rule="evenodd" d="M1376 867.5C1377.66 867.5 1379 868.843 1379 870.5C1379 872.098 1377.75 873.404 1376.18 873.495L1376 873.5H3.70001C2.04316 873.5 0.700012 872.157 0.700012 870.5C0.700012 868.902 1.94893 867.596 3.52374 867.505L3.70001 867.5H1376Z" fill="#262685"/>
<path fill-rule="evenodd" clip-rule="evenodd" d="M676.1 795.4C676.2 795.5 676.2 795.5 676.3 795.6C676.3 795.5 676.2 795.4 676.1 795.4Z" fill="#262685"/>
<path fill-rule="evenodd" clip-rule="evenodd" d="M682.6 779.1L682.3 778.4L681.1 777.5C681.6 778 682.1 778.5 682.6 779.1Z" fill="#262685"/>
<path fill-rule="evenodd" clip-rule="evenodd" d="M641.7 777C641.7 777 662.7 783.3 673.9 793.2L671.7 790.9C662.9 783.4 644.6 777.3 641.7 777Z" fill="#262685"/>
<path fill-rule="evenodd" clip-rule="evenodd" d="M673.9 793.2L675.4 794.8C675.2 794.5 675 794.3 674.8 794C674.5 793.7 674.2 793.5 673.9 793.2Z" fill="#262685"/>
<path fill-rule="evenodd" clip-rule="evenodd" d="M674.8 794C675.3 794.4 675.7 794.9 676.1 795.3C675.7 794.9 675.3 794.5 674.8 794Z" fill="#262685"/>
<path fill-rule="evenodd" clip-rule="evenodd" d="M677.5 797C677.1 796.5 676.7 796.1 676.3 795.6C676.7 796 677.1 796.5 677.5 797Z" fill="#262685"/>
<path fill-rule="evenodd" clip-rule="evenodd" d="M653 761.6L680.9 777.2C670.3 765.6 653 761.6 653 761.6Z" fill="#262685"/>
<path fill-rule="evenodd" clip-rule="evenodd" d="M461.537 327.733C461.794 326.097 463.33 324.979 464.967 325.237C466.545 325.485 467.641 326.922 467.486 328.492L467.464 328.667L452.364 424.567C452.19 425.667 451.423 426.575 450.38 426.935L450.193 426.993L403.026 439.923L403.998 440.984C437.476 477.171 491.967 501.944 538.185 498.528L539.641 498.411L541.256 498.263C558.854 496.557 571.237 492.291 578.98 485.93C585.551 480.533 588.661 473.726 588.927 465.689C589.143 459.139 587.459 452.061 584.419 444.935C582.759 441.044 580.829 437.478 579.277 435.028L579.011 434.613L561.339 431.247C559.983 430.989 558.986 429.842 558.905 428.479L558.9 428.3V382.3C558.9 380.643 560.243 379.3 561.9 379.3C563.498 379.3 564.804 380.549 564.895 382.124L564.9 382.3V425.817L581.361 428.953C582.058 429.086 582.683 429.46 583.127 430.007L583.255 430.176C585.137 432.857 587.753 437.459 589.938 442.581C593.293 450.446 595.172 458.345 594.923 465.886C594.222 487.16 577.143 501.189 540.16 504.389C489.645 508.79 429.835 480.719 395.317 440.247C393.931 438.621 394.645 436.131 396.633 435.46L396.807 435.407L446.737 421.718L461.537 327.733Z" fill="#262685"/>
</svg>
