<svg width="1367" height="950" viewBox="0 0 1367 950" fill="none" xmlns="http://www.w3.org/2000/svg">
<path fill-rule="evenodd" clip-rule="evenodd" d="M296.7 476.2H132.1C120.643 476.2 111.4 485.443 111.4 496.9V555.4C111.4 566.857 120.643 576.1 132.1 576.1H296.7C308.157 576.1 317.4 566.857 317.4 555.4V496.9C317.4 485.443 308.157 476.2 296.7 476.2ZM132.1 482.2H296.7C304.843 482.2 311.4 488.757 311.4 496.9V555.4C311.4 563.543 304.843 570.1 296.7 570.1H132.1C123.957 570.1 117.4 563.543 117.4 555.4V496.9C117.4 488.757 123.957 482.2 132.1 482.2Z" fill="#262685"/>
<path fill-rule="evenodd" clip-rule="evenodd" d="M285.1 499.1C286.757 499.1 288.1 500.443 288.1 502.1C288.1 503.698 286.851 505.004 285.276 505.095L285.1 505.1H149.1C147.443 505.1 146.1 503.757 146.1 502.1C146.1 500.502 147.349 499.196 148.924 499.105L149.1 499.1H285.1Z" fill="#262685"/>
<path fill-rule="evenodd" clip-rule="evenodd" d="M255.8 514.3C257.457 514.3 258.8 515.643 258.8 517.3C258.8 518.898 257.551 520.204 255.976 520.295L255.8 520.3H149.1C147.443 520.3 146.1 518.957 146.1 517.3C146.1 515.702 147.349 514.396 148.924 514.305L149.1 514.3H255.8Z" fill="#262685"/>
<path fill-rule="evenodd" clip-rule="evenodd" d="M285.1 531C286.757 531 288.1 532.343 288.1 534C288.1 535.598 286.851 536.904 285.276 536.995L285.1 537H149.1C147.443 537 146.1 535.657 146.1 534C146.1 532.402 147.349 531.096 148.924 531.005L149.1 531H285.1Z" fill="#262685"/>
<path fill-rule="evenodd" clip-rule="evenodd" d="M255.8 546.2C257.457 546.2 258.8 547.543 258.8 549.2C258.8 550.798 257.551 552.104 255.976 552.195L255.8 552.2H149.1C147.443 552.2 146.1 550.857 146.1 549.2C146.1 547.602 147.349 546.296 148.924 546.205L149.1 546.2H255.8Z" fill="#262685"/>
<path fill-rule="evenodd" clip-rule="evenodd" d="M120.4 512.8C132.274 512.8 141.9 503.174 141.9 491.3C141.9 479.426 132.274 469.8 120.4 469.8C108.526 469.8 98.8999 479.426 98.8999 491.3C98.8999 503.174 108.526 512.8 120.4 512.8Z" fill="#FE7624"/>
<path fill-rule="evenodd" clip-rule="evenodd" d="M593.6 623.5H572.1V605.6H593.6C597 605.6 599.7 608.3 599.7 611.7V617.4C599.7 620.8 597 623.5 593.6 623.5Z" fill="#FE7624"/>
<path fill-rule="evenodd" clip-rule="evenodd" d="M867 623.5H816.2C812.8 623.5 810.1 620.8 810.1 617.4V611.7C810.1 608.3 812.8 605.6 816.2 605.6H867C870.4 605.6 873.1 608.3 873.1 611.7V617.4C873 620.8 870.3 623.5 867 623.5Z" fill="#FE7624"/>
<path fill-rule="evenodd" clip-rule="evenodd" d="M787.4 623.5H620.8C617.4 623.5 614.7 620.8 614.7 617.4V611.7C614.7 608.3 617.4 605.6 620.8 605.6H787.4C790.8 605.6 793.5 608.3 793.5 611.7V617.4C793.5 620.8 790.8 623.5 787.4 623.5Z" fill="#FE7624"/>
<path fill-rule="evenodd" clip-rule="evenodd" d="M872.4 586.6H573.1C571.494 586.6 570.173 587.865 570.103 589.47L569.986 592.295C569.637 601.21 569.556 608.354 569.778 615.022L569.836 616.73C570.004 620.635 570.647 627.088 572.118 640.331C572.287 641.851 573.571 643 575.1 643H872.4C882.357 643 890.4 634.957 890.4 625V604.5C890.4 594.625 882.338 586.6 872.4 586.6ZM575.978 592.599L872.4 592.6C879.031 592.6 884.4 597.945 884.4 604.5V625L884.396 625.306C884.235 631.807 878.941 637 872.4 637H577.786L577.231 631.901C576.272 622.971 575.867 618.372 575.799 615.529C575.57 609.264 575.617 602.597 575.912 594.374L575.978 592.599Z" fill="#262685"/>
<path fill-rule="evenodd" clip-rule="evenodd" d="M247.7 570.5C249.298 570.5 250.604 571.749 250.695 573.324L250.7 573.5V668.7C250.7 670.357 249.357 671.7 247.7 671.7C246.102 671.7 244.796 670.451 244.705 668.876L244.7 668.7V573.5C244.7 571.843 246.043 570.5 247.7 570.5Z" fill="#262685"/>
<path fill-rule="evenodd" clip-rule="evenodd" d="M247.7 764.4C249.298 764.4 250.604 765.649 250.695 767.224L250.7 767.4V779.4C250.7 788.876 258.914 796.626 269.251 796.797L269.6 796.8H420.3C421.957 796.8 423.3 798.143 423.3 799.8C423.3 801.398 422.051 802.704 420.476 802.795L420.3 802.8H269.6C256.016 802.8 244.924 792.604 244.703 779.789L244.7 779.4V767.4C244.7 765.743 246.043 764.4 247.7 764.4Z" fill="#262685"/>
<path fill-rule="evenodd" clip-rule="evenodd" d="M719.1 796.8C720.757 796.8 722.1 798.143 722.1 799.8C722.1 801.398 720.851 802.704 719.276 802.795L719.1 802.8H597.5C595.843 802.8 594.5 801.457 594.5 799.8C594.5 798.203 595.749 796.897 597.324 796.805L597.5 796.8H719.1Z" fill="#262685"/>
<path fill-rule="evenodd" clip-rule="evenodd" d="M1127.5 638.9C1129.1 638.9 1130.4 640.149 1130.49 641.724L1130.5 641.9V779.4C1130.5 792.267 1119.54 802.592 1106.01 802.797L1105.6 802.8H994.3C992.643 802.8 991.3 801.457 991.3 799.8C991.3 798.202 992.549 796.896 994.124 796.805L994.3 796.8H1105.6C1115.98 796.8 1124.31 789.156 1124.5 779.719L1124.5 779.4V641.9C1124.5 640.243 1125.84 638.9 1127.5 638.9Z" fill="#262685"/>
<path fill-rule="evenodd" clip-rule="evenodd" d="M1127.5 359.6C1129.1 359.6 1130.4 360.849 1130.49 362.424L1130.5 362.6V426.2C1130.5 427.857 1129.16 429.2 1127.5 429.2C1125.9 429.2 1124.6 427.951 1124.51 426.376L1124.5 426.2V365.599H250.699L250.7 478.3C250.7 479.898 249.451 481.204 247.876 481.295L247.7 481.3C246.102 481.3 244.796 480.051 244.705 478.476L244.7 478.3V362.6C244.7 361.002 245.949 359.696 247.524 359.605L247.7 359.6H1127.5Z" fill="#262685"/>
<path fill-rule="evenodd" clip-rule="evenodd" d="M699.3 264H638.7C640.8 265.6 642.7 267.6 644.4 269.8C644.4 269.9 644.5 269.9 644.5 270L671.3 312.4H707.7C707.1 311.9 706.8 311.1 706.8 310.2V270.9C706.8 267.1 703.4 264 699.3 264ZM686.9 290.3H682.5V294.7C682.5 296.3 681.1 297.7 679.5 297.7V297.7C677.8 297.7 676.5 296.3 676.5 294.7V290.4H672.2V290.4C670.5 290.4 669.2 289.1 669.2 287.4C669.2 285.7 670.5 284.4 672.2 284.4H676.6V280C676.6 278.4 678 277 679.6 277V277C681.3 277 682.6 278.4 682.6 280V284.3H686.9V284.3C688.6 284.3 689.9 285.6 689.9 287.3C689.9 288.9 688.5 290.3 686.9 290.3Z" fill="#262685"/>
<path fill-rule="evenodd" clip-rule="evenodd" d="M1108.9 242.1L266.2 243.2C254 243.2 244.2 253.7 244.2 266.5L244.7 313.1L392.9 312.4L419.7 270C419.7 269.9 419.8 269.9 419.8 269.8C425.3 262.5 433.6 258.1 442.1 258.1H621.2C621.5 258 621.7 258 622 258H699.4C706.9 258 712.9 263.8 712.9 270.9V310.2C712.9 311.1 712.5 311.8 712 312.4H1131V318.4H669.7C668.7 318.4 667.7 317.9 667.2 317L639.6 273.3C635.3 267.6 628.8 264.1 622.2 264.1H442C435.4 264.1 428.9 267.5 424.6 273.3L397 317C396.5 317.9 395.5 318.4 394.5 318.4L244.7 319.1L245.2 369.9H1131V265.4C1130.9 252.5 1121 242.1 1108.9 242.1ZM280.8 292.8C273.4 292.8 267.4 286.8 267.4 279.4C267.4 272 273.4 266 280.8 266C288.2 266 294.2 272 294.2 279.4C294.2 286.8 288.2 292.8 280.8 292.8ZM324.9 292.8C317.5 292.8 311.5 286.8 311.5 279.4C311.5 272 317.5 266 324.9 266C332.3 266 338.3 272 338.3 279.4C338.3 286.8 332.3 292.8 324.9 292.8ZM369.1 292.8C361.7 292.8 355.7 286.8 355.7 279.4C355.7 272 361.7 266 369.1 266C376.5 266 382.5 272 382.5 279.4C382.5 286.8 376.5 292.8 369.1 292.8ZM1084.1 283.9L1078.4 288.1H1078.8C1080.4 288.3 1081.6 289.8 1081.5 291.4C1081.3 292.9 1080 294.1 1078.5 294.1C1078.4 294.1 1078.3 294.1 1078.2 294.1L1070.7 293.3C1070.6 293.3 1070.5 293.3 1070.3 293.3C1069.4 293.3 1068.5 292.9 1067.9 292.1V292.1V292.1C1067.4 291.4 1067.2 290.6 1067.4 289.7L1068.9 281.8C1069.2 280.2 1070.8 279.1 1072.4 279.4C1074 279.7 1075.1 281.3 1074.8 282.9L1074.7 283.4L1080.7 279C1082 278 1083.9 278.3 1084.9 279.7C1085.9 281.1 1085.5 282.9 1084.1 283.9ZM1105.2 268.4L1103.7 275.8C1103.4 277.2 1102.2 278.2 1100.8 278.2C1100.6 278.2 1100.4 278.2 1100.2 278.1C1098.6 277.8 1097.5 276.2 1097.9 274.6L1098 274.2L1092.3 278.4C1091.8 278.8 1091.1 279 1090.5 279C1089.6 279 1088.7 278.6 1088.1 277.8C1087.1 276.5 1087.4 274.6 1088.8 273.6L1094.8 269.2L1094.3 269.1C1092.7 268.9 1091.5 267.4 1091.7 265.8C1091.9 264.2 1093.4 263 1095 263.2L1103 264.1C1103.8 264.2 1104.6 264.6 1105.1 265.3V265.3V265.3C1105.6 266.3 1105.7 267.5 1105.2 268.4ZM605.8 288.2C604.6 287.1 604.4 285.2 605.5 284C606.6 282.8 608.5 282.6 609.7 283.7L613.9 287.3L618.1 283.7C619.4 282.6 621.3 282.8 622.3 284.1C623.4 285.4 623.2 287.3 621.9 288.3L618.4 291.2L621.9 294.2C623.1 295.3 623.3 297.2 622.2 298.4C621.6 299.1 620.8 299.4 619.9 299.4C619.2 299.4 618.5 299.2 617.9 298.7L613.7 295.1L609.5 298.7C608.9 299.2 608.3 299.4 607.6 299.4C606.7 299.4 605.9 299 605.3 298.3C604.2 297 604.4 295.1 605.7 294.1L609.2 291.2L605.8 288.2ZM312.5 347.1H295.4L299.7 351C300.9 352.1 301 354 299.9 355.2C299.3 355.9 298.5 356.2 297.7 356.2C297 356.2 296.3 355.9 295.7 355.4L286.2 346.7C285.2 346.2 284.5 345.2 284.5 344V343.9V343.8C284.5 343 284.8 342.2 285.5 341.6L295.4 332.4C296.6 331.3 298.5 331.3 299.6 332.6C300.7 333.8 300.6 335.7 299.4 336.8L294.9 340.9H312.5C314.2 340.9 315.5 342.2 315.5 343.9C315.5 345.6 314.1 347.1 312.5 347.1ZM359.7 344.1C359.7 345.3 359 346.3 358 346.8L348.5 355.5C347.9 356 347.2 356.3 346.5 356.3C345.7 356.3 344.9 356 344.3 355.3C343.2 354.1 343.3 352.2 344.5 351.1L348.8 347.2H331.7C330 347.2 328.7 345.9 328.7 344.2C328.7 342.5 330 341.2 331.7 341.2H349.3L344.8 337.1C343.6 336 343.5 334.1 344.6 332.9C345.7 331.7 347.6 331.6 348.8 332.7L358.7 341.9C359.3 342.5 359.7 343.3 359.7 344.1C359.7 343.9 359.7 344 359.7 344.1C359.7 344 359.7 344 359.7 344.1ZM995.5 349.9C995.5 352.7 993.3 354.9 990.5 354.9H398.9C396.1 354.9 393.9 352.7 393.9 349.9V340.5C393.9 337.7 396.1 335.5 398.9 335.5H990.5C993.3 335.5 995.5 337.7 995.5 340.5V349.9ZM1047.4 341.1L1042.2 344.1L1044.2 350.4C1044.6 351.6 1044.2 352.9 1043.2 353.7C1042.2 354.5 1040.9 354.6 1039.8 354L1034.2 350.8L1028.5 355C1028 355.4 1027.4 355.6 1026.7 355.6C1026 355.6 1025.5 355.4 1024.9 355C1023.8 354.2 1023.4 352.9 1023.8 351.6L1025.9 345.1L1020.3 341.1C1019.2 340.3 1018.8 339 1019.2 337.7C1019.6 336.5 1020.8 335.6 1022.1 335.6H1029L1031.1 329.1C1031.5 327.9 1032.7 327 1034 327C1035.3 327 1036.5 327.8 1036.9 329.1L1039 335.6H1045.9C1047.3 335.6 1048.4 336.5 1048.8 337.8C1049.2 339.1 1048.6 340.5 1047.4 341.1ZM1095.2 355.5H1078.4C1076.7 355.5 1075.4 354.2 1075.4 352.5C1075.4 350.8 1076.7 349.5 1078.4 349.5H1095.2C1096.9 349.5 1098.2 350.8 1098.2 352.5C1098.2 354.2 1096.9 355.5 1095.2 355.5ZM1095.2 346.2H1078.4C1076.7 346.2 1075.4 344.9 1075.4 343.2C1075.4 341.5 1076.7 340.2 1078.4 340.2H1095.2C1096.9 340.2 1098.2 341.5 1098.2 343.2C1098.2 344.9 1096.9 346.2 1095.2 346.2ZM1095.2 336.8H1078.4C1076.7 336.8 1075.4 335.5 1075.4 333.8C1075.4 332.1 1076.7 330.8 1078.4 330.8H1095.2C1096.9 330.8 1098.2 332.1 1098.2 333.8C1098.2 335.5 1096.9 336.8 1095.2 336.8Z" fill="#262685"/>
<path fill-rule="evenodd" clip-rule="evenodd" d="M870.3 480.7H581.3C580.9 485 580.6 489.4 580.3 493.6C578.7 520.7 576.4 544.2 574.8 565.2H870.4C880 565.2 887.8 557.4 887.8 547.8V498C887.7 488.4 879.9 480.7 870.3 480.7Z" fill="#262685"/>
<path fill-rule="evenodd" clip-rule="evenodd" d="M974.6 721.1H739.2C726.543 721.1 716.2 731.443 716.2 744.1V846.3C716.2 858.957 726.543 869.3 739.2 869.3H974.6C987.257 869.3 997.6 858.957 997.6 846.3V744.1C997.6 731.443 987.257 721.1 974.6 721.1ZM739.2 727.1H974.6C983.943 727.1 991.6 734.757 991.6 744.1V846.3C991.6 855.643 983.943 863.3 974.6 863.3H739.2C729.857 863.3 722.2 855.643 722.2 846.3V744.1C722.2 734.757 729.857 727.1 739.2 727.1Z" fill="#262685"/>
<path fill-rule="evenodd" clip-rule="evenodd" d="M786.5 752.2C769.103 752.2 755 766.303 755 783.7C755 801.097 769.103 815.2 786.5 815.2C803.897 815.2 818 801.097 818 783.7C818 766.303 803.897 752.2 786.5 752.2ZM786.5 758.2C800.583 758.2 812 769.617 812 783.7C812 797.783 800.583 809.2 786.5 809.2C772.417 809.2 761 797.783 761 783.7C761 769.617 772.417 758.2 786.5 758.2Z" fill="#262685"/>
<path fill-rule="evenodd" clip-rule="evenodd" d="M946.1 809.7H910.5C905.243 809.7 901 813.943 901 819.2V822.8C901 828.057 905.243 832.3 910.5 832.3H946.1C951.243 832.3 955.454 828.089 955.599 822.883L955.6 819.2C955.6 813.943 951.357 809.7 946.1 809.7ZM910.5 815.7H946.1C948.043 815.7 949.6 817.257 949.6 819.2V822.8C949.546 824.711 947.957 826.3 946.1 826.3H910.5C908.557 826.3 907 824.743 907 822.8V819.2C907 817.257 908.557 815.7 910.5 815.7Z" fill="#262685"/>
<path fill-rule="evenodd" clip-rule="evenodd" d="M725.3 752.6C737.174 752.6 746.8 742.974 746.8 731.1C746.8 719.226 737.174 709.6 725.3 709.6C713.426 709.6 703.8 719.226 703.8 731.1C703.8 742.974 713.426 752.6 725.3 752.6Z" fill="#FE7624"/>
<path fill-rule="evenodd" clip-rule="evenodd" d="M833.608 776.3L949.708 776.6C951.365 776.605 952.704 777.951 952.7 779.608C952.696 781.206 951.444 782.508 949.869 782.596L949.692 782.6L833.592 782.3C831.935 782.296 830.596 780.949 830.6 779.293C830.604 777.695 831.857 776.392 833.432 776.305L833.608 776.3Z" fill="#262685"/>
<path fill-rule="evenodd" clip-rule="evenodd" d="M834.908 790.9L950.908 791.2C952.565 791.204 953.904 792.551 953.9 794.208C953.896 795.805 952.644 797.108 951.069 797.195L950.892 797.2L834.892 796.9C833.236 796.896 831.896 795.549 831.9 793.892C831.904 792.294 833.157 790.992 834.732 790.905L834.908 790.9Z" fill="#262685"/>
<path fill-rule="evenodd" clip-rule="evenodd" d="M1213.3 423.8L1006.12 423.199C992.455 423.086 981.3 434.136 981.3 447.8L980.799 619.491C980.686 633.144 991.736 644.3 1005.4 644.3L1212.59 644.9C1226.22 644.9 1237.29 633.902 1237.4 620.325L1237.9 448.609C1238.01 434.956 1226.96 423.8 1213.3 423.8ZM1005.74 429.199L1213.29 429.8C1223.52 429.8 1231.8 438.055 1231.9 448.239L1231.4 620.291C1231.31 630.56 1222.92 638.9 1212.6 638.9L1005.41 638.3C995.183 638.3 986.896 630.045 986.799 619.861L987.3 447.809C987.3 437.583 995.555 429.296 1005.74 429.199Z" fill="#262685"/>
<path fill-rule="evenodd" clip-rule="evenodd" d="M1191 529.4L1146.5 529.3C1141.74 529.3 1137.9 533.143 1137.9 537.9L1137.8 583.093C1137.8 587.857 1141.64 591.7 1146.4 591.7L1190.89 591.8C1195.62 591.954 1199.5 588.073 1199.5 583.2L1199.6 538.007C1199.6 533.243 1195.76 529.4 1191 529.4ZM1146.49 535.3L1190.99 535.4C1192.44 535.4 1193.6 536.557 1193.6 538L1193.5 583.193C1193.5 584.668 1192.47 585.76 1191.16 585.802L1146.41 585.7C1144.96 585.7 1143.8 584.543 1143.8 583.1L1143.9 537.907C1143.9 536.457 1145.06 535.3 1146.49 535.3Z" fill="#262685"/>
<path fill-rule="evenodd" clip-rule="evenodd" d="M1182.6 470.3L1037.91 469.9C1031.53 469.9 1026.4 474.951 1026.4 481.3L1026.3 504.087C1026.3 510.466 1031.35 515.6 1037.7 515.6L1182.39 516C1188.62 516 1193.76 510.903 1193.9 504.665L1194 481.813C1194 475.435 1188.95 470.3 1182.6 470.3ZM1037.68 475.904L1037.9 475.899L1182.59 476.3C1185.61 476.3 1188 478.727 1188 481.8L1187.9 504.587C1187.84 507.529 1185.34 510 1182.4 510L1037.71 509.6C1034.69 509.6 1032.3 507.174 1032.3 504.1L1032.4 481.313C1032.4 478.361 1034.71 476.017 1037.68 475.904Z" fill="#262685"/>
<path fill-rule="evenodd" clip-rule="evenodd" d="M1031.31 580.8L1122.81 581C1124.46 581.004 1125.8 582.35 1125.8 584.007C1125.8 585.605 1124.54 586.908 1122.97 586.996L1122.79 587L1031.29 586.8C1029.64 586.797 1028.3 585.451 1028.3 583.794C1028.3 582.196 1029.56 580.893 1031.13 580.805L1031.31 580.8Z" fill="#262685"/>
<path fill-rule="evenodd" clip-rule="evenodd" d="M1031.31 556.9L1122.91 557.2C1124.57 557.206 1125.91 558.553 1125.9 560.21C1125.89 561.808 1124.64 563.11 1123.07 563.196L1122.89 563.2L1031.29 562.9C1029.63 562.895 1028.29 561.547 1028.3 559.89C1028.31 558.293 1029.56 556.991 1031.13 556.905L1031.31 556.9Z" fill="#262685"/>
<path fill-rule="evenodd" clip-rule="evenodd" d="M1031.41 533L1122.91 533.3C1124.57 533.306 1125.91 534.653 1125.9 536.31C1125.89 537.908 1124.64 539.21 1123.07 539.296L1122.89 539.3L1031.39 539C1029.73 538.995 1028.39 537.647 1028.4 535.99C1028.41 534.393 1029.66 533.091 1031.23 533.005L1031.41 533Z" fill="#262685"/>
<path fill-rule="evenodd" clip-rule="evenodd" d="M994.2 454.1C1006.07 454.1 1015.7 444.474 1015.7 432.6C1015.7 420.726 1006.07 411.1 994.2 411.1C982.326 411.1 972.7 420.726 972.7 432.6C972.7 444.474 982.326 454.1 994.2 454.1Z" fill="#FE7624"/>
<path fill-rule="evenodd" clip-rule="evenodd" d="M281.6 665.4H29.8C19.8432 665.4 11.8 673.443 11.8 683.4V751.7C11.8 761.657 19.8432 769.7 29.8 769.7H281.6C291.557 769.7 299.6 761.657 299.6 751.7V683.4C299.6 673.443 291.557 665.4 281.6 665.4ZM29.8 671.4H281.6C288.243 671.4 293.6 676.757 293.6 683.4V751.7C293.6 758.343 288.243 763.7 281.6 763.7H29.8C23.1569 763.7 17.8 758.343 17.8 751.7V683.4C17.8 676.757 23.1569 671.4 29.8 671.4Z" fill="#262685"/>
<path fill-rule="evenodd" clip-rule="evenodd" d="M254.4 703.3C256.057 703.3 257.4 704.643 257.4 706.3C257.4 707.897 256.151 709.203 254.576 709.295L254.4 709.3H52.6001C50.9432 709.3 49.6001 707.957 49.6001 706.3C49.6001 704.702 50.849 703.396 52.4238 703.305L52.6001 703.3H254.4Z" fill="#262685"/>
<path fill-rule="evenodd" clip-rule="evenodd" d="M230.8 725C232.457 725 233.8 726.343 233.8 728C233.8 729.598 232.551 730.904 230.976 730.995L230.8 731H52.6001C50.9432 731 49.6001 729.657 49.6001 728C49.6001 726.402 50.849 725.096 52.4238 725.005L52.6001 725H230.8Z" fill="#262685"/>
<path fill-rule="evenodd" clip-rule="evenodd" d="M21.5 693.6C33.3741 693.6 43 683.974 43 672.1C43 660.226 33.3741 650.6 21.5 650.6C9.62588 650.6 0 660.226 0 672.1C0 683.974 9.62588 693.6 21.5 693.6Z" fill="#FE7624"/>
<path fill-rule="evenodd" clip-rule="evenodd" d="M823 185.3C813.7 74.5 716.3 -7.70002 605.5 1.59998C494.7 10.9 412.5 108.3 421.8 219.1C427.4 285.7 464.8 341.9 517.8 374.2L498.6 405.5C513.8 417.6 526.4 431.9 533.3 440.4L539.1 446.1C539.1 436.7 540.7 392.3 568 388.7C577.2 387.5 582.2 391.9 584.7 400C602.3 403.3 620.5 404.4 639.2 402.8C750.1 393.5 832.3 296.1 823 185.3ZM635.5 357.7C549.7 364.9 474.2 301.2 466.9 215.4C459.7 129.6 523.4 54.1 609.2 46.8C695 39.5 770.5 103.3 777.8 189.1C785 275 721.3 350.4 635.5 357.7Z" fill="#FE7624"/>
<path fill-rule="evenodd" clip-rule="evenodd" d="M438.868 382.391C412.946 388.914 388.946 401.523 370.442 419.803C348.524 441.456 335.115 470.125 332.21 505.655L332.202 505.799C330.798 547.634 347.345 586.706 375.725 621.886C385.228 633.665 395.405 644.152 405.586 653.221C409.153 656.399 412.468 659.175 415.448 661.533L415.836 661.838C416.472 662.339 417.063 662.796 417.605 663.21L417.988 663.5L415.8 945.777C415.787 947.447 417.14 948.806 418.81 948.8L617.31 948.1C619.077 948.094 620.442 946.575 620.289 944.839L620.18 944.061L613.965 901.264L610.707 878.657C606.585 849.985 602.499 821.293 598.622 793.708L596.5 778.565C583.88 688.283 576.209 628.865 575.798 615.607C575.484 605.46 575.792 594.298 576.687 580.346L576.959 576.269C577.285 571.563 577.672 566.519 578.172 560.412L580.404 533.813C581.587 519.518 582.449 507.924 583.159 496.156L583.295 493.875C583.535 489.77 583.864 485.454 584.286 480.767L584.572 477.677C585.012 473.054 585.513 468.297 586.283 461.299L587.157 453.257C589.883 427.823 590.393 418.711 589.341 408.338C587.709 392.243 580.89 384.089 567.611 385.825C553.144 387.669 544.207 399.453 539.559 417.493C537.98 423.621 536.992 430.146 536.477 436.739L536.428 437.384L536.341 438.646L536.294 439.408L536.133 439.209C535.293 438.175 534.41 437.105 533.484 436.001C527.14 428.438 520.113 420.875 512.589 413.807C494.136 396.472 475.774 384.916 458.334 381.87C451.585 380.691 445.077 380.828 438.868 382.391ZM457.301 387.78C473.336 390.581 490.805 401.574 508.481 418.18C515.817 425.072 522.686 432.465 528.887 439.857L529.952 441.135C531.345 442.816 532.629 444.411 533.798 445.899L534.653 446.995C535.151 447.638 535.594 448.218 535.979 448.731L536.672 449.662C538.374 452.006 542.042 450.809 542.099 447.979L542.091 447.451C542.049 444.869 542.136 441.339 542.459 437.206C542.949 430.937 543.886 424.747 545.369 418.99C549.473 403.064 556.926 393.235 568.379 391.776C577.551 390.577 581.941 395.691 583.326 408.508L583.435 409.589C584.384 419.59 583.747 429.107 580.812 456.13L579.607 467.199C579.121 471.744 578.76 475.337 578.419 479.037L578.205 481.41C577.862 485.314 577.584 488.971 577.368 492.477L577.101 496.929C576.476 507.128 575.733 517.271 574.758 529.254L572.476 556.474C571.809 564.5 571.324 570.726 570.929 576.5L570.698 579.971C569.793 594.094 569.481 605.431 569.801 615.793C570.197 628.576 576.979 681.685 588.329 763.401L591.689 787.475L593.295 798.909C596.989 825.156 600.862 852.342 604.768 879.51L611.675 927.302L613.831 942.112L421.823 942.789L424 662.023C424.007 661.048 423.54 660.129 422.747 659.561L421.838 658.889L420.923 658.194C420.493 657.864 420.033 657.506 419.544 657.122L419.171 656.828C416.281 654.54 413.054 651.839 409.577 648.741C399.629 639.879 389.678 629.626 380.395 618.119L379.572 617.093C352.797 583.551 337.181 546.554 338.163 507.206L338.196 506.075L338.19 506.144C340.978 472.046 353.76 444.717 374.658 424.072C392.353 406.591 415.398 394.484 440.332 388.209C445.692 386.861 451.353 386.741 457.301 387.78Z" fill="#262685"/>
<path fill-rule="evenodd" clip-rule="evenodd" d="M325.2 659.6C321 666.4 327.1 677.8 338.9 685.1L345 688.9C356.8 696.2 369.7 696.6 373.9 689.8L424.9 605.7L379.6 571.4L325.2 659.6Z" fill="#FE7624"/>
<path fill-rule="evenodd" clip-rule="evenodd" d="M401.114 519.786C401.73 518.247 403.476 517.499 405.014 518.115C452.92 537.277 508.908 585.526 505.039 604.402C501.393 622.189 482.734 628.849 456.667 623.332C447.977 621.457 434.575 614.298 417.465 603.047L416.769 602.589C413.331 600.32 409.784 597.911 406.145 595.38C398.061 589.757 389.862 583.77 381.902 577.753L379.737 576.112C377.723 574.579 375.822 573.12 374.053 571.75L371.137 569.48L368.429 567.345C367.134 566.311 366.922 564.424 367.955 563.129C368.949 561.883 370.732 561.64 372.019 562.541L372.295 562.754L374.836 564.755L377.728 567.007C379.483 568.366 381.37 569.815 383.37 571.336C391.939 577.855 400.829 584.374 409.571 590.454C412.721 592.645 415.801 594.743 418.796 596.734L420.074 597.581C436.893 608.683 450.105 615.779 457.921 617.465C481.139 622.378 496.342 616.953 499.161 603.198C500.437 596.973 489.204 582.007 470.466 565.86C450.385 548.554 425.308 532.694 402.786 523.685C401.247 523.07 400.499 521.324 401.114 519.786Z" fill="#262685"/>
<path fill-rule="evenodd" clip-rule="evenodd" d="M414.979 467.536C415.652 466.089 417.331 465.43 418.796 466.007L419.008 466.1L420.29 466.71L422.011 467.548C422.626 467.851 423.281 468.176 423.974 468.524L425.579 469.334C429.108 471.127 432.963 473.161 437.071 475.422C450.615 482.876 464.16 491.26 476.816 500.395C491.816 511.223 504.554 522.392 514.329 533.786L514.955 534.521L515.373 534.985C530.03 551.393 535.768 570.772 531.825 585.643L531.701 586.097C527.428 601.348 513.87 607.168 499.081 598.487C497.652 597.648 497.174 595.81 498.013 594.381C498.851 592.952 500.69 592.474 502.119 593.313C513.457 599.968 522.695 596.002 525.924 584.478C529.516 571.656 524.419 554.128 510.917 539.003L510.409 538.437C500.903 527.191 488.28 516.07 473.304 505.26C460.865 496.281 447.522 488.023 434.178 480.679L432.328 479.666C428.665 477.674 425.226 475.875 422.068 474.281L420.295 473.393C419.655 473.075 419.054 472.78 418.495 472.507L416.436 471.52C414.933 470.822 414.281 469.038 414.979 467.536Z" fill="#262685"/>
<path fill-rule="evenodd" clip-rule="evenodd" d="M422.442 423.389C422.927 421.867 424.513 421.002 426.041 421.393L426.322 421.477L427.407 421.84L428.529 422.228C429.449 422.55 430.468 422.917 431.579 423.329L433.292 423.972C437.058 425.403 441.17 427.08 445.551 429.006C459.992 435.357 474.434 443.107 487.929 452.31C509.096 466.744 525.932 483.402 536.804 502.41C546.449 519.273 550.532 533.047 549.852 544.09C549.297 553.11 545.614 559.863 539.849 564.527C537.651 566.306 535.303 567.65 532.951 568.627C531.516 569.224 530.366 569.572 529.64 569.731C528.022 570.084 526.423 569.059 526.069 567.44C525.728 565.88 526.669 564.337 528.188 563.912L528.586 563.81C528.671 563.787 528.776 563.757 528.9 563.719C529.42 563.562 530.009 563.352 530.65 563.087C532.499 562.318 534.352 561.257 536.075 559.863C540.569 556.227 543.415 551.009 543.864 543.721C544.462 533.99 540.705 521.317 531.596 505.389C521.229 487.263 505.022 471.228 484.549 457.267C471.384 448.29 457.26 440.71 443.136 434.499C438.523 432.47 434.219 430.726 430.323 429.264L429.494 428.955C428.239 428.49 427.109 428.085 426.114 427.74L425.066 427.382L424.389 427.158C422.81 426.655 421.938 424.968 422.442 423.389Z" fill="#262685"/>
<path fill-rule="evenodd" clip-rule="evenodd" d="M537.344 443.377C538.792 442.573 540.618 443.095 541.423 444.544C552.742 464.931 558.205 481.631 558.733 495.055C559.153 505.754 556.432 513.86 551.58 519.611C549.967 521.522 548.229 523.032 546.476 524.186C545.383 524.905 544.49 525.358 543.9 525.591C542.359 526.198 540.617 525.442 540.009 523.9C539.423 522.414 540.106 520.741 541.537 520.078L541.835 519.95C542.102 519.827 542.569 519.575 543.178 519.174C544.466 518.326 545.769 517.194 546.994 515.742C550.871 511.147 553.099 504.508 552.737 495.29C552.251 482.907 547.074 467.083 536.177 447.456C535.373 446.007 535.895 444.181 537.344 443.377Z" fill="#262685"/>
<path fill-rule="evenodd" clip-rule="evenodd" d="M1363.7 943.4C1365.36 943.4 1366.7 944.743 1366.7 946.4C1366.7 947.998 1365.45 949.304 1363.88 949.395L1363.7 949.4H4.80005C3.14319 949.4 1.80005 948.057 1.80005 946.4C1.80005 944.802 3.04897 943.496 4.62378 943.405L4.80005 943.4H1363.7Z" fill="#262685"/>
</svg>
