<svg width="321" height="215" viewBox="0 0 321 215" fill="none" xmlns="http://www.w3.org/2000/svg">
<path fill-rule="evenodd" clip-rule="evenodd" d="M195.264 22.5198C195.293 22.7731 195.321 23.0544 195.321 23.3076C190.763 23.7859 186.233 26.4587 185.53 27.7529C185.389 28.0343 185.08 28.2031 184.77 28.2031C184.629 28.2031 184.489 28.175 184.376 28.1187C183.954 27.8936 183.814 27.3872 184.039 26.9652C184.995 25.1364 190.003 22.0978 195.152 21.5914C195.18 21.8727 195.236 22.126 195.264 22.3792C195.039 20.3253 194.392 18.0464 193.154 15.5424C193.239 15.6831 193.295 15.8237 193.379 15.9925C190.116 16.9491 186.092 18.7779 183.757 22.1822C183.588 22.4073 183.335 22.548 183.054 22.548C182.885 22.548 182.716 22.4917 182.576 22.4073C182.182 22.1541 182.097 21.6195 182.351 21.2256C184.911 17.5118 189.103 15.5143 192.564 14.4451C192.648 14.6139 192.76 14.7827 192.845 14.9516V14.9516V14.9516C184.151 -1.73245 154.497 12.4194 149.208 29.6942C143.918 46.9691 169.887 50.5141 179.002 42.9739C184.179 38.7256 196.362 33.7175 195.264 22.5198Z" fill="#262685"/>
<path fill-rule="evenodd" clip-rule="evenodd" d="M192.846 14.9795C192.958 15.1764 193.043 15.3734 193.127 15.5703C193.043 15.3734 192.93 15.1764 192.846 14.9795Z" fill="#262685"/>
<path fill-rule="evenodd" clip-rule="evenodd" d="M226.298 9.91552C226.298 10.3938 226.664 10.7596 227.142 10.7596C227.62 10.7596 227.986 10.3938 227.986 9.91552V6.62373H231.278C231.756 6.62373 232.122 6.25798 232.122 5.77968C232.122 5.30139 231.756 4.93564 231.278 4.93564H227.986V1.64385C227.986 1.16556 227.62 0.799805 227.142 0.799805C226.664 0.799805 226.298 1.16556 226.298 1.64385V4.93564H223.006C222.528 4.93564 222.162 5.30139 222.162 5.77968C222.162 6.25798 222.528 6.62373 223.006 6.62373H226.298V9.91552Z" fill="#262685"/>
<path fill-rule="evenodd" clip-rule="evenodd" d="M88.8013 31.8888H85.5095V28.597C85.5095 28.1187 85.1437 27.7529 84.6654 27.7529C84.1871 27.7529 83.8214 28.1187 83.8214 28.597V31.8888H80.5296C80.0513 31.8888 79.6855 32.2545 79.6855 32.7328C79.6855 33.2111 80.0513 33.5769 80.5296 33.5769H83.8214V36.8686C83.8214 37.3469 84.1871 37.7127 84.6654 37.7127C85.1437 37.7127 85.5095 37.3469 85.5095 36.8686V33.5769H88.8013C89.2796 33.5769 89.6453 33.2111 89.6453 32.7328C89.6453 32.2545 89.2514 31.8888 88.8013 31.8888Z" fill="#262685"/>
<path fill-rule="evenodd" clip-rule="evenodd" d="M73.3559 70.7149H70.0642V67.4231C70.0642 66.9449 69.6984 66.5791 69.2201 66.5791C68.7418 66.5791 68.3761 66.9449 68.3761 67.4231V70.7149H65.0843C64.606 70.7149 64.2402 71.0807 64.2402 71.559C64.2402 72.0373 64.606 72.403 65.0843 72.403H68.3761V75.6948C68.3761 76.1731 68.7418 76.5389 69.2201 76.5389C69.6984 76.5389 70.0642 76.1731 70.0642 75.6948V72.403H73.3559C73.8342 72.403 74.2 72.0373 74.2 71.559C74.2 71.0807 73.8061 70.7149 73.3559 70.7149Z" fill="#262685"/>
<path fill-rule="evenodd" clip-rule="evenodd" d="M28.8188 53.2994H25.5271V50.0076C25.5271 49.5293 25.1613 49.1636 24.683 49.1636C24.2047 49.1636 23.839 49.5293 23.839 50.0076V53.2994H20.5472C20.0689 53.2994 19.7031 53.6652 19.7031 54.1435C19.7031 54.6217 20.0689 54.9875 20.5472 54.9875H23.839V58.2793C23.839 58.7576 24.2047 59.1233 24.683 59.1233C25.1613 59.1233 25.5271 58.7576 25.5271 58.2793V54.9875H28.8188C29.2971 54.9875 29.6629 54.6217 29.6629 54.1435C29.6629 53.6652 29.269 53.2994 28.8188 53.2994Z" fill="#262685"/>
<path fill-rule="evenodd" clip-rule="evenodd" d="M51.27 104.224H47.9782V100.932C47.9782 100.454 47.6125 100.088 47.1342 100.088C46.6559 100.088 46.2901 100.454 46.2901 100.932V104.224H42.9983C42.5201 104.224 42.1543 104.589 42.1543 105.068C42.1543 105.546 42.5201 105.912 42.9983 105.912H46.2901V109.204C46.2901 109.682 46.6559 110.048 47.1342 110.048C47.6125 110.048 47.9782 109.682 47.9782 109.204V105.912H51.27C51.7483 105.912 52.1141 105.546 52.1141 105.068C52.1141 104.589 51.7483 104.224 51.27 104.224Z" fill="#262685"/>
<path fill-rule="evenodd" clip-rule="evenodd" d="M9.71532 84.5011H6.42354V81.2093C6.42354 80.731 6.05778 80.3652 5.57949 80.3652C5.1012 80.3652 4.73544 80.731 4.73544 81.2093V84.5011H1.44366C0.965363 84.5011 0.599609 84.8668 0.599609 85.3451C0.599609 85.8234 0.965363 86.1892 1.44366 86.1892H4.73544V89.4809C4.73544 89.9592 5.1012 90.325 5.57949 90.325C6.05778 90.325 6.42354 89.9592 6.42354 89.4809V86.1892H9.71532C10.1936 86.1892 10.5594 85.8234 10.5594 85.3451C10.5594 84.8668 10.1936 84.5011 9.71532 84.5011Z" fill="#262685"/>
<path fill-rule="evenodd" clip-rule="evenodd" d="M269.936 82.504H266.644V79.2122C266.644 78.7339 266.278 78.3682 265.8 78.3682C265.322 78.3682 264.956 78.7339 264.956 79.2122V82.504H261.664C261.186 82.504 260.82 82.8698 260.82 83.348C260.82 83.8263 261.186 84.1921 261.664 84.1921H264.956V87.4839C264.956 87.9622 265.322 88.3279 265.8 88.3279C266.278 88.3279 266.644 87.9622 266.644 87.4839V84.1921H269.936C270.414 84.1921 270.78 83.8263 270.78 83.348C270.78 82.8698 270.386 82.504 269.936 82.504Z" fill="#262685"/>
<path fill-rule="evenodd" clip-rule="evenodd" d="M281.272 119.783H277.98V116.491C277.98 116.013 277.614 115.647 277.136 115.647C276.658 115.647 276.292 116.013 276.292 116.491V119.783H273C272.522 119.783 272.156 120.149 272.156 120.627C272.156 121.105 272.522 121.471 273 121.471H276.292V124.763C276.292 125.241 276.658 125.607 277.136 125.607C277.614 125.607 277.98 125.241 277.98 124.763V121.471H281.272C281.75 121.471 282.116 121.105 282.116 120.627C282.116 120.149 281.75 119.783 281.272 119.783Z" fill="#262685"/>
<path fill-rule="evenodd" clip-rule="evenodd" d="M313.292 81.9692C313.292 82.4475 313.658 82.8133 314.136 82.8133C314.614 82.8133 314.98 82.4475 314.98 81.9692V78.6774H318.272C318.75 78.6774 319.116 78.3117 319.116 77.8334C319.116 77.3551 318.75 76.9893 318.272 76.9893H314.98V73.6976C314.98 73.2193 314.614 72.8535 314.136 72.8535C313.658 72.8535 313.292 73.2193 313.292 73.6976V76.9893H310C309.522 76.9893 309.156 77.3551 309.156 77.8334C309.156 78.3117 309.522 78.6774 310 78.6774H313.292V81.9692Z" fill="#262685"/>
<path fill-rule="evenodd" clip-rule="evenodd" d="M234.063 137.564H230.771V134.272C230.771 133.793 230.405 133.428 229.927 133.428C229.449 133.428 229.083 133.793 229.083 134.272V137.564H225.791C225.313 137.564 224.947 137.929 224.947 138.408C224.947 138.886 225.313 139.252 225.791 139.252H229.083V142.543C229.083 143.022 229.449 143.387 229.927 143.387C230.405 143.387 230.771 143.022 230.771 142.543V139.252H234.063C234.541 139.252 234.907 138.886 234.907 138.408C234.907 137.929 234.541 137.564 234.063 137.564Z" fill="#262685"/>
<path fill-rule="evenodd" clip-rule="evenodd" d="M320.157 137.564H316.865V134.272C316.865 133.793 316.499 133.428 316.021 133.428C315.543 133.428 315.177 133.793 315.177 134.272V137.564H311.885C311.407 137.564 311.041 137.929 311.041 138.408C311.041 138.886 311.407 139.252 311.885 139.252H315.177V142.543C315.177 143.022 315.543 143.387 316.021 143.387C316.499 143.387 316.865 143.022 316.865 142.543V139.252H320.157C320.635 139.252 321.001 138.886 321.001 138.408C321.001 137.929 320.635 137.564 320.157 137.564Z" fill="#262685"/>
<path fill-rule="evenodd" clip-rule="evenodd" d="M97.9757 112.777C89.282 115.9 83.7113 122.174 83.7113 122.174L65.4236 142.656C64.5233 143.753 65.6487 145.301 66.971 144.823L81.1229 142.656C81.1229 142.656 61.9911 165.052 67.59 174.871C73.1888 184.69 104.616 177.009 104.616 177.009L95.9781 188.966C95.1059 190.092 96.2876 191.611 97.5818 191.076L123.213 182.298C123.213 182.298 136.155 175.968 142.401 164.207L97.9757 112.777Z" fill="#FE7624"/>
<path fill-rule="evenodd" clip-rule="evenodd" d="M37.4856 152.334C40.0028 152.334 42.0434 150.294 42.0434 147.777C42.0434 145.259 40.0028 143.219 37.4856 143.219C34.9684 143.219 32.9277 145.259 32.9277 147.777C32.9277 150.294 34.9684 152.334 37.4856 152.334Z" fill="#262685"/>
<path fill-rule="evenodd" clip-rule="evenodd" d="M106.833 122.562C107.272 122.403 107.756 122.63 107.914 123.069C108.066 123.492 107.861 123.957 107.453 124.131L107.407 124.149L42.2461 147.67C41.8076 147.828 41.3239 147.601 41.1656 147.163C41.013 146.74 41.2187 146.275 41.6268 146.101L41.6729 146.082L106.833 122.562Z" fill="#262685"/>
<path fill-rule="evenodd" clip-rule="evenodd" d="M42.97 195.774C45.4872 195.774 47.5278 193.734 47.5278 191.217C47.5278 188.699 45.4872 186.659 42.97 186.659C40.4527 186.659 38.4121 188.699 38.4121 191.217C38.4121 193.734 40.4527 195.774 42.97 195.774Z" fill="#262685"/>
<path fill-rule="evenodd" clip-rule="evenodd" d="M117.361 135.143C117.735 134.864 118.263 134.941 118.542 135.315C118.81 135.674 118.749 136.177 118.412 136.463L118.37 136.496L47.667 189.221C47.2933 189.499 46.7645 189.422 46.4858 189.049C46.2179 188.689 46.2788 188.187 46.6161 187.901L46.6579 187.867L117.361 135.143Z" fill="#262685"/>
<path fill-rule="evenodd" clip-rule="evenodd" d="M88.7454 214.935C91.2626 214.935 93.3032 212.894 93.3032 210.377C93.3032 207.859 91.2626 205.819 88.7454 205.819C86.2281 205.819 84.1875 207.859 84.1875 210.377C84.1875 212.894 86.2281 214.935 88.7454 214.935Z" fill="#262685"/>
<path fill-rule="evenodd" clip-rule="evenodd" d="M128.278 148.741C128.537 148.354 129.062 148.251 129.449 148.51C129.822 148.76 129.931 149.256 129.707 149.638L129.68 149.681L91.4162 206.739C91.1566 207.126 90.6323 207.23 90.2451 206.97C89.8723 206.72 89.7626 206.224 89.9869 205.842L90.0142 205.799L128.278 148.741Z" fill="#262685"/>
<path fill-rule="evenodd" clip-rule="evenodd" d="M271.793 14.8196C272.176 14.555 272.702 14.6517 272.967 15.0354C273.221 15.405 273.141 15.9061 272.792 16.179L272.751 16.2094L262.06 23.5808C261.676 23.8454 261.15 23.7488 260.886 23.365C260.631 22.9954 260.711 22.4943 261.06 22.2214L261.101 22.191L271.793 14.8196Z" fill="#262685"/>
<path fill-rule="evenodd" clip-rule="evenodd" d="M274.523 18.0464C277.04 18.0464 279.081 16.0058 279.081 13.4885C279.081 10.9713 277.04 8.93066 274.523 8.93066C272.005 8.93066 269.965 10.9713 269.965 13.4885C269.965 16.0058 272.005 18.0464 274.523 18.0464Z" fill="#262685"/>
<path fill-rule="evenodd" clip-rule="evenodd" d="M261.501 21.8101C262.158 21.6569 262.713 22.2961 262.487 22.9184L262.469 22.9618L241.65 72.0288C236.167 84.9622 227.903 96.5241 217.442 105.894L217.124 106.177L164.853 152.596C162.068 155.097 157.797 154.889 155.246 152.17L155.169 152.086L152.612 149.279L145.031 166.627C144.789 167.179 144.069 167.304 143.656 166.881L143.619 166.841L95.8176 111.556C95.4071 111.081 95.6414 110.347 96.2368 110.189L96.2859 110.177L113.822 106.566L112.432 105.046C109.76 102.119 110.12 97.5337 113.202 95.0511L113.296 94.9765L145.173 70.1333C145.541 69.8468 146.071 69.9126 146.358 70.2802C146.633 70.6338 146.583 71.1377 146.252 71.4307L146.211 71.4648L114.334 96.3085C111.969 98.1479 111.65 101.599 113.611 103.832L113.679 103.907L116.07 106.524C116.501 106.995 116.271 107.748 115.666 107.908L115.617 107.92L98.0359 111.54L144.02 164.724L151.587 147.41C151.824 146.866 152.529 146.735 152.947 147.141L152.984 147.18L156.417 150.951C158.314 153.039 161.526 153.239 163.652 151.405L216.004 104.914C226.323 95.7542 234.491 84.4321 239.932 71.7543L240.096 71.3697L260.267 23.8309L214.224 34.5674C213.786 34.6695 213.348 34.4107 213.223 33.9851L213.21 33.9371C213.108 33.4993 213.367 33.0617 213.792 32.9361L213.84 32.9234L261.501 21.8101Z" fill="#262685"/>
<path fill-rule="evenodd" clip-rule="evenodd" d="M197.319 77.3552C197.065 77.3552 196.84 77.2427 196.672 77.0457L190.004 69.0835C189.694 68.7178 189.75 68.1832 190.116 67.9019C190.482 67.5924 191.016 67.6487 191.298 68.0144L197.431 75.3295L202.749 70.8842L193.774 60.1648C193.464 59.799 193.52 59.2645 193.886 58.9831C194.252 58.6736 194.787 58.7299 195.068 59.0957L204.578 70.4622C204.718 70.631 204.803 70.856 204.774 71.0811C204.746 71.3062 204.634 71.5032 204.465 71.6438L197.853 77.1864C197.713 77.2989 197.516 77.3552 197.319 77.3552Z" fill="#262685"/>
<path fill-rule="evenodd" clip-rule="evenodd" d="M152.867 94.6866C152.642 94.6866 152.388 94.5741 152.22 94.3772L140.656 80.788C140.403 80.5066 140.375 80.1128 140.6 79.7751C140.797 79.4656 141.191 79.325 141.528 79.4094L143.132 79.8595C143.582 79.9721 143.835 80.4504 143.723 80.9005C143.667 81.0975 143.554 81.2663 143.385 81.3788L152.979 92.6609L158.297 88.2156L154.583 83.7984C154.273 83.4327 154.33 82.8981 154.695 82.6168C155.061 82.3073 155.596 82.3635 155.877 82.7293L160.126 87.7936C160.266 87.9624 160.351 88.1875 160.322 88.4125C160.294 88.6376 160.182 88.8346 160.013 88.9752L153.401 94.5178C153.232 94.6304 153.036 94.6866 152.867 94.6866Z" fill="#262685"/>
<path fill-rule="evenodd" clip-rule="evenodd" d="M148.167 110.555C148.139 110.555 148.111 110.555 148.083 110.555C147.857 110.527 147.661 110.414 147.52 110.245L136.941 97.6126C136.632 97.2469 136.688 96.7123 137.054 96.4309L143.637 90.8884C143.806 90.7477 144.031 90.6633 144.256 90.6914C144.481 90.7196 144.678 90.8321 144.819 91.0009L155.398 103.633C155.707 103.999 155.651 104.534 155.285 104.815L148.673 110.358C148.533 110.47 148.364 110.555 148.167 110.555ZM138.771 97.1622L148.28 108.501L153.598 104.055L144.088 92.7169L138.771 97.1622Z" fill="#262685"/>
<path fill-rule="evenodd" clip-rule="evenodd" d="M212.906 77.3272C212.878 77.3272 212.878 77.3272 212.85 77.3272C212.625 77.2991 212.428 77.2147 212.259 77.0459L201.484 64.5821C201.343 64.4133 201.259 64.1882 201.287 63.9631C201.315 63.738 201.399 63.5411 201.568 63.3723L208.095 57.7453C208.461 57.4358 208.967 57.4921 209.277 57.8297L220.053 70.2935C220.193 70.4623 220.278 70.6874 220.25 70.9124C220.221 71.1375 220.137 71.3345 219.968 71.5033L213.441 77.1303C213.3 77.2428 213.103 77.3272 212.906 77.3272ZM203.313 64.1036L212.991 75.3013L218.224 70.7716L208.546 59.5739L203.313 64.1036Z" fill="#262685"/>
<path fill-rule="evenodd" clip-rule="evenodd" d="M137.927 90.6069C137.617 90.6069 137.336 90.4381 137.195 90.1849C136.97 89.791 137.111 89.2565 137.533 89.0314C138.827 88.2999 140.346 87.1745 140.262 85.8803C140.093 83.939 136.52 82.0539 135.591 81.7163C135.141 81.5756 134.916 81.0973 135.029 80.6753C135.169 80.2252 135.648 79.9719 136.098 80.1126C136.154 80.1408 141.584 82.2509 141.95 85.6833C142.147 87.4558 140.937 89.0877 138.377 90.5225C138.208 90.5788 138.067 90.6069 137.927 90.6069Z" fill="#262685"/>
<path fill-rule="evenodd" clip-rule="evenodd" d="M193.914 57.9983C192.676 61.5152 191.41 63.9629 191.382 64.0192C181.928 81.7442 158.183 85.5424 140.683 78.9588C140.261 78.79 139.754 79.0151 139.585 79.4653C139.417 79.9154 139.642 80.3937 140.092 80.5625C145.55 82.6164 151.571 83.6855 157.62 83.6855C171.744 83.6855 185.952 77.8334 192.873 64.8351C192.901 64.7788 194.42 61.8528 195.771 57.7451L193.914 57.9983Z" fill="#262685"/>
<path fill-rule="evenodd" clip-rule="evenodd" d="M196.307 46.3228L197.995 46.0415C197.995 45.0005 197.967 43.9876 197.826 42.9748C197.798 42.8341 196.166 43.2561 196.166 43.3405C196.279 44.2971 196.307 45.2537 196.307 46.2384C196.307 46.2665 196.307 46.2947 196.307 46.3228Z" fill="#262685"/>
<path fill-rule="evenodd" clip-rule="evenodd" d="M131.651 120.289C131.51 120.289 131.37 120.289 131.229 120.261C129.597 120.036 128.444 118.488 128.669 116.856C128.894 115.225 130.441 114.071 132.073 114.296C133.705 114.521 134.858 116.069 134.633 117.7C134.521 118.488 134.099 119.192 133.452 119.67C132.917 120.092 132.298 120.289 131.651 120.289ZM131.623 115.956C130.976 115.956 130.413 116.434 130.3 117.082C130.188 117.813 130.694 118.488 131.426 118.573C131.763 118.629 132.129 118.545 132.411 118.32C132.692 118.094 132.889 117.785 132.917 117.447C133.03 116.716 132.523 116.041 131.792 115.956C131.763 115.956 131.707 115.956 131.623 115.956Z" fill="#262685"/>
<path fill-rule="evenodd" clip-rule="evenodd" d="M121.413 108.079C121.272 108.079 121.131 108.079 120.991 108.051C119.359 107.826 118.205 106.278 118.43 104.647C118.543 103.859 118.965 103.155 119.612 102.677C120.259 102.199 121.047 102.002 121.835 102.114C123.467 102.339 124.62 103.887 124.395 105.519V105.519C124.282 106.306 123.86 107.01 123.213 107.488C122.679 107.854 122.06 108.079 121.413 108.079ZM121.384 103.746C121.102 103.746 120.821 103.831 120.596 103.999C120.315 104.225 120.118 104.534 120.09 104.872C119.977 105.603 120.483 106.278 121.215 106.363C121.553 106.419 121.918 106.335 122.2 106.11C122.481 105.884 122.678 105.575 122.706 105.237V105.237C122.819 104.506 122.312 103.831 121.581 103.746C121.524 103.746 121.468 103.746 121.384 103.746Z" fill="#262685"/>
<path fill-rule="evenodd" clip-rule="evenodd" d="M144.003 133.344C143.862 133.344 143.721 133.344 143.581 133.315C142.793 133.203 142.089 132.781 141.611 132.134C141.133 131.487 140.936 130.699 141.048 129.911C141.161 129.123 141.583 128.42 142.23 127.942C142.877 127.463 143.665 127.266 144.453 127.379C145.241 127.492 145.944 127.914 146.422 128.561C146.901 129.208 147.097 129.996 146.985 130.783V130.783C146.76 132.246 145.466 133.344 144.003 133.344ZM144.002 129.011C143.355 129.011 142.793 129.489 142.68 130.136C142.624 130.474 142.708 130.84 142.933 131.121C143.158 131.402 143.468 131.599 143.805 131.628C144.537 131.74 145.212 131.234 145.297 130.502V130.502C145.353 130.165 145.268 129.799 145.043 129.517C144.818 129.236 144.509 129.039 144.171 129.011C144.115 129.011 144.059 129.011 144.002 129.011Z" fill="#262685"/>
<path fill-rule="evenodd" clip-rule="evenodd" d="M156.495 146.313C156.354 146.313 156.213 146.313 156.073 146.285C154.441 146.06 153.287 144.513 153.512 142.881C153.738 141.249 155.285 140.095 156.917 140.321C158.549 140.546 159.702 142.093 159.477 143.725V143.725C159.365 144.513 158.942 145.216 158.295 145.694C157.761 146.116 157.142 146.313 156.495 146.313ZM156.494 141.981C155.847 141.981 155.284 142.459 155.171 143.106C155.059 143.838 155.565 144.513 156.297 144.597C156.634 144.653 157 144.569 157.282 144.344C157.563 144.119 157.76 143.809 157.788 143.472V143.472C157.9 142.74 157.394 142.065 156.663 141.981C156.606 141.981 156.55 141.981 156.494 141.981Z" fill="#262685"/>
<path fill-rule="evenodd" clip-rule="evenodd" d="M184.32 121.47C184.095 121.47 183.842 121.358 183.701 121.189L176.077 112.692C175.852 112.467 175.795 112.129 175.908 111.82C176.02 111.51 176.302 111.313 176.611 111.285L183.42 110.694C184.883 102.451 191.804 101.129 195.912 101.072C197.065 101.072 198.106 101.579 198.782 102.507C199.457 103.436 199.654 104.645 199.288 105.743C196.165 114.971 189.188 115.168 186.796 114.971L185.136 120.879C185.052 121.189 184.827 121.414 184.517 121.47C184.433 121.47 184.376 121.47 184.32 121.47ZM178.44 112.833L183.898 118.938L185.333 113.817C185.445 113.395 185.895 113.114 186.346 113.227C186.683 113.311 194.392 114.887 197.656 105.208C197.853 104.617 197.768 103.998 197.403 103.52C197.037 103.042 196.53 102.76 195.911 102.76C191.466 102.817 185.952 104.392 184.995 111.595C184.939 111.989 184.629 112.298 184.235 112.326L178.44 112.833Z" fill="#262685"/>
<path fill-rule="evenodd" clip-rule="evenodd" d="M211.47 101.354C211.245 101.326 211.02 101.41 210.851 101.551L204.239 107.094C203.874 107.403 203.845 107.938 204.127 108.275L208.122 113.058L209.388 111.933L205.956 107.825L211.273 103.38L214.593 107.319L215.859 106.193L212.033 101.635C211.892 101.467 211.695 101.354 211.47 101.354Z" fill="#262685"/>
<path fill-rule="evenodd" clip-rule="evenodd" d="M217.491 90.8879L210.879 96.4305C210.711 96.5712 210.598 96.7681 210.57 96.9932C210.542 97.2183 210.626 97.4433 210.767 97.6121L217.041 105.124C217.463 104.758 217.885 104.365 218.279 103.971L212.596 97.1901L217.913 92.7448L223.202 99.047C223.596 98.625 223.962 98.203 224.356 97.781L218.673 91.0004C218.391 90.6347 217.857 90.5784 217.491 90.8879Z" fill="#262685"/>
<path fill-rule="evenodd" clip-rule="evenodd" d="M179.538 127.661C179.313 127.633 179.088 127.717 178.919 127.858L172.308 133.4C171.942 133.71 171.914 134.244 172.195 134.582L177.175 140.518L178.441 139.393L174.024 134.132L179.341 129.686L183.618 134.807L184.884 133.682L180.101 127.97C179.96 127.801 179.763 127.689 179.538 127.661Z" fill="#262685"/>
<path fill-rule="evenodd" clip-rule="evenodd" d="M166.594 131.515C166.285 131.149 165.75 131.121 165.412 131.403L158.801 136.945L160.32 137.874L165.835 133.26L174.162 143.219L175.429 142.094L166.594 131.515Z" fill="#262685"/>
<path fill-rule="evenodd" clip-rule="evenodd" d="M209.472 38.332L207.896 38.9791C215.155 50.4582 226.1 65.4822 238.957 75.8921C239.211 75.3576 239.464 74.8511 239.689 74.3166C227.253 64.1599 216.618 49.586 209.472 38.332Z" fill="#262685"/>
<path fill-rule="evenodd" clip-rule="evenodd" d="M214.368 34.8716L213.496 36.6159C220.361 46.9415 230.293 59.9961 241.744 69.3087C241.772 69.3368 241.828 69.365 241.856 69.3931L242.531 67.7894C231.08 58.3642 221.121 45.1408 214.368 34.8716Z" fill="#262685"/>
<path fill-rule="evenodd" clip-rule="evenodd" d="M152.809 147.046L115.868 106.391L113.955 106.785L152.05 148.734L152.809 147.046Z" fill="#262685"/>
<path fill-rule="evenodd" clip-rule="evenodd" d="M116.768 93.3359L168.058 148.649L169.324 147.524L118.118 92.2949L116.768 93.3359Z" fill="#262685"/>
<path fill-rule="evenodd" clip-rule="evenodd" d="M130.639 93.5049C133.593 93.5049 137.054 92.3795 140.655 88.8626C140.992 88.525 140.992 87.9904 140.655 87.6809C140.317 87.3433 139.783 87.3433 139.473 87.6809C130.808 96.1496 123.352 89.1721 123.042 88.8907L122.817 88.6657L121.467 89.7067C122.001 90.1568 125.828 93.5049 130.639 93.5049Z" fill="#262685"/>
<path fill-rule="evenodd" clip-rule="evenodd" d="M194.968 35.4658C192.249 36.3346 189.466 37.2881 186.758 38.2621L185.977 38.5439C185.553 38.698 185.144 38.8477 184.752 38.9923L183.637 39.407L182.836 39.7099C182.769 39.7353 182.706 39.7691 182.648 39.8104C182.085 40.2113 181.567 40.6256 181.092 41.0525C179.298 42.6673 178.173 44.4134 177.604 46.2025C177.227 47.3861 177.132 48.4281 177.2 49.3219L177.21 49.4377C177.214 49.4842 177.218 49.5232 177.223 49.5646L177.23 49.6271C177.253 50.0363 177.556 50.4297 178.074 50.4297L178.222 50.4097C178.263 50.4036 178.295 50.3976 178.324 50.3901L178.355 50.3805L178.356 50.3811L211.808 38.5081L211.849 38.4926C212.673 38.1517 214.219 36.8865 214.846 35.8141C215.985 33.8661 214.786 32.3526 211.53 31.9626L211.418 31.9498C208.518 31.6418 202.734 32.9847 194.968 35.4658ZM211.241 33.6287L211.237 33.6283C212.533 33.7716 213.266 34.0488 213.503 34.3401C213.598 34.4568 213.587 34.6259 213.39 34.9623C213.159 35.3574 212.73 35.8137 212.2 36.2468L212.142 36.2942C211.79 36.576 211.426 36.8205 211.255 36.909L211.216 36.9274L178.882 48.4034L178.886 48.3389C178.924 47.8487 179.025 47.307 179.214 46.7147C179.692 45.211 180.652 43.7214 182.223 42.3076L182.385 42.1643C182.712 41.8784 183.063 41.5978 183.439 41.323L183.544 41.247L184.368 40.9365L185.106 40.6618C185.795 40.407 186.539 40.1353 187.33 39.8509C190.021 38.8832 192.785 37.9362 195.483 37.074L196.375 36.7915C203.44 34.5726 208.776 33.3669 211.241 33.6287Z" fill="#262685"/>
<path fill-rule="evenodd" clip-rule="evenodd" d="M171.937 2.47723C179.191 0.973663 185.318 2.14994 190.316 5.44413C194.087 7.93009 196.96 11.459 198.834 15.225C200.446 18.4897 200.864 22.1011 200.293 25.7656C199.853 28.5956 198.82 31.3303 197.608 33.2503L195.385 36.7591C195.135 37.1524 194.613 37.2683 194.22 37.0181C193.826 36.7678 193.71 36.2461 193.961 35.8528L196.103 32.4704C197.227 30.738 198.211 28.1664 198.625 25.506C199.145 22.1664 198.768 18.9037 197.321 15.9746C195.573 12.46 192.887 9.1605 189.387 6.85358C184.763 3.80619 179.094 2.71776 172.281 4.13006L171.582 4.27665C160.342 6.65342 151.958 9.37336 145.122 13.5276C135.908 19.1277 131.251 26.6264 132.07 36.632C132.806 45.7604 136.035 50.6683 140.932 52.4339C143.424 53.3326 146.112 53.3358 148.632 52.7958C148.945 52.7287 149.23 52.6578 149.484 52.5867L149.71 52.5208C149.82 52.4876 149.896 52.4625 149.936 52.4484C150.552 52.228 151.167 52.762 151.05 53.3946L151.04 53.4399L146.096 74.0678L146.145 74.1047C148.911 76.1441 156.171 76.6235 163.655 75.0408L163.893 74.9896C173.127 72.9838 180.718 68.4366 184.167 62.0425C184.389 61.6323 184.901 61.4791 185.311 61.7005C185.721 61.9218 185.874 62.4338 185.653 62.8441C181.933 69.7399 173.922 74.5385 164.252 76.6392C155.784 78.4787 147.512 77.8295 144.568 74.9789C144.367 74.7843 144.277 74.5037 144.323 74.2303L144.335 74.1758L149.067 54.4285L148.986 54.4464C146.244 55.0341 143.319 55.0432 140.54 54.0857L140.359 54.0219C134.791 52.0143 131.173 46.5153 130.387 36.7687C129.511 26.0656 134.525 17.9929 144.246 12.085C151.428 7.72013 160.17 4.92545 171.937 2.47723Z" fill="#262685"/>
<path fill-rule="evenodd" clip-rule="evenodd" d="M189.106 45.5016C189.232 45.053 189.699 44.792 190.147 44.9187C190.58 45.0408 190.838 45.4788 190.742 45.9122L190.73 45.9603L190.055 48.3518C189.928 48.8004 189.462 49.0614 189.013 48.9347C188.581 48.8126 188.323 48.3746 188.418 47.9412L188.43 47.8931L189.106 45.5016Z" fill="#262685"/>
<path fill-rule="evenodd" clip-rule="evenodd" d="M137.981 89.3968C139.782 87.9901 140.654 85.9925 140.851 84.1919C141.526 77.749 138.769 66.3825 128.865 61.1775C117.105 54.9878 107.595 59.208 102.953 70.0963C98.3109 81.0126 107.033 84.7827 116.514 71.3905C116.514 71.3905 120.706 64.9476 124.786 69.6742C128.865 74.3728 118.624 85.5705 123.886 90.0439C128.275 93.7577 135.618 91.2256 137.981 89.3968Z" fill="#FE7624"/>
<path fill-rule="evenodd" clip-rule="evenodd" d="M185.531 27.7814C185.39 28.0627 185.081 28.2315 184.771 28.2315C184.63 28.2315 184.49 28.2034 184.377 28.1471C183.955 27.922 183.815 27.4156 184.04 26.9936C184.659 25.8401 186.909 24.1801 189.807 22.9984C189.216 21.451 188.372 20.0161 187.331 18.7219C185.953 19.6504 184.687 20.7758 183.702 22.2107C183.533 22.4357 183.28 22.5764 182.999 22.5764C182.83 22.5764 182.661 22.5201 182.52 22.4357C182.126 22.1825 182.042 21.648 182.295 21.2541C183.364 19.7067 184.715 18.4406 186.178 17.4277C181.311 12.3072 173.827 9.54995 171.041 9.12793C161.391 12.476 151.938 20.6632 149.152 29.7227C143.863 46.9694 166.371 49.1076 178.947 43.0024C181.254 41.1173 184.912 39.0635 188.204 36.4188C189.16 34.7307 189.807 33.0426 190.117 31.3826C190.764 28.9349 190.764 26.6841 190.257 24.6303C187.866 25.6431 185.953 26.9655 185.531 27.7814Z" fill="#FE7624"/>
<path fill-rule="evenodd" clip-rule="evenodd" d="M167.137 27.9351C167.902 27.6288 168.132 26.41 167.652 25.2129C167.173 24.0158 166.164 23.2937 165.4 23.6001C164.635 23.9064 164.405 25.1252 164.884 26.3223C165.364 27.5194 166.373 28.2415 167.137 27.9351Z" fill="#262685"/>
<path fill-rule="evenodd" clip-rule="evenodd" d="M178.08 23.8321C178.845 23.5258 179.076 22.307 178.596 21.1099C178.116 19.9128 177.107 19.1907 176.343 19.497C175.579 19.8034 175.348 21.0222 175.828 22.2193C176.307 23.4164 177.316 24.1385 178.08 23.8321Z" fill="#262685"/>
<path fill-rule="evenodd" clip-rule="evenodd" d="M177.035 26.0371L175.938 28.4567C175.769 28.7943 175.347 28.9631 175.01 28.7943L172.759 27.8096C172.224 27.5845 172.224 26.8249 172.787 26.5998L176.135 25.1931C176.698 24.9398 177.289 25.4744 177.035 26.0371Z" fill="#262685"/>
<path fill-rule="evenodd" clip-rule="evenodd" d="M175.052 27.0574C175.483 26.88 175.977 27.0855 176.154 27.5166C176.407 28.1313 177.145 29.0844 177.731 29.5206L177.785 29.5595L177.788 29.5182C177.79 29.4802 177.792 29.4395 177.793 29.3961L177.793 29.3291C177.793 28.8629 178.171 28.485 178.637 28.485C179.103 28.485 179.481 28.8629 179.481 29.3291C179.481 30.3136 179.212 31.0093 178.531 31.2892C177.936 31.5341 177.336 31.3312 176.723 30.8749C175.89 30.2552 174.962 29.0557 174.593 28.1593C174.416 27.7282 174.621 27.2349 175.052 27.0574Z" fill="#262685"/>
<path fill-rule="evenodd" clip-rule="evenodd" d="M175.109 27.0296C175.54 26.8521 176.033 27.0577 176.211 27.4887C176.608 28.4534 176.95 30.0421 176.907 31.0468C176.869 31.9239 176.572 32.5832 175.79 32.7437C175.101 32.8852 174.415 32.4895 173.568 31.6424C173.238 31.3128 173.238 30.7784 173.568 30.4488C173.897 30.1192 174.432 30.1192 174.761 30.4488C174.918 30.6052 175.059 30.7337 175.183 30.8346L175.222 30.8655L175.222 30.7782C175.204 30.0525 174.959 28.9306 174.689 28.2288L174.65 28.1315C174.472 27.7004 174.678 27.2071 175.109 27.0296Z" fill="#262685"/>
<path fill-rule="evenodd" clip-rule="evenodd" d="M161.475 30.7078C158.661 29.301 153.288 29.498 148.645 32.0864C148.533 32.8179 148.477 33.4931 148.477 34.1683C152.781 31.3267 158.127 30.9328 160.687 32.227C161.109 32.424 161.616 32.2833 161.813 31.8613C162.066 31.4111 161.897 30.9047 161.475 30.7078Z" fill="#262685"/>
<path fill-rule="evenodd" clip-rule="evenodd" d="M162.122 33.3244C158.098 33.0431 152.893 34.2529 149.32 38.248C149.545 38.8107 149.855 39.3453 150.164 39.8517C154.244 34.7874 160.687 34.9281 162.009 35.0125C162.487 35.0407 162.881 34.703 162.909 34.2248C162.938 33.7465 162.6 33.3526 162.122 33.3244Z" fill="#262685"/>
<path fill-rule="evenodd" clip-rule="evenodd" d="M169.44 8.83111C159.719 12.6635 151.194 20.7515 148.481 29.2184L148.401 29.4736C145.819 37.8475 149.256 43.605 156.832 45.8817C163.272 47.817 172.026 46.8979 178.421 43.7301L179.293 43.298C182.168 41.8684 183.565 41.1156 185.43 39.9344L185.538 39.8658C189.888 37.1002 193.045 34.0193 194.775 30.3329C196.933 25.7337 196.672 20.4977 193.593 14.5895C189.336 6.41939 179.933 4.69424 169.44 8.83111ZM192.096 15.3695C194.94 20.8258 195.173 25.5105 193.247 29.6156C191.676 32.9633 188.736 35.8321 184.633 38.4412L184.22 38.7016C182.425 39.8221 180.976 40.5828 177.851 42.1287L177.672 42.217C171.65 45.2003 163.335 46.0732 157.318 44.265C150.673 42.2682 147.778 37.5091 149.947 30.1918L150.015 29.9693C152.473 21.9422 160.688 14.0962 170.059 10.4015C179.838 6.54641 188.309 8.10058 192.096 15.3695Z" fill="#262685"/>
<path fill-rule="evenodd" clip-rule="evenodd" d="M208.393 42.3574L208.225 42.4218C206.594 43.0289 200.306 44.6303 190.856 46.8865L188.444 47.4604C182.757 48.809 176.715 50.2116 171.443 51.4194L170.881 51.548C169.723 51.7983 168.625 52.3033 167.686 53.0233L167.552 53.1313L167.232 53.3791C167.194 53.4096 167.161 53.4365 167.125 53.4667C159.615 59.7869 167.383 71.6536 176.217 67.4246L180.144 65.5312C192.641 59.5148 200.689 55.7385 203.514 54.6364L203.697 54.5662C206.666 53.4338 209.238 50.5199 210.529 47.347C211.111 45.9184 211.345 44.6061 211.136 43.6671C210.847 42.3715 209.75 41.8542 208.393 42.3574ZM209.488 44.0343C209.608 44.572 209.43 45.5706 208.966 46.7103C207.855 49.4383 205.652 51.9589 203.217 52.9411L203.097 52.9882L202.91 53.06C199.734 54.2982 190.316 58.7421 175.485 65.9031C168.434 69.2789 162.226 59.7957 168.208 54.7608L168.288 54.6959L168.632 54.4291L168.713 54.3629C169.414 53.8252 170.231 53.4383 171.102 53.2289L174.708 52.4012C179.441 51.3113 184.586 50.1118 189.442 48.9584L192.691 48.183C201.568 46.0537 207.31 44.5799 208.889 43.975L209.079 43.9013C209.414 43.7751 209.438 43.8083 209.488 44.0343Z" fill="#262685"/>
<path fill-rule="evenodd" clip-rule="evenodd" d="M148.111 17.9059C152.106 12.8697 156.804 10.422 160.096 9.24031C148.814 6.98952 140.683 6.31428 140.148 11.3223C140.767 13.2917 145.916 16.5835 148.111 17.9059Z" fill="#FE7624"/>
<path fill-rule="evenodd" clip-rule="evenodd" d="M150.164 15.5987C150.642 15.1204 151.093 14.6984 151.571 14.2764C145.747 12.6445 144.481 9.43715 144.425 9.24021C144.284 8.79005 143.806 8.56497 143.355 8.73378C142.905 8.87446 142.68 9.35275 142.821 9.80291C142.877 9.97172 144.2 13.6011 150.164 15.5987Z" fill="#262685"/>
<path fill-rule="evenodd" clip-rule="evenodd" d="M141.78 31.4389C143.102 25.9807 145.184 21.7886 147.548 18.6094C135.365 18.7782 125.321 18.7219 126.503 26.0933C128.754 31.8609 141.414 32.086 141.414 32.086L141.78 31.4389Z" fill="#FE7624"/>
<path fill-rule="evenodd" clip-rule="evenodd" d="M142.822 27.8372C134.297 29.5253 128.755 24.2078 128.501 23.9827C128.164 23.6451 127.629 23.6451 127.32 23.9827C126.982 24.3203 126.982 24.8549 127.32 25.1644C127.545 25.3895 132.159 29.8629 139.474 29.8629C140.346 29.8629 141.275 29.8066 142.259 29.6378C142.456 29.047 142.625 28.428 142.822 27.8372Z" fill="#262685"/>
</svg>
